<?xml version="1.0" standalone="no"?>
<!DOCTYPE svg PUBLIC "-//W3C//DTD SVG 1.1//EN" "http://www.w3.org/Graphics/SVG/1.1/DTD/svg11.dtd">
<svg xmlns="http://www.w3.org/2000/svg"><metadata>This SVG WebFont was generated by YouWorkForThem.
Copyright (c)2016, Radnika designed by Alfredo Marco Pradil (ammpradil@gmail.com). Radnika is a trademark of Alfredo Marco Pradil.</metadata><defs><font horiz-adv-x="1320" id="ywftsvg"><font-face ascent="1638" bbox="-1442 -504 2333 2142" cap-height="1413" descent="-410" font-family="" font-stretch="normal" font-weight="300" panose-1="0 0 4 0 0 0 0 0 0 0" underline-position="0" underline-thickness="0" unicode-range="U+0020-FB02" units-per-em="2048" x-height="1049"/><missing-glyph d="M-66 0l211 999h820l-211 -999h-820zM57 102h615l170 795h-615z" horiz-adv-x="911"/><glyph d="M1010 1049l-222 -1049h-122l198 942h-438l-199 -942h-125l199 942h-182l22 107h183l28 127q23 113 114 175t196 62h112l-24 -119h-103q-70 0 -116 -35.5t-58 -95.5l-24 -114h561zM965 1413h122l-40 -188h-123z" glyph-name="uniFB01" horiz-adv-x="1091" unicode="fi"/><glyph d="M102 0l199 942h-182l22 107h183l28 127q23 113 114 175t196 62h131l-23 -119h-123q-70 0 -116 -35.5t-58 -95.5l-24 -114h266l-21 -107h-268l-199 -942h-125zM668 0l299 1413h120l-299 -1413h-120z" glyph-name="uniFB02" horiz-adv-x="1079" unicode="fl"/><glyph d="M1235 1303q-80 0 -141.5 -51.5t-77.5 -133.5l-17 -69h287l-22 -109h-287l-199 -940h-123l199 940h-422l-199 -940h-122l198 940h-190l22 109h191l16 71q29 137 125 215t234 78h112l-22 -110h-107q-80 0 -141.5 -51.5t-77.5 -133.5l-16 -69h422l16 71q29 137 125 215 t233 78h113l-23 -110h-106z" glyph-name="f_f.liga" horiz-adv-x="1202" unicode="ff"/><glyph d="M111 0l198 940h-190l22 109h191l16 71q29 137 125 215t234 78h112l-22 -110h-107q-80 0 -141.5 -51.5t-77.5 -133.5l-16 -69h448l15 71q29 137 125 215t233 78h113l-21 -110h-106q-80 0 -141.5 -51.5t-78.5 -133.5l-18 -69h578l-222 -1049h-123l199 940h-452l-201 -940 h-121l199 940h-449l-199 -940h-122zM1516 1225l40 188h123l-41 -188h-122z" glyph-name="f_f_i.liga" horiz-adv-x="1681" unicode="ffi"/><glyph d="M1255 1049l-22 -109h-287l-198 -940h-123l198 940h-391l-199 -940h-122l198 940h-190l22 109h191l16 71q29 137 125 215t234 78h112l-22 -110h-107q-80 0 -141.5 -51.5t-77.5 -133.5l-16 -69h391l16 71q29 137 125 215t234 78h112l-22 -110h-107q-80 0 -141.5 -51.5 t-77.5 -133.5l-16 -69h286zM1450 1413h121l-299 -1413h-121z" glyph-name="f_f_l.liga" horiz-adv-x="1560" unicode="ffl"/><glyph d="M-66 0l211 999h820l-211 -999h-820zM57 102h615l170 795h-615z" glyph-name=".notdef" horiz-adv-x="911"/><glyph glyph-name="glyph1" horiz-adv-x="0"/><glyph glyph-name="glyph2" horiz-adv-x="681"/><glyph glyph-name="space" horiz-adv-x="468" unicode=" "/><glyph d="M178 369l193 1044h151l-250 -1044h-94zM59 0l37 172h174l-34 -172h-177z" glyph-name="exclam" horiz-adv-x="516" unicode="!"/><glyph d="M221 874l113 539h115l-115 -539h-113zM508 874l115 539h110l-115 -539h-110z" glyph-name="quotedbl" horiz-adv-x="688" unicode="&quot;"/><glyph d="M111 0l186 449h-242l21 90h260l147 356h-252l21 88h268l182 430h101l-176 -416h338l176 416h100l-176 -426h240l-19 -92h-262l-145 -356h249l-20 -86h-268l-189 -453h-102l186 436h-340l-182 -436h-102zM438 539h338l148 356h-340z" glyph-name="numbersign" horiz-adv-x="1277" unicode="#"/><glyph d="M711 1311q-117 0 -205 -64.5t-113 -169.5q-10 -51 2.5 -91t57.5 -77t74.5 -54t101.5 -56q18 -10 26 -15q82 -37 132.5 -66.5t104.5 -78.5t71.5 -118.5t-0.5 -160.5q-33 -166 -176.5 -271t-329.5 -105q-27 0 -72 4l-43 -115l-121 43l39 107q-203 90 -233 331l125 45 q29 -205 182 -266l14 -6q55 -18 121 -18q137 0 237.5 69.5t124.5 192.5q6 29 6.5 54.5t-4 47t-17.5 42t-23.5 35.5t-33 33.5t-37.5 29t-45 27.5t-45.5 25.5t-49.5 24.5q-33 14 -54.5 23.5t-52.5 24t-50 26.5t-45 29.5t-42 35t-33.5 39t-27 46t-15.5 52t-6 60.5t8 70 q33 152 158 245t295 93q39 0 57 -4l43 116l121 -43l-39 -106q117 -53 182 -183l-96 -69q-92 166 -274 166z" glyph-name="dollar" horiz-adv-x="1071" unicode="$"/><glyph d="M410 805q-92 0 -142.5 54t-53.5 127t7 147q16 72 48 135t98.5 115.5t152.5 52.5q121 0 169 -99.5t20 -230.5q-25 -121 -105.5 -211t-193.5 -90zM188 2l1055 1409h135l-1052 -1409h-138zM408 905q70 0 124 72t70 160q18 76 -2 134t-84 58q-70 0 -121 -67.5t-71 -157.5 q-16 -78 2.5 -138.5t81.5 -60.5zM1067 2q-92 0 -142.5 54.5t-53.5 127t8 146.5q25 115 99.5 208t195.5 93q125 0 173 -98.5t19 -231.5q-25 -121 -105.5 -210t-193.5 -89zM1067 104q68 0 120 70t70 158q18 80 -1 138t-85 58q-68 0 -120 -68.5t-70 -158.5q-8 -47 -7 -91 t24.5 -75t68.5 -31z" glyph-name="percent" horiz-adv-x="1505" unicode="%"/><glyph d="M1309 741l-336 -424l229 -317h-180l-148 199q-106 -115 -215.5 -169.5t-248.5 -54.5q-182 0 -284.5 110t-62.5 294q57 266 408 399q-2 2 -15.5 22.5t-17.5 28t-16 29t-17.5 34.5t-14.5 35.5t-12 41t-6 42t-2 48t7 49.5q29 147 140.5 232t250.5 85q141 0 216 -90t42 -245 q-43 -199 -375 -353l246 -327l311 393zM500 1087q-12 -61 15.5 -134.5t68.5 -127.5q291 129 327 297q18 86 -22.5 143.5t-122.5 57.5q-92 0 -167.5 -66t-98.5 -170zM414 84q113 0 203 53t186 166l-279 379q-141 -57 -225 -136t-109 -200q-25 -113 45 -187.5t179 -74.5z" glyph-name="ampersand" unicode="&amp;"/><glyph d="M227 903l113 539h115l-115 -539h-113z" glyph-name="quotesingle" horiz-adv-x="405" unicode="'"/><glyph d="M240 -274q-141 346 -31 913q43 217 137 453.5t227 412.5h109q-289 -412 -379 -882q-94 -487 23 -897h-86z" glyph-name="parenleft" horiz-adv-x="626" unicode="("/><glyph d="M-31 -274q293 420 391 913q96 473 -12 866h90q45 -121 58.5 -283.5t2 -311t-41.5 -296.5q-47 -229 -144.5 -468.5t-240.5 -419.5h-103z" glyph-name="parenright" horiz-adv-x="624" unicode=")"/><glyph d="M342 928l59 188l-174 -108l-34 82l184 81l-152 80l66 84l131 -110l24 188h95l-56 -188l177 110l30 -84l-184 -80l151 -81l-61 -82l-133 108l-27 -188h-96z" glyph-name="asterisk" horiz-adv-x="610" unicode="*"/><glyph d="M487 0l97 461h-449l27 114h448l97 461h116l-96 -461h447l-27 -114h-447l-96 -461h-117z" glyph-name="plus" horiz-adv-x="1310" unicode="+"/><glyph d="M74 193h186l-41 -193l-178 -313h-90l149 313h-65z" glyph-name="comma" horiz-adv-x="534" unicode=","/><glyph d="M184 461l25 114h733l-27 -114h-731z" glyph-name="hyphen" horiz-adv-x="1126" unicode="-"/><glyph d="M14 0l41 193h187l-41 -193h-187z" glyph-name="period" horiz-adv-x="411" unicode="."/><glyph d="M-63 -156l935 1569h136l-940 -1569h-131z" glyph-name="slash" horiz-adv-x="899" unicode="/"/><glyph d="M444 -20q-139 0 -224 67.5t-110.5 183t-22.5 235.5t32 255q23 102 53.5 194.5t81.5 190.5t114.5 169t154.5 116t198 45q123 0 204 -62.5t113.5 -170t31.5 -237.5t-32 -278q-41 -188 -115.5 -343t-200.5 -260t-278 -105zM446 102q80 0 151 42t118 104.5t88 149.5t63.5 164 t40.5 161q125 586 -192 586q-342 0 -475 -617q-124 -590 206 -590z" glyph-name="zero" horiz-adv-x="1081" unicode="0"/><glyph d="M303 0l270 1266l-372 -191l26 137l394 201h112l-299 -1413h-131z" glyph-name="one" horiz-adv-x="770" unicode="1"/><glyph d="M2 0l31 145q33 156 130 268.5t215 177t234.5 122t207.5 141.5t116 198.5t-32.5 189.5t-174.5 75q-137 0 -243.5 -100.5t-131.5 -260.5l-127 23q45 211 181.5 332t320.5 121q186 0 278.5 -116t55.5 -294q-29 -129 -123 -226.5t-213 -159t-236.5 -119.5t-209 -144 t-115.5 -201l-12 -57h745l-25 -115h-872z" glyph-name="two" horiz-adv-x="1077" unicode="2"/><glyph d="M444 -20q-209 0 -322.5 109.5t-70.5 303.5l121 2q-31 -143 52 -223t225 -80q147 0 274 86t158 236q31 135 -49 204.5t-222 69.5h-112l24 123h105q115 0 203 70.5t112 193.5q25 111 -43 177.5t-194 66.5q-131 0 -235.5 -74t-131.5 -194l-113 28q35 166 168 260.5t318 94.5 q188 0 287.5 -100.5t62.5 -272.5q-25 -111 -104.5 -194t-174.5 -103l-4 -19q129 -23 186.5 -115.5t28.5 -246.5q-41 -195 -192.5 -299t-356.5 -104z" glyph-name="three" horiz-adv-x="1103" unicode="3"/><glyph d="M827 506h244l-24 -115h-244l-82 -391h-123l82 391h-647l18 94l846 928h123zM705 506l155 729l-653 -729h498z" glyph-name="four" horiz-adv-x="1079" unicode="4"/><glyph d="M1124 1298h-571l-191 -497l3 4q47 47 133 77.5t157 30.5q199 0 297.5 -135t53.5 -342q-43 -199 -197 -327.5t-354 -128.5q-162 0 -268.5 114.5t-102.5 286.5l117 25q-2 -139 72.5 -229.5t187.5 -90.5q145 0 262 107.5t151 273.5q31 145 -36.5 240.5t-202.5 95.5 q-86 0 -182.5 -49t-153.5 -121l-96 67l272 713h674z" glyph-name="five" horiz-adv-x="1077" unicode="5"/><glyph d="M434 -18q-211 0 -308 151.5t-30 472.5q20 96 40 171t55.5 179.5t84 181t114 148.5t157.5 110t203 38q317 0 368 -304l-119 -32q-35 211 -249 211q-90 0 -169 -42t-130.5 -102.5t-93.5 -141.5t-63.5 -142.5t-35.5 -122.5q135 150 360 149q209 0 308.5 -131t52.5 -344 q-37 -182 -194.5 -316t-350.5 -134zM440 96q150 0 268.5 102.5t151.5 260.5q31 147 -38.5 239.5t-213.5 92.5q-152 0 -265.5 -97.5t-145.5 -257.5q-31 -147 35.5 -243.5t207.5 -96.5z" glyph-name="six" horiz-adv-x="1077" unicode="6"/><glyph d="M164 0q119 385 285.5 708.5t443.5 589.5h-694l24 115h830l-25 -131q-285 -272 -452.5 -588.5t-278.5 -693.5h-133z" glyph-name="seven" horiz-adv-x="901" unicode="7"/><glyph d="M438 -20q-207 0 -317.5 118.5t-71.5 298.5q29 129 128 231.5t224 129.5l15 10q-86 33 -128 124t-20 202q33 147 162 243.5t297 96.5q176 0 269.5 -104.5t58.5 -264.5q-23 -102 -97.5 -187t-171.5 -114l-14 -10q117 -33 176.5 -141.5t30.5 -243.5q-37 -170 -189.5 -279.5 t-351.5 -109.5zM598 799q121 0 216 78.5t122 197.5q23 109 -34.5 178.5t-170.5 69.5q-125 0 -220 -77t-120 -193q-27 -111 32.5 -182.5t174.5 -71.5zM438 84q150 0 268.5 92t149.5 232q29 127 -47 210.5t-219 83.5q-150 0 -269.5 -91t-148.5 -230q-29 -129 47 -213t219 -84z " glyph-name="eight" horiz-adv-x="1087" unicode="8"/><glyph d="M723 1432q211 0 308 -152t30 -473q-20 -96 -40 -171t-55.5 -179.5t-83.5 -181t-114 -148.5t-158 -109.5t-202 -37.5q-317 0 -369 303l119 32q35 -211 250 -211q90 0 168.5 42t130 102.5t93.5 141.5t63.5 142.5t35.5 122.5q-135 -150 -360 -149q-209 0 -308.5 131 t-52.5 344q37 182 194.5 316.5t350.5 134.5zM717 1317q-150 0 -268.5 -102.5t-151.5 -260.5q-31 -147 39 -239t213 -92q152 0 265.5 97t146.5 257q31 147 -36 243.5t-208 96.5z" glyph-name="nine" horiz-adv-x="1077" unicode="9"/><glyph d="M184 778l39 193h187l-41 -193h-185zM18 0l41 193h187l-41 -193h-187z" glyph-name="colon" horiz-adv-x="446" unicode=":"/><glyph d="M201 778l39 193h186l-39 -193h-186zM76 193h186l-41 -193l-178 -313h-92l149 313h-63z" glyph-name="semicolon" horiz-adv-x="536" unicode=";"/><glyph d="M913 178l-766 496l977 495l-24 -118l-750 -377l590 -371z" glyph-name="less" horiz-adv-x="1148" unicode="&lt;"/><glyph d="M172 629l25 116h739l-25 -116h-739zM102 293l23 115h739l-24 -115h-738z" glyph-name="equal" horiz-adv-x="1038" unicode="="/><glyph d="M113 178l24 125l748 371l-586 377l23 118l765 -495z" glyph-name="greater" horiz-adv-x="1146" unicode=">"/><glyph d="M379 365l55 258q16 78 61.5 127t99.5 75.5t109.5 54t100.5 82t63 138.5q25 111 -37.5 167t-179.5 56q-113 0 -214 -67.5t-126 -180.5l-123 12q35 158 168 252.5t291 94.5q180 0 277.5 -97.5t60.5 -269.5q-18 -90 -67.5 -151.5t-105.5 -93t-112.5 -57.5t-99.5 -63.5 t-55 -93.5l-49 -243h-117zM276 0l35 172h176l-36 -172h-175z" glyph-name="question" horiz-adv-x="952" unicode="?"/><glyph d="M776 -348q-238 0 -412 122t-244.5 329.5t-19.5 453.5q78 362 378 618.5t659 256.5q242 0 421 -121t254.5 -328t24.5 -448q-49 -231 -197.5 -404.5t-353.5 -173.5q-139 0 -191.5 79t-2.5 204q-145 -164 -353 -164q-150 0 -209 107.5t-24 271.5q27 127 100.5 255t199.5 225 t267 97q111 0 178.5 -57t59.5 -152l63 158h137l-276 -680q-47 -123 -30.5 -167t98.5 -46q84 -2 158.5 47t123.5 128t81 158t48 154q63 293 -108.5 511.5t-475.5 218.5q-311 0 -572 -225.5t-329 -544.5q-68 -309 93 -527.5t462 -218.5q111 0 263 43l30 -129 q-147 -51 -301 -51zM764 207q170 0 302 152.5t169 324.5q43 215 -143 215q-170 0 -301.5 -152.5t-167.5 -324.5q-45 -215 141 -215z" glyph-name="at" horiz-adv-x="1931" unicode="@"/><glyph d="M874 0l-32 322h-631l-170 -322h-141l768 1413h182l164 -1413h-140zM268 432h563l-90 891h-4z" glyph-name="A" horiz-adv-x="1134" unicode="A"/><glyph d="M96 0l299 1413h500q201 0 296 -105.5t58 -283.5q-25 -121 -116 -196.5t-168 -82.5l-2 -12q115 -4 181 -108.5t36 -255.5q-37 -170 -172.5 -269.5t-319.5 -99.5h-592zM389 780h344q131 0 241.5 76t137.5 205q27 121 -33.5 176t-204.5 55h-376zM250 125h436q154 0 247 74.5 t122 206.5q25 117 -48 184t-196 67h-446z" glyph-name="B" horiz-adv-x="1306" unicode="B"/><glyph d="M631 -20q-291 0 -429.5 196.5t-66.5 544.5q74 336 289 525.5t498 189.5q184 0 319 -105.5t158 -269.5l-113 -41q-20 135 -116.5 213t-258.5 78q-238 0 -413.5 -166t-235.5 -443q-59 -272 43.5 -435t335.5 -163q152 0 291 84t221 220l96 -64q-92 -164 -264 -264t-354 -100 z" glyph-name="C" horiz-adv-x="1347" unicode="C"/><glyph d="M96 0l299 1413h346q340 0 483.5 -188.5t67.5 -544.5q-70 -328 -290 -504t-553 -176h-353zM252 123h186q602 0 727 598q61 291 -47 431t-397 140h-221z" glyph-name="D" horiz-adv-x="1355" unicode="D"/><glyph d="M96 0l299 1413h908l-27 -119h-776l-113 -528h678l-23 -119h-677l-115 -528h778l-24 -119h-908z" glyph-name="E" horiz-adv-x="1224" unicode="E"/><glyph d="M96 0l299 1413h899l-26 -119h-768l-113 -528h680l-23 -119h-679l-138 -647h-131z" glyph-name="F" horiz-adv-x="1157" unicode="F"/><glyph d="M879 590l24 112h451l-150 -702h-104l49 256q-82 -115 -223.5 -195.5t-319.5 -80.5q-295 0 -416.5 211.5t-52.5 533.5q63 305 266 508t508 203q395 0 498 -377l-127 -37q-82 285 -381 285q-254 0 -418 -171t-221 -434q-53 -254 34 -425t318 -171q201 0 364 126t228 358 h-327z" glyph-name="G" horiz-adv-x="1497" unicode="G"/><glyph d="M96 0l299 1413h131l-139 -649h741l140 649h131l-299 -1413h-131l137 649h-741l-138 -649h-131z" glyph-name="H" horiz-adv-x="1415" unicode="H"/><glyph d="M96 0l299 1413h131l-299 -1413h-131z" glyph-name="I" horiz-adv-x="542" unicode="I"/><glyph d="M-59 121q76 -29 141 -29q283 0 364 395l197 926h131l-196 -921q-106 -512 -510 -512q-68 0 -144 22z" glyph-name="J" horiz-adv-x="737" unicode="J"/><glyph d="M1307 1413l-643 -561l421 -852h-149l-369 766l-219 -191l-121 -575h-131l299 1413h131l-141 -672l756 672h166z" glyph-name="K" horiz-adv-x="1208" unicode="K"/><glyph d="M96 0l299 1413h131l-276 -1294h604l-23 -119h-735z" glyph-name="L" horiz-adv-x="962" unicode="L"/><glyph d="M96 0l299 1413h228l129 -1307l688 1307h229l-299 -1413h-131l277 1309h-5l-688 -1309h-182l-131 1309h-6l-277 -1309h-131z" glyph-name="M" horiz-adv-x="1685" unicode="M"/><glyph d="M96 0l299 1413h205l444 -1280h13l272 1280h129l-299 -1413h-209l-442 1294h-8l-273 -1294h-131z" glyph-name="N" horiz-adv-x="1476" unicode="N"/><glyph d="M621 -20q-293 0 -425.5 200.5t-60.5 540.5q72 328 281 520.5t493 192.5q291 0 421 -201t59 -541q-70 -328 -277.5 -520t-490.5 -192zM629 102q233 0 408 168t235 451q59 270 -41.5 430t-327.5 160q-238 0 -414 -168t-235 -451q-57 -270 43.5 -430t331.5 -160z" glyph-name="O" horiz-adv-x="1449" unicode="O"/><glyph d="M96 0l299 1413h561q215 0 316.5 -115.5t58.5 -328.5q-41 -195 -181 -298.5t-364 -103.5h-440l-119 -567h-131zM371 686h442q324 0 391 305q31 143 -30.5 223t-219.5 80h-454z" glyph-name="P" horiz-adv-x="1298" unicode="P"/><glyph d="M1389 692q-74 -348 -306 -545l158 -196l-92 -80l-162 209q-166 -100 -366 -100q-293 0 -425.5 200.5t-60.5 540.5q72 328 281 520.5t493 192.5q291 0 421.5 -201t58.5 -541zM911 176l-213 273l84 75l226 -280q199 168 264 477q59 270 -41.5 430t-327.5 160 q-238 0 -414 -168t-235 -451q-57 -270 43 -430t332 -160q147 0 282 74z" glyph-name="Q" horiz-adv-x="1458" unicode="Q"/><glyph d="M94 -2l301 1415h561q199 0 299.5 -108.5t61.5 -290.5q-31 -141 -132.5 -233.5t-248.5 -118.5l199 -664h-144l-192 649h-434l-140 -649h-131zM389 766h463q283 16 340 276q25 121 -38.5 186.5t-211.5 65.5h-440z" glyph-name="R" unicode="R"/><glyph d="M457 -16q-166 0 -286 93t-144 277l125 45q43 -291 317 -290q137 0 237.5 69.5t124.5 192.5q6 29 6.5 54.5t-4 47t-17.5 42t-23.5 35.5t-33 33.5t-37.5 29t-45 27.5t-45.5 25.5t-49.5 24.5q-33 14 -54.5 23.5t-52.5 24t-50 26.5t-45 29.5t-42 35t-33.5 39t-27 46t-15.5 52 t-6 60.5t8 70q33 152 158 245t295 93q250 0 364 -220l-96 -69q-92 166 -274 166q-117 0 -205 -64.5t-113 -169.5q-10 -51 2.5 -91t57.5 -77t74.5 -54t101.5 -56q18 -10 26 -15q82 -37 132.5 -66.5t104.5 -78.5t71.5 -118.5t-0.5 -160.5q-33 -166 -176.5 -271t-329.5 -105z " glyph-name="S" horiz-adv-x="1071" unicode="S"/><glyph d="M399 0l275 1296h-490l25 117h1108l-25 -117h-487l-275 -1296h-131z" glyph-name="T" horiz-adv-x="1148" unicode="T"/><glyph d="M555 -20q-225 0 -328.5 137t-52.5 375l195 921h131l-199 -938q-39 -178 30.5 -277.5t229.5 -99.5q166 0 284 104.5t154 282.5l197 928h131l-194 -921q-51 -242 -206 -377t-372 -135z" glyph-name="U" unicode="U"/><glyph d="M377 0l-166 1413h137l133 -1323h4l697 1323h143l-766 -1413h-182z" glyph-name="V" horiz-adv-x="1155" unicode="V"/><glyph d="M254 0l-43 1413h133l21 -1272h2l626 1272h193l84 -1272h4l561 1272h137l-645 -1413h-164l-86 1333l-659 -1333h-164z" glyph-name="W" horiz-adv-x="1804" unicode="W"/><glyph d="M-92 0l616 707l-311 706h154l245 -598l506 598h160l-612 -706l311 -707h-152l-254 588l-501 -588h-162z" glyph-name="X" horiz-adv-x="1112" unicode="X"/><glyph d="M483 0l119 553l-401 860h153l330 -743l657 743h162l-770 -860l-119 -553h-131z" glyph-name="Y" horiz-adv-x="1323" unicode="Y"/><glyph d="M1303 1413l-23 -117l-1174 -1177h922l-24 -119h-1080l23 113l1163 1181h-868l26 119h1035z" glyph-name="Z" horiz-adv-x="1148" unicode="Z"/><glyph d="M-25 -274l379 1779h346l-18 -90h-250l-340 -1597h250l-20 -92h-347z" glyph-name="bracketleft" horiz-adv-x="534" unicode="["/><glyph d="M543 -156l-271 1569h125l275 -1569h-129z" glyph-name="backslash" horiz-adv-x="899" unicode="\"/><glyph d="M221 -274h-348l21 92h249l338 1597h-248l17 90h348z" glyph-name="bracketright" horiz-adv-x="534" unicode="]"/><glyph d="M51 649l502 762l186 -762h-116l-111 539l-338 -539h-123z" glyph-name="asciicircum" horiz-adv-x="739" unicode="^"/><glyph d="M-131 -92l20 92h760l-20 -92h-760z" glyph-name="underscore" horiz-adv-x="759" unicode="_"/><glyph d="M399 1122l-223 242h182l164 -242h-123z" glyph-name="grave" horiz-adv-x="405" unicode="`"/><glyph d="M647 1069q178 0 271.5 -84t62.5 -231l-160 -754h-119l37 172q-219 -195 -415 -195q-145 0 -225.5 88.5t-49.5 231.5q14 70 65.5 126t114 95t176 79t204.5 64.5t247 63.5l4 23q25 111 -25.5 156.5t-177.5 45.5q-238 0 -378 -168l-91 80q185 207 459 207zM350 88 q180 0 420 231l59 287q-125 -31 -188 -48t-162.5 -50t-151 -63.5t-96.5 -76.5t-55 -100q-16 -82 35 -131t139 -49z" glyph-name="a" horiz-adv-x="1064" unicode="a"/><glyph d="M786 1069q236 0 320 -154.5t31 -404.5q-51 -240 -191.5 -386.5t-370.5 -146.5q-215 0 -331 152l-15 -2l-24 -127h-123l299 1413h123l-101 -485h5q175 141 378 141zM1018 539q43 195 -21.5 304t-242.5 109q-166 0 -288 -119.5t-163 -322.5q-43 -195 23.5 -307.5 t224.5 -112.5q186 0 304 118t163 331z" glyph-name="b" horiz-adv-x="1228" unicode="b"/><glyph d="M442 -23q-221 0 -310 162t-40 398q49 227 198.5 379.5t364.5 152.5q143 0 235.5 -72.5t110.5 -197.5l-116 -35q-6 92 -69.5 144.5t-164.5 52.5q-174 0 -288.5 -137.5t-151.5 -315.5q-18 -70 -13 -143.5t25.5 -135t77.5 -100.5t143 -39q113 0 205 57.5t137 145.5l99 -53 q-70 -125 -186 -194t-257 -69z" glyph-name="c" horiz-adv-x="1005" unicode="c"/><glyph d="M1104 1413h123l-299 -1413h-123l24 121h-4q-178 -143 -385 -144q-233 0 -317 156t-31 406q51 238 193.5 384t371.5 146q205 0 328 -149l16 2zM473 90q168 0 290 121t165 328q41 190 -25.5 301.5t-224.5 111.5q-186 0 -305 -117.5t-162 -324.5q-43 -201 20.5 -310.5 t241.5 -109.5z" glyph-name="d" horiz-adv-x="1228" unicode="d"/><glyph d="M676 1069q109 0 184.5 -35t113.5 -89t53 -129t11 -146.5t-20 -149.5q-2 -8 -6 -26.5t-8 -28.5l-799 6q-14 -104 4 -184t92 -136.5t199 -56.5q178 0 334 107l57 -92q-184 -129 -395 -129q-137 0 -232.5 48t-135.5 126.5t-51 180t17 206.5q45 219 191.5 373.5t390.5 154.5z M664 954q-178 0 -287 -107.5t-152 -266.5h686q68 374 -247 374z" glyph-name="e" horiz-adv-x="1107" unicode="e"/><glyph d="M111 0l198 940h-190l22 109h191l16 71q29 137 125 215t234 78h112l-22 -110h-107q-80 0 -141.5 -51.5t-77.5 -133.5l-16 -69h286l-22 -109h-287l-199 -940h-122z" glyph-name="f" horiz-adv-x="657" unicode="f"/><glyph d="M391 -385q-172 0 -289.5 64.5t-119.5 175.5l104 28q12 -84 103.5 -123t211.5 -39q164 0 271.5 80t134.5 203l37 160q-158 -156 -389 -156q-119 0 -203 45t-122 121t-49 175.5t15 207.5q49 221 196.5 366.5t389.5 145.5q213 0 301 -149l18 6l25 123h125l-223 -1057 q-39 -172 -177.5 -274.5t-359.5 -102.5zM485 117q184 0 297 114.5t152 303.5q20 80 15 156.5t-28.5 137t-87 97.5t-157.5 37q-182 0 -302 -124t-159 -315q-37 -178 25.5 -292.5t244.5 -114.5z" glyph-name="g" horiz-adv-x="1232" unicode="g"/><glyph d="M82 0l299 1413h123l-115 -526l14 6q139 176 334 176q160 0 232.5 -107.5t34.5 -287.5l-142 -674h-123l144 674q61 274 -164 274q-135 0 -246 -97t-139 -241l-129 -610h-123z" glyph-name="h" horiz-adv-x="1130" unicode="h"/><glyph d="M340 1225l41 188h123l-41 -188h-123zM82 0l221 1049h123l-221 -1049h-123z" glyph-name="i" horiz-adv-x="505" unicode="i"/><glyph d="M330 1221l41 192h147l-41 -192h-147zM-221 -365l14 107q111 0 186.5 62.5t98.5 162.5l229 1082h123l-229 -1074q-70 -340 -422 -340z" glyph-name="j" horiz-adv-x="520" unicode="j"/><glyph d="M1071 1049l-536 -435l387 -614h-131l-336 549l-162 -129l-88 -420h-123l299 1413h123l-176 -835l587 471h156z" glyph-name="k" horiz-adv-x="1015" unicode="k"/><glyph d="M70 0l299 1413h120l-299 -1413h-120z" glyph-name="l" horiz-adv-x="481" unicode="l"/><glyph d="M82 0l221 1049h123l-33 -146l8 6q123 160 312 160q96 0 165.5 -51t88.5 -152l10 13q78 102 160 147t188 43q164 -2 228.5 -107.5t27.5 -285.5l-143 -676h-123l145 686q55 270 -168 270q-137 0 -225 -97t-119 -247l-129 -612h-123l146 690q55 266 -160 266 q-139 0 -227 -97t-121 -247l-129 -612h-123z" glyph-name="m" horiz-adv-x="1703" unicode="m"/><glyph d="M82 0l221 1049h125l-35 -162l8 6q139 176 332 176q164 0 236.5 -107.5t34.5 -287.5l-142 -674h-123l144 674q61 279 -156 278q-141 0 -251.5 -96t-141.5 -246l-129 -610h-123z" glyph-name="n" horiz-adv-x="1130" unicode="n"/><glyph d="M465 -23q-221 0 -324.5 147.5t-48.5 410.5q53 256 213 395t375 139q219 0 324.5 -148.5t48.5 -414.5q-53 -250 -214 -389.5t-374 -139.5zM473 92q174 0 299 112.5t170 330.5q43 209 -27.5 315t-238.5 106q-172 0 -297 -114.5t-172 -335.5q-43 -205 28.5 -309.5 t237.5 -104.5z" glyph-name="o" horiz-adv-x="1146" unicode="o"/><glyph d="M4 -365l299 1414h119l-27 -127l17 4q154 143 374 143q219 0 309.5 -157.5t39.5 -401.5q-49 -231 -199 -382t-363 -151q-209 0 -331 154l-13 -4l-102 -492h-123zM547 84q174 0 301 123t170 332q45 197 -25.5 310.5t-238.5 113.5t-293 -122t-168 -331q-45 -197 24.5 -311.5 t229.5 -114.5z" glyph-name="p" horiz-adv-x="1226" unicode="p"/><glyph d="M848 -365h-123l106 492l-6 -4q-184 -145 -385 -146q-219 0 -309 159t-39 403q49 231 199.5 380.5t363.5 149.5q219 0 324 -154l22 7l27 127h119zM473 84q168 0 294 123t169 332q43 197 -25.5 310.5t-230.5 113.5q-174 0 -301 -122t-170 -331q-43 -197 27.5 -311.5 t236.5 -114.5z" glyph-name="q" horiz-adv-x="1226" unicode="q"/><glyph d="M805 936q-190 41 -321.5 -95t-182.5 -384l-96 -457h-123l221 1049h127l-37 -170l6 6q119 180 289 180q92 0 143 -21z" glyph-name="r" horiz-adv-x="745" unicode="r"/><glyph d="M369 -23q-152 0 -254.5 80t-112.5 185l129 43q6 -76 69.5 -132.5t188.5 -56.5q115 0 207 53.5t113 151.5q10 45 -4.5 77t-51.5 52.5t-76.5 33.5t-97.5 28q-18 4 -26 6q-78 16 -126 32.5t-101.5 48t-71 82t-2.5 121.5q29 133 143.5 210t273.5 77q135 0 218 -62.5 t116 -152.5l-110 -51q-61 147 -236 147q-106 0 -192 -51t-103 -131q-8 -35 6.5 -61.5t57.5 -47t73.5 -31t102.5 -28.5q14 -4 22 -6q82 -18 131.5 -35.5t101.5 -51.5t69.5 -88t0.5 -130q-33 -145 -167.5 -228.5t-290.5 -83.5z" glyph-name="s" horiz-adv-x="948" unicode="s"/><glyph d="M369 0q-283 0 -219 289l139 651h-164l22 109h162l78 364h121l-78 -364h297l-22 -109h-297l-136 -639q-25 -115 2 -157t123 -42h131l-22 -102h-137z" glyph-name="t" horiz-adv-x="669" unicode="t"/><glyph d="M1049 1049l-222 -1049h-125l35 162l-16 -6q-133 -170 -322 -170q-166 0 -239.5 105.5t-34.5 285.5l141 672h123l-143 -676q-57 -266 157 -267q141 0 253 94.5t141 237.5l129 611h123z" glyph-name="u" horiz-adv-x="1130" unicode="u"/><glyph d="M842 1049h135l-535 -1049h-194l-90 1049h133l65 -996z" glyph-name="v" horiz-adv-x="911" unicode="v"/><glyph d="M1333 1049h140l-445 -1049h-186l-66 872l-438 -870h-186l2 1047h135l-29 -971l494 971h110l86 -979z" glyph-name="w" horiz-adv-x="1402" unicode="w"/><glyph d="M-90 0l463 528l-238 521h125l184 -428l373 428h133l-458 -521l233 -528h-125l-186 436l-371 -436h-133z" glyph-name="x" horiz-adv-x="860" unicode="x"/><glyph d="M-131 -365l12 107q111 0 195 44t113.5 82t80.5 120q8 12 13 18l-133 1043h124l93 -891h10l461 891h135l-611 -1115q-45 -82 -98 -140t-99 -88t-104.5 -47t-97.5 -20.5t-94 -3.5z" glyph-name="y" horiz-adv-x="884" unicode="y"/><glyph d="M963 1049l-21 -109l-823 -825h637l-23 -115h-790l18 96l827 840h-622l22 113h775z" glyph-name="z" horiz-adv-x="897" unicode="z"/><glyph d="M336 -274q-96 0 -151.5 70.5t-32.5 166.5l100 490q6 33 8 55t-6 35.5t-12 21.5t-23.5 11.5t-25 4.5t-29.5 1l10 96q39 0 65.5 7t53 41t41.5 95l100 490q20 98 100 162.5t177 64.5h59l-25 -121h-51q-49 0 -93 -34.5t-56 -82.5l-101 -479q-10 -49 -15 -68.5t-18.5 -49 t-33 -47t-51.5 -33.5q43 -20 48 -71.5t-16 -127.5l-98 -473q-10 -47 14.5 -76t73.5 -29h66l-27 -120h-51z" glyph-name="braceleft" horiz-adv-x="641" unicode="{"/><glyph d="M61 -156l361 1690h88l-360 -1690h-89z" glyph-name="bar" horiz-adv-x="501" unicode="|"/><glyph d="M-25 -274h-61l25 120h53q49 0 93 35t54 82l101 473q29 119 51 150q25 31 67 49q-43 25 -48 76t14 123l106 479q8 47 -17.5 75.5t-74.5 28.5h-64l25 121h53q96 0 150.5 -70.5t34.5 -169.5l-107 -489q-6 -33 -7 -55.5t5 -37t13.5 -22.5t23.5 -11t26.5 -4t30.5 -1l-10 -96 q-29 0 -47.5 -4.5t-43 -16.5t-40.5 -43t-27 -78l-104 -487q-23 -98 -100 -162.5t-175 -64.5z" glyph-name="braceright" horiz-adv-x="645" unicode="}"/><glyph d="M594 379q-55 0 -99 27.5t-68 59.5t-57.5 59.5t-70.5 27.5q-106 0 -135 -152l-96 11q25 109 83 173t146 64q68 0 117 -26.5t70.5 -57t52 -57.5t67.5 -27q113 0 148 168l104 -12q-27 -125 -95.5 -191.5t-166.5 -66.5z" glyph-name="asciitilde" horiz-adv-x="923" unicode="~"/><glyph d="M246 877l35 172h176l-37 -172h-174zM-12 -387l258 1067h92l-199 -1067h-151z" glyph-name="exclamdown" horiz-adv-x="516" unicode="¡"/><glyph d="M651 961q-174 0 -288.5 -137.5t-151.5 -315.5q-18 -70 -13 -143.5t25.5 -135t77.5 -100.5t143 -39q113 0 205 57.5t137 145.5l99 -53q-137 -244 -408 -260l-39 -185h-88l39 185q-193 20 -267.5 178.5t-29.5 378.5q47 217 187.5 367.5t341.5 162.5l28 133h88l-28 -133 q121 -14 198.5 -85t93.5 -183l-116 -35q-6 92 -70 144.5t-164 52.5z" glyph-name="cent" horiz-adv-x="1005" unicode="¢"/><glyph d="M889 1434q143 0 247.5 -92.5t118.5 -227.5l-131 -43q0 100 -70.5 167t-170.5 67q-152 0 -264.5 -95.5t-145.5 -246.5l-59 -277h383l-25 -113h-383l-96 -454h749l-22 -119h-877l121 573h-164l23 113h166l61 289q43 203 192.5 331t346.5 128z" glyph-name="sterling" horiz-adv-x="1230" unicode="£"/><glyph d="M137 238l-57 73l123 107q-72 123 -37 276q33 152 149 260l-79 95l79 73l80 -100q137 92 283 92q158 0 254 -100l125 108l57 -73l-123 -107q72 -117 39 -276q-33 -150 -151 -260l79 -95l-79 -73l-80 100q-133 -92 -282.5 -92t-254.5 100zM516 346q141 0 264 102.5 t154 245.5q29 135 -48 227.5t-206 92.5q-141 0 -264 -101.5t-154 -246.5q-29 -135 48 -227.5t206 -92.5z" glyph-name="currency" horiz-adv-x="1128" unicode="¤"/><glyph d="M403 20l37 170h-303l23 97h303l53 254h-303l20 94h279l-311 778h114l291 -713l594 713h123l-641 -776h274l-20 -96h-301l-53 -254h301l-23 -97h-301l-37 -170h-119z" glyph-name="yen" horiz-adv-x="1142" unicode="¥"/><glyph d="M252 758l139 655h90l-139 -655h-90zM57 -156l138 645h90l-138 -645h-90z" glyph-name="brokenbar" horiz-adv-x="493" unicode="¦"/><glyph d="M459 -18q-156 0 -250 75.5t-109 218.5l138 31q14 -186 229 -186q246 0 285 180q12 59 -43.5 91t-139.5 46.5t-167 38t-131 90t-23 176.5q23 119 143 207q-84 68 -55 201q29 131 145.5 207t253.5 76t223 -73t97 -200l-140 -24q-10 158 -190 157q-90 0 -165 -46t-93 -136 q-10 -49 27.5 -77.5t102.5 -38t138.5 -29t134 -46t91 -90t10.5 -159.5q-25 -121 -137 -205q80 -68 51 -203q-31 -143 -152.5 -212.5t-273.5 -69.5zM686 535q125 49 152 174q8 35 -4.5 62.5t-35 43.5t-60.5 30.5t-66.5 20.5t-71.5 13.5t-57 11.5q-133 -45 -160 -176 q-8 -39 9.5 -69t58.5 -47t78.5 -28.5t89 -21.5t67.5 -14z" glyph-name="section" horiz-adv-x="1091" unicode="§"/><glyph d="M182 1176l41 188h150l-41 -188h-150zM489 1176l41 188h150l-41 -188h-150z" glyph-name="dieresis" horiz-adv-x="546" unicode="¨"/><glyph d="M891 -49q-305 0 -523 221t-218 534.5t218 534.5t523 221q307 0 526 -221t219 -534.5t-219 -534.5t-526 -221zM891 51q264 0 453.5 194.5t189.5 461t-189.5 461t-453.5 194.5q-260 0 -450.5 -194.5t-190.5 -461t190.5 -461t450.5 -194.5zM881 164q-217 0 -337 158.5 t-118 388.5q-2 233 117 391t338 158q141 0 245.5 -71t149.5 -196l-109 -47q-25 92 -103.5 147.5t-182.5 55.5q-90 0 -158 -40t-105.5 -106.5t-56 -139t-20.5 -152.5q2 -106 32.5 -200.5t110.5 -164.5t195 -70q109 0 188.5 56.5t103.5 142.5l103 -41q-43 -127 -146.5 -198.5 t-246.5 -71.5z" glyph-name="copyright" horiz-adv-x="1708" unicode="©"/><glyph d="M442 1434q121 0 185.5 -57.5t42.5 -159.5l-109 -515h-82l25 117q-150 -133 -283 -133q-100 0 -154.5 60.5t-33.5 158.5q10 47 45 86t78 65.5t121.5 54.5t138 44t168.5 43l4 14q16 78 -18.5 109t-120.5 31q-160 0 -259 -115l-61 55q127 142 313 142zM240 762 q123 0 286 160l41 194q-104 -27 -160.5 -42t-129 -44t-109.5 -64.5t-47 -80.5q-12 -55 24 -89t95 -34z" glyph-name="ordfeminine" horiz-adv-x="698" unicode="ª"/><glyph d="M438 193l-284 319l415 315l-26 -145l-236 -170l158 -172zM797 193l-285 319l418 315l-29 -145l-233 -170l157 -172z" glyph-name="guillemotleft" horiz-adv-x="1026" unicode="«"/><glyph d="M840 252l90 434h-746l23 111h858l-115 -545h-110z" glyph-name="logicalnot" horiz-adv-x="1157" unicode="¬"/><glyph d="M629 352q-219 0 -374 158t-155 383t155 383t374 158t374.5 -159t155.5 -382t-155.5 -382t-374.5 -159zM628.5 430q186.5 0 322.5 137.5t136 325.5t-136 326.5t-322.5 138.5t-322.5 -138.5t-136 -326.5t136 -325.5t322.5 -137.5zM451 606v563h217q193 0 192 -161 q0 -129 -117 -158l144 -244h-109l-127 236h-108v-236h-92zM535 922h133q106 0 106 86q0 88 -106 88h-133v-174z" glyph-name="registered" horiz-adv-x="1259" unicode="®"/><glyph d="M207 1192l20 94h527l-21 -94h-526z" glyph-name="macron" horiz-adv-x="661" unicode="¯"/><glyph d="M373 852q-121 0 -206 85t-85 208q0 119 85 204t206 85t206 -85t85 -204q0 -123 -85 -208t-206 -85zM373 950q80 0 136 56.5t56 138.5q0 80 -57 136t-135 56q-80 0 -136.5 -56t-56.5 -136q0 -82 56.5 -138.5t136.5 -56.5z" glyph-name="degree" horiz-adv-x="745" unicode="°"/><glyph d="M539 201l100 471h-457l19 92h456l101 473h94l-102 -473h456l-16 -92h-457l-100 -471h-94zM41 0l20 92h1006l-20 -92h-1006z" glyph-name="plusminus" horiz-adv-x="1306" unicode="±"/><glyph d="M145 1124l269 240h186l-346 -240h-109z" glyph-name="acute" horiz-adv-x="405" unicode="´"/><glyph d="M2 -266l268 1265h136l-127 -604q-63 -299 139 -299q131 0 246.5 101.5t144.5 234.5l121 567h135l-211 -999h-135l39 182q-47 -78 -148.5 -141.5t-212.5 -63.5q-115 0 -188 64l-92 -307h-115z" glyph-name="uni00B5" horiz-adv-x="1157" unicode="µ"/><glyph d="M362 -287l199 910q-184 0 -296.5 112.5t-74.5 296.5q37 174 191 277.5t338 103.5h110l-360 -1700h-107zM649 -287l361 1700h108l-360 -1700h-109z" glyph-name="paragraph" horiz-adv-x="1110" unicode="¶"/><glyph d="M291 711q-51 0 -80 40t-18 95q10 43 46.5 72.5t82.5 29.5q53 0 83.5 -38t20.5 -91q-10 -45 -49 -76.5t-86 -31.5z" glyph-name="periodcentered" horiz-adv-x="489" unicode="·"/><glyph d="M-8 -500q-131 0 -160 127l82 31q-2 -31 17.5 -52.5t56.5 -21.5q45 0 79.5 31t43.5 72q16 74 -70 102l-107 35l129 176h93l-107 -133l41 -19q133 -49 107 -184q-16 -80 -76.5 -122t-128.5 -42z" glyph-name="cedilla" horiz-adv-x="385" unicode="¸"/><glyph d="M313 696q-147 0 -217.5 99.5t-34.5 275.5q37 172 144.5 266.5t253.5 94.5q147 0 218 -99.5t34 -279.5q-37 -170 -146 -263.5t-252 -93.5zM319 772q119 0 202 77t114 222q31 141 -17.5 213t-160.5 72q-117 0 -201 -77t-117 -226q-29 -137 19 -209t161 -72z" glyph-name="ordmasculine" horiz-adv-x="776" unicode="º"/><glyph d="M86 193l29 147l235 172l-160 172l29 143l285 -315zM444 193l29 147l236 172l-160 172l29 143l286 -315z" glyph-name="guillemotright" horiz-adv-x="1026" unicode="»"/><glyph d="M676 1049l-35 -172h-176l37 172h174zM573 684l-55 -258q-16 -78 -61 -127t-99.5 -75.5t-109.5 -54.5t-100.5 -82t-63.5 -138q-25 -111 37.5 -167t179.5 -56q113 0 214 67.5t126 179.5l123 -12q-35 -158 -168 -252t-291 -94q-180 0 -277.5 97.5t-60.5 269.5 q18 90 67.5 151.5t106 93t112.5 57t99 63.5t56 93l49 244h116z" glyph-name="questiondown" horiz-adv-x="952" unicode="¿"/><glyph d="M850 1536h-123l-162 242h183zM874 0l-32 322h-631l-170 -322h-141l768 1413h182l164 -1413h-140zM268 432h563l-90 891h-4z" glyph-name="Agrave" horiz-adv-x="1134" unicode="À"/><glyph d="M1126 1778l-284 -240h-109l207 240h186zM668 1413h182l164 -1413h-140l-32 322h-631l-170 -322h-141zM268 432h563l-90 891h-4z" glyph-name="Aacute" horiz-adv-x="1134" unicode="Á"/><glyph d="M821 1671l-188 -164h-121l315 271h21l203 -271h-111zM668 1413h182l164 -1413h-140l-32 322h-631l-170 -322h-141zM268 432h563l-90 891h-4z" glyph-name="Acircumflex" horiz-adv-x="1134" unicode="Â"/><glyph d="M948 1536q-55 0 -98 23.5t-65.5 53t-54.5 53.5t-66 24q-55 0 -93.5 -43t-50.5 -99l-74 13q43 215 213 215q59 0 103.5 -25t67 -55.5t53 -55t65.5 -24.5q55 0 95 47t55 119l86 -10q-52 -236 -236 -236zM874 0l-32 322h-631l-170 -322h-141l768 1413h182l164 -1413h-140z M268 432h563l-90 891h-4z" glyph-name="Atilde" horiz-adv-x="1134" unicode="Ã"/><glyph d="M760 1778l-41 -189h-150l41 189h150zM918 1778h149l-41 -189h-149zM668 1413h182l164 -1413h-140l-32 322h-631l-170 -322h-141zM268 432h563l-90 891h-4z" glyph-name="Adieresis" horiz-adv-x="1134" unicode="Ä"/><glyph d="M854 1370l160 -1370h-140l-32 322h-631l-170 -322h-141l747 1374q-78 61 -53 172q14 74 78.5 124t138.5 50q84 0 129 -57t29 -145q-19 -97 -115 -148zM678 1538q-10 -47 14.5 -81t71.5 -34q43 0 78 30t45 71q10 47 -15.5 79.5t-72.5 32.5q-43 0 -77 -28.5t-44 -69.5z M268 432h563l-90 891h-4z" glyph-name="Aring" horiz-adv-x="1134" unicode="Å"/><glyph d="M1806 1298h-749l-115 -534h664l-23 -115h-663l-113 -526h749l-26 -123h-887l66 311h-473l-179 -311h-157l823 1413h1106zM737 440l181 844h-125l-484 -844h428z" glyph-name="AE" horiz-adv-x="1753" unicode="Æ"/><glyph d="M911 1311q-238 0 -413.5 -166t-235.5 -443q-59 -272 43.5 -435t335.5 -163q152 0 291 84t221 220l96 -64q-82 -147 -232.5 -244.5t-316.5 -115.5l-94 -117l41 -19q133 -49 107 -184q-16 -80 -77 -122t-128 -42q-131 0 -160 127l82 31q-2 -31 17.5 -52.5t56.5 -21.5 q45 0 79.5 31t43.5 72q16 74 -70 102l-106 35l114 156q-281 10 -412 205.5t-59 535.5q74 336 289 525.5t498 189.5q184 0 319 -105.5t158 -269.5l-113 -41q-20 135 -116.5 213t-258.5 78z" glyph-name="Ccedilla" horiz-adv-x="1347" unicode="Ç"/><glyph d="M815 1536l-162 242h183l102 -242h-123zM96 0l299 1413h908l-27 -119h-776l-113 -528h678l-23 -119h-677l-115 -528h778l-24 -119h-908z" glyph-name="Egrave" horiz-adv-x="1224" unicode="È"/><glyph d="M821 1538l207 240h186l-284 -240h-109zM96 0l299 1413h908l-27 -119h-776l-113 -528h678l-23 -119h-677l-115 -528h778l-24 -119h-908z" glyph-name="Eacute" horiz-adv-x="1224" unicode="É"/><glyph d="M600 1507l315 271h21l203 -271h-111l-119 164l-188 -164h-121zM96 0l299 1413h908l-27 -119h-776l-113 -528h678l-23 -119h-677l-115 -528h778l-24 -119h-908z" glyph-name="Ecircumflex" horiz-adv-x="1224" unicode="Ê"/><glyph d="M657 1589l41 189h150l-41 -189h-150zM965 1589l41 189h149l-41 -189h-149zM96 0l299 1413h908l-27 -119h-776l-113 -528h678l-23 -119h-677l-115 -528h778l-24 -119h-908z" glyph-name="Edieresis" horiz-adv-x="1224" unicode="Ë"/><glyph d="M428 1536l-162 242h183l102 -242h-123zM96 0l299 1413h131l-299 -1413h-131z" glyph-name="Igrave" horiz-adv-x="542" unicode="Ì"/><glyph d="M434 1538l207 240h186l-284 -240h-109zM96 0l299 1413h131l-299 -1413h-131z" glyph-name="Iacute" horiz-adv-x="542" unicode="Í"/><glyph d="M213 1507l315 271h21l203 -271h-111l-119 164l-188 -164h-121zM96 0l299 1413h131l-299 -1413h-131z" glyph-name="Icircumflex" horiz-adv-x="542" unicode="Î"/><glyph d="M270 1589l41 189h150l-41 -189h-150zM578 1589l40 189h150l-41 -189h-149zM96 0l299 1413h131l-299 -1413h-131z" glyph-name="Idieresis" horiz-adv-x="542" unicode="Ï"/><glyph d="M709 1413q340 0 483 -188.5t68 -544.5q-70 -328 -290 -504t-554 -176h-353l140 659h-140l21 107h141l137 647h347zM1133 721q61 291 -47.5 431t-397.5 140h-221l-111 -526h379l-20 -107h-381l-115 -536h187q602 0 727 598z" glyph-name="Eth" unicode="Ð"/><glyph d="M1116 1536q-55 0 -98 23.5t-65.5 53t-54.5 53.5t-67 24q-55 0 -93 -43t-50 -99l-74 13q43 215 213 215q59 0 103.5 -25t67 -55.5t53 -55t65.5 -24.5q55 0 95 47t55 119l86 -10q-52 -236 -236 -236zM96 0l299 1413h205l444 -1280h13l272 1280h129l-299 -1413h-209 l-442 1294h-8l-273 -1294h-131z" glyph-name="Ntilde" horiz-adv-x="1476" unicode="Ñ"/><glyph d="M881 1536l-162 242h182l103 -242h-123zM621 -20q-293 0 -425.5 200.5t-60.5 540.5q72 328 281 520.5t493 192.5q291 0 421 -201t59 -541q-70 -328 -277.5 -520t-490.5 -192zM629 102q233 0 408 168t235 451q59 270 -41.5 430t-327.5 160q-238 0 -414 -168t-235 -451 q-57 -270 43.5 -430t331.5 -160z" glyph-name="Ograve" horiz-adv-x="1449" unicode="Ò"/><glyph d="M887 1538l207 240h186l-285 -240h-108zM621 -20q-293 0 -425.5 200.5t-60.5 540.5q72 328 281 520.5t493 192.5q291 0 421 -201t59 -541q-70 -328 -277.5 -520t-490.5 -192zM629 102q233 0 408 168t235 451q59 270 -41.5 430t-327.5 160q-238 0 -414 -168t-235 -451 q-57 -270 43.5 -430t331.5 -160z" glyph-name="Oacute" horiz-adv-x="1449" unicode="Ó"/><glyph d="M666 1507l315 271h20l203 -271h-110l-119 164l-189 -164h-120zM621 -20q-293 0 -425.5 200.5t-60.5 540.5q72 328 281 520.5t493 192.5q291 0 421 -201t59 -541q-70 -328 -277.5 -520t-490.5 -192zM629 102q233 0 408 168t235 451q59 270 -41.5 430t-327.5 160 q-238 0 -414 -168t-235 -451q-57 -270 43.5 -430t331.5 -160z" glyph-name="Ocircumflex" horiz-adv-x="1449" unicode="Ô"/><glyph d="M1102 1536q-55 0 -98 23.5t-66 53t-54.5 53.5t-66.5 24q-55 0 -93 -43t-50 -99l-74 13q43 215 213 215q49 0 87 -16.5t60.5 -40t43 -47t45 -40t53.5 -16.5q55 0 95 47t54 119l86 -10q-51 -236 -235 -236zM621 -20q-293 0 -425.5 200.5t-60.5 540.5q72 328 281 520.5 t493 192.5q291 0 421 -201t59 -541q-70 -328 -277.5 -520t-490.5 -192zM629 102q233 0 408 168t235 451q59 270 -41.5 430t-327.5 160q-238 0 -414 -168t-235 -451q-57 -270 43.5 -430t331.5 -160z" glyph-name="Otilde" horiz-adv-x="1449" unicode="Õ"/><glyph d="M723 1589l41 189h149l-41 -189h-149zM1030 1589l41 189h150l-41 -189h-150zM621 -20q-293 0 -425.5 200.5t-60.5 540.5q72 328 281 520.5t493 192.5q291 0 421 -201t59 -541q-70 -328 -277.5 -520t-490.5 -192zM629 102q233 0 408 168t235 451q59 270 -41.5 430 t-327.5 160q-238 0 -414 -168t-235 -451q-57 -270 43.5 -430t331.5 -160z" glyph-name="Odieresis" horiz-adv-x="1449" unicode="Ö"/><glyph d="M999 100l-327 326l-316 -315l-82 82l314 315l-324 326l82 81l326 -323l315 313l84 -82l-315 -313l323 -328z" glyph-name="multiply" horiz-adv-x="1349" unicode="×"/><glyph d="M1526 1270l-152 -125q72 -182 15 -453q-70 -328 -278 -520t-490 -192q-289 0 -420 194l-133 -108l-64 77l148 123q-72 182 -17 455q72 328 281 520.5t493 192.5q287 0 420 -197l129 106zM254 692q-43 -197 2 -340l973 801q-100 158 -326 158q-238 0 -414 -168t-235 -451z M1272 721q41 195 0 338l-973 -801q102 -156 330 -156q233 0 408.5 168t234.5 451z" glyph-name="Oslash" horiz-adv-x="1449" unicode="Ø"/><glyph d="M813 1536l-162 242h183l102 -242h-123zM555 -20q-225 0 -328.5 137t-52.5 375l195 921h131l-199 -938q-39 -178 30.5 -277.5t229.5 -99.5q166 0 284 104.5t154 282.5l197 928h131l-194 -921q-51 -242 -206 -377t-372 -135z" glyph-name="Ugrave" unicode="Ù"/><glyph d="M819 1538l207 240h186l-284 -240h-109zM555 -20q-225 0 -328.5 137t-52.5 375l195 921h131l-199 -938q-39 -178 30.5 -277.5t229.5 -99.5q166 0 284 104.5t154 282.5l197 928h131l-194 -921q-51 -242 -206 -377t-372 -135z" glyph-name="Uacute" unicode="Ú"/><glyph d="M598 1507l315 271h21l203 -271h-111l-119 164l-188 -164h-121zM555 -20q-225 0 -328.5 137t-52.5 375l195 921h131l-199 -938q-39 -178 30.5 -277.5t229.5 -99.5q166 0 284 104.5t154 282.5l197 928h131l-194 -921q-51 -242 -206 -377t-372 -135z" glyph-name="Ucircumflex" unicode="Û"/><glyph d="M655 1589l41 189h150l-41 -189h-150zM963 1589l41 189h149l-41 -189h-149zM555 -20q-225 0 -328.5 137t-52.5 375l195 921h131l-199 -938q-39 -178 30.5 -277.5t229.5 -99.5q166 0 284 104.5t154 282.5l197 928h131l-194 -921q-51 -242 -206 -377t-372 -135z" glyph-name="Udieresis" unicode="Ü"/><glyph d="M823 1538l207 240h187l-285 -240h-109zM483 0l119 553l-401 860h153l330 -743l657 743h162l-770 -860l-119 -553h-131z" glyph-name="Yacute" horiz-adv-x="1323" unicode="Ý"/><glyph d="M96 0l299 1413h140l-46 -217h310q213 0 315.5 -104.5t63.5 -284.5q-37 -174 -175.5 -268.5t-355.5 -94.5h-319l-92 -444h-140zM356 567h308q156 0 254 67.5t126 196.5q25 115 -42.5 178.5t-219.5 63.5h-319z" glyph-name="Thorn" horiz-adv-x="1179" unicode="Þ"/><glyph d="M600 -18q-84 0 -203 41l19 129q96 -51 186 -52q88 0 161 58.5t93 156.5q12 55 -10.5 100.5t-60 79t-74.5 70.5t-56.5 94.5t-3.5 131.5q12 55 57.5 103t92.5 77.5t92 76t57 101.5q16 80 -38 128t-156 48q-131 0 -221.5 -72.5t-114.5 -187.5l-225 -1065h-132l230 1081 q35 162 161 257.5t283 95.5q166 0 266.5 -86t71.5 -226q-12 -59 -59 -111.5t-98.5 -85t-96.5 -77.5t-55 -90t14.5 -85t63.5 -75t76.5 -74t57 -100.5t3.5 -138.5q-27 -133 -136.5 -218t-244.5 -85z" glyph-name="germandbls" horiz-adv-x="1116" unicode="ß"/><glyph d="M743 1171h-122l-162 242h182zM647 1069q178 0 271.5 -84t62.5 -231l-160 -754h-119l37 172q-219 -195 -415 -195q-145 0 -225.5 88.5t-49.5 231.5q14 70 65.5 126t114 95t176 79t204.5 64.5t247 63.5l4 23q25 111 -25.5 156.5t-177.5 45.5q-238 0 -378 -168l-91 80 q185 207 459 207zM350 88q180 0 420 231l59 287q-125 -31 -188 -48t-162.5 -50t-151 -63.5t-96.5 -76.5t-55 -100q-16 -82 35 -131t139 -49z" glyph-name="agrave" horiz-adv-x="1064" unicode="à"/><glyph d="M1020 1413l-285 -239h-108l207 239h186zM647 1069q178 0 271.5 -84t62.5 -231l-160 -754h-119l37 172q-219 -195 -415 -195q-145 0 -225.5 88.5t-49.5 231.5q14 70 65.5 126t114 95t176 79t204.5 64.5t247 63.5l4 23q25 111 -25.5 156.5t-177.5 45.5q-238 0 -378 -168 l-91 80q185 207 459 207zM350 88q180 0 420 231l59 287q-125 -31 -188 -48t-162.5 -50t-151 -63.5t-96.5 -76.5t-55 -100q-16 -82 35 -131t139 -49z" glyph-name="aacute" horiz-adv-x="1064" unicode="á"/><glyph d="M715 1307l-189 -164h-120l315 270h20l203 -270h-110zM647 1069q178 0 271.5 -84t62.5 -231l-160 -754h-119l37 172q-219 -195 -415 -195q-145 0 -225.5 88.5t-49.5 231.5q14 70 65.5 126t114 95t176 79t204.5 64.5t247 63.5l4 23q25 111 -25.5 156.5t-177.5 45.5 q-238 0 -378 -168l-91 80q185 207 459 207zM350 88q180 0 420 231l59 287q-125 -31 -188 -48t-162.5 -50t-151 -63.5t-96.5 -76.5t-55 -100q-16 -82 35 -131t139 -49z" glyph-name="acircumflex" horiz-adv-x="1064" unicode="â"/><glyph d="M842 1171q-55 0 -98.5 24t-66 53.5t-54 53t-66.5 23.5q-55 0 -93 -43t-50 -98l-74 12q43 215 213 215q59 0 103 -24.5t66.5 -55.5t53.5 -55.5t66 -24.5q55 0 95 47.5t54 118.5l86 -10q-51 -236 -235 -236zM647 1069q178 0 271.5 -84t62.5 -231l-160 -754h-119l37 172 q-219 -195 -415 -195q-145 0 -225.5 88.5t-49.5 231.5q14 70 65.5 126t114 95t176 79t204.5 64.5t247 63.5l4 23q25 111 -25.5 156.5t-177.5 45.5q-238 0 -378 -168l-91 80q185 207 459 207zM350 88q180 0 420 231l59 287q-125 -31 -188 -48t-162.5 -50t-151 -63.5 t-96.5 -76.5t-55 -100q-16 -82 35 -131t139 -49z" glyph-name="atilde" horiz-adv-x="1064" unicode="ã"/><glyph d="M653 1413l-41 -188h-149l41 188h149zM961 1413l-41 -188h-150l41 188h150zM647 1069q178 0 271.5 -84t62.5 -231l-160 -754h-119l37 172q-219 -195 -415 -195q-145 0 -225.5 88.5t-49.5 231.5q14 70 65.5 126t114 95t176 79t204.5 64.5t247 63.5l4 23q25 111 -25.5 156.5 t-177.5 45.5q-238 0 -378 -168l-91 80q185 207 459 207zM350 88q180 0 420 231l59 287q-125 -31 -188 -48t-162.5 -50t-151 -63.5t-96.5 -76.5t-55 -100q-16 -82 35 -131t139 -49z" glyph-name="adieresis" horiz-adv-x="1064" unicode="ä"/><glyph d="M680 1124q-84 0 -130 59.5t-28 147.5q14 74 79 125t140 51q84 0 130.5 -59t27.5 -145q-16 -74 -79.5 -126.5t-139.5 -52.5zM694 1208q43 0 78 30t45 71q10 47 -15.5 79.5t-72.5 32.5q-43 0 -78 -28.5t-45 -69.5q-10 -47 15.5 -81t72.5 -34zM647 1069q178 0 271.5 -84 t62.5 -231l-160 -754h-119l37 172q-219 -195 -415 -195q-145 0 -225.5 88.5t-49.5 231.5q14 70 65.5 126t114 95t176 79t204.5 64.5t247 63.5l4 23q25 111 -25.5 156.5t-177.5 45.5q-238 0 -378 -168l-91 80q185 207 459 207zM350 88q180 0 420 231l59 287 q-125 -31 -188 -48t-162.5 -50t-151 -63.5t-96.5 -76.5t-55 -100q-16 -82 35 -131t139 -49z" glyph-name="aring" horiz-adv-x="1064" unicode="å"/><glyph d="M1397 1069q109 0 184.5 -35t113.5 -89t53 -129t11 -146.5t-20 -149.5q-2 -8 -6 -26.5t-9 -28.5l-798 6q-14 -104 4 -184t92 -136.5t199 -56.5q178 0 333 107l58 -92q-184 -129 -395 -129q-334 0 -406 270q-90 -133 -214 -203t-259 -70q-162 0 -241 87.5t-48 232.5 q39 174 230 264q176 70 567 123l14 64q25 111 -25.5 156.5t-172.5 45.5q-104 0 -203 -44t-168 -122l-92 80q190 203 463 203q123 0 207.5 -47t109.5 -135q164 184 418 184zM1384 954q-178 0 -286.5 -107.5t-151.5 -266.5h686q67 374 -248 374zM358 100q88 0 171 32t164 123 t112 232l2 7q4 33 8 47l6 30q-354 -55 -481 -122q-137 -61 -164 -185q-16 -80 35 -122t147 -42z" glyph-name="ae" horiz-adv-x="1826" unicode="æ"/><glyph d="M651 961q-174 0 -288.5 -137.5t-151.5 -315.5q-18 -70 -13 -143.5t25.5 -135t77.5 -100.5t143 -39q113 0 205 57.5t137 145.5l99 -53q-125 -223 -371 -258l-92 -115l41 -19q133 -49 106 -184q-16 -80 -76.5 -122t-127.5 -42q-131 0 -160 127l82 31q-2 -31 17.5 -52.5 t55.5 -21.5q45 0 80 31t43 72q16 74 -69 102l-107 35l113 153q-139 6 -227.5 87t-106.5 203t6 270q49 227 198.5 379.5t364.5 152.5q143 0 235.5 -72.5t110.5 -197.5l-116 -35q-6 92 -70 144.5t-164 52.5z" glyph-name="ccedilla" horiz-adv-x="1005" unicode="ç"/><glyph d="M764 1171h-123l-162 242h183zM676 1069q109 0 184.5 -35t113.5 -89t53 -129t11 -146.5t-20 -149.5q-2 -8 -6 -26.5t-8 -28.5l-799 6q-14 -104 4 -184t92 -136.5t199 -56.5q178 0 334 107l57 -92q-184 -129 -395 -129q-137 0 -232.5 48t-135.5 126.5t-51 180t17 206.5 q45 219 191.5 373.5t390.5 154.5zM664 954q-178 0 -287 -107.5t-152 -266.5h686q68 374 -247 374z" glyph-name="egrave" horiz-adv-x="1107" unicode="è"/><glyph d="M1040 1413l-284 -239h-109l207 239h186zM676 1069q109 0 184.5 -35t113.5 -89t53 -129t11 -146.5t-20 -149.5q-2 -8 -6 -26.5t-8 -28.5l-799 6q-14 -104 4 -184t92 -136.5t199 -56.5q178 0 334 107l57 -92q-184 -129 -395 -129q-137 0 -232.5 48t-135.5 126.5t-51 180 t17 206.5q45 219 191.5 373.5t390.5 154.5zM664 954q-178 0 -287 -107.5t-152 -266.5h686q68 374 -247 374z" glyph-name="eacute" horiz-adv-x="1107" unicode="é"/><glyph d="M735 1307l-188 -164h-121l315 270h21l203 -270h-111zM676 1069q109 0 184.5 -35t113.5 -89t53 -129t11 -146.5t-20 -149.5q-2 -8 -6 -26.5t-8 -28.5l-799 6q-14 -104 4 -184t92 -136.5t199 -56.5q178 0 334 107l57 -92q-184 -129 -395 -129q-137 0 -232.5 48 t-135.5 126.5t-51 180t17 206.5q45 219 191.5 373.5t390.5 154.5zM664 954q-178 0 -287 -107.5t-152 -266.5h686q68 374 -247 374z" glyph-name="ecircumflex" horiz-adv-x="1107" unicode="ê"/><glyph d="M674 1413l-41 -188h-150l41 188h150zM981 1413l-41 -188h-149l40 188h150zM676 1069q109 0 184.5 -35t113.5 -89t53 -129t11 -146.5t-20 -149.5q-2 -8 -6 -26.5t-8 -28.5l-799 6q-14 -104 4 -184t92 -136.5t199 -56.5q178 0 334 107l57 -92q-184 -129 -395 -129 q-137 0 -232.5 48t-135.5 126.5t-51 180t17 206.5q45 219 191.5 373.5t390.5 154.5zM664 954q-178 0 -287 -107.5t-152 -266.5h686q68 374 -247 374z" glyph-name="edieresis" horiz-adv-x="1107" unicode="ë"/><glyph d="M313 1171l-161 242h182l102 -242h-123zM70 0l221 1049h119l-222 -1049h-118z" glyph-name="igrave" horiz-adv-x="479" unicode="ì"/><glyph d="M319 1174l207 239h187l-285 -239h-109zM70 0l221 1049h119l-222 -1049h-118z" glyph-name="iacute" horiz-adv-x="479" unicode="í"/><glyph d="M98 1143l316 270h20l203 -270h-111l-118 164l-189 -164h-121zM70 0l221 1049h119l-222 -1049h-118z" glyph-name="icircumflex" horiz-adv-x="479" unicode="î"/><glyph d="M156 1225l41 188h149l-41 -188h-149zM463 1225l41 188h149l-41 -188h-149zM70 0l221 1049h119l-222 -1049h-118z" glyph-name="idieresis" horiz-adv-x="479" unicode="ï"/><glyph d="M782 1395q211 -135 263.5 -350.5t-25.5 -542.5q-47 -215 -201.5 -366.5t-363.5 -151.5q-111 0 -195 45t-126 119.5t-56.5 174t12.5 207.5q45 215 202 367t367 152q84 0 158 -37t96 -82q8 131 -46 216t-167 154l-122 -145l-66 41l125 141q-82 45 -156 80l62 96 q80 -31 176 -79l110 125l60 -39zM899 530q35 168 -24.5 282t-221.5 114q-172 0 -287.5 -124t-152.5 -300q-35 -164 23.5 -280t224.5 -116q172 0 286.5 124t151.5 300z" glyph-name="eth" horiz-adv-x="1116" unicode="ð"/><glyph d="M854 1176q-55 0 -98 23.5t-65.5 53t-54.5 53t-67 23.5q-55 0 -93 -43t-50 -98l-74 12q43 215 213 215q59 0 103.5 -24.5t67 -55t53 -55.5t65.5 -25q55 0 95 47.5t55 118.5l86 -10q-52 -235 -236 -235zM82 0l221 1049h125l-35 -162l8 6q139 176 332 176 q164 0 236.5 -107.5t34.5 -287.5l-142 -674h-123l144 674q61 279 -156 278q-141 0 -251.5 -96t-141.5 -246l-129 -610h-123z" glyph-name="ntilde" horiz-adv-x="1130" unicode="ñ"/><glyph d="M649 1171l-162 242h183l102 -242h-123zM465 -23q-221 0 -324.5 147.5t-48.5 410.5q53 256 213 395t375 139q219 0 324.5 -148.5t48.5 -414.5q-53 -250 -214 -389.5t-374 -139.5zM473 92q174 0 299 112.5t170 330.5q43 209 -27.5 315t-238.5 106q-172 0 -297 -114.5 t-172 -335.5q-43 -205 28.5 -309.5t237.5 -104.5z" glyph-name="ograve" horiz-adv-x="1146" unicode="ò"/><glyph d="M655 1174l207 239h187l-285 -239h-109zM465 -23q-221 0 -324.5 147.5t-48.5 410.5q53 256 213 395t375 139q219 0 324.5 -148.5t48.5 -414.5q-53 -250 -214 -389.5t-374 -139.5zM473 92q174 0 299 112.5t170 330.5q43 209 -27.5 315t-238.5 106q-172 0 -297 -114.5 t-172 -335.5q-43 -205 28.5 -309.5t237.5 -104.5z" glyph-name="oacute" horiz-adv-x="1146" unicode="ó"/><glyph d="M434 1143l316 270h20l203 -270h-111l-119 164l-188 -164h-121zM465 -23q-221 0 -324.5 147.5t-48.5 410.5q53 256 213 395t375 139q219 0 324.5 -148.5t48.5 -414.5q-53 -250 -214 -389.5t-374 -139.5zM473 92q174 0 299 112.5t170 330.5q43 209 -27.5 315t-238.5 106 q-172 0 -297 -114.5t-172 -335.5q-43 -205 28.5 -309.5t237.5 -104.5z" glyph-name="ocircumflex" horiz-adv-x="1146" unicode="ô"/><glyph d="M870 1171q-55 0 -98 24t-65.5 53.5t-54 53t-66.5 23.5q-55 0 -93 -43t-51 -98l-73 12q43 215 213 215q59 0 103 -24.5t66.5 -55.5t53.5 -55.5t65 -24.5q55 0 95.5 47.5t54.5 118.5l86 -10q-52 -236 -236 -236zM465 -23q-221 0 -324.5 147.5t-48.5 410.5q53 256 213 395 t375 139q219 0 324.5 -148.5t48.5 -414.5q-53 -250 -214 -389.5t-374 -139.5zM473 92q174 0 299 112.5t170 330.5q43 209 -27.5 315t-238.5 106q-172 0 -297 -114.5t-172 -335.5q-43 -205 28.5 -309.5t237.5 -104.5z" glyph-name="otilde" horiz-adv-x="1146" unicode="õ"/><glyph d="M492 1225l40 188h150l-41 -188h-149zM799 1225l41 188h149l-41 -188h-149zM465 -23q-221 0 -324.5 147.5t-48.5 410.5q53 256 213 395t375 139q219 0 324.5 -148.5t48.5 -414.5q-53 -250 -214 -389.5t-374 -139.5zM473 92q174 0 299 112.5t170 330.5q43 209 -27.5 315 t-238.5 106q-172 0 -297 -114.5t-172 -335.5q-43 -205 28.5 -309.5t237.5 -104.5z" glyph-name="odieresis" horiz-adv-x="1146" unicode="ö"/><glyph d="M535 807l38 184h191l-39 -184h-190zM184 459l25 116h749l-26 -116h-748zM369 27l41 186h190l-41 -186h-190z" glyph-name="divide" horiz-adv-x="1142" unicode="÷"/><glyph d="M1106 920l-70 -58q61 -143 17 -356q-53 -250 -214 -389.5t-374 -139.5q-221 0 -324 146l-59 -49l-45 53l69 57q-59 143 -14 351q53 256 213 395t375 139q219 0 321 -145l58 47zM207 506q-31 -145 -2 -240l708 586q-68 104 -237 104q-172 0 -297 -114.5t-172 -335.5z M942 535q31 152 2 251l-711 -587q70 -106 240 -107q174 0 299 113t170 330z" glyph-name="oslash" horiz-adv-x="1146" unicode="ø"/><glyph d="M623 1171l-162 242h182l102 -242h-122zM1049 1049l-222 -1049h-125l35 162l-16 -6q-133 -170 -322 -170q-166 0 -239.5 105.5t-34.5 285.5l141 672h123l-143 -676q-57 -266 157 -267q141 0 253 94.5t141 237.5l129 611h123z" glyph-name="ugrave" horiz-adv-x="1130" unicode="ù"/><glyph d="M629 1174l207 239h186l-285 -239h-108zM1049 1049l-222 -1049h-125l35 162l-16 -6q-133 -170 -322 -170q-166 0 -239.5 105.5t-34.5 285.5l141 672h123l-143 -676q-57 -266 157 -267q141 0 253 94.5t141 237.5l129 611h123z" glyph-name="uacute" horiz-adv-x="1130" unicode="ú"/><glyph d="M408 1143l315 270h20l203 -270h-110l-119 164l-189 -164h-120zM1049 1049l-222 -1049h-125l35 162l-16 -6q-133 -170 -322 -170q-166 0 -239.5 105.5t-34.5 285.5l141 672h123l-143 -676q-57 -266 157 -267q141 0 253 94.5t141 237.5l129 611h123z" glyph-name="ucircumflex" horiz-adv-x="1130" unicode="û"/><glyph d="M465 1225l41 188h149l-41 -188h-149zM772 1225l41 188h150l-41 -188h-150zM1049 1049l-222 -1049h-125l35 162l-16 -6q-133 -170 -322 -170q-166 0 -239.5 105.5t-34.5 285.5l141 672h123l-143 -676q-57 -266 157 -267q141 0 253 94.5t141 237.5l129 611h123z" glyph-name="udieresis" horiz-adv-x="1130" unicode="ü"/><glyph d="M526 1174l207 239h187l-285 -239h-109zM-131 -365l12 107q111 0 195 44t113.5 82t80.5 120q8 12 13 18l-133 1043h124l93 -891h10l461 891h135l-611 -1115q-45 -82 -98 -140t-99 -88t-104.5 -47t-97.5 -20.5t-94 -3.5z" glyph-name="yacute" horiz-adv-x="884" unicode="ý"/><glyph d="M4 -365l377 1778h123l-117 -539l10 5q158 141 365 141t294 -151.5t38 -383.5q-47 -219 -190.5 -362t-342.5 -143q-215 0 -317 149l-11 -4l-104 -490h-125zM530 86q174 0 290 123t155 305q35 168 -24.5 281.5t-223.5 113.5q-170 0 -281.5 -121.5t-150.5 -302.5 q-20 -109 -11 -196.5t72 -145t174 -57.5z" glyph-name="thorn" horiz-adv-x="1191" unicode="þ"/><glyph d="M362 1225l41 188h150l-41 -188h-150zM670 1225l41 188h149l-41 -188h-149zM-131 -365l12 107q111 0 195 44t113.5 82t80.5 120q8 12 13 18l-133 1043h124l93 -891h10l461 891h135l-611 -1115q-45 -82 -98 -140t-99 -88t-104.5 -47t-97.5 -20.5t-94 -3.5z" glyph-name="ydieresis" horiz-adv-x="884" unicode="ÿ"/><glyph d="M559 1700h526l-20 -94h-526zM668 1413h182l164 -1413h-140l-32 322h-631l-170 -322h-141zM268 432h563l-90 891h-4z" glyph-name="Amacron" horiz-adv-x="1134" unicode="Ā"/><glyph d="M979 1335l-21 -94h-526l21 94h526zM647 1069q178 0 271.5 -84t62.5 -231l-160 -754h-119l37 172q-219 -195 -415 -195q-145 0 -225.5 88.5t-49.5 231.5q14 70 65.5 126t114 95t176 79t204.5 64.5t247 63.5l4 23q25 111 -25.5 156.5t-177.5 45.5q-238 0 -378 -168l-91 80 q185 207 459 207zM350 88q180 0 420 231l59 287q-125 -31 -188 -48t-162.5 -50t-151 -63.5t-96.5 -76.5t-55 -100q-16 -82 35 -131t139 -49z" glyph-name="amacron" horiz-adv-x="1064" unicode="ā"/><glyph d="M1026 1772h111q-25 -123 -123.5 -194t-220.5 -71q-125 0 -201 72t-55 193h114q-14 -74 26 -120t115.5 -46t144.5 48t89 118zM668 1413h182l164 -1413h-140l-32 322h-631l-170 -322h-141zM268 432h563l-90 891h-4z" glyph-name="Abreve" horiz-adv-x="1134" unicode="Ă"/><glyph d="M686 1143q-125 0 -200.5 71.5t-55.5 192.5h115q-14 -74 25.5 -120t115.5 -46t144.5 48t89.5 118h110q-25 -123 -123 -193.5t-221 -70.5zM647 1069q178 0 271.5 -84t62.5 -231l-160 -754h-119l37 172q-219 -195 -415 -195q-145 0 -225.5 88.5t-49.5 231.5q14 70 65.5 126 t114 95t176 79t204.5 64.5t247 63.5l4 23q25 111 -25.5 156.5t-177.5 45.5q-238 0 -378 -168l-91 80q185 207 459 207zM350 88q180 0 420 231l59 287q-125 -31 -188 -48t-162.5 -50t-151 -63.5t-96.5 -76.5t-55 -100q-16 -82 35 -131t139 -49z" glyph-name="abreve" horiz-adv-x="1064" unicode="ă"/><glyph d="M1049 -276l67 -60q-86 -102 -207 -102q-96 0 -139 59.5t-22 151.5q27 135 176 227h-50l-32 322h-631l-170 -322h-141l768 1413h182l164 -1413h2q-158 -106 -185 -236q-12 -59 7.5 -87.5t62.5 -28.5q78 0 148 76zM268 432h563l-90 891h-4z" glyph-name="Aogonek" horiz-adv-x="1134" unicode="Ą"/><glyph d="M821 0q-158 -106 -184 -236q-12 -59 7.5 -87.5t62.5 -28.5q78 0 147 76l68 -60q-86 -102 -207 -102q-96 0 -139.5 59.5t-22.5 151.5q27 135 176 227h-27l37 172q-219 -195 -415 -195q-145 0 -225.5 88.5t-49.5 231.5q14 70 65.5 126t114 95t176 79t204.5 64.5t247 63.5 l4 23q25 111 -25.5 156.5t-177.5 45.5q-238 0 -378 -168l-91 80q184 207 459 207q178 0 271.5 -84t62.5 -231zM350 88q180 0 420 231l59 287q-125 -31 -188 -48t-162.5 -50t-151 -63.5t-96.5 -76.5t-55 -100q-16 -82 35 -131t139 -49z" glyph-name="aogonek" horiz-adv-x="1064" unicode="ą"/><glyph d="M852 1538l207 240h186l-284 -240h-109zM631 -20q-291 0 -429.5 196.5t-66.5 544.5q74 336 289 525.5t498 189.5q184 0 319 -105.5t158 -269.5l-113 -41q-20 135 -116.5 213t-258.5 78q-238 0 -413.5 -166t-235.5 -443q-59 -272 43.5 -435t335.5 -163q152 0 291 84 t221 220l96 -64q-92 -164 -264 -264t-354 -100z" glyph-name="Cacute" horiz-adv-x="1347" unicode="Ć"/><glyph d="M592 1174l207 239h186l-285 -239h-108zM442 -23q-221 0 -310 162t-40 398q49 227 198.5 379.5t364.5 152.5q143 0 235.5 -72.5t110.5 -197.5l-116 -35q-6 92 -69.5 144.5t-164.5 52.5q-174 0 -288.5 -137.5t-151.5 -315.5q-18 -70 -13 -143.5t25.5 -135t77.5 -100.5 t143 -39q113 0 205 57.5t137 145.5l99 -53q-70 -125 -186 -194t-257 -69z" glyph-name="cacute" horiz-adv-x="1005" unicode="ć"/><glyph d="M850 1595l39 183h139l-39 -183h-139zM631 -20q-291 0 -429.5 196.5t-66.5 544.5q74 336 289 525.5t498 189.5q184 0 319 -105.5t158 -269.5l-113 -41q-20 135 -116.5 213t-258.5 78q-238 0 -413.5 -166t-235.5 -443q-59 -272 43.5 -435t335.5 -163q152 0 291 84t221 220 l96 -64q-92 -164 -264 -264t-354 -100z" glyph-name="Cdotaccent" horiz-adv-x="1347" unicode="Ċ"/><glyph d="M590 1231l39 182h139l-39 -182h-139zM442 -23q-221 0 -310 162t-40 398q49 227 198.5 379.5t364.5 152.5q143 0 235.5 -72.5t110.5 -197.5l-116 -35q-6 92 -69.5 144.5t-164.5 52.5q-174 0 -288.5 -137.5t-151.5 -315.5q-18 -70 -13 -143.5t25.5 -135t77.5 -100.5 t143 -39q113 0 205 57.5t137 145.5l99 -53q-70 -125 -186 -194t-257 -69z" glyph-name="cdotaccent" horiz-adv-x="1005" unicode="ċ"/><glyph d="M893 1505l-201 273h113l117 -158l190 158h119l-320 -273h-18zM631 -20q-291 0 -429.5 196.5t-66.5 544.5q74 336 289 525.5t498 189.5q184 0 319 -105.5t158 -269.5l-113 -41q-20 135 -116.5 213t-258.5 78q-238 0 -413.5 -166t-235.5 -443q-59 -272 43.5 -435 t335.5 -163q152 0 291 84t221 220l96 -64q-92 -164 -264 -264t-354 -100z" glyph-name="Ccaron" horiz-adv-x="1347" unicode="Č"/><glyph d="M633 1141l-201 272h113l117 -158l190 158h119l-320 -272h-18zM442 -23q-221 0 -310 162t-40 398q49 227 198.5 379.5t364.5 152.5q143 0 235.5 -72.5t110.5 -197.5l-116 -35q-6 92 -69.5 144.5t-164.5 52.5q-174 0 -288.5 -137.5t-151.5 -315.5q-18 -70 -13 -143.5 t25.5 -135t77.5 -100.5t143 -39q113 0 205 57.5t137 145.5l99 -53q-70 -125 -186 -194t-257 -69z" glyph-name="ccaron" horiz-adv-x="1005" unicode="č"/><glyph d="M940 1505l-201 273h113l117 -158l190 158h119l-320 -273h-18zM96 0l299 1413h346q340 0 483.5 -188.5t67.5 -544.5q-70 -328 -290 -504t-553 -176h-353zM252 123h186q602 0 727 598q61 291 -47 431t-397 140h-221z" glyph-name="Dcaron" horiz-adv-x="1355" unicode="Ď"/><glyph d="M1104 1413h123l-299 -1413h-123l24 121h-4q-178 -143 -385 -144q-233 0 -317 156t-31 406q51 238 193.5 384t371.5 146q205 0 328 -149l16 2zM1325 1413h160l-35 -166l-154 -270h-77l129 270h-58zM473 90q168 0 290 121t165 328q41 190 -25.5 301.5t-224.5 111.5 q-186 0 -305 -117.5t-162 -324.5q-43 -201 20.5 -310.5t241.5 -109.5z" glyph-name="dcaron" horiz-adv-x="1193" unicode="ď"/><glyph d="M709 1413q340 0 483 -188.5t68 -544.5q-70 -328 -290 -504t-554 -176h-353l140 659h-140l21 107h141l137 647h347zM1133 721q61 291 -47.5 431t-397.5 140h-221l-111 -526h379l-20 -107h-381l-115 -536h187q602 0 727 598z" glyph-name="Dcroat" unicode="Đ"/><glyph d="M1370 1266l-18 -82h-174l-250 -1184h-123l24 121h-4q-178 -143 -385 -144q-233 0 -317 156t-31 406q51 238 193.5 384t371.5 146q205 0 328 -149l16 2l56 262h-338l18 82h336l31 147h123l-31 -147h174zM473 90q168 0 290 121t165 328q41 190 -25.5 301.5t-224.5 111.5 q-186 0 -305 -117.5t-162 -324.5q-43 -201 20.5 -310.5t241.5 -109.5z" glyph-name="dcroat" horiz-adv-x="1228" unicode="đ"/><glyph d="M627 1606l20 94h527l-21 -94h-526zM96 0l299 1413h908l-27 -119h-776l-113 -528h678l-23 -119h-677l-115 -528h778l-24 -119h-908z" glyph-name="Emacron" horiz-adv-x="1224" unicode="Ē"/><glyph d="M999 1335l-20 -94h-526l20 94h526zM676 1069q109 0 184.5 -35t113.5 -89t53 -129t11 -146.5t-20 -149.5q-2 -8 -6 -26.5t-8 -28.5l-799 6q-14 -104 4 -184t92 -136.5t199 -56.5q178 0 334 107l57 -92q-184 -129 -395 -129q-137 0 -232.5 48t-135.5 126.5t-51 180 t17 206.5q45 219 191.5 373.5t390.5 154.5zM664 954q-178 0 -287 -107.5t-152 -266.5h686q68 374 -247 374z" glyph-name="emacron" horiz-adv-x="1107" unicode="ē"/><glyph d="M819 1595l39 183h139l-39 -183h-139zM96 0l299 1413h908l-27 -119h-776l-113 -528h678l-23 -119h-677l-115 -528h778l-24 -119h-908z" glyph-name="Edotaccent" horiz-adv-x="1224" unicode="Ė"/><glyph d="M823 1413l-39 -182h-139l39 182h139zM676 1069q109 0 184.5 -35t113.5 -89t53 -129t11 -146.5t-20 -149.5q-2 -8 -6 -26.5t-8 -28.5l-799 6q-14 -104 4 -184t92 -136.5t199 -56.5q178 0 334 107l57 -92q-184 -129 -395 -129q-137 0 -232.5 48t-135.5 126.5t-51 180 t17 206.5q45 219 191.5 373.5t390.5 154.5zM664 954q-178 0 -287 -107.5t-152 -266.5h686q68 374 -247 374z" glyph-name="edotaccent" horiz-adv-x="1107" unicode="ė"/><glyph d="M1276 1294h-776l-113 -528h678l-23 -119h-677l-115 -528h778l-24 -119q-158 -106 -185 -236q-12 -59 7.5 -87.5t62.5 -28.5q78 0 147 76l68 -60q-86 -102 -207 -102q-96 0 -139 59.5t-23 151.5q27 135 176 227h-815l299 1413h908z" glyph-name="Eogonek" horiz-adv-x="1224" unicode="Ę"/><glyph d="M676 1069q109 0 184.5 -35t113.5 -89t53 -129t11 -146.5t-20 -149.5q-2 -8 -6 -26.5t-8 -28.5l-799 6q-14 -104 4 -184t92 -136.5t199 -56.5q178 0 334 107l57 -92q-57 -37 -66 -41q-102 -86 -123 -191q-12 -59 7.5 -88t62.5 -29q78 0 148 76l67 -59q-86 -102 -207 -103 q-96 0 -139 59.5t-23 151.5q14 63 56 119q-84 -25 -178 -24q-137 0 -232.5 48t-135.5 126.5t-51 180t17 206.5q45 219 191.5 373.5t390.5 154.5zM911 580q68 375 -247 374q-178 0 -287 -107.5t-152 -266.5h686z" glyph-name="eogonek" horiz-adv-x="1107" unicode="ę"/><glyph d="M862 1505l-200 273h112l117 -158l190 158h119l-319 -273h-19zM96 0l299 1413h908l-27 -119h-776l-113 -528h678l-23 -119h-677l-115 -528h778l-24 -119h-908z" glyph-name="Ecaron" horiz-adv-x="1224" unicode="Ě"/><glyph d="M707 1141h-19l-201 272h113l117 -158l190 158h119zM676 1069q109 0 184.5 -35t113.5 -89t53 -129t11 -146.5t-20 -149.5q-2 -8 -6 -26.5t-8 -28.5l-799 6q-14 -104 4 -184t92 -136.5t199 -56.5q178 0 334 107l57 -92q-184 -129 -395 -129q-137 0 -232.5 48t-135.5 126.5 t-51 180t17 206.5q45 219 191.5 373.5t390.5 154.5zM664 954q-178 0 -287 -107.5t-152 -266.5h686q68 374 -247 374z" glyph-name="ecaron" horiz-adv-x="1107" unicode="ě"/><glyph d="M946 1507q-125 0 -200.5 72t-55.5 193h115q-14 -74 25.5 -120t115.5 -46t144.5 48t89.5 118h110q-25 -123 -123 -194t-221 -71zM879 590l24 112h451l-150 -702h-104l49 256q-82 -115 -223.5 -195.5t-319.5 -80.5q-295 0 -416.5 211.5t-52.5 533.5q63 305 266 508t508 203 q395 0 498 -377l-127 -37q-82 285 -381 285q-254 0 -418 -171t-221 -434q-53 -254 34 -425t318 -171q201 0 364 126t228 358h-327z" glyph-name="Gbreve" horiz-adv-x="1497" unicode="Ğ"/><glyph d="M709 1143q-125 0 -201 71.5t-55 192.5h114q-14 -74 26 -120t115.5 -46t144.5 48t89 118h111q-25 -123 -123 -193.5t-221 -70.5zM391 -385q-172 0 -289.5 64.5t-119.5 175.5l104 28q12 -84 103.5 -123t211.5 -39q164 0 271.5 80t134.5 203l37 160q-158 -156 -389 -156 q-119 0 -203 45t-122 121t-49 175.5t15 207.5q49 221 196.5 366.5t389.5 145.5q213 0 301 -149l18 6l25 123h125l-223 -1057q-39 -172 -177.5 -274.5t-359.5 -102.5zM485 117q184 0 297 114.5t152 303.5q20 80 15 156.5t-28.5 137t-87 97.5t-157.5 37q-182 0 -302 -124 t-159 -315q-37 -178 25.5 -292.5t244.5 -114.5z" glyph-name="gbreve" horiz-adv-x="1232" unicode="ğ"/><glyph d="M1063 1778l-39 -183h-139l39 183h139zM879 590l24 112h451l-150 -702h-104l49 256q-82 -115 -223.5 -195.5t-319.5 -80.5q-295 0 -416.5 211.5t-52.5 533.5q63 305 266 508t508 203q395 0 498 -377l-127 -37q-82 285 -381 285q-254 0 -418 -171t-221 -434 q-53 -254 34 -425t318 -171q201 0 364 126t228 358h-327z" glyph-name="Gdotaccent" horiz-adv-x="1497" unicode="Ġ"/><glyph d="M647 1231l39 182h139l-39 -182h-139zM391 -385q-172 0 -289.5 64.5t-119.5 175.5l104 28q12 -84 103.5 -123t211.5 -39q164 0 271.5 80t134.5 203l37 160q-158 -156 -389 -156q-119 0 -203 45t-122 121t-49 175.5t15 207.5q49 221 196.5 366.5t389.5 145.5 q213 0 301 -149l18 6l25 123h125l-223 -1057q-39 -172 -177.5 -274.5t-359.5 -102.5zM485 117q184 0 297 114.5t152 303.5q20 80 15 156.5t-28.5 137t-87 97.5t-157.5 37q-182 0 -302 -124t-159 -315q-37 -178 25.5 -292.5t244.5 -114.5z" glyph-name="gdotaccent" horiz-adv-x="1232" unicode="ġ"/><glyph d="M879 590l24 112h451l-150 -702h-104l49 256q-82 -115 -223.5 -195.5t-319.5 -80.5q-295 0 -416.5 211.5t-52.5 533.5q63 305 266 508t508 203q395 0 498 -377l-127 -37q-82 285 -381 285q-254 0 -418 -171t-221 -434q-53 -254 34 -425t318 -171q201 0 364 126t228 358 h-327zM338 -446l184 303h183l-279 -303h-88z" glyph-name="Gcommaaccent" horiz-adv-x="1497" unicode="Ģ"/><glyph d="M944 1413l-184 -270h-182l278 270h88zM391 -385q-172 0 -289.5 64.5t-119.5 175.5l104 28q12 -84 103.5 -123t211.5 -39q164 0 271.5 80t134.5 203l37 160q-158 -156 -389 -156q-119 0 -203 45t-122 121t-49 175.5t15 207.5q49 221 196.5 366.5t389.5 145.5 q213 0 301 -149l18 6l25 123h125l-223 -1057q-39 -172 -177.5 -274.5t-359.5 -102.5zM485 117q184 0 297 114.5t152 303.5q20 80 15 156.5t-28.5 137t-87 97.5t-157.5 37q-182 0 -302 -124t-159 -315q-37 -178 25.5 -292.5t244.5 -114.5z" glyph-name="gcommaaccent" horiz-adv-x="1218" unicode="ģ"/><glyph d="M1446 1165l-21 -102h-100l-225 -1063h-131l137 649h-741l-138 -649h-131l226 1063h-105l21 102h104l53 248h131l-53 -248h741l54 248h131l-53 -248h100zM1128 764l64 299h-741l-64 -299h741z" glyph-name="Hbar" horiz-adv-x="1415" unicode="Ħ"/><glyph d="M737 1069q160 0 232.5 -107.5t34.5 -287.5l-142 -674h-123l144 674q61 274 -164 274q-135 0 -246 -97t-139 -241l-129 -610h-123l250 1182h-195l19 82h194l31 149h123l-33 -149h317l-18 -82h-317l-64 -295l14 6q139 176 334 176z" glyph-name="hbar" horiz-adv-x="1130" unicode="ħ"/><glyph d="M649 1536q-55 0 -98 23.5t-65.5 53t-54.5 53.5t-66 24q-55 0 -93.5 -43t-50.5 -99l-74 13q43 215 213 215q59 0 103.5 -25t67 -55.5t53 -55t65.5 -24.5q55 0 95 47t55 119l86 -10q-52 -236 -236 -236zM96 0l299 1413h131l-299 -1413h-131z" glyph-name="Itilde" horiz-adv-x="542" unicode="Ĩ"/><glyph d="M535 1171q-55 0 -98.5 24t-66 53.5t-54 53t-66.5 23.5q-55 0 -93 -43t-51 -98l-73 12q43 215 213 215q59 0 103 -24.5t66.5 -55.5t53.5 -55.5t66 -24.5q55 0 95 47.5t54 118.5l86 -10q-51 -236 -235 -236zM70 0l221 1049h119l-222 -1049h-118z" glyph-name="itilde" horiz-adv-x="479" unicode="ĩ"/><glyph d="M240 1606l20 94h526l-20 -94h-526zM96 0l299 1413h131l-299 -1413h-131z" glyph-name="Imacron" horiz-adv-x="542" unicode="Ī"/><glyph d="M125 1241l20 94h527l-21 -94h-526zM70 0l221 1049h119l-222 -1049h-118z" glyph-name="imacron" horiz-adv-x="479" unicode="ī"/><glyph d="M113 -352q78 0 147 76l68 -60q-86 -102 -207 -102q-96 0 -139 59.5t-23 151.5q27 135 176 227h-39l299 1413h131l-299 -1413q-158 -106 -184 -236q-12 -59 7.5 -87.5t62.5 -28.5z" glyph-name="Iogonek" horiz-adv-x="542" unicode="Į"/><glyph d="M381 1413h123l-41 -188h-123zM426 1049l-221 -1049h-23l13 -4q-158 -106 -185 -236q-12 -59 7.5 -87.5t62.5 -28.5q78 0 147 75l68 -59q-86 -102 -207 -102q-96 0 -139 59t-23 152q27 135 185 231h-29l221 1049h123z" glyph-name="iogonek" horiz-adv-x="505" unicode="į"/><glyph d="M432 1595l39 183h139l-39 -183h-139zM96 0l299 1413h131l-299 -1413h-131z" glyph-name="Idotaccent" horiz-adv-x="542" unicode="İ"/><glyph d="M70 0l221 1049h119l-222 -1049h-118z" glyph-name="dotlessi" horiz-adv-x="479" unicode="ı"/><glyph d="M1307 1413l-643 -561l421 -852h-149l-369 766l-219 -191l-121 -575h-131l299 1413h131l-141 -672l756 672h166zM264 -446l185 303h182l-279 -303h-88z" glyph-name="Kcommaaccent" horiz-adv-x="1208" unicode="Ķ"/><glyph d="M1071 1049l-536 -435l387 -614h-131l-336 549l-162 -129l-88 -420h-123l299 1413h123l-176 -835l587 471h156zM178 -446l184 303h183l-279 -303h-88z" glyph-name="kcommaaccent" horiz-adv-x="1015" unicode="ķ"/><glyph d="M459 1538l207 240h186l-285 -240h-108zM96 0l299 1413h131l-276 -1294h604l-23 -119h-735z" glyph-name="Lacute" horiz-adv-x="962" unicode="Ĺ"/><glyph d="M399 1538l207 240h187l-285 -240h-109zM70 0l299 1413h120l-299 -1413h-120z" glyph-name="lacute" horiz-adv-x="481" unicode="ĺ"/><glyph d="M96 0l299 1413h131l-276 -1294h604l-23 -119h-735zM76 -446l184 303h182l-278 -303h-88z" glyph-name="Lcommaaccent" horiz-adv-x="962" unicode="Ļ"/><glyph d="M70 0l299 1413h120l-299 -1413h-120zM-178 -446l184 303h182l-278 -303h-88z" glyph-name="lcommaaccent" horiz-adv-x="481" unicode="ļ"/><glyph d="M924 1415h188l-41 -194l-180 -314h-90l149 314h-65zM96 0l299 1413h131l-276 -1294h604l-23 -119h-735z" glyph-name="Lcaron" horiz-adv-x="962" unicode="Ľ"/><glyph d="M623 1415h188l-41 -194l-180 -314h-90l149 314h-65zM70 0l299 1413h120l-299 -1413h-120z" glyph-name="lcaron" horiz-adv-x="581" unicode="ľ"/><glyph d="M250 119h604l-23 -119h-735l113 537l-240 -154l25 131l244 156l157 743h131l-139 -647l234 147l-27 -131l-234 -149z" glyph-name="Lslash" horiz-adv-x="962" unicode="Ł"/><glyph d="M610 991l-26 -133l-244 -156l-150 -702h-120l129 614l-240 -153l25 131l243 156l142 665h120l-122 -577z" glyph-name="lslash" horiz-adv-x="481" unicode="ł"/><glyph d="M901 1538l207 240h186l-284 -240h-109zM96 0l299 1413h205l444 -1280h13l272 1280h129l-299 -1413h-209l-442 1294h-8l-273 -1294h-131z" glyph-name="Nacute" horiz-adv-x="1476" unicode="Ń"/><glyph d="M639 1178l207 239h186l-284 -239h-109zM82 0l221 1049h125l-35 -162l8 6q139 176 332 176q164 0 236.5 -107.5t34.5 -287.5l-142 -674h-123l144 674q61 279 -156 278q-141 0 -251.5 -96t-141.5 -246l-129 -610h-123z" glyph-name="nacute" horiz-adv-x="1130" unicode="ń"/><glyph d="M96 0l299 1413h205l444 -1280h13l272 1280h129l-299 -1413h-209l-442 1294h-8l-273 -1294h-131zM324 -446l184 303h182l-278 -303h-88z" glyph-name="Ncommaaccent" horiz-adv-x="1476" unicode="Ņ"/><glyph d="M82 0l221 1049h125l-35 -162l8 6q139 176 332 176q164 0 236.5 -107.5t34.5 -287.5l-142 -674h-123l144 674q61 279 -156 278q-141 0 -251.5 -96t-141.5 -246l-129 -610h-123zM164 -446l184 303h182l-278 -303h-88z" glyph-name="ncommaaccent" horiz-adv-x="1130" unicode="ņ"/><glyph d="M942 1505l-201 273h113l117 -158l190 158h119l-319 -273h-19zM96 0l299 1413h205l444 -1280h13l272 1280h129l-299 -1413h-209l-442 1294h-8l-273 -1294h-131z" glyph-name="Ncaron" horiz-adv-x="1476" unicode="Ň"/><glyph d="M680 1145l-201 272h113l117 -157l190 157h119l-320 -272h-18zM82 0l221 1049h125l-35 -162l8 6q139 176 332 176q164 0 236.5 -107.5t34.5 -287.5l-142 -674h-123l144 674q61 279 -156 278q-141 0 -251.5 -96t-141.5 -246l-129 -610h-123z" glyph-name="ncaron" horiz-adv-x="1130" unicode="ň"/><glyph d="M756 -289l22 109h70q55 0 86 14t35 45t0 53.5t-19 65.5l-442 1296h-8l-273 -1294h-131l299 1413h205l444 -1280h13l272 1280h129l-299 -1413q-27 -127 -51 -170q-68 -119 -272 -119h-80z" glyph-name="Eng" horiz-adv-x="1478" unicode="Ŋ"/><glyph d="M57 0l211 999h133l-34 -165l10 6q139 176 346 176q168 0 225.5 -117t18.5 -295l-136 -643q-53 -250 -305 -250h-80l21 96h25q61 0 106 21.5t67.5 57.5t31 56.5t12.5 41.5l131 620q61 287 -144 287q-133 0 -247.5 -97.5t-143.5 -232.5l-121 -561h-127z" glyph-name="eng" horiz-adv-x="1107" unicode="ŋ"/><glyph d="M692 1606l21 94h526l-20 -94h-527zM621 -20q-293 0 -425.5 200.5t-60.5 540.5q72 328 281 520.5t493 192.5q291 0 421 -201t59 -541q-70 -328 -277.5 -520t-490.5 -192zM629 102q233 0 408 168t235 451q59 270 -41.5 430t-327.5 160q-238 0 -414 -168t-235 -451 q-57 -270 43.5 -430t331.5 -160z" glyph-name="Omacron" horiz-adv-x="1449" unicode="Ō"/><glyph d="M461 1241l20 94h527l-21 -94h-526zM465 -23q-221 0 -324.5 147.5t-48.5 410.5q53 256 213 395t375 139q219 0 324.5 -148.5t48.5 -414.5q-53 -250 -214 -389.5t-374 -139.5zM473 92q174 0 299 112.5t170 330.5q43 209 -27.5 315t-238.5 106q-172 0 -297 -114.5 t-172 -335.5q-43 -205 28.5 -309.5t237.5 -104.5z" glyph-name="omacron" horiz-adv-x="1146" unicode="ō"/><glyph d="M686 1544l264 234h189l-322 -234h-131zM1014 1544l262 234h190l-321 -234h-131zM621 -20q-293 0 -425.5 200.5t-60.5 540.5q72 328 281 520.5t493 192.5q291 0 421 -201t59 -541q-70 -328 -277.5 -520t-490.5 -192zM629 102q233 0 408 168t235 451q59 270 -41.5 430 t-327.5 160q-238 0 -414 -168t-235 -451q-57 -270 43.5 -430t331.5 -160z" glyph-name="Ohungarumlaut" horiz-adv-x="1449" unicode="Ő"/><glyph d="M455 1180l264 233h188l-321 -233h-131zM782 1180l262 233h191l-322 -233h-131zM465 -23q-221 0 -324.5 147.5t-48.5 410.5q53 256 213 395t375 139q219 0 324.5 -148.5t48.5 -414.5q-53 -250 -214 -389.5t-374 -139.5zM473 92q174 0 299 112.5t170 330.5 q43 209 -27.5 315t-238.5 106q-172 0 -297 -114.5t-172 -335.5q-43 -205 28.5 -309.5t237.5 -104.5z" glyph-name="ohungarumlaut" horiz-adv-x="1146" unicode="ő"/><glyph d="M2306 1294h-778l-113 -528h680l-22 -119h-680l-115 -528h780l-24 -119h-910l52 238q-223 -258 -555 -258q-293 0 -425.5 200.5t-60.5 540.5q72 328 281 520.5t493 192.5q344 0 461 -275l53 254h910zM629 102q233 0 408 168t235 451q59 270 -41.5 430t-327.5 160 q-238 0 -414 -168t-235 -451q-57 -270 43.5 -430t331.5 -160z" glyph-name="OE" horiz-adv-x="2254" unicode="Œ"/><glyph d="M1528 1069q109 0 184.5 -35t113.5 -89t53 -129t11 -146.5t-20 -149.5q-2 -8 -6 -26.5t-9 -28.5l-798 6q-14 -104 4 -184t92 -136.5t199 -56.5q178 0 334 107l57 -92q-184 -129 -395 -129q-332 0 -402 260q-84 -127 -210 -195t-271 -68q-221 0 -324.5 147.5t-48.5 410.5 q53 256 213 395t375 139q143 0 241.5 -66.5t133.5 -191.5q168 258 473 258zM473 92q174 0 299 112.5t170 330.5q43 209 -27.5 315t-238.5 106q-172 0 -297 -114.5t-172 -335.5q-43 -205 28.5 -309.5t237.5 -104.5zM1763 580q68 375 -247 374q-178 0 -287 -107.5t-152 -266.5 h686z" glyph-name="oe" horiz-adv-x="1957" unicode="œ"/><glyph d="M795 1538l206 240h187l-285 -240h-108zM94 -2l301 1415h561q199 0 299.5 -108.5t61.5 -290.5q-31 -141 -132.5 -233.5t-248.5 -118.5l199 -664h-144l-192 649h-434l-140 -649h-131zM389 766h463q283 16 340 276q25 121 -38.5 186.5t-211.5 65.5h-440z" glyph-name="Racute" unicode="Ŕ"/><glyph d="M541 1174l207 239h186l-285 -239h-108zM805 936q-190 41 -321.5 -95t-182.5 -384l-96 -457h-123l221 1049h127l-37 -170l6 6q119 180 289 180q92 0 143 -21z" glyph-name="racute" horiz-adv-x="745" unicode="ŕ"/><glyph d="M94 -2l301 1415h561q199 0 299.5 -108.5t61.5 -290.5q-31 -141 -132.5 -233.5t-248.5 -118.5l199 -664h-144l-192 649h-434l-140 -649h-131zM389 766h463q283 16 340 276q25 121 -38.5 186.5t-211.5 65.5h-440zM258 -446l184 303h183l-279 -303h-88z" glyph-name="Rcommaaccent" unicode="Ŗ"/><glyph d="M805 936q-190 41 -321.5 -95t-182.5 -384l-96 -457h-123l221 1049h127l-37 -170l6 6q119 180 289 180q92 0 143 -21zM-166 -446l184 303h183l-279 -303h-88z" glyph-name="rcommaaccent" horiz-adv-x="745" unicode="ŗ"/><glyph d="M836 1505l-201 273h113l116 -158l191 158h119l-320 -273h-18zM94 -2l301 1415h561q199 0 299.5 -108.5t61.5 -290.5q-31 -141 -132.5 -233.5t-248.5 -118.5l199 -664h-144l-192 649h-434l-140 -649h-131zM389 766h463q283 16 340 276q25 121 -38.5 186.5t-211.5 65.5 h-440z" glyph-name="Rcaron" unicode="Ř"/><glyph d="M582 1141l-201 272h113l116 -158l191 158h119l-320 -272h-18zM805 936q-190 41 -321.5 -95t-182.5 -384l-96 -457h-123l221 1049h127l-37 -170l6 6q119 180 289 180q92 0 143 -21z" glyph-name="rcaron" horiz-adv-x="745" unicode="ř"/><glyph d="M684 1538l207 240h186l-284 -240h-109zM457 -16q-166 0 -286 93t-144 277l125 45q43 -291 317 -290q137 0 237.5 69.5t124.5 192.5q6 29 6.5 54.5t-4 47t-17.5 42t-23.5 35.5t-33 33.5t-37.5 29t-45 27.5t-45.5 25.5t-49.5 24.5q-33 14 -54.5 23.5t-52.5 24t-50 26.5 t-45 29.5t-42 35t-33.5 39t-27 46t-15.5 52t-6 60.5t8 70q33 152 158 245t295 93q250 0 364 -220l-96 -69q-92 166 -274 166q-117 0 -205 -64.5t-113 -169.5q-10 -51 2.5 -91t57.5 -77t74.5 -54t101.5 -56q18 -10 26 -15q82 -37 132.5 -66.5t104.5 -78.5t71.5 -118.5 t-0.5 -160.5q-33 -166 -176.5 -271t-329.5 -105z" glyph-name="Sacute" horiz-adv-x="1071" unicode="Ś"/><glyph d="M541 1174l207 239h186l-285 -239h-108zM369 -23q-152 0 -254.5 80t-112.5 185l129 43q6 -76 69.5 -132.5t188.5 -56.5q115 0 207 53.5t113 151.5q10 45 -4.5 77t-51.5 52.5t-76.5 33.5t-97.5 28q-18 4 -26 6q-78 16 -126 32.5t-101.5 48t-71 82t-2.5 121.5 q29 133 143.5 210t273.5 77q135 0 218 -62.5t116 -152.5l-110 -51q-61 147 -236 147q-106 0 -192 -51t-103 -131q-8 -35 6.5 -61.5t57.5 -47t73.5 -31t102.5 -28.5q14 -4 22 -6q82 -18 131.5 -35.5t101.5 -51.5t69.5 -88t0.5 -130q-33 -145 -167.5 -228.5t-290.5 -83.5z" glyph-name="sacute" horiz-adv-x="948" unicode="ś"/><glyph d="M711 1311q-117 0 -205 -64.5t-113 -169.5q-10 -51 2.5 -91t57.5 -77t74.5 -54t101.5 -56q18 -10 26 -15q82 -37 132.5 -66.5t104.5 -78.5t71.5 -118.5t-0.5 -160.5q-33 -166 -176.5 -271t-329.5 -105h-15l-96 -121l41 -19q133 -49 107 -184q-16 -80 -77 -122t-128 -42 q-131 0 -160 127l82 31q-2 -31 17.5 -52.5t56.5 -21.5q45 0 79.5 31t43.5 72q16 74 -70 102l-107 35l127 172q-131 27 -221 118t-110 244l125 45q43 -291 317 -290q137 0 237.5 69.5t124.5 192.5q6 29 6.5 54.5t-4 47t-17.5 42t-23.5 35.5t-33 33.5t-37.5 29t-45 27.5 t-45.5 25.5t-49.5 24.5q-33 14 -54.5 23.5t-52.5 24t-50 26.5t-45 29.5t-42 35t-33.5 39t-27 46t-15.5 52t-6 60.5t8 70q33 152 158 245t295 93q250 0 364 -220l-96 -69q-92 166 -274 166z" glyph-name="Scedilla" horiz-adv-x="1071" unicode="Ş"/><glyph d="M524 594q82 -18 131.5 -35.5t101.5 -51.5t69.5 -88t0.5 -130q-27 -129 -138 -209t-251 -98l-92 -115l41 -19q133 -49 107 -184q-16 -80 -77 -122t-128 -42q-131 0 -160 127l82 31q-2 -31 17.5 -52.5t56.5 -21.5q45 0 79.5 31t43.5 72q16 74 -70 102l-107 35l113 153 q-141 8 -236.5 86t-105.5 179l129 43q6 -76 69.5 -132.5t188.5 -56.5q115 0 207 53.5t113 151.5q10 45 -4.5 77t-51.5 52.5t-76.5 33.5t-97.5 28q-18 4 -26 6q-78 16 -126 32.5t-101.5 48t-71 82t-2.5 121.5q29 133 143.5 210t273.5 77q135 0 218 -62.5t116 -152.5l-110 -51 q-61 147 -236 147q-106 0 -192 -51t-103 -131q-8 -35 6.5 -61.5t57.5 -47t73.5 -31t102.5 -28.5q14 -4 22 -6z" glyph-name="scedilla" horiz-adv-x="948" unicode="ş"/><glyph d="M725 1505l-201 273h113l117 -158l190 158h119l-320 -273h-18zM457 -16q-166 0 -286 93t-144 277l125 45q43 -291 317 -290q137 0 237.5 69.5t124.5 192.5q6 29 6.5 54.5t-4 47t-17.5 42t-23.5 35.5t-33 33.5t-37.5 29t-45 27.5t-45.5 25.5t-49.5 24.5q-33 14 -54.5 23.5 t-52.5 24t-50 26.5t-45 29.5t-42 35t-33.5 39t-27 46t-15.5 52t-6 60.5t8 70q33 152 158 245t295 93q250 0 364 -220l-96 -69q-92 166 -274 166q-117 0 -205 -64.5t-113 -169.5q-10 -51 2.5 -91t57.5 -77t74.5 -54t101.5 -56q18 -10 26 -15q82 -37 132.5 -66.5t104.5 -78.5 t71.5 -118.5t-0.5 -160.5q-33 -166 -176.5 -271t-329.5 -105z" glyph-name="Scaron" horiz-adv-x="1071" unicode="Š"/><glyph d="M582 1141l-201 272h113l116 -158l191 158h119l-320 -272h-18zM369 -23q-152 0 -254.5 80t-112.5 185l129 43q6 -76 69.5 -132.5t188.5 -56.5q115 0 207 53.5t113 151.5q10 45 -4.5 77t-51.5 52.5t-76.5 33.5t-97.5 28q-18 4 -26 6q-78 16 -126 32.5t-101.5 48t-71 82 t-2.5 121.5q29 133 143.5 210t273.5 77q135 0 218 -62.5t116 -152.5l-110 -51q-61 147 -236 147q-106 0 -192 -51t-103 -131q-8 -35 6.5 -61.5t57.5 -47t73.5 -31t102.5 -28.5q14 -4 22 -6q82 -18 131.5 -35.5t101.5 -51.5t69.5 -88t0.5 -130q-33 -145 -167.5 -228.5 t-290.5 -83.5z" glyph-name="scaron" horiz-adv-x="948" unicode="š"/><glyph d="M209 1413h1108l-25 -117h-487l-275 -1296h-12l-106 -133l41 -19q133 -49 106 -184q-16 -80 -76.5 -122t-128.5 -42q-131 0 -159 127l81 31q-2 -31 17.5 -52.5t56.5 -21.5q45 0 80 31t43 72q16 74 -70 102l-106 35l129 176h-27l275 1296h-490z" glyph-name="Tcommaaccent" horiz-adv-x="1148" unicode="Ţ"/><glyph d="M408 940l-136 -639q-25 -115 2 -157t123 -42h131l-22 -102h-41l-107 -133l41 -19q133 -49 107 -184q-16 -80 -76.5 -122t-128.5 -42q-131 0 -160 127l82 31q-2 -31 17.5 -52.5t56.5 -21.5q45 0 80 31t43 72q16 74 -70 102l-106 35l129 176h-4q-283 0 -219 289l139 651 h-164l22 109h162l78 364h121l-78 -364h297l-22 -109h-297z" glyph-name="tcommaaccent" horiz-adv-x="669" unicode="ţ"/><glyph d="M776 1505l-201 273h113l117 -158l190 158h119l-319 -273h-19zM399 0l275 1296h-490l25 117h1108l-25 -117h-487l-275 -1296h-131z" glyph-name="Tcaron" horiz-adv-x="1148" unicode="Ť"/><glyph d="M766 1661h188l-41 -195l-180 -313h-90l150 313h-66zM369 0q-283 0 -219 289l139 651h-164l22 109h162l78 364h121l-78 -364h297l-22 -109h-297l-136 -639q-25 -115 2 -157t123 -42h131l-22 -102h-137z" glyph-name="tcaron" horiz-adv-x="665" unicode="ť"/><glyph d="M1292 1296h-487l-117 -548h250l-18 -82h-248l-142 -666h-131l142 666h-254l18 82h252l117 548h-490l25 117h1108z" glyph-name="Tbar" horiz-adv-x="1148" unicode="Ŧ"/><glyph d="M705 940h-297l-80 -375h268l-14 -82h-271l-39 -182q-25 -115 2 -157t123 -42h131l-22 -102h-137q-283 0 -219 289l40 194h-159l16 82h162l80 375h-164l22 109h162l78 364h121l-78 -364h297z" glyph-name="tbar" horiz-adv-x="669" unicode="ŧ"/><glyph d="M1034 1536q-55 0 -98 23.5t-65.5 53t-54.5 53.5t-66 24q-55 0 -93.5 -43t-50.5 -99l-74 13q43 215 213 215q59 0 103.5 -25t67 -55.5t53 -55t65.5 -24.5q55 0 95 47t55 119l86 -10q-52 -236 -236 -236zM555 -20q-225 0 -328.5 137t-52.5 375l195 921h131l-199 -938 q-39 -178 30.5 -277.5t229.5 -99.5q166 0 284 104.5t154 282.5l197 928h131l-194 -921q-51 -242 -206 -377t-372 -135z" glyph-name="Utilde" unicode="Ũ"/><glyph d="M844 1171q-55 0 -98.5 24t-66 53.5t-54 53t-66.5 23.5q-55 0 -93 -43t-50 -98l-74 12q43 215 213 215q49 0 87 -16.5t60.5 -40t43 -47t45 -40t53.5 -16.5q55 0 95 47.5t54 118.5l86 -10q-51 -236 -235 -236zM1049 1049l-222 -1049h-125l35 162l-16 -6 q-133 -170 -322 -170q-166 0 -239.5 105.5t-34.5 285.5l141 672h123l-143 -676q-57 -266 157 -267q141 0 253 94.5t141 237.5l129 611h123z" glyph-name="utilde" horiz-adv-x="1130" unicode="ũ"/><glyph d="M625 1606l20 94h526l-20 -94h-526zM555 -20q-225 0 -328.5 137t-52.5 375l195 921h131l-199 -938q-39 -178 30.5 -277.5t229.5 -99.5q166 0 284 104.5t154 282.5l197 928h131l-194 -921q-51 -242 -206 -377t-372 -135z" glyph-name="Umacron" unicode="Ū"/><glyph d="M434 1241l21 94h526l-20 -94h-527zM1049 1049l-222 -1049h-125l35 162l-16 -6q-133 -170 -322 -170q-166 0 -239.5 105.5t-34.5 285.5l141 672h123l-143 -676q-57 -266 157 -267q141 0 253 94.5t141 237.5l129 611h123z" glyph-name="umacron" horiz-adv-x="1130" unicode="ū"/><glyph d="M872 1489q-84 0 -130 59.5t-27 147.5q14 74 78.5 125t140.5 51q84 0 130 -59.5t28 -145.5q-16 -74 -80 -126t-140 -52zM887 1573q43 0 77.5 29.5t45.5 70.5q10 47 -15.5 80t-72.5 33q-43 0 -78 -28.5t-45 -69.5q-10 -47 15.5 -81t72.5 -34zM555 -20q-225 0 -328.5 137 t-52.5 375l195 921h131l-199 -938q-39 -178 30.5 -277.5t229.5 -99.5q166 0 284 104.5t154 282.5l197 928h131l-194 -921q-51 -242 -206 -377t-372 -135z" glyph-name="Uring" unicode="Ů"/><glyph d="M682 1124q-84 0 -130 59.5t-28 147.5q14 74 79 125t140 51q84 0 130.5 -59t27.5 -145q-16 -74 -79.5 -126.5t-139.5 -52.5zM696 1208q43 0 78 30t45 71q10 47 -15.5 79.5t-72.5 32.5q-43 0 -78 -28.5t-45 -69.5q-10 -47 15.5 -81t72.5 -34zM1049 1049l-222 -1049h-125 l35 162l-16 -6q-133 -170 -322 -170q-166 0 -239.5 105.5t-34.5 285.5l141 672h123l-143 -676q-57 -266 157 -267q141 0 253 94.5t141 237.5l129 611h123z" glyph-name="uring" horiz-adv-x="1130" unicode="ů"/><glyph d="M618 1544l265 234h188l-321 -234h-132zM946 1544l262 234h191l-322 -234h-131zM555 -20q-225 0 -328.5 137t-52.5 375l195 921h131l-199 -938q-39 -178 30.5 -277.5t229.5 -99.5q166 0 284 104.5t154 282.5l197 928h131l-194 -921q-51 -242 -206 -377t-372 -135z" glyph-name="Uhungarumlaut" unicode="Ű"/><glyph d="M428 1180l264 233h189l-322 -233h-131zM756 1180l262 233h190l-321 -233h-131zM1049 1049l-222 -1049h-125l35 162l-16 -6q-133 -170 -322 -170q-166 0 -239.5 105.5t-34.5 285.5l141 672h123l-143 -676q-57 -266 157 -267q141 0 253 94.5t141 237.5l129 611h123z" glyph-name="uhungarumlaut" horiz-adv-x="1130" unicode="ű"/><glyph d="M827 45q-115 -88 -139 -203q-12 -59 7.5 -87.5t62.5 -28.5q78 0 147 75l68 -59q-86 -102 -207 -102q-96 0 -139 59t-23 151q18 78 74 142q-61 -12 -123 -12q-225 0 -328.5 137t-52.5 375l195 921h131l-199 -938q-39 -178 30.5 -277.5t229.5 -99.5q166 0 284 104.5 t154 282.5l197 928h131l-194 -921q-68 -316 -306 -447z" glyph-name="Uogonek" unicode="Ų"/><glyph d="M713 -352q78 0 147 76l68 -60q-86 -102 -207 -102q-96 0 -139 59.5t-23 151.5q27 135 176 227h-33l35 162l-16 -6q-133 -170 -322 -170q-166 0 -239.5 105.5t-34.5 285.5l141 672h123l-143 -676q-57 -266 157 -267q141 0 253 94.5t141 237.5l129 611h123l-222 -1049 q-158 -106 -184 -236q-12 -59 7.5 -87.5t62.5 -28.5z" glyph-name="uogonek" horiz-adv-x="1130" unicode="ų"/><glyph d="M844 1507l315 271h21l202 -271h-110l-119 164l-188 -164h-121zM254 0l-43 1413h133l21 -1272h2l626 1272h193l84 -1272h4l561 1272h137l-645 -1413h-164l-86 1333l-659 -1333h-164z" glyph-name="Wcircumflex" horiz-adv-x="1804" unicode="Ŵ"/><glyph d="M868 1307l-188 -164h-121l315 270h21l203 -270h-111zM1333 1049h140l-445 -1049h-186l-66 872l-438 -870h-186l2 1047h135l-29 -971l494 971h110l86 -979z" glyph-name="wcircumflex" horiz-adv-x="1402" unicode="ŵ"/><glyph d="M602 1507l316 271h20l203 -271h-111l-119 164l-188 -164h-121zM483 0l119 553l-401 860h153l330 -743l657 743h162l-770 -860l-119 -553h-131z" glyph-name="Ycircumflex" horiz-adv-x="1323" unicode="Ŷ"/><glyph d="M305 1143l316 270h20l203 -270h-111l-119 164l-188 -164h-121zM-131 -365l12 107q111 0 195 44t113.5 82t80.5 120q8 12 13 18l-133 1043h124l93 -891h10l461 891h135l-611 -1115q-45 -82 -98 -140t-99 -88t-104.5 -47t-97.5 -20.5t-94 -3.5z" glyph-name="ycircumflex" horiz-adv-x="884" unicode="ŷ"/><glyph d="M659 1589l41 189h150l-41 -189h-150zM967 1589l41 189h149l-41 -189h-149zM483 0l119 553l-401 860h153l330 -743l657 743h162l-770 -860l-119 -553h-131z" glyph-name="Ydieresis" horiz-adv-x="1323" unicode="Ÿ"/><glyph d="M1139 1778l-285 -240h-109l207 240h187zM1303 1413l-23 -117l-1174 -1177h922l-24 -119h-1080l23 113l1163 1181h-868l26 119h1035z" glyph-name="Zacute" horiz-adv-x="1148" unicode="Ź"/><glyph d="M926 1413l-285 -239h-109l207 239h187zM963 1049l-21 -109l-823 -825h637l-23 -115h-790l18 96l827 840h-622l22 113h775z" glyph-name="zacute" horiz-adv-x="897" unicode="ź"/><glyph d="M922 1778l-39 -183h-140l39 183h140zM1303 1413l-23 -117l-1174 -1177h922l-24 -119h-1080l23 113l1163 1181h-868l26 119h1035z" glyph-name="Zdotaccent" horiz-adv-x="1148" unicode="Ż"/><glyph d="M709 1413l-39 -182h-140l39 182h140zM963 1049l-21 -109l-823 -825h637l-23 -115h-790l18 96l827 840h-622l22 113h775z" glyph-name="zdotaccent" horiz-adv-x="897" unicode="ż"/><glyph d="M805 1505h-19l-200 273h112l117 -158l191 158h118zM1303 1413l-23 -117l-1174 -1177h922l-24 -119h-1080l23 113l1163 1181h-868l26 119h1035z" glyph-name="Zcaron" horiz-adv-x="1148" unicode="Ž"/><glyph d="M592 1141h-19l-200 272h112l117 -158l191 158h118zM963 1049l-21 -109l-823 -825h637l-23 -115h-790l18 96l827 840h-622l22 113h775z" glyph-name="zcaron" horiz-adv-x="897" unicode="ž"/><glyph d="M776 1303q-80 0 -141.5 -51.5t-77.5 -133.5l-16 -69h286l-22 -109h-287l-199 -940q-82 -379 -423 -379l14 113q111 0 182.5 55t104.5 211l198 940h-190l22 109h191l16 71q29 137 125 215t234 78h112l-22 -110h-107z" glyph-name="florin" horiz-adv-x="864" unicode="ƒ"/><glyph d="M793 1505h-19l-201 273h113l117 -158l190 158h119zM668 1413h182l164 -1413h-140l-32 322h-631l-170 -322h-141zM268 432h563l-90 891h-4z" glyph-name="uni01CD" horiz-adv-x="1134" unicode="Ǎ"/><glyph d="M686 1141h-18l-201 272h113l116 -158l191 158h119zM647 1069q178 0 271.5 -84t62.5 -231l-160 -754h-119l37 172q-219 -195 -415 -195q-145 0 -225.5 88.5t-49.5 231.5q14 70 65.5 126t114 95t176 79t204.5 64.5t247 63.5l4 23q25 111 -25.5 156.5t-177.5 45.5 q-238 0 -378 -168l-91 80q185 207 459 207zM350 88q180 0 420 231l59 287q-125 -31 -188 -48t-162.5 -50t-151 -63.5t-96.5 -76.5t-55 -100q-16 -82 35 -131t139 -49z" glyph-name="uni01CE" horiz-adv-x="1064" unicode="ǎ"/><glyph d="M475 1505l-201 273h113l117 -158l190 158h119l-319 -273h-19zM96 0l299 1413h131l-299 -1413h-131z" glyph-name="uni01CF" horiz-adv-x="542" unicode="Ǐ"/><glyph d="M360 1141l-200 272h112l117 -158l191 158h118l-319 -272h-19zM70 0l221 1049h119l-222 -1049h-118z" glyph-name="uni01D0" horiz-adv-x="479" unicode="ǐ"/><glyph d="M928 1505l-201 273h113l116 -158l191 158h119l-320 -273h-18zM621 -20q-293 0 -425.5 200.5t-60.5 540.5q72 328 281 520.5t493 192.5q291 0 421 -201t59 -541q-70 -328 -277.5 -520t-490.5 -192zM629 102q233 0 408 168t235 451q59 270 -41.5 430t-327.5 160 q-238 0 -414 -168t-235 -451q-57 -270 43.5 -430t331.5 -160z" glyph-name="uni01D1" horiz-adv-x="1449" unicode="Ǒ"/><glyph d="M696 1141l-200 272h112l117 -158l190 158h119l-319 -272h-19zM465 -23q-221 0 -324.5 147.5t-48.5 410.5q53 256 213 395t375 139q219 0 324.5 -148.5t48.5 -414.5q-53 -250 -214 -389.5t-374 -139.5zM473 92q174 0 299 112.5t170 330.5q43 209 -27.5 315t-238.5 106 q-172 0 -297 -114.5t-172 -335.5q-43 -205 28.5 -309.5t237.5 -104.5z" glyph-name="uni01D2" horiz-adv-x="1146" unicode="ǒ"/><glyph d="M860 1505l-201 273h113l117 -158l190 158h119l-319 -273h-19zM555 -20q-225 0 -328.5 137t-52.5 375l195 921h131l-199 -938q-39 -178 30.5 -277.5t229.5 -99.5q166 0 284 104.5t154 282.5l197 928h131l-194 -921q-51 -242 -206 -377t-372 -135z" glyph-name="uni01D3" unicode="Ǔ"/><glyph d="M670 1141l-201 272h113l116 -158l191 158h119l-320 -272h-18zM1049 1049l-222 -1049h-125l35 162l-16 -6q-133 -170 -322 -170q-166 0 -239.5 105.5t-34.5 285.5l141 672h123l-143 -676q-57 -266 157 -267q141 0 253 94.5t141 237.5l129 611h123z" glyph-name="uni01D4" horiz-adv-x="1130" unicode="ǔ"/><glyph d="M702 1970l21 94h526l-20 -94h-527zM655 1589l41 189h150l-41 -189h-150zM963 1589l41 189h149l-41 -189h-149zM555 -20q-225 0 -328.5 137t-52.5 375l195 921h131l-199 -938q-39 -178 30.5 -277.5t229.5 -99.5q166 0 284 104.5t154 282.5l197 928h131l-194 -921 q-51 -242 -206 -377t-372 -135z" glyph-name="uni01D5" unicode="Ǖ"/><glyph d="M512 1606l20 94h527l-21 -94h-526zM465 1225l41 188h149l-41 -188h-149zM772 1225l41 188h150l-41 -188h-150zM1049 1049l-222 -1049h-125l35 162l-16 -6q-133 -170 -322 -170q-166 0 -239.5 105.5t-34.5 285.5l141 672h123l-143 -676q-57 -266 157 -267q141 0 253 94.5 t141 237.5l129 611h123z" glyph-name="uni01D6" horiz-adv-x="1130" unicode="ǖ"/><glyph d="M897 1903l207 239h186l-284 -239h-109zM655 1589l41 189h150l-41 -189h-150zM963 1589l41 189h149l-41 -189h-149zM555 -20q-225 0 -328.5 137t-52.5 375l195 921h131l-199 -938q-39 -178 30.5 -277.5t229.5 -99.5q166 0 284 104.5t154 282.5l197 928h131l-194 -921 q-51 -242 -206 -377t-372 -135z" glyph-name="uni01D7" unicode="Ǘ"/><glyph d="M707 1538l206 240h187l-285 -240h-108zM465 1225l41 188h149l-41 -188h-149zM772 1225l41 188h150l-41 -188h-150zM1049 1049l-222 -1049h-125l35 162l-16 -6q-133 -170 -322 -170q-166 0 -239.5 105.5t-34.5 285.5l141 672h123l-143 -676q-57 -266 157 -267 q141 0 253 94.5t141 237.5l129 611h123z" glyph-name="uni01D8" horiz-adv-x="1130" unicode="ǘ"/><glyph d="M938 1870l-201 272h113l117 -157l190 157h119l-320 -272h-18zM655 1589l41 189h150l-41 -189h-150zM963 1589l41 189h149l-41 -189h-149zM555 -20q-225 0 -328.5 137t-52.5 375l195 921h131l-199 -938q-39 -178 30.5 -277.5t229.5 -99.5q166 0 284 104.5t154 282.5 l197 928h131l-194 -921q-51 -242 -206 -377t-372 -135z" glyph-name="uni01D9" unicode="Ǚ"/><glyph d="M748 1505l-201 273h112l117 -158l191 158h118l-319 -273h-18zM465 1225l41 188h149l-41 -188h-149zM772 1225l41 188h150l-41 -188h-150zM1049 1049l-222 -1049h-125l35 162l-16 -6q-133 -170 -322 -170q-166 0 -239.5 105.5t-34.5 285.5l141 672h123l-143 -676 q-57 -266 157 -267q141 0 253 94.5t141 237.5l129 611h123z" glyph-name="uni01DA" horiz-adv-x="1130" unicode="ǚ"/><glyph d="M891 1901l-162 241h182l103 -241h-123zM655 1589l41 189h150l-41 -189h-150zM963 1589l41 189h149l-41 -189h-149zM555 -20q-225 0 -328.5 137t-52.5 375l195 921h131l-199 -938q-39 -178 30.5 -277.5t229.5 -99.5q166 0 284 104.5t154 282.5l197 928h131l-194 -921 q-51 -242 -206 -377t-372 -135z" glyph-name="uni01DB" unicode="Ǜ"/><glyph d="M700 1536l-161 242h182l102 -242h-123zM465 1225l41 188h149l-41 -188h-149zM772 1225l41 188h150l-41 -188h-150zM1049 1049l-222 -1049h-125l35 162l-16 -6q-133 -170 -322 -170q-166 0 -239.5 105.5t-34.5 285.5l141 672h123l-143 -676q-57 -266 157 -267 q141 0 253 94.5t141 237.5l129 611h123z" glyph-name="uni01DC" horiz-adv-x="1130" unicode="ǜ"/><glyph d="M1280 1778l-285 -240h-108l207 240h186zM1526 1270l-152 -125q72 -182 15 -453q-70 -328 -278 -520t-490 -192q-289 0 -420 194l-133 -108l-64 77l148 123q-72 182 -17 455q72 328 281 520.5t493 192.5q287 0 420 -197l129 106zM254 692q-43 -197 2 -340l973 801 q-100 158 -326 158q-238 0 -414 -168t-235 -451zM1272 721q41 195 0 338l-973 -801q102 -156 330 -156q233 0 408.5 168t234.5 451z" glyph-name="Oslashacute" horiz-adv-x="1449" unicode="Ǿ"/><glyph d="M1049 1413l-285 -239h-109l207 239h187zM1106 920l-70 -58q61 -143 17 -356q-53 -250 -214 -389.5t-374 -139.5q-221 0 -324 146l-59 -49l-45 53l69 57q-59 143 -14 351q53 256 213 395t375 139q219 0 321 -145l58 47zM207 506q-31 -145 -2 -240l708 586 q-68 104 -237 104q-172 0 -297 -114.5t-172 -335.5zM942 535q31 152 2 251l-711 -587q70 -106 240 -107q174 0 299 113t170 330z" glyph-name="oslashacute" horiz-adv-x="1146" unicode="ǿ"/><glyph d="M457 -16q-166 0 -286 93t-144 277l125 45q43 -291 317 -290q137 0 237.5 69.5t124.5 192.5q6 29 6.5 54.5t-4 47t-17.5 42t-23.5 35.5t-33 33.5t-37.5 29t-45 27.5t-45.5 25.5t-49.5 24.5q-33 14 -54.5 23.5t-52.5 24t-50 26.5t-45 29.5t-42 35t-33.5 39t-27 46t-15.5 52 t-6 60.5t8 70q33 152 158 245t295 93q250 0 364 -220l-96 -69q-92 166 -274 166q-117 0 -205 -64.5t-113 -169.5q-10 -51 2.5 -91t57.5 -77t74.5 -54t101.5 -56q18 -10 26 -15q82 -37 132.5 -66.5t104.5 -78.5t71.5 -118.5t-0.5 -160.5q-33 -166 -176.5 -271t-329.5 -105z M92 -451l184 304h183l-279 -304h-88z" glyph-name="Scommaaccent" horiz-adv-x="1071" unicode="Ș"/><glyph d="M369 -23q-152 0 -254.5 80t-112.5 185l129 43q6 -76 69.5 -132.5t188.5 -56.5q115 0 207 53.5t113 151.5q10 45 -4.5 77t-51.5 52.5t-76.5 33.5t-97.5 28q-18 4 -26 6q-78 16 -126 32.5t-101.5 48t-71 82t-2.5 121.5q29 133 143.5 210t273.5 77q135 0 218 -62.5 t116 -152.5l-110 -51q-61 147 -236 147q-106 0 -192 -51t-103 -131q-8 -35 6.5 -61.5t57.5 -47t73.5 -31t102.5 -28.5q14 -4 22 -6q82 -18 131.5 -35.5t101.5 -51.5t69.5 -88t0.5 -130q-33 -145 -167.5 -228.5t-290.5 -83.5zM92 -446l184 303h183l-279 -303h-88z" glyph-name="scommaaccent" horiz-adv-x="948" unicode="ș"/><glyph d="M399 0l275 1296h-490l25 117h1108l-25 -117h-487l-275 -1296h-131zM158 -446l184 303h182l-278 -303h-88z" glyph-name="uni021A" horiz-adv-x="1148" unicode="Ț"/><glyph d="M369 0q-283 0 -219 289l139 651h-164l22 109h162l78 364h121l-78 -364h297l-22 -109h-297l-136 -639q-25 -115 2 -157t123 -42h131l-22 -102h-137zM104 -446l185 303h182l-278 -303h-89z" glyph-name="uni021B" horiz-adv-x="669" unicode="ț"/><glyph d="M-123 -365h-106l22 107h98q119 0 152 141l248 1166h123l-248 -1166q-29 -137 -92.5 -192.5t-196.5 -55.5z" glyph-name="uni0237" horiz-adv-x="493" unicode="ȷ"/><glyph d="M184 1112l316 270h20l203 -270h-111l-118 164l-189 -164h-121z" glyph-name="circumflex" horiz-adv-x="657" unicode="ˆ"/><glyph d="M440 1092l-200 272h112l117 -158l190 158h119l-319 -272h-19z" glyph-name="caron" horiz-adv-x="657" unicode="ˇ"/><glyph d="M436 1094q-125 0 -200.5 71.5t-55.5 192.5h115q-14 -74 25.5 -120t115.5 -46t144.5 48t89.5 118h110q-25 -123 -123 -193.5t-221 -70.5z" glyph-name="breve" horiz-adv-x="608" unicode="˘"/><glyph d="M184 1182l39 182h139l-38 -182h-140z" glyph-name="dotaccent" horiz-adv-x="229" unicode="˙"/><glyph d="M324 1075q-84 0 -130.5 59.5t-27.5 147.5q14 74 78.5 125t140.5 51q84 0 131 -58.5t29 -144.5q-16 -74 -80.5 -127t-140.5 -53zM332 1128q55 0 101 38t56 91q14 61 -19.5 103.5t-92.5 42.5q-53 0 -99.5 -37t-56.5 -88q-14 -63 19 -106.5t92 -43.5z" glyph-name="ring" horiz-adv-x="395" unicode="˚"/><glyph d="M174 -442q-96 0 -139 59t-23 152q31 152 209 245l60 -18q-158 -106 -185 -236q-12 -59 7.5 -87.5t62.5 -28.5q78 0 147 75l68 -59q-86 -102 -207 -102z" glyph-name="ogonek" horiz-adv-x="464" unicode="˛"/><glyph d="M633 1067q-55 0 -98 23.5t-66 53.5t-54.5 53.5t-66.5 23.5q-57 0 -95 -43t-48 -99l-74 13q43 215 213 215q59 0 103.5 -25t67 -55.5t53 -55t65.5 -24.5q57 0 96 46t53 120l86 -10q-51 -236 -235 -236z" glyph-name="tilde" horiz-adv-x="708" unicode="˜"/><glyph d="M127 1130l264 234h189l-322 -234h-131zM455 1130l262 234h190l-321 -234h-131z" glyph-name="hungarumlaut" horiz-adv-x="741" unicode="˝"/><glyph d="M-6 1122l-162 242h182l103 -242h-123z" glyph-name="gravecomb" horiz-adv-x="0" unicode="̀"/><glyph d="M-260 1124l207 240h186l-285 -240h-108z" glyph-name="acutecomb" horiz-adv-x="0" unicode="́"/><glyph d="M-473 1112l315 270h21l203 -270h-111l-119 164l-188 -164h-121z" glyph-name="uni0302" horiz-adv-x="0" unicode="̂"/><glyph d="M-76 1067q-55 0 -98 23.5t-65.5 53.5t-54.5 53.5t-66 23.5q-55 0 -93.5 -43t-50.5 -99l-74 13q43 215 213 215q59 0 103.5 -25t67 -55.5t53 -55t65.5 -24.5q55 0 95 47t55 119l86 -10q-52 -236 -236 -236z" glyph-name="tildecomb" horiz-adv-x="0" unicode="̃"/><glyph d="M-455 1192l21 94h526l-20 -94h-527z" glyph-name="uni0304" horiz-adv-x="0" unicode="̄"/><glyph d="M-172 1094q-125 0 -201 71.5t-55 192.5h115q-14 -74 25.5 -120t115.5 -46t144.5 48t88.5 118h111q-25 -123 -123 -193.5t-221 -70.5z" glyph-name="uni0306" horiz-adv-x="0" unicode="̆"/><glyph d="M-45 1182l39 182h139l-39 -182h-139z" glyph-name="uni0307" horiz-adv-x="0" unicode="̇"/><glyph d="M-365 1176l41 188h150l-41 -188h-150zM-57 1176l41 188h149l-41 -188h-149z" glyph-name="uni0308" horiz-adv-x="0" unicode="̈"/><glyph d="M-156 1075q-84 0 -130 59.5t-27 147.5q14 74 78.5 125t140.5 51q84 0 130 -59.5t27 -145.5q-16 -74 -79.5 -126t-139.5 -52zM-141 1159q43 0 77.5 30t45.5 71q10 47 -15.5 79.5t-72.5 32.5q-43 0 -78 -28.5t-45 -69.5q-10 -47 15.5 -81t72.5 -34z" glyph-name="uni030A" horiz-adv-x="0" unicode="̊"/><glyph d="M-614 1130l264 234h188l-321 -234h-131zM-287 1130l262 234h191l-322 -234h-131z" glyph-name="uni030B" horiz-adv-x="0" unicode="̋"/><glyph d="M-217 1092l-201 272h113l117 -158l190 158h119l-320 -272h-18z" glyph-name="uni030C" horiz-adv-x="0" unicode="̌"/><glyph d="M483 1423l-184 -270h-182l278 270h88z" glyph-name="uni0312" horiz-adv-x="0" unicode="̒"/><glyph d="M-489 -446l184 303h182l-278 -303h-88z" glyph-name="uni0326" horiz-adv-x="0" unicode="̦"/><glyph d="M-393 -500q-131 0 -160 127l82 31q-2 -31 17.5 -52.5t56.5 -21.5q45 0 79.5 31t43.5 72q16 74 -70 102l-107 35l129 176h93l-107 -133l41 -19q133 -49 107 -184q-16 -80 -76.5 -122t-128.5 -42z" glyph-name="uni0327" horiz-adv-x="0" unicode="̧"/><glyph d="M-291 -442q-96 0 -139 59t-23 152q31 152 209 245l60 -18q-158 -106 -185 -236q-12 -59 7.5 -87.5t62.5 -28.5q78 0 147 75l68 -59q-86 -102 -207 -102z" glyph-name="uni0328" horiz-adv-x="0" unicode="̨"/><glyph d="M-1442 528l19 82h632l-18 -82h-633z" glyph-name="uni0335" horiz-adv-x="0" unicode="̵"/><glyph d="M-1219 518l21 103h1208l-20 -103h-1209z" glyph-name="uni0336" horiz-adv-x="0" unicode="̶"/><glyph d="M-1235 80l35 174l838 534l-35 -176z" glyph-name="uni0337" horiz-adv-x="0" unicode="̷"/><glyph d="M-1286 57l-64 78l1454 1200l68 -73z" glyph-name="uni0338" horiz-adv-x="0" unicode="̸"/><glyph d="M774 -20q-84 0 -126 69.5t-23 157.5l145 682h-319l-187 -889h-112l186 889h-82l25 110h708l-24 -110h-82l-148 -703q-16 -78 24 -101.5t111 24.5l4 -105q-49 -24 -100 -24z" glyph-name="pi" horiz-adv-x="1177" unicode="π"/><glyph d="M1059 1536l-162 242h182l103 -242h-123zM254 0l-43 1413h133l21 -1272h2l626 1272h193l84 -1272h4l561 1272h137l-645 -1413h-164l-86 1333l-659 -1333h-164z" glyph-name="Wgrave" horiz-adv-x="1804" unicode="Ẁ"/><glyph d="M897 1171h-123l-162 242h183zM1333 1049h140l-445 -1049h-186l-66 872l-438 -870h-186l2 1047h135l-29 -971l494 971h110l86 -979z" glyph-name="wgrave" horiz-adv-x="1402" unicode="ẁ"/><glyph d="M1065 1538l207 240h186l-284 -240h-109zM254 0l-43 1413h133l21 -1272h2l626 1272h193l84 -1272h4l561 1272h137l-645 -1413h-164l-86 1333l-659 -1333h-164z" glyph-name="Wacute" horiz-adv-x="1804" unicode="Ẃ"/><glyph d="M1174 1413l-285 -239h-109l207 239h187zM1333 1049h140l-445 -1049h-186l-66 872l-438 -870h-186l2 1047h135l-29 -971l494 971h110l86 -979z" glyph-name="wacute" horiz-adv-x="1402" unicode="ẃ"/><glyph d="M901 1589l41 189h150l-41 -189h-150zM1208 1589l41 189h150l-41 -189h-150zM254 0l-43 1413h133l21 -1272h2l626 1272h193l84 -1272h4l561 1272h137l-645 -1413h-164l-86 1333l-659 -1333h-164z" glyph-name="Wdieresis" horiz-adv-x="1804" unicode="Ẅ"/><glyph d="M807 1413l-41 -188h-150l41 188h150zM1114 1413l-41 -188h-149l41 188h149zM1333 1049h140l-445 -1049h-186l-66 872l-438 -870h-186l2 1047h135l-29 -971l494 971h110l86 -979z" glyph-name="wdieresis" horiz-adv-x="1402" unicode="ẅ"/><glyph d="M1036 1536q-55 0 -98 23.5t-65.5 53t-54.5 53.5t-66 24q-55 0 -93 -43t-51 -99l-73 13q43 215 213 215q49 0 86.5 -16.5t60.5 -40t43 -47t45 -40t53 -16.5q55 0 95 47t55 119l86 -10q-52 -236 -236 -236zM96 0l299 1413h908l-27 -119h-776l-113 -528h678l-23 -119h-677 l-115 -528h778l-24 -119h-908z" glyph-name="uni1EBC" horiz-adv-x="1224" unicode="Ẽ"/><glyph d="M862 1171q-55 0 -98 24t-65.5 53.5t-54.5 53t-66 23.5q-55 0 -93.5 -43t-50.5 -98l-74 12q43 215 213 215q59 0 103.5 -24.5t67 -55.5t53 -55.5t65.5 -24.5q55 0 95 47.5t55 118.5l86 -10q-52 -236 -236 -236zM676 1069q109 0 184.5 -35t113.5 -89t53 -129t11 -146.5 t-20 -149.5q-2 -8 -6 -26.5t-8 -28.5l-799 6q-14 -104 4 -184t92 -136.5t199 -56.5q178 0 334 107l57 -92q-184 -129 -395 -129q-137 0 -232.5 48t-135.5 126.5t-51 180t17 206.5q45 219 191.5 373.5t390.5 154.5zM664 954q-178 0 -287 -107.5t-152 -266.5h686 q68 374 -247 374z" glyph-name="uni1EBD" horiz-adv-x="1107" unicode="ẽ"/><glyph d="M817 1536l-162 242h183l102 -242h-123zM483 0l119 553l-401 860h153l330 -743l657 743h162l-770 -860l-119 -553h-131z" glyph-name="Ygrave" horiz-adv-x="1323" unicode="Ỳ"/><glyph d="M520 1171l-162 242h183l102 -242h-123zM-131 -365l12 107q111 0 195 44t113.5 82t80.5 120q8 12 13 18l-133 1043h124l93 -891h10l461 891h135l-611 -1115q-45 -82 -98 -140t-99 -88t-104.5 -47t-97.5 -20.5t-94 -3.5z" glyph-name="ygrave" horiz-adv-x="884" unicode="ỳ"/><glyph d="M1038 1536q-55 0 -98 23.5t-65.5 53t-54.5 53.5t-66 24q-55 0 -93 -43t-51 -99l-73 13q43 215 213 215q59 0 103 -25t66.5 -55.5t53.5 -55t65 -24.5q55 0 95.5 47t54.5 119l86 -10q-52 -236 -236 -236zM483 0l119 553l-401 860h153l330 -743l657 743h162l-770 -860 l-119 -553h-131z" glyph-name="uni1EF8" horiz-adv-x="1323" unicode="Ỹ"/><glyph d="M741 1171q-55 0 -98 24t-65.5 53.5t-54 53t-66.5 23.5q-55 0 -93 -43t-51 -98l-73 12q43 215 213 215q49 0 87 -16.5t60.5 -40t43 -47t45 -40t52.5 -16.5q55 0 95.5 47.5t54.5 118.5l86 -10q-52 -236 -236 -236zM-131 -365l12 107q111 0 195 44t113.5 82t80.5 120 q8 12 13 18l-133 1043h124l93 -891h10l461 891h135l-611 -1115q-45 -82 -98 -140t-99 -88t-104.5 -47t-97.5 -20.5t-94 -3.5z" glyph-name="uni1EF9" horiz-adv-x="884" unicode="ỹ"/><glyph d="M29 471l18 80h678l-18 -80h-678z" glyph-name="endash" horiz-adv-x="759" unicode="–"/><glyph d="M-12 471l18 80h2048l-18 -80h-2048z" glyph-name="emdash" horiz-adv-x="2048" unicode="—"/><glyph d="M473 905h-186l41 193l178 313h90l-150 -313h66z" glyph-name="quoteleft" horiz-adv-x="536" unicode="‘"/><glyph d="M332 1413h186l-41 -192l-178 -314h-90l149 314h-65z" glyph-name="quoteright" horiz-adv-x="534" unicode="’"/><glyph d="M74 193h186l-41 -193l-178 -313h-90l149 313h-65z" glyph-name="quotesinglbase" horiz-adv-x="534" unicode="‚"/><glyph d="M473 905h-186l41 193l178 313h90l-150 -313h66zM834 905h-187l41 193l178 313h90l-149 -313h65z" glyph-name="quotedblleft" horiz-adv-x="897" unicode="“"/><glyph d="M332 1413h186l-41 -192l-178 -314h-90l149 314h-65zM719 1413h186l-41 -192l-178 -314h-90l149 314h-65z" glyph-name="quotedblright" horiz-adv-x="919" unicode="”"/><glyph d="M74 193h186l-41 -193l-178 -313h-90l149 313h-65zM461 193h186l-41 -193l-178 -313h-90l149 313h-65z" glyph-name="quotedblbase" horiz-adv-x="919" unicode="„"/><glyph d="M176 -205l230 1079h-222l21 91h221l94 448h92l-94 -448h221l-20 -91h-221l-230 -1079h-92z" glyph-name="dagger" horiz-adv-x="755" unicode="†"/><glyph d="M176 -205l96 449h-221l19 90h221l115 540h-222l21 91h221l94 448h92l-94 -448h221l-20 -91h-221l-115 -540h221l-18 -90h-221l-97 -449h-92z" glyph-name="daggerdbl" horiz-adv-x="755" unicode="‡"/><glyph d="M301 242q-125 0 -193.5 91t-41.5 218q25 115 125 196.5t217 81.5q125 0 195.5 -90t43.5 -217q-25 -117 -126 -198.5t-220 -81.5z" glyph-name="bullet" horiz-adv-x="704" unicode="•"/><glyph d="M14 0l37 172h187l-37 -172h-187zM428 0l35 172h186l-35 -172h-186z" glyph-name="twodotenleader" horiz-adv-x="825" unicode="‥"/><glyph d="M14 0l41 193h187l-41 -193h-187zM604 0l41 193h186l-40 -193h-187zM1192 0l41 193h186l-41 -193h-186z" glyph-name="ellipsis" horiz-adv-x="1591" unicode="…"/><glyph d="M375 805q-92 0 -142.5 54t-53.5 127t7 147q16 72 48 135t98.5 115.5t152.5 52.5q121 0 169 -99.5t20 -230.5q-25 -121 -105.5 -211t-193.5 -90zM154 2l1054 1409h135l-1052 -1409h-137zM373 905q70 0 124 72t70 160q18 76 -2 134t-84 58q-70 0 -121 -67.5t-71 -157.5 q-16 -78 2.5 -138.5t81.5 -60.5zM1032 2q-92 0 -142 54.5t-53 127t7 146.5q25 115 99.5 208t195.5 93q125 0 173 -98.5t19 -231.5q-25 -121 -105.5 -210t-193.5 -89zM1630 2q-90 0 -141 54.5t-54 127t7 146.5q25 115 100.5 208t196.5 93q125 0 171 -97.5t17 -232.5 q-25 -121 -104.5 -210t-192.5 -89zM1032 104q68 0 120 70t71 158q18 80 -1.5 138t-84.5 58q-68 0 -120 -68.5t-71 -158.5q-8 -47 -7 -91t24.5 -75t68.5 -31zM1628 104q70 0 123 70t72 158q8 49 7 92t-25.5 73.5t-67.5 30.5q-70 0 -123 -69.5t-72 -157.5q-16 -78 3.5 -137.5 t82.5 -59.5z" glyph-name="perthousand" horiz-adv-x="2035" unicode="‰"/><glyph d="M385 193l-285 317l418 319l-29 -145l-233 -174l158 -170z" glyph-name="guilsinglleft" horiz-adv-x="555" unicode="‹"/><glyph d="M33 193l28 147l238 170l-162 174l29 145l287 -319z" glyph-name="guilsinglright" horiz-adv-x="555" unicode="›"/><glyph d="M-430 0l1040 1413h129l-1038 -1413h-131z" glyph-name="fraction" horiz-adv-x="229" unicode="⁄"/><glyph d="M1012 1436q215 0 342 -127l-51 -99q-115 123 -295 123q-188 0 -333 -123t-229 -319h660l-72 -105l-626 5q-18 -66 -29 -113q-10 -39 -12 -72h557l-62 -100h-506q-4 -186 87.5 -300t291.5 -114q213 0 365 127l71 -69q-184 -170 -450 -170q-244 0 -368 143t-122 383h-247 l71 100h183q6 55 18 111l18 74l-266 2l68 98h231q90 244 272.5 394.5t432.5 150.5z" glyph-name="Euro" horiz-adv-x="1314" unicode="€"/><glyph d="M635 1413l-17 -80h-176l-96 -454h-82l94 454h-174l17 80h434zM1122 1413h107l-113 -534h-84l80 381l-209 -381h-80l-47 397l-84 -397h-84l113 534h110l46 -448z" glyph-name="trademark" horiz-adv-x="1163" unicode="™"/><glyph d="M-29 0l23 111l373 4q-147 84 -213 248.5t-23 369.5q59 279 285.5 476.5t492.5 197.5q272 0 416.5 -207t85.5 -498q-41 -193 -166 -351t-299 -238l344 4l-24 -117h-490l21 121q174 53 314 231t183 389q55 250 -61.5 401.5t-327.5 151.5q-221 0 -411.5 -162.5 t-243.5 -408.5q-39 -186 23.5 -356t207.5 -250l-20 -117h-490z" glyph-name="uni2126" horiz-adv-x="1458" unicode="Ω"/><glyph d="M2132 684l-21 -98h-1648l522 -314l-22 -116l-758 483l960 477l-22 -117l-656 -315h1645z" glyph-name="arrowleft" horiz-adv-x="2277" unicode="←"/><glyph d="M1159 156l23 116l651 314h-1640l20 98h1649l-523 315l23 117l760 -477z" glyph-name="arrowright" horiz-adv-x="2277" unicode="→"/><glyph d="M414 -12q-199 0 -286 125t-44 329q51 244 244.5 417t425.5 173q188 0 243 -158l15 13q31 203 -27.5 311.5t-208.5 108.5q-182 0 -295 -170l-125 47q156 246 441 246q231 0 308 -180.5t11 -493.5q-74 -350 -260 -559t-442 -209zM420 104q182 0 326.5 151t187.5 355 q31 141 -17.5 223t-177.5 82q-184 0 -334.5 -156.5t-191.5 -348.5q-29 -137 23.5 -221.5t183.5 -84.5z" glyph-name="partialdiff" horiz-adv-x="1218" unicode="∂"/><glyph d="M-100 0l831 1409l238 -1409h-1069zM94 113h733l-159 962z" glyph-name="uni2206" horiz-adv-x="1089" unicode="∆"/><glyph d="M178 0l275 1300h-123l24 113h1026l-24 -113h-123l-275 -1300h-112l274 1300h-555l-274 -1300h-113z" glyph-name="product" horiz-adv-x="1357" unicode="∏"/><glyph d="M-39 0l8 53l725 654l-442 655l8 51h991l-24 -113h-778l409 -593l-657 -594h774l-23 -113h-991z" glyph-name="summation" horiz-adv-x="1134" unicode="∑"/><glyph d="M184 459l25 116h749l-26 -116h-748z" glyph-name="minus" horiz-adv-x="1142" unicode="−"/><glyph d="M1110 1417l98 -47l-882 -1483h-29l-84 701h-150l25 110h227l58 -544z" glyph-name="radical" horiz-adv-x="1069" unicode="√"/><glyph d="M344 344q-123 0 -188.5 84t-34.5 219q25 125 118 200t207 75q182 0 332 -213q236 213 414 213q123 0 188.5 -83t36.5 -221q-27 -125 -120 -199.5t-207 -74.5q-88 0 -175.5 57.5t-154.5 155.5q-238 -213 -416 -213zM352 442q129 0 350 201q-123 180 -249 180 q-84 0 -150.5 -55t-85.5 -150q-18 -82 20.5 -129t114.5 -47zM1087 442q80 0 146.5 55.5t87.5 149.5q18 82 -20.5 129t-112.5 47q-133 0 -354 -200q122 -181 253 -181z" glyph-name="infinity" horiz-adv-x="1490" unicode="∞"/><glyph d="M-178 -457l14 113q358 0 430 338l250 1175q25 123 113 201t190 78q100 0 189 -78l-88 -82q-39 47 -105 47q-63 0 -117.5 -47t-70.5 -125l-252 -1173q-47 -223 -189.5 -335t-363.5 -112z" glyph-name="integral" horiz-adv-x="854" unicode="∫"/><glyph d="M639 600q-55 0 -99 27.5t-67.5 59.5t-57.5 59.5t-71 27.5q-106 0 -135 -151l-96 10q25 109 83 173t146 64q68 0 117 -26.5t70.5 -57t52 -57.5t67.5 -27q113 0 148 168l104 -12q-27 -125 -95.5 -191.5t-166.5 -66.5zM639 152q-55 0 -99 27.5t-67.5 59t-57.5 59.5t-71 28 q-106 0 -135 -152l-96 10q25 109 83 173.5t146 64.5q68 0 117 -26.5t70.5 -57.5t52 -57.5t67.5 -26.5q113 0 148 168l104 -12q-27 -125 -95.5 -191.5t-166.5 -66.5z" glyph-name="approxequal" horiz-adv-x="929" unicode="≈"/><glyph d="M1194 1249l-358 -483h260l-29 -117h-317l-166 -221h424l-29 -115h-479l-355 -477h-143l354 477h-284l28 115h340l164 221h-446l30 117h502l359 483h145z" glyph-name="notequal" horiz-adv-x="1187" unicode="≠"/><glyph d="M963 262l-766 496l974 497l-22 -120l-750 -377l588 -369zM907 0h-895l21 92h893z" glyph-name="lessequal" horiz-adv-x="1150" unicode="≤"/><glyph d="M109 262l26 127l750 369l-590 377l24 120l766 -497zM53 0l21 92h895l-21 -92h-895z" glyph-name="greaterequal" horiz-adv-x="1150" unicode="≥"/><glyph d="M332 0l-209 717l510 717h151l209 -717l-510 -717h-151zM430 127l426 590l-166 590l-430 -590z" glyph-name="lozenge" horiz-adv-x="1034" unicode="◊"/><glyph d="M317 1231l39 182h140l-39 -182h-140zM70 0l221 1049h119l-222 -1049h-118z" glyph-name="i.locl" horiz-adv-x="479"/><glyph d="M942 940l-135 -639q-25 -115 2 -157t123 -42h131l-23 -102h-137q-283 0 -219 289l139 651h-391l-199 -940h-122l198 940h-190l22 109h191l16 71q29 137 125 215t234 78h112l-22 -110h-107q-80 0 -141.5 -51.5t-77.5 -133.5l-16 -69h389l78 364h120l-77 -364h297l-23 -109 h-297z" glyph-name="f_t.dlig" horiz-adv-x="1204"/><glyph d="M950 940l-135 -639q-25 -115 2 -157t123 -42h131l-22 -102h-138q-283 0 -219 289l139 651h-423l-136 -639q-25 -115 2 -157t123 -42h131l-22 -102h-137q-283 0 -219 289l139 651h-164l22 109h162l78 364h121l-78 -364h422l78 364h121l-78 -364h297l-23 -109h-297z" glyph-name="t_t.dlig" horiz-adv-x="1212"/><glyph d="M927.5 -61q-321.5 0 -547.5 226t-226 547.5t226 548t547.5 226.5t548 -226.5t226.5 -548t-226.5 -547.5t-548 -226zM928 10q293 0 497.5 206t204.5 497t-204.5 496.5t-497.5 205.5t-498 -205.5t-205 -496.5t205 -497t498 -206zM524 410q-14 0 -24.5 10t-10.5 24v537 q0 14 10.5 25.5t24.5 11.5q16 0 26.5 -11.5t10.5 -25.5v-537q0 -34 -37 -34zM928 410q-35 0 -35 34v537q0 37 35 37t35 -37v-537q0 -34 -35 -34zM1329 410q-14 0 -22 10l-271 268q-10 10 -10 24.5t10 24.5l271 269q8 12 22 12t25.5 -12.5t11.5 -26.5q0 -12 -10 -23 l-244 -243l244 -244q10 -10 10 -23q0 -14 -11.5 -25t-25.5 -11zM659 678q-35 0 -34.5 35t34.5 35h134q37 0 36.5 -35t-36.5 -35h-134z" glyph-name="glyph396" horiz-adv-x="1855"/></font>
</defs>
</svg>
