<?xml version="1.0" standalone="no"?>
<!DOCTYPE svg PUBLIC "-//W3C//DTD SVG 1.1//EN" "http://www.w3.org/Graphics/SVG/1.1/DTD/svg11.dtd">
<svg xmlns="http://www.w3.org/2000/svg"><metadata>This SVG WebFont was generated by YouWorkForThem.
Copyright (c)2016, Radnika designed by Alfredo Marco Pradil (ammpradil@gmail.com). Radnika is a trademark of Alfredo Marco Pradil.</metadata><defs><font horiz-adv-x="950" id="ywftsvg"><font-face ascent="1638" bbox="-1042 -500 1712 2142" cap-height="1413" descent="-410" font-family="" font-stretch="normal" font-weight="300" panose-1="0 0 4 0 0 0 0 0 0 0" underline-position="0" underline-thickness="0" unicode-range="U+0020-FB02" units-per-em="2048" x-height="1049"/><missing-glyph d="M43 0v999h655v-999h-655zM125 102h491v795h-491v-795z" horiz-adv-x="741"/><glyph d="M770 1049v-1049h-129v940h-330v-940h-129v940h-147v109h147v120q0 113 64.5 178.5t154.5 65.5h97v-121h-84q-102 0 -103 -125v-118h459zM641 1413h129v-190h-129v190z" glyph-name="uniFB01" horiz-adv-x="923" unicode="fi"/><glyph d="M182 0v940h-147v109h147v120q0 113 64.5 178.5t154.5 65.5h115v-121h-102q-102 0 -103 -125v-118h205v-109h-205v-940h-129zM649 0v1413h127v-1413h-127z" glyph-name="uniFB02" horiz-adv-x="921" unicode="fl"/><glyph d="M903 1300q-59 0 -93 -47t-34 -129v-75h219v-111h-219v-938h-127v938h-338v-938h-127v938h-149v111h149v65q0 137 65.5 218t178.5 81h102v-113h-92q-59 0 -93 -47t-34 -129v-75h338v65q0 137 65.5 218t178.5 81h102v-113h-92z" glyph-name="f_f.liga" horiz-adv-x="1026" unicode="ff"/><glyph d="M1284 1049v-1049h-129v940h-364v-940h-129v940h-132v-2h-219v-938h-127v938h-149v111h149v65q0 137 65.5 218t178.5 81h102v-113h-92q-59 0 -93 -47t-34 -129v-75h351v120q0 113 63 178.5t154 65.5h112v-121h-98q-102 0 -102 -125v-118h493zM1155 1413h129v-190h-129v190 z" glyph-name="f_f_i.liga" horiz-adv-x="1437" unicode="ffi"/><glyph d="M653 1169q0 113 64.5 178.5t154.5 65.5h115v-121h-102q-102 0 -103 -125v-118h205v-109h-205v-940h-129v940h-123v-2h-219v-938h-127v938h-149v111h149v65q0 137 65.5 218t178.5 81h102v-113h-92q-59 0 -93 -47t-34 -129v-75h342v120zM1133 1413h127v-1413h-127v1413z " glyph-name="f_f_l.liga" horiz-adv-x="1404" unicode="ffl"/><glyph d="M43 0v999h655v-999h-655zM125 102h491v795h-491v-795z" glyph-name=".notdef" horiz-adv-x="741"/><glyph glyph-name="glyph1" horiz-adv-x="0"/><glyph glyph-name="glyph2" horiz-adv-x="681"/><glyph glyph-name="space" horiz-adv-x="385" unicode=" "/><glyph d="M176 371l-22 1042h141l-23 -1042h-96zM143 0v176h162v-176h-162z" glyph-name="exclam" horiz-adv-x="448" unicode="!"/><glyph d="M121 874v539h112v-539h-112zM367 874v539h110v-539h-110z" glyph-name="quotedbl" horiz-adv-x="595" unicode="&quot;"/><glyph d="M184 0l72 446h-188v95h206l54 352h-195v90h213l72 430h94l-68 -416h254l70 416h96l-67 -426h188v-94h-209l-51 -352h195v-90h-215l-72 -451h-96l71 436h-256l-69 -436h-99zM373 541h254l53 352h-256z" glyph-name="numbersign" horiz-adv-x="1052" unicode="#"/><glyph d="M815 356q0 -154 -83 -255t-232 -115v-150h-66v148q-143 6 -247.5 96t-143.5 268l121 41q31 -147 110.5 -215t188.5 -68q219 0 219 250q0 127 -64.5 201t-183.5 139q-160 88 -209 133q-117 104 -116 273q0 145 83.5 236.5t241.5 95.5v143h66v-147q180 -23 305 -218 l-100 -75q-92 172 -263 172q-102 0 -153 -62.5t-51 -152.5q0 -43 16 -81t32.5 -60.5t61.5 -55.5t64.5 -44t81.5 -46q76 -43 117.5 -72.5t97 -84t81 -127.5t25.5 -167z" glyph-name="dollar" horiz-adv-x="901" unicode="$"/><glyph d="M293 803q-209 0 -209 315q0 317 203 318q209 0 209 -318q0 -315 -203 -315zM246 2l612 1409h125l-610 -1409h-127zM288.5 905q100.5 0 100.5 215q0 207 -102 207q-98 0 -99 -209q0 -213 100.5 -213zM954 2q-209 0 -209 313q0 317 203 318q209 0 209 -318 q0 -313 -203 -313zM952 106q98 0 98.5 211t-102.5 211q-98 0 -98 -213q0 -209 102 -209z" glyph-name="percent" horiz-adv-x="1241" unicode="%"/><glyph d="M844 317l248 -317h-185l-143 203q-63 -115 -142 -171.5t-192 -56.5q-147 0 -248.5 105.5t-101.5 284.5q0 274 260 405q-137 174 -137 324q0 156 75.5 243.5t208.5 87.5q129 0 201 -85t72 -236q0 -211 -244 -369l242 -323l186 393l105 -64zM336 1100q0 -133 110 -273 q188 121 189 281q0 100 -39 155.5t-109 55.5q-72 0 -111.5 -58.5t-39.5 -160.5zM432 88q82 0 138.5 50t105.5 159l-270 385q-94 -57 -141.5 -132t-47.5 -190q0 -117 65.5 -194.5t149.5 -77.5z" glyph-name="ampersand" horiz-adv-x="1099" unicode="&amp;"/><glyph d="M121 903v539h112v-539h-112z" glyph-name="quotesingle" horiz-adv-x="354" unicode="'"/><glyph d="M395 -272q-106 150 -168.5 407.5t-62.5 487.5q0 231 57.5 473.5t171.5 408.5h135q-227 -393 -227 -882q0 -508 225 -895h-131z" glyph-name="parenleft" horiz-adv-x="630" unicode="("/><glyph d="M233 -272h-131q225 387 226 895q0 489 -228 882h136q115 -166 172 -408.5t57 -473.5q0 -229 -63 -487t-169 -408z" glyph-name="parenright" horiz-adv-x="630" unicode=")"/><glyph d="M258 926l16 188l-153 -108l-49 84l168 79l-168 80l49 86l153 -110l-16 188h96l-16 -188l154 110l49 -86l-168 -80l168 -79l-49 -84l-154 108l16 -188h-96z" glyph-name="asterisk" horiz-adv-x="612" unicode="*"/><glyph d="M606 106v472h-456v94h456v471h96v-471h457v-94h-457v-472h-96z" glyph-name="plus" horiz-adv-x="1308" unicode="+"/><glyph d="M119 197h178v-197l-104 -313h-80l71 313h-65v197z" glyph-name="comma" horiz-adv-x="452" unicode=","/><glyph d="M59 469v84h416v-84h-416z" glyph-name="hyphen" horiz-adv-x="534" unicode="-"/><glyph d="M106 0v197h179v-197h-179z" glyph-name="period" horiz-adv-x="374" unicode="."/><glyph d="M76 -156l489 1569h127l-489 -1569h-127z" glyph-name="slash" horiz-adv-x="768" unicode="/"/><glyph d="M477 -20q-393 0 -393 727q0 729 381 729q389 0 389 -734q0 -722 -377 -722zM471 106q242 0 242 603q0 596 -248 596q-250 0 -250 -598q0 -601 256 -601z" glyph-name="zero" horiz-adv-x="937" unicode="0"/><glyph d="M340 0v1262l-264 -191v141l276 201h121v-1413h-133z" glyph-name="one" horiz-adv-x="663" unicode="1"/><glyph d="M104 0v141q0 219 125 369q43 49 108.5 99t119 88t103.5 85t79 110.5t29 145.5q0 121 -57.5 198t-145.5 77q-104 0 -164.5 -97.5t-52.5 -254.5l-135 12q0 215 94 337t260 122q147 0 241.5 -113t94.5 -287q0 -123 -54.5 -220t-122 -148.5t-160.5 -121t-140 -122.5 q-55 -66 -72.5 -127.5t-17.5 -173.5h589v-119h-721z" glyph-name="two" horiz-adv-x="909" unicode="2"/><glyph d="M446 -20q-166 0 -275.5 106.5t-109.5 302.5l125 14q0 -143 77 -225t183.5 -82t184.5 81t78 222.5t-71 214t-175 72.5h-84v127h84q82 0 133 65.5t51 180.5q0 117 -61.5 186.5t-157.5 69.5t-157.5 -70.5t-63.5 -189.5l-123 16q0 168 96 265.5t248 97.5q150 0 247 -96.5 t97 -264.5q0 -115 -49 -201t-115 -106v-18q102 -25 162.5 -114t63.5 -237q0 -201 -110 -309t-278 -108z" glyph-name="three" horiz-adv-x="894" unicode="3"/><glyph d="M674 508h182v-119h-182v-389h-129v389h-504v119l494 905h139v-905zM545 508v702l-371 -702h371z" glyph-name="four" horiz-adv-x="897" unicode="4"/><glyph d="M492 915q178 0 266 -125.5t88 -338.5q0 -215 -96.5 -343t-284.5 -128q-162 0 -261.5 109.5t-113.5 285.5l121 39q6 -145 72.5 -234.5t181.5 -89.5q242 0 242 365q0 346 -242 346q-63 0 -126 -45t-95 -117l-119 25l102 749h568v-119h-463l-64 -491l2 -2q33 47 97 80.5 t125 33.5z" glyph-name="five" horiz-adv-x="903" unicode="5"/><glyph d="M449 -18q-172 0 -275.5 148.5t-105.5 463.5q-6 840 403 840q250 0 346 -297l-108 -47q-70 217 -234 217q-82 0 -140.5 -58.5t-86 -153t-38.5 -175t-11 -160.5q94 147 262 147q164 0 264 -127t100 -334q0 -188 -108 -326t-268 -138zM448.5 100q108.5 0 177 97.5 t68.5 246.5q0 152 -68.5 248t-177 96t-176 -93t-67.5 -244.5t67.5 -251t176 -99.5z" glyph-name="six" horiz-adv-x="892" unicode="6"/><glyph d="M211 0q70 838 375 1290v4h-545v119h674v-129q-98 -145 -168 -310t-109 -339t-57.5 -315.5t-30.5 -319.5h-139z" glyph-name="seven" horiz-adv-x="745" unicode="7"/><glyph d="M455 -20q-180 0 -283.5 112.5t-103.5 290.5q0 135 63.5 240.5t161.5 132.5v10q-74 33 -121 121t-47 192q0 158 87 256.5t240.5 98.5t240.5 -98.5t87 -256.5q0 -109 -47 -196.5t-121 -116.5v-10q100 -33 163 -137.5t63 -235.5q0 -178 -102.5 -290.5t-280.5 -112.5z M457 801q86 0 142 73.5t56 186.5q0 119 -50 189.5t-148.5 70.5t-149.5 -69.5t-51 -186.5q0 -115 56.5 -189.5t144.5 -74.5zM451 88q123 0 188.5 84t65.5 223q0 133 -72 219t-182 86q-109 0 -180.5 -86t-71.5 -219q0 -137 65.5 -222t186.5 -85z" glyph-name="eight" horiz-adv-x="905" unicode="8"/><glyph d="M424 1432q172 0 275.5 -148.5t105.5 -464.5q6 -840 -404 -839q-250 0 -346 296l109 48q70 -217 233 -218q82 0 140.5 58.5t86 153t39 175t11.5 160.5q-94 -147 -262 -147q-164 0 -264.5 127t-100.5 334q0 188 108.5 326.5t268.5 138.5zM423.5 1313q-108.5 0 -177 -97.5 t-68.5 -246.5q0 -152 68.5 -248t177 -96t176.5 93t68 244.5t-68 251t-176.5 99.5z" glyph-name="nine" horiz-adv-x="892" unicode="9"/><glyph d="M109 776v197h178v-197h-178zM109 0v197h178v-197h-178z" glyph-name="colon" horiz-adv-x="372" unicode=":"/><glyph d="M293 973v-197h-178v197h178zM117 197h178v-197l-105 -313h-79l71 313h-65v197z" glyph-name="semicolon" horiz-adv-x="544" unicode=";"/><glyph d="M991 176l-876 498l876 497v-122l-667 -375l667 -369v-129z" glyph-name="less" horiz-adv-x="1153" unicode="&lt;"/><glyph d="M150 782v119h741v-119h-741zM150 442v119h741v-119h-741z" glyph-name="equal" horiz-adv-x="1040" unicode="="/><glyph d="M184 176v129l668 369l-668 375v122l877 -497z" glyph-name="greater" horiz-adv-x="1153" unicode=">"/><glyph d="M332 367v247q0 66 19.5 113t48 69.5t63.5 48t63.5 49.5t48 73t19.5 116q0 115 -57.5 175.5t-145.5 60.5q-86 0 -146.5 -63.5t-62.5 -176.5h-119q2 162 92.5 258.5t227.5 96.5q141 0 234.5 -93.5t93.5 -261.5q0 -92 -28 -154.5t-66.5 -94t-77.5 -58.5t-67 -65.5t-28 -94.5 v-245h-112zM311 0v176h160v-176h-160z" glyph-name="question" horiz-adv-x="784" unicode="?"/><glyph d="M827 -324q-389 0 -568 202t-179 550v205q0 213 51 371.5t142.5 250t203 134.5t242.5 43q84 0 160.5 -16.5t156.5 -62.5t138.5 -119t96.5 -196t38 -282v-205q0 -289 -85 -430t-214 -141q-92 0 -144.5 67.5t-38.5 188.5q-92 -162 -239 -162q-111 0 -172.5 104.5 t-61.5 261.5q0 131 39 263.5t120 230.5t183 98q78 0 135.5 -54t67.5 -149l23 152h116l-100 -674q-33 -219 82 -219q174 0 174 463v205q0 162 -42 275.5t-115.5 171t-151.5 82t-170 24.5q-242 0 -381 -163t-139 -513v-205q0 -291 150.5 -464t481.5 -173v-115zM608 207 q78 0 137.5 77.5t87 180t27.5 203.5q0 111 -37 181.5t-108 70.5q-76 0 -135.5 -82t-87 -189.5t-27.5 -210.5q0 -231 143 -231z" glyph-name="at" horiz-adv-x="1388" unicode="@"/><glyph d="M801 0l-80 322h-492l-79 -322h-142l377 1413h184l375 -1413h-143zM457 1249l-201 -813h438l-200 813l-15 70h-4z" glyph-name="A" unicode="A"/><glyph d="M166 0v1413h424q162 0 255 -101.5t93 -273.5q0 -227 -170 -297v-8q102 -23 163.5 -114t61.5 -236q0 -176 -94 -279.5t-248 -103.5h-485zM299 782h272q96 0 162 70t66 192q0 244 -213 244h-287v-506zM299 129h336q113 0 169 69.5t56 192.5t-65.5 193.5t-159.5 70.5h-336 v-526z" glyph-name="B" horiz-adv-x="1054" unicode="B"/><glyph d="M594 -20q-238 0 -376 191t-138 535.5t138 537t374 192.5q152 0 275.5 -102.5t172.5 -268.5l-114 -53q-37 135 -124 215t-210 80q-174 0 -277.5 -160t-103.5 -430q0 -276 104.5 -442t278.5 -166q113 0 202 80.5t130 213.5l114 -51q-47 -166 -170.5 -269t-275.5 -103z" glyph-name="C" horiz-adv-x="1097" unicode="C"/><glyph d="M166 0v1413h295q276 0 422.5 -183t146.5 -536q0 -334 -149.5 -514t-421.5 -180h-293zM301 127h137q231 0 343 142.5t112 437t-107.5 438t-328.5 143.5h-156v-1161z" glyph-name="D" horiz-adv-x="1110" unicode="D"/><glyph d="M166 0v1413h735v-123h-600v-522h528v-123h-528v-522h600v-123h-735z" glyph-name="E" horiz-adv-x="997" unicode="E"/><glyph d="M166 0v1413h733v-123h-598v-522h528v-123h-528v-645h-135z" glyph-name="F" horiz-adv-x="964" unicode="F"/><glyph d="M686 705h385v-705h-113v246q-35 -109 -130 -187.5t-232 -78.5q-184 0 -303 101t-166 259t-47 371q0 205 49 362.5t167 260t294 102.5q174 0 285.5 -89.5t179.5 -281.5l-121 -51q-57 156 -135 222.5t-207 66.5q-104 0 -180 -46.5t-118 -130.5t-61.5 -185t-19.5 -224 q0 -172 34 -302t120 -217t219 -87q117 0 204 71.5t125 208.5q27 90 29 197h-258v117z" glyph-name="G" horiz-adv-x="1216" unicode="G"/><glyph d="M166 0v1413h135v-647h563v647h133v-1413h-133v647h-563v-647h-135z" glyph-name="H" horiz-adv-x="1163" unicode="H"/><glyph d="M166 0v1413h135v-1413h-135z" glyph-name="I" horiz-adv-x="466" unicode="I"/><glyph d="M35 127q68 -31 123 -31q203 0 202 385v932h136v-917q0 -516 -336 -516q-63 0 -125 20v127z" glyph-name="J" horiz-adv-x="620" unicode="J"/><glyph d="M1010 0h-164l-373 797l-172 -224v-573h-135v1413h135v-649l483 649h168l-397 -512z" glyph-name="K" horiz-adv-x="1028" unicode="K"/><glyph d="M166 0v1413h135v-1290h483v-123h-618z" glyph-name="L" horiz-adv-x="811" unicode="L"/><glyph d="M166 0v1413h240l296 -1280l297 1280h242v-1413h-135v1303h-6l-316 -1303h-161l-318 1300h-6v-1300h-133z" glyph-name="M" horiz-adv-x="1406" unicode="M"/><glyph d="M166 0v1413h217l522 -1272h8v1272h136v-1413h-220l-524 1286h-4v-1286h-135z" glyph-name="N" horiz-adv-x="1214" unicode="N"/><glyph d="M592 -20q-236 0 -374 196.5t-138 530t138 530.5t374 197q233 0 372.5 -197t139.5 -530.5t-139.5 -530t-372.5 -196.5zM592 106q174 0 276.5 163t102.5 437.5t-102.5 437.5t-276.5 163t-276.5 -163t-102.5 -437.5t102.5 -437.5t276.5 -163z" glyph-name="O" horiz-adv-x="1183" unicode="O"/><glyph d="M166 0v1413h467q174 0 274.5 -112.5t100.5 -319.5q0 -199 -97.5 -307.5t-277.5 -108.5h-332v-565h-135zM301 688h336q238 0 237 289q0 147 -60 230t-177 83h-336v-602z" glyph-name="P" horiz-adv-x="1062" unicode="P"/><glyph d="M1110 -47l-78 -82l-162 205q-115 -96 -278 -96q-236 0 -374 196.5t-138 530t138 530.5t374 197q233 0 372.5 -197t139.5 -530q0 -352 -156 -553zM592 106q115 0 199 72l-213 271l71 77l213 -266q109 164 109 447q0 274 -102.5 437t-276.5 163t-276.5 -163t-102.5 -437.5 t102.5 -437.5t276.5 -163z" glyph-name="Q" horiz-adv-x="1189" unicode="Q"/><glyph d="M166 -2v1415h471q162 0 260 -105.5t98 -281.5q0 -145 -64.5 -240.5t-174.5 -123.5l274 -664h-156l-253 647h-320v-647h-135zM301 768h358q203 12 203 258q0 127 -58.5 195.5t-166.5 68.5h-336v-522z" glyph-name="R" horiz-adv-x="1087" unicode="R"/><glyph d="M455 -16q-150 0 -260.5 89t-151.5 275l121 41q31 -147 110.5 -215t188.5 -68q219 0 219 250q0 127 -64.5 201t-183.5 139q-160 88 -209 133q-117 104 -116 273q0 150 87 241t250 91q217 0 359 -222l-100 -75q-92 172 -263 172q-102 0 -153 -62.5t-51 -152.5q0 -43 16 -81 t32.5 -60.5t61.5 -55.5t64.5 -44t81.5 -46q76 -43 117.5 -72.5t97 -84t81 -127t25.5 -167.5q0 -166 -95 -269t-265 -103z" glyph-name="S" horiz-adv-x="901" unicode="S"/><glyph d="M408 0v1292h-381v121h893v-121h-379v-1292h-133z" glyph-name="T" horiz-adv-x="946" unicode="T"/><glyph d="M549 -20q-190 0 -294.5 109.5t-104.5 316.5v1007h135v-1014q0 -145 69.5 -221t194.5 -76t193.5 77t68.5 220v1014h135v-997q0 -211 -104.5 -323.5t-292.5 -112.5z" glyph-name="U" horiz-adv-x="1095" unicode="U"/><glyph d="M821 1413h140l-373 -1413h-189l-374 1413h139l330 -1317z" glyph-name="V" horiz-adv-x="985" unicode="V"/><glyph d="M1325 1413h139l-272 -1413h-193l-254 1274l-256 -1274h-192l-272 1413h139l223 -1270h8l262 1270h177l258 -1270h10z" glyph-name="W" horiz-adv-x="1488" unicode="W"/><glyph d="M23 0l372 707l-370 706h147l295 -604l295 604h147l-368 -706l370 -707h-147l-299 594l-295 -594h-147z" glyph-name="X" horiz-adv-x="933" unicode="X"/><glyph d="M426 0v553l-412 860h156l324 -739l321 739h158l-414 -860v-553h-133z" glyph-name="Y" horiz-adv-x="987" unicode="Y"/><glyph d="M915 1413v-119l-712 -1171h712v-123h-876v115l706 1175h-669v123h839z" glyph-name="Z" horiz-adv-x="954" unicode="Z"/><glyph d="M143 -274v1779h353v-94h-248v-1589h248v-96h-353z" glyph-name="bracketleft" horiz-adv-x="536" unicode="["/><glyph d="M565 -156l-489 1569h127l489 -1569h-127z" glyph-name="backslash" horiz-adv-x="768" unicode="\"/><glyph d="M393 -274h-352v96h248v1589h-248v94h352v-1779z" glyph-name="bracketright" horiz-adv-x="536" unicode="]"/><glyph d="M27 686l295 725l294 -725h-122l-172 496l-170 -496h-125z" glyph-name="asciicircum" horiz-adv-x="643" unicode="^"/><glyph d="M8 -96v96h629v-96h-629z" glyph-name="underscore" horiz-adv-x="645" unicode="_"/><glyph d="M223 1122l-225 242h168l174 -242h-117z" glyph-name="grave" horiz-adv-x="346" unicode="`"/><glyph d="M428 1069q147 0 238.5 -81t91.5 -230v-758h-119v164q-119 -186 -289 -187q-127 0 -202.5 80t-75.5 205q0 143 110 242q121 104 457 215v20q0 111 -49 160t-148 49q-170 0 -256 -162l-96 70q115 213 338 213zM362 102q158 0 277 209v293q-106 -39 -154.5 -57.5t-115 -54 t-101.5 -74.5q-59 -66 -59 -152q0 -78 42.5 -121t110.5 -43z" glyph-name="a" horiz-adv-x="886" unicode="a"/><glyph d="M567 1069q367 0 367 -545q0 -547 -367 -547q-170 0 -280 148h-6v-125h-127v1413h127v-489h6q112 145 280 145zM535 94q139 0 204.5 101.5t65.5 328.5q0 223 -65.5 323.5t-204.5 100.5q-121 0 -191 -114.5t-70 -309.5q0 -199 70 -314.5t191 -115.5z" glyph-name="b" horiz-adv-x="1013" unicode="b"/><glyph d="M457 -23q-190 0 -283.5 155t-93.5 390q0 240 93 393.5t284 153.5q248 0 329 -266l-110 -47q-43 201 -219 200q-72 0 -123 -38.5t-77 -106.5t-37 -137.5t-11 -151.5t11 -151.5t37 -135t77 -104.5t123 -39q174 0 221 197l106 -41q-77 -271 -327 -271z" glyph-name="c" horiz-adv-x="841" unicode="c"/><glyph d="M733 1413h127v-1413h-127v125h-6q-111 -147 -281 -148q-367 0 -366 547q0 545 366 545q168 0 281 -145h6v489zM479 94q121 0 190.5 116t69.5 314q0 195 -69.5 309.5t-190.5 114.5q-139 0 -204.5 -100t-65.5 -324q0 -227 65.5 -328.5t204.5 -101.5z" glyph-name="d" horiz-adv-x="1013" unicode="d"/><glyph d="M825 535q0 -45 -2 -64h-616q8 -160 78.5 -266.5t203.5 -106.5q129 0 230 103l76 -86q-127 -135 -306 -135q-201 0 -305 159.5t-104 386.5q0 106 19.5 197.5t61.5 172.5t119.5 127t184.5 46q113 0 189.5 -48t111.5 -134t47 -168t12 -184zM461 950q-238 0 -254 -368h502 q-4 188 -56.5 278t-191.5 90z" glyph-name="e" horiz-adv-x="886" unicode="e"/><glyph d="M184 0v938h-149v111h149v65q0 137 65.5 218t178.5 81h102v-113h-92q-59 0 -93 -47t-34 -129v-75h219v-111h-219v-938h-127z" glyph-name="f" horiz-adv-x="561" unicode="f"/><glyph d="M475 -385q-131 0 -234.5 61.5t-134.5 171.5l103 52q33 -86 107.5 -131t160.5 -45q119 0 187.5 77.5t68.5 198.5v170q-94 -162 -282 -162q-180 0 -275.5 154.5t-95.5 380t97 376t286 150.5q176 0 260 -143h8v123h129v-1049q0 -172 -103.5 -278.5t-281.5 -106.5zM483 121 q133 0 196.5 109.5t63.5 289.5q0 119 -24.5 213t-87 159.5t-156.5 65.5q-133 0 -199.5 -118.5t-66.5 -300.5q0 -180 67.5 -299t206.5 -119z" glyph-name="g" horiz-adv-x="1013" unicode="g"/><glyph d="M154 0v1413h127v-526h10q86 182 246 182q131 0 203.5 -80t72.5 -227v-762h-127v750q0 109 -43 152.5t-133 43.5q-100 0 -164.5 -94t-64.5 -236v-616h-127z" glyph-name="h" horiz-adv-x="942" unicode="h"/><glyph d="M154 1223v190h129v-190h-129zM154 0v1049h129v-1049h-129z" glyph-name="i" horiz-adv-x="436" unicode="i"/><glyph d="M145 1221v192h146v-192h-146zM-23 -365v111q178 0 179 197v1106h129v-1086q0 -168 -82.5 -248t-225.5 -80z" glyph-name="j" horiz-adv-x="444" unicode="j"/><glyph d="M154 0v1413h127v-833l376 469h158l-358 -422l411 -627h-159l-336 528l-92 -108v-420h-127z" glyph-name="k" horiz-adv-x="862" unicode="k"/><glyph d="M145 0v1413h127v-1413h-127z" glyph-name="l" horiz-adv-x="417" unicode="l"/><glyph d="M154 0v1049h127v-146h4q74 166 229 166q188 0 231 -197h5q47 104 105 151.5t146 45.5q129 -2 198 -89t69 -237v-743h-127v741q0 90 -43 150.5t-131 60.5q-98 0 -146.5 -93t-48.5 -241v-618h-127v705q0 248 -168 247q-100 0 -148 -93t-48 -241v-618h-127z" glyph-name="m" horiz-adv-x="1396" unicode="m"/><glyph d="M154 0v1049h129v-162h6q86 182 243 182q131 0 206 -93t75 -255v-721h-127v709q0 131 -44 185t-128 54q-102 0 -167.5 -92t-65.5 -240v-616h-127z" glyph-name="n" horiz-adv-x="942" unicode="n"/><glyph d="M475 -23q-180 0 -287.5 137.5t-107.5 405.5q0 272 107.5 410.5t287.5 138.5q178 0 286.5 -138t108.5 -411q0 -268 -108.5 -405.5t-286.5 -137.5zM475 96q272 0 273 424q0 432 -273 432q-268 0 -268 -432q0 -424 268 -424z" glyph-name="o" unicode="o"/><glyph d="M145 -365v1414h125v-129h11q92 150 278 149q174 0 269.5 -142.5t95.5 -402.5t-95.5 -403.5t-269.5 -143.5q-176 0 -285 152h-2v-494h-127zM524 88q272 0 273 436q0 434 -273 434q-121 0 -193.5 -116.5t-72.5 -317.5q0 -203 71.5 -319.5t194.5 -116.5z" glyph-name="p" horiz-adv-x="1003" unicode="p"/><glyph d="M858 -365h-127v494h-2q-109 -152 -285 -152q-174 0 -269 143.5t-95 403.5t95 402.5t269 142.5q186 0 279 -149h10v129h125v-1414zM479 88q123 0 194.5 117t71.5 319q0 201 -72.5 317.5t-193.5 116.5q-272 0 -272 -434q0 -436 272 -436z" glyph-name="q" horiz-adv-x="1011" unicode="q"/><glyph d="M154 0v1049h129v-170h4q31 90 84 138t121 48q72 0 108 -18v-121q-57 18 -98 14q-106 -10 -163.5 -106.5t-57.5 -268.5v-565h-127z" glyph-name="r" horiz-adv-x="636" unicode="r"/><glyph d="M403 -23q-121 0 -220 74t-136 176l109 66q27 -80 89 -138.5t156 -58.5q82 0 140.5 49.5t58.5 141.5q0 49 -16.5 84t-55.5 58.5t-68.5 34.5t-88.5 28q-70 20 -107 34.5t-85 45t-69.5 79.5t-21.5 119q0 137 85 218t216 81q111 0 194 -57.5t126 -141.5l-99 -75 q-80 158 -215 157q-82 0 -135 -50t-53 -122q0 -33 14.5 -59.5t30.5 -42.5t55 -33.5t61.5 -25t75.5 -23.5q68 -20 107 -36.5t86 -49.5t68.5 -84t21.5 -123q0 -154 -95.5 -240t-228.5 -86z" glyph-name="s" horiz-adv-x="768" unicode="s"/><glyph d="M379 0q-111 0 -163 68.5t-52 214.5v655h-127v111h127v364h127v-364h225v-111h-225v-631q0 -113 26.5 -157t96.5 -44h80v-106h-115z" glyph-name="t" horiz-adv-x="567" unicode="t"/><glyph d="M791 1049v-1049h-127v162h-15q-82 -176 -237 -176q-281 0 -281 344v719h127v-709q0 -135 42 -182t132 -47q102 0 167 90t65 231v617h127z" glyph-name="u" horiz-adv-x="944" unicode="u"/><glyph d="M606 1049h137l-260 -1049h-182l-260 1049h139l213 -967z" glyph-name="v" horiz-adv-x="784" unicode="v"/><glyph d="M1012 1049h137l-186 -1049h-179l-190 852l-191 -850h-178l-184 1047h137l139 -955l218 955h116l219 -945z" glyph-name="w" horiz-adv-x="1189" unicode="w"/><glyph d="M27 0l282 528l-282 521h143l203 -406l205 406h141l-281 -521l281 -528h-141l-205 414l-203 -414h-143z" glyph-name="x" horiz-adv-x="745" unicode="x"/><glyph d="M57 -365v111q47 0 83 7t62.5 27.5t42 35t32 54.5t22.5 58.5t23 71.5l-291 1049h137l190 -777q23 -94 23 -125h6q0 51 21 127l186 775h141l-303 -1090q-45 -162 -128 -243t-247 -81z" glyph-name="y" horiz-adv-x="755" unicode="y"/><glyph d="M711 1049v-111l-502 -821h496v-117h-650v98l506 836h-489v115h639z" glyph-name="z" horiz-adv-x="761" unicode="z"/><glyph d="M500 -274q-98 0 -167 68.5t-69 164.5v485q0 47 -9 76t-29.5 41t-36 15.5t-46.5 3.5v100q31 0 48.5 3t36 15.5t27.5 41t9 75.5v488q0 98 68.5 166.5t167.5 68.5h59v-125h-59q-49 0 -82 -31.5t-33 -78.5v-476q0 -86 -13.5 -128t-64.5 -70q51 -25 64.5 -68t13.5 -131v-471 q0 -47 33 -79t82 -32h59v-122h-59z" glyph-name="braceleft" horiz-adv-x="641" unicode="{"/><glyph d="M168 -156v1690h92v-1690h-92z" glyph-name="bar" horiz-adv-x="428" unicode="|"/><glyph d="M141 -274h-59v122h59q49 0 82 32t33 79v471q0 88 13.5 131t64.5 68q-51 29 -64.5 70.5t-13.5 127.5v476q0 47 -33 78.5t-82 31.5h-59v125h59q98 0 167 -68.5t69 -166.5v-488q0 -88 29.5 -111.5t91.5 -23.5v-100q-31 0 -46.5 -3.5t-36 -15.5t-29.5 -40.5t-9 -76.5v-485 q0 -96 -69 -164.5t-167 -68.5z" glyph-name="braceright" horiz-adv-x="645" unicode="}"/><glyph d="M618 379q-55 0 -104 26.5t-78.5 59.5t-70.5 59.5t-80 26.5q-96 0 -92 -145h-101q0 111 49 178t142 67q66 0 119 -26.5t81.5 -57t66.5 -57.5t75 -27q57 0 79.5 41t22.5 121h109q0 -127 -58 -196.5t-160 -69.5z" glyph-name="asciitilde" horiz-adv-x="927" unicode="~"/><glyph d="M143 872v177h162v-177h-162zM154 -387l22 1065h96l23 -1065h-141z" glyph-name="exclamdown" horiz-adv-x="448" unicode="¡"/><glyph d="M457 92q174 0 221 197l106 -41q-72 -248 -284 -268v-173h-92v173q-166 23 -247 173t-81 369q0 221 81 371.5t247 173.5v174h92v-174q211 -18 286 -264l-110 -47q-43 201 -219 200q-72 0 -123 -38.5t-77 -106.5t-37 -137.5t-11 -151.5t11 -151.5t37 -135t77 -104.5 t123 -39z" glyph-name="cent" horiz-adv-x="841" unicode="¢"/><glyph d="M424 571v-448h557v-123h-815v100l131 23v448h-131v117h131v279q0 215 93 341t282 126q139 0 226 -85t124 -231l-121 -55q-39 238 -229 237q-135 0 -191.5 -86t-56.5 -247v-279h305v-117h-305z" glyph-name="sterling" horiz-adv-x="1048" unicode="£"/><glyph d="M195 236l-72 75l100 101q-94 115 -94 268.5t94 267.5l-100 101l72 75l100 -104q121 96 270.5 96t270.5 -96l100 104l72 -75l-101 -101q94 -115 94 -268.5t-94 -267.5l101 -101l-72 -75l-100 104q-121 -96 -270.5 -96t-270.5 96zM565 348q137 0 236 98q96 96 96 233.5 t-96 233.5q-98 98 -235.5 98.5t-235.5 -98.5q-96 -96 -96.5 -233t96.5 -234q98 -98 235 -98z" glyph-name="currency" horiz-adv-x="1130" unicode="¤"/><glyph d="M428 18v170h-242v101h242v252h-242v96h207l-379 776h125l348 -711l347 711h124l-380 -774h206v-98h-239v-252h239v-101h-239v-170h-117z" glyph-name="yen" horiz-adv-x="972" unicode="¥"/><glyph d="M164 758v655h100v-655h-100zM164 -156v643h100v-643h-100z" glyph-name="brokenbar" horiz-adv-x="428" unicode="¦"/><glyph d="M565 -18q-154 0 -262 72.5t-151 215.5l137 43q57 -190 276 -190q233 0 234 164q0 53 -44 84.5t-110.5 44t-144.5 32t-144.5 43t-110.5 85t-44 153.5q0 127 100 213q-98 70 -98 195q0 137 104.5 217t245.5 80q135 0 234.5 -70t136.5 -197l-140 -37q-47 162 -233 162 q-86 0 -146.5 -42t-60.5 -124q0 -59 61.5 -88.5t149.5 -45t176 -39t149.5 -90t61.5 -177.5q0 -129 -94 -211q94 -70 94 -196q0 -150 -110.5 -223.5t-266.5 -73.5zM692 537q106 45 107 159q0 43 -22.5 75t-70 52.5t-82 30.5t-95 21.5t-74.5 15.5q-111 -45 -111 -162 q0 -41 24.5 -71.5t70.5 -50t85 -31t94.5 -23.5t73.5 -16z" glyph-name="section" horiz-adv-x="1093" unicode="§"/><glyph d="M43 1174v190h133v-190h-133zM303 1174v190h131v-190h-131z" glyph-name="dieresis" horiz-adv-x="477" unicode="¨"/><glyph d="M821 -49q-305 0 -523 221t-218 534.5t218 534.5t523 221q307 0 526.5 -221t219.5 -534.5t-219.5 -534.5t-526.5 -221zM823 51q264 0 453.5 194.5t189.5 461t-189.5 461t-453.5 194.5q-260 0 -450.5 -194.5t-190.5 -461t190.5 -461t450.5 -194.5zM844 240q-164 0 -245 134 t-81 337q0 207 80 340t246 133q213 0 284 -230l-96 -41q-37 172 -188 172q-82 0 -133.5 -61t-66.5 -139t-15 -174.5t15 -173t66.5 -137t133.5 -60.5q152 0 190 170l92 -35q-69 -235 -282 -235z" glyph-name="copyright" horiz-adv-x="1646" unicode="©"/><glyph d="M293 1470q100 0 162.5 -55t62.5 -158v-518h-82v113q-82 -129 -196 -129q-86 0 -138.5 54t-52.5 141q0 100 76 165q82 72 311 148v14q0 141 -133 141q-117 0 -176 -110l-66 47q78 147 232 147zM248 809q106 0 188 141v201q-203 -72 -254 -127q-39 -43 -39 -102 q0 -53 29 -83t76 -30z" glyph-name="ordfeminine" horiz-adv-x="567" unicode="ª"/><glyph d="M422 190l-299 322l299 317v-147l-154 -170l154 -172v-150zM733 190l-299 322l299 317v-147l-153 -170l153 -172v-150z" glyph-name="guillemotleft" horiz-adv-x="858" unicode="«"/><glyph d="M895 250v432h-745v115h860v-547h-115z" glyph-name="logicalnot" horiz-adv-x="1159" unicode="¬"/><glyph d="M629 352q-219 0 -374 158t-155 383t155 383t374 158t374.5 -159t155.5 -382t-155.5 -382t-374.5 -159zM628.5 430q186.5 0 322.5 137.5t136 325.5t-136 326.5t-322.5 138.5t-321.5 -138.5t-135 -326.5t135 -325.5t321.5 -137.5zM451 606v563h217q193 0 192 -161 q0 -129 -117 -158l144 -244h-109l-127 236h-106v-236h-94zM537 922h131q106 0 106 86t-106 86h-131v-172z" glyph-name="registered" horiz-adv-x="1259" unicode="®"/><glyph d="M59 1192v96h430v-96h-430z" glyph-name="macron" horiz-adv-x="548" unicode="¯"/><glyph d="M364.5 850q-120.5 0 -198.5 83t-78 210t79 209t198 82q121 0 199.5 -82t78.5 -209t-79 -210t-199.5 -83zM364.5 950q77.5 0 129 54.5t51.5 138.5t-51.5 138t-129 54t-127 -54t-49.5 -138t49.5 -138.5t127 -54.5z" glyph-name="degree" horiz-adv-x="731" unicode="°"/><glyph d="M606 203v471h-456v94h456v471h96v-471h457v-94h-457v-471h-96zM152 0v96h1007v-96h-1007z" glyph-name="plusminus" horiz-adv-x="1308" unicode="±"/><glyph d="M14 1124l176 240h166l-239 -240h-103z" glyph-name="acute" horiz-adv-x="346" unicode="´"/><glyph d="M137 -266v1265h131v-598q0 -301 160 -301q98 0 168 97.5t70 228.5v573h129v-999h-129v186q-31 -80 -99.5 -144.5t-150.5 -64.5q-84 0 -148 58l-16 -301h-115z" glyph-name="uni00B5" horiz-adv-x="825" unicode="µ"/><glyph d="M438 -287v910q-147 0 -254.5 107.5t-107.5 287.5t107.5 287.5t254.5 107.5h97v-1700h-97zM680 -287v1700h98v-1700h-98z" glyph-name="paragraph" horiz-adv-x="923" unicode="¶"/><glyph d="M197 559q-51 0 -84 35t-33 88q0 51 32.5 84t84.5 33q53 0 87.5 -33t34.5 -84q0 -53 -34.5 -88t-87.5 -35z" glyph-name="periodcentered" horiz-adv-x="399" unicode="·"/><glyph d="M168 -500q-51 0 -90 35t-58 86l72 43q4 -31 23.5 -54.5t48.5 -23.5q74 0 74 82q0 39 -19.5 73t-52.5 46l-94 37l73 176h91l-66 -131q154 -57 154 -188q0 -76 -42 -128.5t-114 -52.5z" glyph-name="cedilla" horiz-adv-x="329" unicode="¸"/><glyph d="M328 715q-119 0 -195 104.5t-76 257.5q0 152 76 256.5t195 104.5q117 0 192.5 -104.5t75.5 -256.5q0 -154 -75.5 -258t-192.5 -104zM328 803q84 0 126 79t42 197q0 117 -42 196t-126 79q-86 0 -128 -79t-42 -196q0 -119 42 -197.5t128 -78.5z" glyph-name="ordmasculine" horiz-adv-x="653" unicode="º"/><glyph d="M125 190v150l154 172l-154 170v147l299 -317zM436 190v150l154 172l-154 170v147l299 -317z" glyph-name="guillemotright" horiz-adv-x="860" unicode="»"/><glyph d="M459 1049v-177h-160v177h160zM438 682v-248q0 -66 -19.5 -113t-48 -69.5t-63.5 -48t-63.5 -49t-48 -72.5t-19.5 -117q0 -115 57.5 -175t145.5 -60q86 0 146.5 63.5t62.5 175.5h119q-2 -162 -92.5 -258t-227.5 -96q-141 0 -234.5 93t-93.5 261q0 92 28 154.5t67 94.5 t77.5 58.5t66.5 65.5t28 94v246h112z" glyph-name="questiondown" horiz-adv-x="882" unicode="¿"/><glyph d="M537 1536h-117l-225 242h167zM801 0l-80 322h-492l-79 -322h-142l377 1413h184l375 -1413h-143zM457 1249l-201 -813h438l-200 813l-15 70h-4z" glyph-name="Agrave" unicode="À"/><glyph d="M770 1778l-240 -240h-102l176 240h166zM801 0l-80 322h-492l-79 -322h-142l377 1413h184l375 -1413h-143zM457 1249l-201 -813h438l-200 813l-15 70h-4z" glyph-name="Aacute" unicode="Á"/><glyph d="M479 1669l-114 -162h-111l205 271h39l204 -271h-108zM801 0l-80 322h-492l-79 -322h-142l377 1413h184l375 -1413h-143zM457 1249l-201 -813h438l-200 813l-15 70h-4z" glyph-name="Acircumflex" unicode="Â"/><glyph d="M602 1536q-55 0 -99 39t-80 77t-71 38q-39 0 -58.5 -40t-17.5 -96h-79q0 98 36.5 161t112.5 63q45 0 84 -24.5t60.5 -55.5t51 -55.5t58.5 -24.5q78 0 78 160h84q0 -119 -42 -180.5t-118 -61.5zM801 0l-80 322h-492l-79 -322h-142l377 1413h184l375 -1413h-143zM457 1249 l-201 -813h438l-200 813l-15 70h-4z" glyph-name="Atilde" unicode="Ã"/><glyph d="M416 1778v-191h-133v191h133zM674 1778v-191h-131v191h131zM801 0l-80 322h-492l-79 -322h-142l377 1413h184l375 -1413h-143zM457 1249l-201 -813h438l-200 813l-15 70h-4z" glyph-name="Adieresis" unicode="Ä"/><glyph d="M584 1362l360 -1362h-143l-80 322h-492l-79 -322h-142l363 1360q-80 57 -80 164q0 84 52 137t134 53q80 0 132.5 -54t52.5 -136q0 -109 -78 -162zM477 1632q-45 0 -74.5 -31.5t-29.5 -78.5t29.5 -78t74.5 -31t75 31t30 78t-30 78.5t-75 31.5zM256 436h438l-200 813 l-15 70h-4l-18 -70z" glyph-name="Aring" horiz-adv-x="952" unicode="Å"/><glyph d="M1219 1294h-533v-528h471v-119h-471v-520h533v-127h-662v311h-324l-79 -311h-146l387 1413h824v-119zM266 442h291v840h-76z" glyph-name="AE" horiz-adv-x="1314" unicode="Æ"/><glyph d="M594 109q113 0 202 80.5t130 213.5l114 -51q-43 -147 -146 -246.5t-237 -121.5l-55 -86q154 -43 154 -150q0 -63 -42 -105t-114 -42q-51 0 -90 26.5t-57 67.5l71 39q12 -59 72 -60q74 0 74 64q0 27 -6.5 43t-35 31.5t-47 21.5t-77.5 27l61 119q-225 12 -355 203.5 t-130 523.5q0 344 138 536.5t374 192.5q152 0 275.5 -102.5t172.5 -268.5l-114 -53q-37 135 -124 215t-210 80q-174 0 -277.5 -160t-103.5 -430q0 -276 104.5 -442t278.5 -166z" glyph-name="Ccedilla" horiz-adv-x="1097" unicode="Ç"/><glyph d="M475 1536l-225 242h168l174 -242h-117zM166 0v1413h735v-123h-600v-522h528v-123h-528v-522h600v-123h-735z" glyph-name="Egrave" horiz-adv-x="997" unicode="È"/><glyph d="M483 1538l176 240h166l-239 -240h-103zM166 0v1413h735v-123h-600v-522h528v-123h-528v-522h600v-123h-735z" glyph-name="Eacute" horiz-adv-x="997" unicode="É"/><glyph d="M309 1507l205 271h39l205 -271h-109l-114 162l-115 -162h-111zM166 0v1413h735v-123h-600v-522h528v-123h-528v-522h600v-123h-735z" glyph-name="Ecircumflex" horiz-adv-x="997" unicode="Ê"/><glyph d="M338 1587v191h133v-191h-133zM598 1587v191h131v-191h-131zM166 0v1413h735v-123h-600v-522h528v-123h-528v-522h600v-123h-735z" glyph-name="Edieresis" horiz-adv-x="997" unicode="Ë"/><glyph d="M174 1536l-225 242h168l174 -242h-117zM166 0v1413h135v-1413h-135z" glyph-name="Igrave" horiz-adv-x="466" unicode="Ì"/><glyph d="M182 1538l176 240h166l-239 -240h-103zM166 0v1413h135v-1413h-135z" glyph-name="Iacute" horiz-adv-x="466" unicode="Í"/><glyph d="M8 1507l205 271h39l205 -271h-109l-115 162l-114 -162h-111zM166 0v1413h135v-1413h-135z" glyph-name="Icircumflex" horiz-adv-x="466" unicode="Î"/><glyph d="M37 1587v191h133v-191h-133zM297 1587v191h131v-191h-131zM166 0v1413h135v-1413h-135z" glyph-name="Idieresis" horiz-adv-x="466" unicode="Ï"/><glyph d="M434 1413q276 0 423 -183t147 -536q0 -334 -149.5 -514t-422.5 -180h-293v657h-88v111h88v645h295zM412 127q231 0 342.5 142.5t111.5 437t-107.5 438t-328.5 143.5h-156v-520h291v-111h-291v-530h138z" glyph-name="Eth" horiz-adv-x="1083" unicode="Ð"/><glyph d="M731 1536q-55 0 -99 39t-80 77t-71 38q-39 0 -58.5 -40t-16.5 -96h-80q0 98 36.5 161t112.5 63q45 0 84 -24.5t60.5 -55.5t51 -55.5t58.5 -24.5q78 0 78 160h84q0 -119 -42 -180.5t-118 -61.5zM166 0v1413h217l522 -1272h8v1272h136v-1413h-220l-524 1286h-4v-1286h-135z " glyph-name="Ntilde" horiz-adv-x="1214" unicode="Ñ"/><glyph d="M532 1536l-225 242h168l174 -242h-117zM592 -20q-236 0 -374 196.5t-138 530t138 530.5t374 197q233 0 372.5 -197t139.5 -530.5t-139.5 -530t-372.5 -196.5zM592 106q174 0 276.5 163t102.5 437.5t-102.5 437.5t-276.5 163t-276.5 -163t-102.5 -437.5t102.5 -437.5 t276.5 -163z" glyph-name="Ograve" horiz-adv-x="1183" unicode="Ò"/><glyph d="M541 1538l176 240h166l-240 -240h-102zM592 -20q-236 0 -374 196.5t-138 530t138 530.5t374 197q233 0 372.5 -197t139.5 -530.5t-139.5 -530t-372.5 -196.5zM592 106q174 0 276.5 163t102.5 437.5t-102.5 437.5t-276.5 163t-276.5 -163t-102.5 -437.5t102.5 -437.5 t276.5 -163z" glyph-name="Oacute" horiz-adv-x="1183" unicode="Ó"/><glyph d="M367 1507l204 271h39l205 -271h-108l-115 162l-115 -162h-110zM592 -20q-236 0 -374 196.5t-138 530t138 530.5t374 197q233 0 372.5 -197t139.5 -530.5t-139.5 -530t-372.5 -196.5zM592 106q174 0 276.5 163t102.5 437.5t-102.5 437.5t-276.5 163t-276.5 -163 t-102.5 -437.5t102.5 -437.5t276.5 -163z" glyph-name="Ocircumflex" horiz-adv-x="1183" unicode="Ô"/><glyph d="M715 1536q-55 0 -99.5 39t-80 77t-70.5 38q-39 0 -58.5 -40t-17.5 -96h-80q0 98 37 161t113 63q45 0 84 -24.5t60.5 -55.5t51 -55.5t58.5 -24.5q78 0 78 160h83q0 -119 -41.5 -180.5t-117.5 -61.5zM592 -20q-236 0 -374 196.5t-138 530t138 530.5t374 197 q233 0 372.5 -197t139.5 -530.5t-139.5 -530t-372.5 -196.5zM592 106q174 0 276.5 163t102.5 437.5t-102.5 437.5t-276.5 163t-276.5 -163t-102.5 -437.5t102.5 -437.5t276.5 -163z" glyph-name="Otilde" horiz-adv-x="1183" unicode="Õ"/><glyph d="M395 1587v191h133v-191h-133zM655 1587v191h131v-191h-131zM592 -20q-236 0 -374 196.5t-138 530t138 530.5t374 197q233 0 372.5 -197t139.5 -530.5t-139.5 -530t-372.5 -196.5zM592 106q174 0 276.5 163t102.5 437.5t-102.5 437.5t-276.5 163t-276.5 -163 t-102.5 -437.5t102.5 -437.5t276.5 -163z" glyph-name="Odieresis" horiz-adv-x="1183" unicode="Ö"/><glyph d="M838 227l-334 334l-324 -323l-65 67l321 322l-332 334l68 67l334 -334l321 324l68 -66l-324 -323l334 -334z" glyph-name="multiply" horiz-adv-x="1007" unicode="×"/><glyph d="M1116 1274l-100 -125q88 -180 88 -442q0 -334 -139.5 -530.5t-372.5 -196.5q-229 0 -365 186l-77 -96l-82 69l100 125q-88 180 -88 443q0 334 138 530.5t374 196.5q227 0 364 -187l76 94zM213 707q0 -190 49 -326l608 760q-102 166 -278 166q-174 0 -276.5 -163 t-102.5 -437zM971 707q0 190 -49 325l-609 -760q102 -166 279 -166q174 0 276.5 163.5t102.5 437.5z" glyph-name="Oslash" horiz-adv-x="1183" unicode="Ø"/><glyph d="M489 1536l-225 242h168l174 -242h-117zM549 -20q-190 0 -294.5 109.5t-104.5 316.5v1007h135v-1014q0 -145 69.5 -221t194.5 -76t193.5 77t68.5 220v1014h135v-997q0 -211 -104.5 -323.5t-292.5 -112.5z" glyph-name="Ugrave" horiz-adv-x="1095" unicode="Ù"/><glyph d="M498 1538l176 240h166l-240 -240h-102zM549 -20q-190 0 -294.5 109.5t-104.5 316.5v1007h135v-1014q0 -145 69.5 -221t194.5 -76t193.5 77t68.5 220v1014h135v-997q0 -211 -104.5 -323.5t-292.5 -112.5z" glyph-name="Uacute" horiz-adv-x="1095" unicode="Ú"/><glyph d="M324 1507l204 271h39l205 -271h-108l-115 162l-115 -162h-110zM549 -20q-190 0 -294.5 109.5t-104.5 316.5v1007h135v-1014q0 -145 69.5 -221t194.5 -76t193.5 77t68.5 220v1014h135v-997q0 -211 -104.5 -323.5t-292.5 -112.5z" glyph-name="Ucircumflex" horiz-adv-x="1095" unicode="Û"/><glyph d="M352 1587v191h133v-191h-133zM612 1587v191h131v-191h-131zM549 -20q-190 0 -294.5 109.5t-104.5 316.5v1007h135v-1014q0 -145 69.5 -221t194.5 -76t193.5 77t68.5 220v1014h135v-997q0 -211 -104.5 -323.5t-292.5 -112.5z" glyph-name="Udieresis" horiz-adv-x="1095" unicode="Ü"/><glyph d="M442 1538l176 240h166l-239 -240h-103zM426 0v553l-412 860h156l324 -739l321 739h158l-414 -860v-553h-133z" glyph-name="Yacute" horiz-adv-x="987" unicode="Ý"/><glyph d="M166 0v1413h133v-215h254q166 0 266.5 -101.5t100.5 -275.5q0 -180 -99.5 -279.5t-267.5 -99.5h-254v-442h-133zM299 569h254q113 0 173 62.5t60 185.5q0 121 -60 187.5t-173 66.5h-254v-502z" glyph-name="Thorn" horiz-adv-x="974" unicode="Þ"/><glyph d="M578 -18q-63 0 -156 38v136q84 -51 153 -52q61 0 98.5 49.5t37.5 129.5q0 76 -37 137t-80 98t-80 104.5t-37 153.5q0 61 17.5 103.5t43 67t51 46t43 57t17.5 85.5q0 88 -46 138t-130 50q-94 0 -147.5 -69.5t-53.5 -184.5v-1069h-131v1073q0 164 92.5 262.5t225.5 98.5 q129 0 227 -91.5t98 -226.5q0 -70 -28.5 -119t-62.5 -71.5t-62.5 -62.5t-28.5 -91q0 -47 25.5 -89t62.5 -77t74 -73.5t62.5 -98t25.5 -135.5q0 -139 -78.5 -228t-195.5 -89z" glyph-name="germandbls" horiz-adv-x="925" unicode="ß"/><glyph d="M492 1171h-117l-225 242h167zM428 1069q147 0 238.5 -81t91.5 -230v-758h-119v164q-119 -186 -289 -187q-127 0 -202.5 80t-75.5 205q0 143 110 242q121 104 457 215v20q0 111 -49 160t-148 49q-170 0 -256 -162l-96 70q115 213 338 213zM362 102q158 0 277 209v293 q-106 -39 -154.5 -57.5t-115 -54t-101.5 -74.5q-59 -66 -59 -152q0 -78 42.5 -121t110.5 -43z" glyph-name="agrave" horiz-adv-x="886" unicode="à"/><glyph d="M725 1413l-240 -239h-102l176 239h166zM428 1069q147 0 238.5 -81t91.5 -230v-758h-119v164q-119 -186 -289 -187q-127 0 -202.5 80t-75.5 205q0 143 110 242q121 104 457 215v20q0 111 -49 160t-148 49q-170 0 -256 -162l-96 70q115 213 338 213zM362 102q158 0 277 209 v293q-106 -39 -154.5 -57.5t-115 -54t-101.5 -74.5q-59 -66 -59 -152q0 -78 42.5 -121t110.5 -43z" glyph-name="aacute" horiz-adv-x="886" unicode="á"/><glyph d="M434 1305l-115 -162h-110l205 270h39l204 -270h-108zM428 1069q147 0 238.5 -81t91.5 -230v-758h-119v164q-119 -186 -289 -187q-127 0 -202.5 80t-75.5 205q0 143 110 242q121 104 457 215v20q0 111 -49 160t-148 49q-170 0 -256 -162l-96 70q115 213 338 213zM362 102 q158 0 277 209v293q-106 -39 -154.5 -57.5t-115 -54t-101.5 -74.5q-59 -66 -59 -152q0 -78 42.5 -121t110.5 -43z" glyph-name="acircumflex" horiz-adv-x="886" unicode="â"/><glyph d="M557 1171q-55 0 -99 39t-80 77t-71 38q-39 0 -58.5 -40t-17.5 -95h-79q0 98 36.5 160.5t112.5 62.5q45 0 84 -24.5t60.5 -55t51 -55.5t58.5 -25q78 0 78 160h84q0 -119 -42 -180.5t-118 -61.5zM428 1069q147 0 238.5 -81t91.5 -230v-758h-119v164q-119 -186 -289 -187 q-127 0 -202.5 80t-75.5 205q0 143 110 242q121 104 457 215v20q0 111 -49 160t-148 49q-170 0 -256 -162l-96 70q115 213 338 213zM362 102q158 0 277 209v293q-106 -39 -154.5 -57.5t-115 -54t-101.5 -74.5q-59 -66 -59 -152q0 -78 42.5 -121t110.5 -43z" glyph-name="atilde" horiz-adv-x="886" unicode="ã"/><glyph d="M371 1413v-190h-133v190h133zM629 1413v-190h-131v190h131zM428 1069q147 0 238.5 -81t91.5 -230v-758h-119v164q-119 -186 -289 -187q-127 0 -202.5 80t-75.5 205q0 143 110 242q121 104 457 215v20q0 111 -49 160t-148 49q-170 0 -256 -162l-96 70q115 213 338 213z M362 102q158 0 277 209v293q-106 -39 -154.5 -57.5t-115 -54t-101.5 -74.5q-59 -66 -59 -152q0 -78 42.5 -121t110.5 -43z" glyph-name="adieresis" horiz-adv-x="886" unicode="ä"/><glyph d="M434 1124q-82 0 -134 55.5t-52 139.5t52 137t134 53q80 0 132 -54t52 -136q0 -84 -52 -139.5t-132 -55.5zM434 1208q45 0 75 31t30 78t-30 78.5t-75 31.5t-74.5 -31.5t-29.5 -78.5t29.5 -78t74.5 -31zM428 1069q147 0 238.5 -81t91.5 -230v-758h-119v164 q-119 -186 -289 -187q-127 0 -202.5 80t-75.5 205q0 143 110 242q121 104 457 215v20q0 111 -49 160t-148 49q-170 0 -256 -162l-96 70q115 213 338 213zM362 102q158 0 277 209v293q-106 -39 -154.5 -57.5t-115 -54t-101.5 -74.5q-59 -66 -59 -152q0 -78 42.5 -121 t110.5 -43z" glyph-name="aring" horiz-adv-x="886" unicode="å"/><glyph d="M1378 535q0 -45 -2 -64h-616q8 -160 78.5 -266.5t203.5 -106.5q129 0 230 103l76 -86q-127 -135 -306 -135q-254 0 -358 260q-53 -127 -141 -195t-195 -68q-127 0 -201.5 83t-74.5 223q0 184 149 272q127 78 418 127v57q0 209 -190 209q-170 0 -261 -160l-96 70 q121 209 352 209q92 0 167 -40t112 -116q102 158 295 158q113 0 189.5 -48t111.5 -134t47 -168t12 -184zM1014 950q-238 0 -254 -368h502q-4 188 -56.5 278t-191.5 90zM375 102q96 0 174 78t88 254q-4 61 -4 92v41q-250 -51 -340 -114q-84 -61 -84 -174q0 -86 45 -131.5 t121 -45.5z" glyph-name="ae" horiz-adv-x="1439" unicode="æ"/><glyph d="M457 92q174 0 221 197l106 -41q-68 -233 -258 -264l-55 -86q154 -43 154 -150q0 -63 -42 -105t-114 -42q-51 0 -90 26.5t-57 67.5l71 39q12 -59 72 -60q74 0 74 64q0 27 -6.5 43t-35 31.5t-47 21.5t-77.5 27l61 116q-180 10 -267 164t-87 381q0 240 93 393.5t284 153.5 q248 0 329 -266l-110 -47q-43 201 -219 200q-72 0 -123 -38.5t-77 -106.5t-37 -137.5t-11 -151.5t11 -151.5t37 -135t77 -104.5t123 -39z" glyph-name="ccedilla" horiz-adv-x="841" unicode="ç"/><glyph d="M518 1171h-117l-225 242h168zM825 535q0 -45 -2 -64h-616q8 -160 78.5 -266.5t203.5 -106.5q129 0 230 103l76 -86q-127 -135 -306 -135q-201 0 -305 159.5t-104 386.5q0 106 19.5 197.5t61.5 172.5t119.5 127t184.5 46q113 0 189.5 -48t111.5 -134t47 -168t12 -184z M461 950q-238 0 -254 -368h502q-4 188 -56.5 278t-191.5 90z" glyph-name="egrave" horiz-adv-x="886" unicode="è"/><glyph d="M752 1413l-240 -239h-102l176 239h166zM825 535q0 -45 -2 -64h-616q8 -160 78.5 -266.5t203.5 -106.5q129 0 230 103l76 -86q-127 -135 -306 -135q-201 0 -305 159.5t-104 386.5q0 106 19.5 197.5t61.5 172.5t119.5 127t184.5 46q113 0 189.5 -48t111.5 -134t47 -168 t12 -184zM461 950q-238 0 -254 -368h502q-4 188 -56.5 278t-191.5 90z" glyph-name="eacute" horiz-adv-x="886" unicode="é"/><glyph d="M461 1305l-115 -162h-110l204 270h39l205 -270h-109zM825 535q0 -45 -2 -64h-616q8 -160 78.5 -266.5t203.5 -106.5q129 0 230 103l76 -86q-127 -135 -306 -135q-201 0 -305 159.5t-104 386.5q0 106 19.5 197.5t61.5 172.5t119.5 127t184.5 46q113 0 189.5 -48 t111.5 -134t47 -168t12 -184zM461 950q-238 0 -254 -368h502q-4 188 -56.5 278t-191.5 90z" glyph-name="ecircumflex" horiz-adv-x="886" unicode="ê"/><glyph d="M397 1413v-190h-133v190h133zM655 1413v-190h-131v190h131zM825 535q0 -45 -2 -64h-616q8 -160 78.5 -266.5t203.5 -106.5q129 0 230 103l76 -86q-127 -135 -306 -135q-201 0 -305 159.5t-104 386.5q0 106 19.5 197.5t61.5 172.5t119.5 127t184.5 46q113 0 189.5 -48 t111.5 -134t47 -168t12 -184zM461 950q-238 0 -254 -368h502q-4 188 -56.5 278t-191.5 90z" glyph-name="edieresis" horiz-adv-x="886" unicode="ë"/><glyph d="M150 1171l-226 242h168l174 -242h-116zM145 0v1049h127v-1049h-127z" glyph-name="igrave" horiz-adv-x="417" unicode="ì"/><glyph d="M158 1174l176 239h166l-240 -239h-102zM145 0v1049h127v-1049h-127z" glyph-name="iacute" horiz-adv-x="417" unicode="í"/><glyph d="M-16 1143l204 270h39l205 -270h-108l-115 162l-115 -162h-110zM145 0v1049h127v-1049h-127z" glyph-name="icircumflex" horiz-adv-x="417" unicode="î"/><glyph d="M12 1223v190h133v-190h-133zM272 1223v190h131v-190h-131zM145 0v1049h127v-1049h-127z" glyph-name="idieresis" horiz-adv-x="417" unicode="ï"/><glyph d="M496 1399q193 -137 269.5 -342t76.5 -541q0 -221 -102.5 -376.5t-278.5 -155.5t-280.5 155.5t-104.5 376.5t103.5 377t277.5 156q66 0 127 -36t86 -85q-39 217 -234 360l-71 -135l-62 43l74 133q-16 10 -137 84l49 103q72 -33 147 -78l66 121l57 -39zM461 109 q123 0 186.5 119.5t63.5 287.5q0 172 -64.5 290t-185.5 118q-123 0 -187.5 -119t-64.5 -289t64.5 -288.5t187.5 -118.5z" glyph-name="eth" horiz-adv-x="921" unicode="ð"/><glyph d="M588 1176q-55 0 -99.5 38.5t-80 76.5t-70.5 38q-39 0 -58.5 -40t-17.5 -95h-80q0 98 37 160.5t113 62.5q45 0 84 -24.5t60.5 -55t51 -55.5t58.5 -25q78 0 78 160h84q0 -119 -42 -180t-118 -61zM154 0v1049h129v-162h6q86 182 243 182q131 0 206 -93t75 -255v-721h-127 v709q0 131 -44 185t-128 54q-102 0 -167.5 -92t-65.5 -240v-616h-127z" glyph-name="ntilde" horiz-adv-x="942" unicode="ñ"/><glyph d="M416 1171l-226 242h168l174 -242h-116zM475 -23q-180 0 -287.5 137.5t-107.5 405.5q0 272 107.5 410.5t287.5 138.5q178 0 286.5 -138t108.5 -411q0 -268 -108.5 -405.5t-286.5 -137.5zM475 96q272 0 273 424q0 432 -273 432q-268 0 -268 -432q0 -424 268 -424z" glyph-name="ograve" unicode="ò"/><glyph d="M424 1174l176 239h166l-240 -239h-102zM475 -23q-180 0 -287.5 137.5t-107.5 405.5q0 272 107.5 410.5t287.5 138.5q178 0 286.5 -138t108.5 -411q0 -268 -108.5 -405.5t-286.5 -137.5zM475 96q272 0 273 424q0 432 -273 432q-268 0 -268 -432q0 -424 268 -424z" glyph-name="oacute" unicode="ó"/><glyph d="M250 1143l205 270h39l204 -270h-108l-115 162l-115 -162h-110zM475 -23q-180 0 -287.5 137.5t-107.5 405.5q0 272 107.5 410.5t287.5 138.5q178 0 286.5 -138t108.5 -411q0 -268 -108.5 -405.5t-286.5 -137.5zM475 96q272 0 273 424q0 432 -273 432q-268 0 -268 -432 q0 -424 268 -424z" glyph-name="ocircumflex" unicode="ô"/><glyph d="M598 1171q-55 0 -99 39t-80 77t-71 38q-39 0 -58.5 -40t-17.5 -95h-79q0 98 36.5 160.5t112.5 62.5q45 0 84 -24.5t60.5 -55t51 -55.5t58.5 -25q78 0 78 160h84q0 -119 -42 -180.5t-118 -61.5zM475 -23q-180 0 -287.5 137.5t-107.5 405.5q0 272 107.5 410.5t287.5 138.5 q178 0 286.5 -138t108.5 -411q0 -268 -108.5 -405.5t-286.5 -137.5zM475 96q272 0 273 424q0 432 -273 432q-268 0 -268 -432q0 -424 268 -424z" glyph-name="otilde" unicode="õ"/><glyph d="M279 1223v190h133v-190h-133zM539 1223v190h131v-190h-131zM475 -23q-180 0 -287.5 137.5t-107.5 405.5q0 272 107.5 410.5t287.5 138.5q178 0 286.5 -138t108.5 -411q0 -268 -108.5 -405.5t-286.5 -137.5zM475 96q272 0 273 424q0 432 -273 432q-268 0 -268 -432 q0 -424 268 -424z" glyph-name="odieresis" unicode="ö"/><glyph d="M516 975v176h178v-176h-178zM102 635v96h1008v-96h-1008zM516 197v176h178v-176h-178z" glyph-name="divide" horiz-adv-x="1212" unicode="÷"/><glyph d="M801 870q70 -135 69 -350q0 -268 -108.5 -405.5t-286.5 -137.5q-182 0 -285 134l-26 -33l-58 49l41 51q-68 135 -67 342q0 272 107.5 410.5t287.5 138.5q176 0 283 -133l26 35l60 -47zM207 520q0 -139 29 -231l444 553q-68 111 -205 110q-268 0 -268 -432zM475 96 q272 0 273 424q0 147 -31 244l-447 -555q68 -113 205 -113z" glyph-name="oslash" unicode="ø"/><glyph d="M401 1171l-225 242h168l174 -242h-117zM791 1049v-1049h-127v162h-15q-82 -176 -237 -176q-281 0 -281 344v719h127v-709q0 -135 42 -182t132 -47q102 0 167 90t65 231v617h127z" glyph-name="ugrave" horiz-adv-x="944" unicode="ù"/><glyph d="M410 1174l176 239h166l-240 -239h-102zM791 1049v-1049h-127v162h-15q-82 -176 -237 -176q-281 0 -281 344v719h127v-709q0 -135 42 -182t132 -47q102 0 167 90t65 231v617h127z" glyph-name="uacute" horiz-adv-x="944" unicode="ú"/><glyph d="M236 1143l204 270h39l205 -270h-109l-114 162l-115 -162h-110zM791 1049v-1049h-127v162h-15q-82 -176 -237 -176q-281 0 -281 344v719h127v-709q0 -135 42 -182t132 -47q102 0 167 90t65 231v617h127z" glyph-name="ucircumflex" horiz-adv-x="944" unicode="û"/><glyph d="M264 1223v190h133v-190h-133zM524 1223v190h131v-190h-131zM791 1049v-1049h-127v162h-15q-82 -176 -237 -176q-281 0 -281 344v719h127v-709q0 -135 42 -182t132 -47q102 0 167 90t65 231v617h127z" glyph-name="udieresis" horiz-adv-x="944" unicode="ü"/><glyph d="M328 1174l176 239h166l-240 -239h-102zM57 -365v111q47 0 83 7t62.5 27.5t42 35t32 54.5t22.5 58.5t23 71.5l-291 1049h137l190 -777q23 -94 23 -125h6q0 51 21 127l186 775h141l-303 -1090q-45 -162 -128 -243t-247 -81z" glyph-name="yacute" horiz-adv-x="755" unicode="ý"/><glyph d="M145 -365v1778h129v-539q106 145 275 146q162 0 254 -147.5t92 -373t-92 -372.5t-254 -147t-268 145h-7v-490h-129zM264 500q0 -174 63.5 -292t186.5 -118q125 0 190.5 118t65.5 292q0 172 -65.5 289.5t-190.5 117.5q-123 0 -186.5 -116.5t-63.5 -290.5z" glyph-name="thorn" horiz-adv-x="974" unicode="þ"/><glyph d="M182 1223v190h133v-190h-133zM442 1223v190h131v-190h-131zM57 -365v111q47 0 83 7t62.5 27.5t42 35t32 54.5t22.5 58.5t23 71.5l-291 1049h137l190 -777q23 -94 23 -125h6q0 51 21 127l186 775h141l-303 -1090q-45 -162 -128 -243t-247 -81z" glyph-name="ydieresis" horiz-adv-x="755" unicode="ÿ"/><glyph d="M694 1702v-96h-430v96h430zM801 0l-80 322h-492l-79 -322h-142l377 1413h184l375 -1413h-143zM457 1249l-201 -813h438l-200 813l-15 70h-4z" glyph-name="Amacron" unicode="Ā"/><glyph d="M649 1337v-96h-430v96h430zM428 1069q147 0 238.5 -81t91.5 -230v-758h-119v164q-119 -186 -289 -187q-127 0 -202.5 80t-75.5 205q0 143 110 242q121 104 457 215v20q0 111 -49 160t-148 49q-170 0 -256 -162l-96 70q115 213 338 213zM362 102q158 0 277 209v293 q-106 -39 -154.5 -57.5t-115 -54t-101.5 -74.5q-59 -66 -59 -152q0 -78 42.5 -121t110.5 -43z" glyph-name="amacron" horiz-adv-x="886" unicode="ā"/><glyph d="M479.5 1507q-104.5 0 -174 72t-69.5 199h104q0 -74 40 -122t99.5 -48t100.5 48t41 122h102q0 -125 -69.5 -198t-174 -73zM801 0l-80 322h-492l-79 -322h-142l377 1413h184l375 -1413h-143zM457 1249l-201 -813h438l-200 813l-15 70h-4z" glyph-name="Abreve" unicode="Ă"/><glyph d="M434.5 1143q-104.5 0 -174.5 71.5t-70 198.5h105q0 -74 40 -122t99.5 -48t100 48t40.5 122h103q0 -125 -69.5 -197.5t-174 -72.5zM428 1069q147 0 238.5 -81t91.5 -230v-758h-119v164q-119 -186 -289 -187q-127 0 -202.5 80t-75.5 205q0 143 110 242q121 104 457 215v20 q0 111 -49 160t-148 49q-170 0 -256 -162l-96 70q115 213 338 213zM362 102q158 0 277 209v293q-106 -39 -154.5 -57.5t-115 -54t-101.5 -74.5q-59 -66 -59 -152q0 -78 42.5 -121t110.5 -43z" glyph-name="abreve" horiz-adv-x="886" unicode="ă"/><glyph d="M999 -285l70 -49q-53 -109 -160 -108q-74 0 -119 55t-45 141q0 137 121 246h-65l-80 322h-492l-79 -322h-142l377 1413h184l375 -1413q-117 -106 -117 -225q0 -63 22.5 -96t57.5 -33q55 -1 92 69zM256 436h438l-200 813l-15 70h-4l-18 -70z" glyph-name="Aogonek" unicode="Ą"/><glyph d="M813 -285l70 -49q-55 -109 -160 -108q-74 0 -119 55t-45 141q0 137 121 246h-41v164q-119 -186 -289 -187q-127 0 -202.5 80t-75.5 205q0 143 110 242q121 104 457 215v20q0 111 -49 160t-148 49q-170 0 -256 -162l-96 70q115 213 338 213q147 0 238.5 -81t91.5 -230 v-758q-117 -106 -117 -225q0 -63 22.5 -96t57.5 -33q55 -1 92 69zM639 311v293q-106 -39 -154.5 -57.5t-115 -54t-101.5 -74.5q-59 -66 -59 -152q0 -78 43 -121t110 -43q158 0 277 209z" glyph-name="aogonek" horiz-adv-x="886" unicode="ą"/><glyph d="M512 1538l176 240h166l-240 -240h-102zM594 -20q-238 0 -376 191t-138 535.5t138 537t374 192.5q152 0 275.5 -102.5t172.5 -268.5l-114 -53q-37 135 -124 215t-210 80q-174 0 -277.5 -160t-103.5 -430q0 -276 104.5 -442t278.5 -166q113 0 202 80.5t130 213.5l114 -51 q-47 -166 -170.5 -269t-275.5 -103z" glyph-name="Cacute" horiz-adv-x="1097" unicode="Ć"/><glyph d="M377 1174l176 239h166l-240 -239h-102zM457 -23q-190 0 -283.5 155t-93.5 390q0 240 93 393.5t284 153.5q248 0 329 -266l-110 -47q-43 201 -219 200q-72 0 -123 -38.5t-77 -106.5t-37 -137.5t-11 -151.5t11 -151.5t37 -135t77 -104.5t123 -39q174 0 221 197l106 -41 q-77 -271 -327 -271z" glyph-name="cacute" horiz-adv-x="841" unicode="ć"/><glyph d="M500 1593v185h125v-185h-125zM594 -20q-238 0 -376 191t-138 535.5t138 537t374 192.5q152 0 275.5 -102.5t172.5 -268.5l-114 -53q-37 135 -124 215t-210 80q-174 0 -277.5 -160t-103.5 -430q0 -276 104.5 -442t278.5 -166q113 0 202 80.5t130 213.5l114 -51 q-47 -166 -170.5 -269t-275.5 -103z" glyph-name="Cdotaccent" horiz-adv-x="1097" unicode="Ċ"/><glyph d="M365 1229v184h124v-184h-124zM457 -23q-190 0 -283.5 155t-93.5 390q0 240 93 393.5t284 153.5q248 0 329 -266l-110 -47q-43 201 -219 200q-72 0 -123 -38.5t-77 -106.5t-37 -137.5t-11 -151.5t11 -151.5t37 -135t77 -104.5t123 -39q174 0 221 197l106 -41 q-77 -271 -327 -271z" glyph-name="cdotaccent" horiz-adv-x="841" unicode="ċ"/><glyph d="M543 1505l-205 273h111l114 -158l115 158h108l-204 -273h-39zM594 -20q-238 0 -376 191t-138 535.5t138 537t374 192.5q152 0 275.5 -102.5t172.5 -268.5l-114 -53q-37 135 -124 215t-210 80q-174 0 -277.5 -160t-103.5 -430q0 -276 104.5 -442t278.5 -166 q113 0 202 80.5t130 213.5l114 -51q-47 -166 -170.5 -269t-275.5 -103z" glyph-name="Ccaron" horiz-adv-x="1097" unicode="Č"/><glyph d="M408 1141l-205 272h110l115 -158l115 158h108l-205 -272h-38zM457 -23q-190 0 -283.5 155t-93.5 390q0 240 93 393.5t284 153.5q248 0 329 -266l-110 -47q-43 201 -219 200q-72 0 -123 -38.5t-77 -106.5t-37 -137.5t-11 -151.5t11 -151.5t37 -135t77 -104.5t123 -39 q174 0 221 197l106 -41q-77 -271 -327 -271z" glyph-name="ccaron" horiz-adv-x="841" unicode="č"/><glyph d="M498 1505l-205 273h110l115 -158l115 158h108l-204 -273h-39zM166 0v1413h295q276 0 422.5 -183t146.5 -536q0 -334 -149.5 -514t-421.5 -180h-293zM301 127h137q231 0 343 142.5t112 437t-107.5 438t-328.5 143.5h-156v-1161z" glyph-name="Dcaron" horiz-adv-x="1110" unicode="Ď"/><glyph d="M733 924v489h127v-1413h-127v125h-6q-111 -147 -281 -148q-367 0 -366 547q0 545 366 545q168 0 281 -145h6zM956 1413h154v-170l-90 -270h-68l62 270h-58v170zM479 94q121 0 190.5 116t69.5 314q0 195 -69.5 309.5t-190.5 114.5q-139 0 -204.5 -100t-65.5 -324 q0 -227 65.5 -328.5t204.5 -101.5z" glyph-name="dcaron" horiz-adv-x="1118" unicode="ď"/><glyph d="M434 1413q276 0 423 -183t147 -536q0 -334 -149.5 -514t-422.5 -180h-293v657h-88v111h88v645h295zM412 127q231 0 342.5 142.5t111.5 437t-107.5 438t-328.5 143.5h-156v-520h291v-111h-291v-530h138z" glyph-name="Dcroat" horiz-adv-x="1083" unicode="Đ"/><glyph d="M999 1296v-82h-139v-1214h-127v125h-6q-111 -147 -281 -148q-367 0 -366 547q0 545 366 545q168 0 281 -145h6v290h-246v82h246v117h127v-117h139zM479 94q121 0 190.5 116t69.5 314q0 195 -69.5 309.5t-190.5 114.5q-139 0 -204.5 -100t-65.5 -324q0 -227 65.5 -328.5 t204.5 -101.5z" glyph-name="dcroat" horiz-adv-x="1013" unicode="đ"/><glyph d="M319 1606v96h431v-96h-431zM166 0v1413h735v-123h-600v-522h528v-123h-528v-522h600v-123h-735z" glyph-name="Emacron" horiz-adv-x="997" unicode="Ē"/><glyph d="M676 1337v-96h-430v96h430zM825 535q0 -45 -2 -64h-616q8 -160 78.5 -266.5t203.5 -106.5q129 0 230 103l76 -86q-127 -135 -306 -135q-201 0 -305 159.5t-104 386.5q0 106 19.5 197.5t61.5 172.5t119.5 127t184.5 46q113 0 189.5 -48t111.5 -134t47 -168t12 -184z M461 950q-238 0 -254 -368h502q-4 188 -56.5 278t-191.5 90z" glyph-name="emacron" horiz-adv-x="886" unicode="ē"/><glyph d="M471 1593v185h125v-185h-125zM166 0v1413h735v-123h-600v-522h528v-123h-528v-522h600v-123h-735z" glyph-name="Edotaccent" horiz-adv-x="997" unicode="Ė"/><glyph d="M522 1413v-184h-125v184h125zM825 535q0 -45 -2 -64h-616q8 -160 78.5 -266.5t203.5 -106.5q129 0 230 103l76 -86q-127 -135 -306 -135q-201 0 -305 159.5t-104 386.5q0 106 19.5 197.5t61.5 172.5t119.5 127t184.5 46q113 0 189.5 -48t111.5 -134t47 -168t12 -184z M461 950q-238 0 -254 -368h502q-4 188 -56.5 278t-191.5 90z" glyph-name="edotaccent" horiz-adv-x="886" unicode="ė"/><glyph d="M956 -285l70 -49q-55 -109 -160 -108q-74 0 -119 55t-45 141q0 137 121 246h-657v1413h735v-123h-600v-522h528v-123h-528v-522h600v-123q-117 -106 -117 -225q0 -63 22.5 -96t57.5 -33q55 -1 92 69z" glyph-name="Eogonek" horiz-adv-x="997" unicode="Ę"/><glyph d="M850 -170l70 -49q-55 -109 -160 -109q-74 0 -119 55.5t-45 141.5q0 68 35 133q-66 -23 -142 -22q-201 0 -305 159.5t-104 386.5q0 106 19.5 197.5t61.5 172.5t119.5 127t184.5 46q113 0 189.5 -48t111.5 -134t47 -168t12 -184q0 -45 -2 -64h-616q8 -160 78.5 -266.5 t203.5 -106.5q129 0 230 103l76 -86q-4 -4 -9.5 -10.5t-10.5 -10.5t-9 -8q-88 -94 -88 -197q0 -63 22.5 -96t57.5 -33q55 0 92 70zM461 950q-238 0 -254 -368h502q-4 188 -56.5 278t-191.5 90z" glyph-name="eogonek" horiz-adv-x="886" unicode="ę"/><glyph d="M514 1505l-205 273h111l115 -158l114 158h109l-205 -273h-39zM166 0v1413h735v-123h-600v-522h528v-123h-528v-522h600v-123h-735z" glyph-name="Ecaron" horiz-adv-x="997" unicode="Ě"/><glyph d="M479 1141h-39l-204 272h110l115 -158l114 158h109zM825 535q0 -45 -2 -64h-616q8 -160 78.5 -266.5t203.5 -106.5q129 0 230 103l76 -86q-127 -135 -306 -135q-201 0 -305 159.5t-104 386.5q0 106 19.5 197.5t61.5 172.5t119.5 127t184.5 46q113 0 189.5 -48t111.5 -134 t47 -168t12 -184zM461 950q-238 0 -254 -368h502q-4 188 -56.5 278t-191.5 90z" glyph-name="ecaron" horiz-adv-x="886" unicode="ě"/><glyph d="M591.5 1507q-104.5 0 -174 72t-69.5 199h105q0 -74 39.5 -122t99 -48t100.5 48t41 122h103q0 -125 -70 -198t-174.5 -73zM686 705h385v-705h-113v246q-35 -109 -130 -187.5t-232 -78.5q-184 0 -303 101t-166 259t-47 371q0 205 49 362.5t167 260t294 102.5 q174 0 285.5 -89.5t179.5 -281.5l-121 -51q-57 156 -135 222.5t-207 66.5q-104 0 -180 -46.5t-118 -130.5t-61.5 -185t-19.5 -224q0 -172 34 -302t120 -217t219 -87q117 0 204 71.5t125 208.5q27 90 29 197h-258v117z" glyph-name="Gbreve" horiz-adv-x="1216" unicode="Ğ"/><glyph d="M471 1143q-104 0 -174 71.5t-70 198.5h105q0 -74 40 -122t99 -48t100 48t41 122h103q0 -125 -70 -197.5t-174 -72.5zM475 -385q-131 0 -234.5 61.5t-134.5 171.5l103 52q33 -86 107.5 -131t160.5 -45q119 0 187.5 77.5t68.5 198.5v170q-94 -162 -282 -162 q-180 0 -275.5 154.5t-95.5 380t97 376t286 150.5q176 0 260 -143h8v123h129v-1049q0 -172 -103.5 -278.5t-281.5 -106.5zM483 121q133 0 196.5 109.5t63.5 289.5q0 119 -24.5 213t-87 159.5t-156.5 65.5q-133 0 -199.5 -118.5t-66.5 -300.5q0 -180 67.5 -299t206.5 -119z " glyph-name="gbreve" horiz-adv-x="1013" unicode="ğ"/><glyph d="M653 1778v-185h-125v185h125zM686 705h385v-705h-113v246q-35 -109 -130 -187.5t-232 -78.5q-184 0 -303 101t-166 259t-47 371q0 205 49 362.5t167 260t294 102.5q174 0 285.5 -89.5t179.5 -281.5l-121 -51q-57 156 -135 222.5t-207 66.5q-104 0 -180 -46.5t-118 -130.5 t-61.5 -185t-19.5 -224q0 -172 34 -302t120 -217t219 -87q117 0 204 71.5t125 208.5q27 90 29 197h-258v117z" glyph-name="Gdotaccent" horiz-adv-x="1216" unicode="Ġ"/><glyph d="M408 1229v184h124v-184h-124zM475 -385q-131 0 -234.5 61.5t-134.5 171.5l103 52q33 -86 107.5 -131t160.5 -45q119 0 187.5 77.5t68.5 198.5v170q-94 -162 -282 -162q-180 0 -275.5 154.5t-95.5 380t97 376t286 150.5q176 0 260 -143h8v123h129v-1049 q0 -172 -103.5 -278.5t-281.5 -106.5zM483 121q133 0 196.5 109.5t63.5 289.5q0 119 -24.5 213t-87 159.5t-156.5 65.5q-133 0 -199.5 -118.5t-66.5 -300.5q0 -180 67.5 -299t206.5 -119z" glyph-name="gdotaccent" horiz-adv-x="1013" unicode="ġ"/><glyph d="M686 705h385v-705h-113v246q-35 -109 -130 -187.5t-232 -78.5q-184 0 -303 101t-166 259t-47 371q0 205 49 362.5t167 260t294 102.5q174 0 285.5 -89.5t179.5 -281.5l-121 -51q-57 156 -135 222.5t-207 66.5q-104 0 -180 -46.5t-118 -130.5t-61.5 -185t-19.5 -224 q0 -172 34 -302t120 -217t219 -87q117 0 204 71.5t125 208.5q27 90 29 197h-258v117zM428 -446l98 303h162l-180 -303h-80z" glyph-name="Gcommaaccent" horiz-adv-x="1216" unicode="Ģ"/><glyph d="M686 1413l-98 -270h-162l180 270h80zM475 -385q-131 0 -234.5 61.5t-134.5 171.5l103 52q33 -86 107.5 -131t160.5 -45q119 0 187.5 77.5t68.5 198.5v170q-94 -162 -282 -162q-180 0 -275.5 154.5t-95.5 380t97 376t286 150.5q176 0 260 -143h8v123h129v-1049 q0 -172 -103.5 -278.5t-281.5 -106.5zM483 121q133 0 196.5 109.5t63.5 289.5q0 119 -24.5 213t-87 159.5t-156.5 65.5q-133 0 -199.5 -118.5t-66.5 -300.5q0 -180 67.5 -299t206.5 -119z" glyph-name="gcommaaccent" horiz-adv-x="1005" unicode="ģ"/><glyph d="M1079 1145v-62h-82v-1083h-133v647h-563v-647h-135v1083h-82v62h82v268h135v-268h563v268h133v-268h82zM864 766v317h-563v-317h563z" glyph-name="Hbar" horiz-adv-x="1163" unicode="Ħ"/><glyph d="M537 1069q131 0 203.5 -80t72.5 -227v-762h-127v750q0 109 -43 152.5t-133 43.5q-100 0 -164.5 -94t-64.5 -236v-616h-127v1182h-144v82h144v149h127v-149h241v-82h-241v-295h10q86 182 246 182z" glyph-name="hbar" horiz-adv-x="942" unicode="ħ"/><glyph d="M356 1536q-55 0 -99 39t-80 77t-71 38q-39 0 -58 -40t-17 -96h-80q0 98 37 161t112 63q45 0 84 -24.5t60.5 -55.5t51.5 -55.5t58 -24.5q78 0 78 160h84q0 -119 -42 -180.5t-118 -61.5zM166 0v1413h135v-1413h-135z" glyph-name="Itilde" horiz-adv-x="466" unicode="Ĩ"/><glyph d="M332 1171q-55 0 -99.5 39t-80 77t-70.5 38q-39 0 -58.5 -40t-17.5 -95h-80q0 98 37 160.5t113 62.5q45 0 84 -24.5t60.5 -55t51 -55.5t58.5 -25q78 0 78 160h84q0 -119 -42 -180.5t-118 -61.5zM145 0v1049h127v-1049h-127z" glyph-name="itilde" horiz-adv-x="417" unicode="ĩ"/><glyph d="M18 1606v96h431v-96h-431zM166 0v1413h135v-1413h-135z" glyph-name="Imacron" horiz-adv-x="466" unicode="Ī"/><glyph d="M-6 1241v96h430v-96h-430zM145 0v1049h127v-1049h-127z" glyph-name="imacron" horiz-adv-x="417" unicode="ī"/><glyph d="M356 -285l70 -49q-53 -109 -160 -108q-74 0 -119 55t-45 141q0 137 121 246h-57v1413h135v-1413q-117 -106 -117 -225q0 -63 22.5 -96t57.5 -33q55 -1 92 69z" glyph-name="Iogonek" horiz-adv-x="466" unicode="Į"/><glyph d="M283 1413v-190h-129v190h129zM338 -285l70 -49q-55 -109 -160 -108q-74 0 -119 55t-45 141q0 137 121 246h-51v1049h129v-1049q-117 -106 -117 -225q0 -63 22.5 -96t57.5 -33q55 -1 92 69z" glyph-name="iogonek" horiz-adv-x="436" unicode="į"/><glyph d="M170 1593v185h125v-185h-125zM166 0v1413h135v-1413h-135z" glyph-name="Idotaccent" horiz-adv-x="466" unicode="İ"/><glyph d="M145 0v1049h127v-1049h-127z" glyph-name="dotlessi" horiz-adv-x="417" unicode="ı"/><glyph d="M555 901l455 -901h-164l-373 797l-172 -224v-573h-135v1413h135v-649l483 649h168zM385 -446l98 303h162l-180 -303h-80z" glyph-name="Kcommaaccent" horiz-adv-x="1028" unicode="Ķ"/><glyph d="M154 0v1413h127v-833l376 469h158l-358 -422l411 -627h-159l-336 528l-92 -108v-420h-127zM311 -446l99 303h161l-180 -303h-80z" glyph-name="kcommaaccent" horiz-adv-x="862" unicode="ķ"/><glyph d="M145 0v1049h127v-469l375 469h160l-358 -422l411 -627h-162l-336 526l-90 -106v-420h-127z" glyph-name="kgreenlandic" horiz-adv-x="854" unicode="ĸ"/><glyph d="M199 1538l176 240h166l-240 -240h-102zM166 0v1413h135v-1290h483v-123h-618z" glyph-name="Lacute" horiz-adv-x="811" unicode="Ĺ"/><glyph d="M158 1538l176 240h166l-240 -240h-102zM145 0v1413h127v-1413h-127z" glyph-name="lacute" horiz-adv-x="417" unicode="ĺ"/><glyph d="M166 0v1413h135v-1290h483v-123h-618zM295 -446l98 303h162l-180 -303h-80z" glyph-name="Lcommaaccent" horiz-adv-x="811" unicode="Ļ"/><glyph d="M145 0v1413h127v-1413h-127zM29 -446l98 303h162l-180 -303h-80z" glyph-name="lcommaaccent" horiz-adv-x="417" unicode="ļ"/><glyph d="M301 1413v-1290h483v-123h-618v1413h135zM606 1413h178v-196l-104 -314h-80l72 314h-66v196z" glyph-name="Lcaron" horiz-adv-x="811" unicode="Ľ"/><glyph d="M145 0v1413h127v-1413h-127zM342 1413h178v-196l-104 -314h-80l72 314h-66v196z" glyph-name="lcaron" horiz-adv-x="585" unicode="ľ"/><glyph d="M301 123h483v-123h-618v537l-158 -140v101l158 139v776h135v-655l162 143v-102l-162 -144v-532z" glyph-name="Lslash" horiz-adv-x="811" unicode="Ł"/><glyph d="M438 979v-102l-166 -148v-729h-127v618l-161 -143v100l161 144v694h127v-582z" glyph-name="lslash" horiz-adv-x="417" unicode="ł"/><glyph d="M557 1538l176 240h166l-240 -240h-102zM166 0v1413h217l522 -1272h8v1272h136v-1413h-220l-524 1286h-4v-1286h-135z" glyph-name="Nacute" horiz-adv-x="1214" unicode="Ń"/><glyph d="M414 1178l176 239h166l-240 -239h-102zM154 0v1049h129v-162h6q86 182 243 182q131 0 206 -93t75 -255v-721h-127v709q0 131 -44 185t-128 54q-102 0 -167.5 -92t-65.5 -240v-616h-127z" glyph-name="nacute" horiz-adv-x="942" unicode="ń"/><glyph d="M166 0v1413h217l522 -1272h8v1272h136v-1413h-220l-524 1286h-4v-1286h-135zM428 -446l98 303h162l-180 -303h-80z" glyph-name="Ncommaaccent" horiz-adv-x="1214" unicode="Ņ"/><glyph d="M154 0v1049h129v-162h6q86 182 243 182q131 0 206 -93t75 -255v-721h-127v709q0 131 -44 185t-128 54q-102 0 -167.5 -92t-65.5 -240v-616h-127zM303 -446l98 303h162l-180 -303h-80z" glyph-name="ncommaaccent" horiz-adv-x="942" unicode="ņ"/><glyph d="M588 1505l-205 273h111l114 -158l115 158h108l-204 -273h-39zM166 0v1413h217l522 -1272h8v1272h136v-1413h-220l-524 1286h-4v-1286h-135z" glyph-name="Ncaron" horiz-adv-x="1214" unicode="Ň"/><glyph d="M444 1145l-204 272h110l115 -157l115 157h108l-205 -272h-39zM154 0v1049h129v-162h6q86 182 243 182q131 0 206 -93t75 -255v-721h-127v709q0 131 -44 185t-128 54q-102 0 -167.5 -92t-65.5 -240v-616h-127z" glyph-name="ncaron" horiz-adv-x="942" unicode="ň"/><glyph d="M913 1413h136v-1413q0 -47 -2.5 -78t-14.5 -76t-35.5 -70.5t-68.5 -45t-109 -19.5h-67v94q119 0 151.5 38t32.5 157h-107l-524 1286h-4v-1286h-135v1413h217l522 -1272h8v1272z" glyph-name="Eng" horiz-adv-x="1214" unicode="Ŋ"/><glyph d="M139 0v999h129v-165h11q84 182 253 182q135 0 201 -114t66 -292v-641q0 -258 -221 -258h-72v99h35q129 0 129 170v616q0 291 -168 291q-96 0 -165 -93.5t-69 -226.5v-567h-129z" glyph-name="eng" horiz-adv-x="931" unicode="ŋ"/><glyph d="M377 1606v96h430v-96h-430zM592 -20q-236 0 -374 196.5t-138 530t138 530.5t374 197q233 0 372.5 -197t139.5 -530.5t-139.5 -530t-372.5 -196.5zM592 106q174 0 276.5 163t102.5 437.5t-102.5 437.5t-276.5 163t-276.5 -163t-102.5 -437.5t102.5 -437.5t276.5 -163z" glyph-name="Omacron" horiz-adv-x="1183" unicode="Ō"/><glyph d="M260 1241v96h430v-96h-430zM475 -23q-180 0 -287.5 137.5t-107.5 405.5q0 272 107.5 410.5t287.5 138.5q178 0 286.5 -138t108.5 -411q0 -268 -108.5 -405.5t-286.5 -137.5zM475 96q272 0 273 424q0 432 -273 432q-268 0 -268 -432q0 -424 268 -424z" glyph-name="omacron" unicode="ō"/><glyph d="M375 1544l170 234h157l-210 -234h-117zM647 1544l168 234h166l-219 -234h-115zM592 -20q-236 0 -374 196.5t-138 530t138 530.5t374 197q233 0 372.5 -197t139.5 -530.5t-139.5 -530t-372.5 -196.5zM592 106q174 0 276.5 163t102.5 437.5t-102.5 437.5t-276.5 163 t-276.5 -163t-102.5 -437.5t102.5 -437.5t276.5 -163z" glyph-name="Ohungarumlaut" horiz-adv-x="1183" unicode="Ő"/><glyph d="M258 1180l170 233h158l-211 -233h-117zM530 1180l168 233h166l-219 -233h-115zM475 -23q-180 0 -287.5 137.5t-107.5 405.5q0 272 107.5 410.5t287.5 138.5q178 0 286.5 -138t108.5 -411q0 -268 -108.5 -405.5t-286.5 -137.5zM475 96q272 0 273 424q0 432 -273 432 q-268 0 -268 -432q0 -424 268 -424z" glyph-name="ohungarumlaut" unicode="ő"/><glyph d="M1690 1294h-588v-512v-16h518v-119h-518v-16v-504h588v-127h-707v205q-141 -225 -391 -225q-236 0 -374 196.5t-138 530t138 530.5t374 197q250 0 391 -226v205h707v-119zM592 106q174 0 276.5 163t102.5 437.5t-102.5 437.5t-276.5 163t-276.5 -163t-102.5 -437.5 t102.5 -437.5t276.5 -163z" glyph-name="OE" horiz-adv-x="1785" unicode="Œ"/><glyph d="M1499 535q0 -45 -2 -64h-616q8 -160 78.5 -266.5t203.5 -106.5q129 0 230 103l75 -86q-127 -135 -305 -135q-238 0 -346 231q-100 -233 -342 -234q-180 0 -287.5 137.5t-107.5 405.5q0 272 107.5 410.5t287.5 138.5q236 0 336 -221q94 221 328 221q113 0 189.5 -48 t111.5 -134t47 -168t12 -184zM475 96q272 0 273 424q0 432 -273 432q-268 0 -268 -432q0 -424 268 -424zM881 582h501q-4 188 -56 278t-191 90q-238 1 -254 -368z" glyph-name="oe" horiz-adv-x="1560" unicode="œ"/><glyph d="M469 1538l176 240h166l-240 -240h-102zM166 -2v1415h471q162 0 260 -105.5t98 -281.5q0 -145 -64.5 -240.5t-174.5 -123.5l274 -664h-156l-253 647h-320v-647h-135zM301 768h358q203 12 203 258q0 127 -58.5 195.5t-166.5 68.5h-336v-522z" glyph-name="Racute" horiz-adv-x="1087" unicode="Ŕ"/><glyph d="M326 1174l176 239h166l-240 -239h-102zM154 0v1049h129v-170h4q31 90 84 138t121 48q72 0 108 -18v-121q-57 18 -98 14q-106 -10 -163.5 -106.5t-57.5 -268.5v-565h-127z" glyph-name="racute" horiz-adv-x="636" unicode="ŕ"/><glyph d="M166 -2v1415h471q162 0 260 -105.5t98 -281.5q0 -145 -64.5 -240.5t-174.5 -123.5l274 -664h-156l-253 647h-320v-647h-135zM301 768h358q203 12 203 258q0 127 -58.5 195.5t-166.5 68.5h-336v-522zM457 -446l98 303h162l-180 -303h-80z" glyph-name="Rcommaaccent" horiz-adv-x="1087" unicode="Ŗ"/><glyph d="M154 0v1049h129v-170h4q31 90 84 138t121 48q72 0 108 -18v-121q-57 18 -98 14q-106 -10 -163.5 -106.5t-57.5 -268.5v-565h-127zM37 -446l98 303h162l-180 -303h-80z" glyph-name="rcommaaccent" horiz-adv-x="636" unicode="ŗ"/><glyph d="M500 1505l-205 273h111l114 -158l115 158h108l-204 -273h-39zM166 -2v1415h471q162 0 260 -105.5t98 -281.5q0 -145 -64.5 -240.5t-174.5 -123.5l274 -664h-156l-253 647h-320v-647h-135zM301 768h358q203 12 203 258q0 127 -58.5 195.5t-166.5 68.5h-336v-522z" glyph-name="Rcaron" horiz-adv-x="1087" unicode="Ř"/><glyph d="M356 1141l-204 272h110l115 -158l115 158h108l-205 -272h-39zM154 0v1049h129v-170h4q31 90 84 138t121 48q72 0 108 -18v-121q-57 18 -98 14q-106 -10 -163.5 -106.5t-57.5 -268.5v-565h-127z" glyph-name="rcaron" horiz-adv-x="636" unicode="ř"/><glyph d="M387 1538l176 240h166l-240 -240h-102zM455 -16q-150 0 -260.5 89t-151.5 275l121 41q31 -147 110.5 -215t188.5 -68q219 0 219 250q0 127 -64.5 201t-183.5 139q-160 88 -209 133q-117 104 -116 273q0 150 87 241t250 91q217 0 359 -222l-100 -75q-92 172 -263 172 q-102 0 -153 -62.5t-51 -152.5q0 -43 16 -81t32.5 -60.5t61.5 -55.5t64.5 -44t81.5 -46q76 -43 117.5 -72.5t97 -84t81 -127t25.5 -167.5q0 -166 -95 -269t-265 -103z" glyph-name="Sacute" horiz-adv-x="901" unicode="Ś"/><glyph d="M334 1174l176 239h166l-240 -239h-102zM403 -23q-121 0 -220 74t-136 176l109 66q27 -80 89 -138.5t156 -58.5q82 0 140.5 49.5t58.5 141.5q0 49 -16.5 84t-55.5 58.5t-68.5 34.5t-88.5 28q-70 20 -107 34.5t-85 45t-69.5 79.5t-21.5 119q0 137 85 218t216 81 q111 0 194 -57.5t126 -141.5l-99 -75q-80 158 -215 157q-82 0 -135 -50t-53 -122q0 -33 14.5 -59.5t30.5 -42.5t55 -33.5t61.5 -25t75.5 -23.5q68 -20 107 -36.5t86 -49.5t68.5 -84t21.5 -123q0 -154 -95.5 -240t-228.5 -86z" glyph-name="sacute" horiz-adv-x="768" unicode="ś"/><glyph d="M815 356q0 -160 -89 -262t-251 -110l-57 -90q154 -43 153 -150q0 -63 -42 -105t-113 -42q-51 0 -90 26.5t-58 67.5l72 39q12 -59 72 -60q74 0 73 64q0 27 -6 43t-34.5 31.5t-47 21.5t-78.5 27l70 131q-127 18 -218 107t-128 253l121 41q31 -147 110.5 -215t188.5 -68 q219 0 219 250q0 127 -64.5 201t-183.5 139q-160 88 -209 133q-117 104 -116 273q0 150 87 241t250 91q217 0 359 -222l-100 -75q-92 172 -263 172q-102 0 -153 -62.5t-51 -152.5q0 -43 16 -81t32.5 -60.5t61.5 -55.5t64.5 -44t81.5 -46q76 -43 117.5 -72.5t97 -84 t81 -127.5t25.5 -167z" glyph-name="Scedilla" horiz-adv-x="901" unicode="Ş"/><glyph d="M727 303q0 -133 -74.5 -217t-187.5 -104l-55 -84q154 -43 153 -150q0 -63 -42 -105t-113 -42q-51 0 -90 26.5t-58 67.5l72 39q12 -59 71 -60q74 0 74 64q0 27 -6 43t-34.5 31.5t-47 21.5t-78.5 27l62 119q-111 8 -201 79.5t-125 167.5l109 66q27 -80 89 -138.5t156 -58.5 q82 0 140.5 49.5t58.5 141.5q0 49 -16.5 84t-55.5 58.5t-68.5 34.5t-88.5 28q-70 20 -107 34.5t-85 45t-69.5 79.5t-21.5 119q0 137 85 218t216 81q111 0 194 -57.5t126 -141.5l-99 -75q-80 158 -215 157q-82 0 -135 -50t-53 -122q0 -33 14.5 -59.5t30.5 -42.5t55 -33.5 t61.5 -25t75.5 -23.5q68 -20 107 -36.5t86 -49.5t68.5 -84t21.5 -123z" glyph-name="scedilla" horiz-adv-x="768" unicode="ş"/><glyph d="M418 1505l-205 273h111l114 -158l115 158h109l-205 -273h-39zM455 -16q-150 0 -260.5 89t-151.5 275l121 41q31 -147 110.5 -215t188.5 -68q219 0 219 250q0 127 -64.5 201t-183.5 139q-160 88 -209 133q-117 104 -116 273q0 150 87 241t250 91q217 0 359 -222l-100 -75 q-92 172 -263 172q-102 0 -153 -62.5t-51 -152.5q0 -43 16 -81t32.5 -60.5t61.5 -55.5t64.5 -44t81.5 -46q76 -43 117.5 -72.5t97 -84t81 -127t25.5 -167.5q0 -166 -95 -269t-265 -103z" glyph-name="Scaron" horiz-adv-x="901" unicode="Š"/><glyph d="M365 1141l-205 272h110l115 -158l115 158h108l-205 -272h-38zM403 -23q-121 0 -220 74t-136 176l109 66q27 -80 89 -138.5t156 -58.5q82 0 140.5 49.5t58.5 141.5q0 49 -16.5 84t-55.5 58.5t-68.5 34.5t-88.5 28q-70 20 -107 34.5t-85 45t-69.5 79.5t-21.5 119 q0 137 85 218t216 81q111 0 194 -57.5t126 -141.5l-99 -75q-80 158 -215 157q-82 0 -135 -50t-53 -122q0 -33 14.5 -59.5t30.5 -42.5t55 -33.5t61.5 -25t75.5 -23.5q68 -20 107 -36.5t86 -49.5t68.5 -84t21.5 -123q0 -154 -95.5 -240t-228.5 -86z" glyph-name="scaron" horiz-adv-x="768" unicode="š"/><glyph d="M541 0h-17l-65 -102q154 -43 153 -150q0 -63 -42 -105t-113 -42q-51 0 -90 26.5t-58 67.5l72 39q12 -59 72 -60q74 0 73 64q0 27 -6 43t-34.5 31.5t-47 21.5t-78.5 27l72 139h-24v1292h-381v121h893v-121h-379v-1292z" glyph-name="Tcommaaccent" horiz-adv-x="946" unicode="Ţ"/><glyph d="M365 -102q154 -43 153 -150q0 -63 -42 -105t-114 -42q-51 0 -90 26.5t-57 67.5l72 39q12 -59 71 -60q74 0 74 64q0 27 -6 43t-35 31.5t-47 21.5t-78 27l74 141h2q-178 20 -178 281v655h-127v111h127v364h127v-364h225v-111h-225v-631q0 -113 26.5 -157t96.5 -44h80v-106 h-64z" glyph-name="tcommaaccent" horiz-adv-x="567" unicode="ţ"/><glyph d="M453 1505l-205 273h110l115 -158l115 158h108l-204 -273h-39zM408 0v1292h-381v121h893v-121h-379v-1292h-133z" glyph-name="Tcaron" horiz-adv-x="946" unicode="Ť"/><glyph d="M442 1661h179v-197l-105 -313h-80l72 313h-66v197zM291 1413v-364h225v-111h-225v-631q0 -113 26.5 -157t96.5 -44h80v-106h-115q-111 0 -163 68.5t-52 214.5v655h-127v111h127v364h127z" glyph-name="tcaron" horiz-adv-x="567" unicode="ť"/><glyph d="M920 1292h-379v-544h188v-82h-188v-666h-133v666h-191v82h191v544h-381v121h893v-121z" glyph-name="Tbar" horiz-adv-x="946" unicode="Ŧ"/><glyph d="M516 938h-225v-373h217v-82h-217v-176q0 -113 26.5 -157t96.5 -44h80v-106h-115q-111 0 -163 68.5t-52 214.5v200h-103v82h103v373h-127v111h127v364h127v-364h225v-111z" glyph-name="tbar" horiz-adv-x="567" unicode="ŧ"/><glyph d="M672 1536q-55 0 -99.5 39t-80 77t-70.5 38q-39 0 -58.5 -40t-17.5 -96h-80q0 98 37 161t113 63q45 0 84 -24.5t60.5 -55.5t51 -55.5t58.5 -24.5q78 0 78 160h83q0 -119 -41.5 -180.5t-117.5 -61.5zM549 -20q-190 0 -294.5 109.5t-104.5 316.5v1007h135v-1014 q0 -145 69.5 -221t194.5 -76t193.5 77t68.5 220v1014h135v-997q0 -211 -104.5 -323.5t-292.5 -112.5z" glyph-name="Utilde" horiz-adv-x="1095" unicode="Ũ"/><glyph d="M584 1171q-55 0 -99.5 39t-80 77t-70.5 38q-39 0 -58.5 -40t-17.5 -95h-80q0 98 37 160.5t113 62.5q45 0 84 -24.5t60.5 -55t51 -55.5t58.5 -25q78 0 77 160h84q0 -119 -41.5 -180.5t-117.5 -61.5zM791 1049v-1049h-127v162h-15q-82 -176 -237 -176q-281 0 -281 344v719 h127v-709q0 -135 42 -182t132 -47q102 0 167 90t65 231v617h127z" glyph-name="utilde" horiz-adv-x="944" unicode="ũ"/><glyph d="M334 1606v96h430v-96h-430zM549 -20q-190 0 -294.5 109.5t-104.5 316.5v1007h135v-1014q0 -145 69.5 -221t194.5 -76t193.5 77t68.5 220v1014h135v-997q0 -211 -104.5 -323.5t-292.5 -112.5z" glyph-name="Umacron" horiz-adv-x="1095" unicode="Ū"/><glyph d="M246 1241v96h430v-96h-430zM791 1049v-1049h-127v162h-15q-82 -176 -237 -176q-281 0 -281 344v719h127v-709q0 -135 42 -182t132 -47q102 0 167 90t65 231v617h127z" glyph-name="umacron" horiz-adv-x="944" unicode="ū"/><glyph d="M549 1489q-82 0 -134.5 55t-52.5 139t52.5 137.5t134.5 53.5q80 0 132 -54.5t52 -136.5q0 -84 -52 -139t-132 -55zM549 1573q45 0 74.5 30.5t29.5 78t-29.5 79t-74.5 31.5t-75 -31.5t-30 -79t30 -78t75 -30.5zM549 -20q-190 0 -294.5 109.5t-104.5 316.5v1007h135v-1014 q0 -145 69.5 -221t194.5 -76t193.5 77t68.5 220v1014h135v-997q0 -211 -104.5 -323.5t-292.5 -112.5z" glyph-name="Uring" horiz-adv-x="1095" unicode="Ů"/><glyph d="M461 1124q-82 0 -134.5 55.5t-52.5 139.5t52.5 137t134.5 53q80 0 132 -54t52 -136q0 -84 -52 -139.5t-132 -55.5zM461 1208q45 0 74.5 31t29.5 78t-29.5 78.5t-74.5 31.5t-75 -31.5t-30 -78.5t30 -78t75 -31zM791 1049v-1049h-127v162h-15q-82 -176 -237 -176 q-281 0 -281 344v719h127v-709q0 -135 42 -182t132 -47q102 0 167 90t65 231v617h127z" glyph-name="uring" horiz-adv-x="944" unicode="ů"/><glyph d="M332 1544l170 234h157l-210 -234h-117zM604 1544l168 234h166l-219 -234h-115zM549 -20q-190 0 -294.5 109.5t-104.5 316.5v1007h135v-1014q0 -145 69.5 -221t194.5 -76t193.5 77t68.5 220v1014h135v-997q0 -211 -104.5 -323.5t-292.5 -112.5z" glyph-name="Uhungarumlaut" horiz-adv-x="1095" unicode="Ű"/><glyph d="M244 1180l170 233h157l-211 -233h-116zM516 1180l168 233h166l-219 -233h-115zM791 1049v-1049h-127v162h-15q-82 -176 -237 -176q-281 0 -281 344v719h127v-709q0 -135 42 -182t132 -47q102 0 167 90t65 231v617h127z" glyph-name="uhungarumlaut" horiz-adv-x="944" unicode="ű"/><glyph d="M946 416q0 -283 -184 -387q-70 -82 -70 -176q0 -63 22.5 -96t57.5 -33q55 0 92 69l70 -49q-53 -109 -160 -109q-74 0 -119 55.5t-45 141.5q0 80 47 158q-55 -10 -108 -10q-190 0 -294.5 109.5t-104.5 316.5v1007h135v-1014q0 -145 69.5 -221t194.5 -76t193.5 77t68.5 220 v1014h135v-997z" glyph-name="Uogonek" horiz-adv-x="1095" unicode="Ų"/><glyph d="M848 -285l70 -49q-53 -109 -160 -108q-74 0 -119 55t-45 141q0 137 121 246h-51v162h-15q-82 -176 -237 -176q-281 0 -281 344v719h127v-709q0 -135 42 -182t132 -47q102 0 167 90t65 231v617h127v-1049h2q-117 -106 -117 -225q0 -63 22.5 -96t57.5 -33q55 -1 92 69z" glyph-name="uogonek" horiz-adv-x="944" unicode="ų"/><glyph d="M745 1669l-114 -162h-111l205 271h39l205 -271h-109zM1325 1413h139l-272 -1413h-193l-254 1274l-256 -1274h-192l-272 1413h139l223 -1270h8l262 1270h177l258 -1270h10z" glyph-name="Wcircumflex" horiz-adv-x="1488" unicode="Ŵ"/><glyph d="M594 1305l-115 -162h-110l204 270h39l205 -270h-108zM1012 1049h137l-186 -1049h-179l-190 852l-191 -850h-178l-184 1047h137l139 -955l218 955h116l219 -945z" glyph-name="wcircumflex" horiz-adv-x="1189" unicode="ŵ"/><glyph d="M268 1507l205 271h39l205 -271h-109l-114 162l-115 -162h-111zM426 0v553l-412 860h156l324 -739l321 739h158l-414 -860v-553h-133z" glyph-name="Ycircumflex" horiz-adv-x="987" unicode="Ŷ"/><glyph d="M154 1143l204 270h39l205 -270h-108l-115 162l-115 -162h-110zM57 -365v111q47 0 83 7t62.5 27.5t42 35t32 54.5t22.5 58.5t23 71.5l-291 1049h137l190 -777q23 -94 23 -125h6q0 51 21 127l186 775h141l-303 -1090q-45 -162 -128 -243t-247 -81z" glyph-name="ycircumflex" horiz-adv-x="755" unicode="ŷ"/><glyph d="M297 1587v191h133v-191h-133zM557 1587v191h131v-191h-131zM426 0v553l-412 860h156l324 -739l321 739h158l-414 -860v-553h-133z" glyph-name="Ydieresis" horiz-adv-x="987" unicode="Ÿ"/><glyph d="M774 1778l-239 -240h-103l176 240h166zM915 1413v-119l-712 -1171h712v-123h-876v115l706 1175h-669v123h839z" glyph-name="Zacute" horiz-adv-x="954" unicode="Ź"/><glyph d="M672 1413l-240 -239h-102l176 239h166zM711 1049v-111l-502 -821h496v-117h-650v98l506 836h-489v115h639z" glyph-name="zacute" horiz-adv-x="761" unicode="ź"/><glyph d="M545 1778v-185h-125v185h125zM915 1413v-119l-712 -1171h712v-123h-876v115l706 1175h-669v123h839z" glyph-name="Zdotaccent" horiz-adv-x="954" unicode="Ż"/><glyph d="M442 1413v-184h-125v184h125zM711 1049v-111l-502 -821h496v-117h-650v98l506 836h-489v115h639z" glyph-name="zdotaccent" horiz-adv-x="761" unicode="ż"/><glyph d="M502 1505h-39l-205 273h111l114 -158l115 158h109zM915 1413v-119l-712 -1171h712v-123h-876v115l706 1175h-669v123h839z" glyph-name="Zcaron" horiz-adv-x="954" unicode="Ž"/><glyph d="M399 1141h-39l-204 272h110l115 -158l115 158h108zM711 1049v-111l-502 -821h496v-117h-650v98l506 836h-489v115h639z" glyph-name="zcaron" horiz-adv-x="761" unicode="ž"/><glyph d="M561 1300q-59 0 -93 -47t-34 -129v-75h219v-111h-219v-938q0 -381 -352 -381v117q109 0 167 55t58 209v938h-149v111h149v65q0 137 65.5 218t178.5 81h102v-113h-92z" glyph-name="florin" horiz-adv-x="800" unicode="ƒ"/><glyph d="M498 1505h-39l-205 273h111l114 -158l115 158h108zM801 0l-80 322h-492l-79 -322h-142l377 1413h184l375 -1413h-143zM457 1249l-201 -813h438l-200 813l-15 70h-4z" glyph-name="uni01CD" unicode="Ǎ"/><glyph d="M453 1141h-39l-205 272h110l115 -158l115 158h108zM428 1069q147 0 238.5 -81t91.5 -230v-758h-119v164q-119 -186 -289 -187q-127 0 -202.5 80t-75.5 205q0 143 110 242q121 104 457 215v20q0 111 -49 160t-148 49q-170 0 -256 -162l-96 70q115 213 338 213zM362 102 q158 0 277 209v293q-106 -39 -154.5 -57.5t-115 -54t-101.5 -74.5q-59 -66 -59 -152q0 -78 42.5 -121t110.5 -43z" glyph-name="uni01CE" horiz-adv-x="886" unicode="ǎ"/><glyph d="M213 1505l-205 273h111l114 -158l115 158h109l-205 -273h-39zM166 0v1413h135v-1413h-135z" glyph-name="uni01CF" horiz-adv-x="466" unicode="Ǐ"/><glyph d="M188 1141l-204 272h110l115 -158l115 158h108l-205 -272h-39zM145 0v1049h127v-1049h-127z" glyph-name="uni01D0" horiz-adv-x="417" unicode="ǐ"/><glyph d="M571 1505l-204 273h110l115 -158l115 158h108l-205 -273h-39zM592 -20q-236 0 -374 196.5t-138 530t138 530.5t374 197q233 0 372.5 -197t139.5 -530.5t-139.5 -530t-372.5 -196.5zM592 106q174 0 276.5 163t102.5 437.5t-102.5 437.5t-276.5 163t-276.5 -163 t-102.5 -437.5t102.5 -437.5t276.5 -163z" glyph-name="uni01D1" horiz-adv-x="1183" unicode="Ǒ"/><glyph d="M455 1141l-205 272h110l115 -158l115 158h108l-204 -272h-39zM475 -23q-180 0 -287.5 137.5t-107.5 405.5q0 272 107.5 410.5t287.5 138.5q178 0 286.5 -138t108.5 -411q0 -268 -108.5 -405.5t-286.5 -137.5zM475 96q272 0 273 424q0 432 -273 432q-268 0 -268 -432 q0 -424 268 -424z" glyph-name="uni01D2" unicode="ǒ"/><glyph d="M528 1505l-204 273h110l115 -158l115 158h108l-205 -273h-39zM549 -20q-190 0 -294.5 109.5t-104.5 316.5v1007h135v-1014q0 -145 69.5 -221t194.5 -76t193.5 77t68.5 220v1014h135v-997q0 -211 -104.5 -323.5t-292.5 -112.5z" glyph-name="uni01D3" horiz-adv-x="1095" unicode="Ǔ"/><glyph d="M440 1141l-204 272h110l115 -158l114 158h109l-205 -272h-39zM791 1049v-1049h-127v162h-15q-82 -176 -237 -176q-281 0 -281 344v719h127v-709q0 -135 42 -182t132 -47q102 0 167 90t65 231v617h127z" glyph-name="uni01D4" horiz-adv-x="944" unicode="ǔ"/><glyph d="M334 1970v96h430v-96h-430zM352 1587v191h133v-191h-133zM612 1587v191h131v-191h-131zM549 -20q-190 0 -294.5 109.5t-104.5 316.5v1007h135v-1014q0 -145 69.5 -221t194.5 -76t193.5 77t68.5 220v1014h135v-997q0 -211 -104.5 -323.5t-292.5 -112.5z" glyph-name="uni01D5" horiz-adv-x="1095" unicode="Ǖ"/><glyph d="M246 1606v96h430v-96h-430zM264 1223v190h133v-190h-133zM524 1223v190h131v-190h-131zM791 1049v-1049h-127v162h-15q-82 -176 -237 -176q-281 0 -281 344v719h127v-709q0 -135 42 -182t132 -47q102 0 167 90t65 231v617h127z" glyph-name="uni01D6" horiz-adv-x="944" unicode="ǖ"/><glyph d="M498 1903l176 239h166l-240 -239h-102zM352 1587v191h133v-191h-133zM612 1587v191h131v-191h-131zM549 -20q-190 0 -294.5 109.5t-104.5 316.5v1007h135v-1014q0 -145 69.5 -221t194.5 -76t193.5 77t68.5 220v1014h135v-997q0 -211 -104.5 -323.5t-292.5 -112.5z" glyph-name="uni01D7" horiz-adv-x="1095" unicode="Ǘ"/><glyph d="M410 1538l176 240h166l-240 -240h-102zM264 1223v190h133v-190h-133zM524 1223v190h131v-190h-131zM791 1049v-1049h-127v162h-15q-82 -176 -237 -176q-281 0 -281 344v719h127v-709q0 -135 42 -182t132 -47q102 0 167 90t65 231v617h127z" glyph-name="uni01D8" horiz-adv-x="944" unicode="ǘ"/><glyph d="M528 1870l-204 272h110l115 -157l115 157h108l-205 -272h-39zM352 1587v191h133v-191h-133zM612 1587v191h131v-191h-131zM549 -20q-190 0 -294.5 109.5t-104.5 316.5v1007h135v-1014q0 -145 69.5 -221t194.5 -76t193.5 77t68.5 220v1014h135v-997q0 -211 -104.5 -323.5 t-292.5 -112.5z" glyph-name="uni01D9" horiz-adv-x="1095" unicode="Ǚ"/><glyph d="M440 1505l-204 273h110l115 -158l114 158h109l-205 -273h-39zM264 1223v190h133v-190h-133zM524 1223v190h131v-190h-131zM791 1049v-1049h-127v162h-15q-82 -176 -237 -176q-281 0 -281 344v719h127v-709q0 -135 42 -182t132 -47q102 0 167 90t65 231v617h127z" glyph-name="uni01DA" horiz-adv-x="944" unicode="ǚ"/><glyph d="M489 1901l-225 241h168l174 -241h-117zM352 1587v191h133v-191h-133zM612 1587v191h131v-191h-131zM549 -20q-190 0 -294.5 109.5t-104.5 316.5v1007h135v-1014q0 -145 69.5 -221t194.5 -76t193.5 77t68.5 220v1014h135v-997q0 -211 -104.5 -323.5t-292.5 -112.5z" glyph-name="uni01DB" horiz-adv-x="1095" unicode="Ǜ"/><glyph d="M401 1536l-225 242h168l174 -242h-117zM264 1223v190h133v-190h-133zM524 1223v190h131v-190h-131zM791 1049v-1049h-127v162h-15q-82 -176 -237 -176q-281 0 -281 344v719h127v-709q0 -135 42 -182t132 -47q102 0 167 90t65 231v617h127z" glyph-name="uni01DC" horiz-adv-x="944" unicode="ǜ"/><glyph d="M883 1778l-240 -240h-102l176 240h166zM1116 1274l-100 -125q88 -180 88 -442q0 -334 -139.5 -530.5t-372.5 -196.5q-229 0 -365 186l-77 -96l-82 69l100 125q-88 180 -88 443q0 334 138 530.5t374 196.5q227 0 364 -187l76 94zM213 707q0 -190 49 -326l608 760 q-102 166 -278 166q-174 0 -276.5 -163t-102.5 -437zM971 707q0 190 -49 325l-609 -760q102 -166 279 -166q174 0 276.5 163.5t102.5 437.5z" glyph-name="Oslashacute" horiz-adv-x="1183" unicode="Ǿ"/><glyph d="M766 1413l-240 -239h-102l176 239h166zM801 870q70 -135 69 -350q0 -268 -108.5 -405.5t-286.5 -137.5q-182 0 -285 134l-26 -33l-58 49l41 51q-68 135 -67 342q0 272 107.5 410.5t287.5 138.5q176 0 283 -133l26 35l60 -47zM207 520q0 -139 29 -231l444 553 q-68 111 -205 110q-268 0 -268 -432zM475 96q272 0 273 424q0 147 -31 244l-447 -555q68 -113 205 -113z" glyph-name="oslashacute" unicode="ǿ"/><glyph d="M455 -16q-150 0 -260.5 89t-151.5 275l121 41q31 -147 110.5 -215t188.5 -68q219 0 219 250q0 127 -64.5 201t-183.5 139q-160 88 -209 133q-117 104 -116 273q0 150 87 241t250 91q217 0 359 -222l-100 -75q-92 172 -263 172q-102 0 -153 -62.5t-51 -152.5q0 -43 16 -81 t32.5 -60.5t61.5 -55.5t64.5 -44t81.5 -46q76 -43 117.5 -72.5t97 -84t81 -127t25.5 -167.5q0 -166 -95 -269t-265 -103zM252 -451l98 304h162l-180 -304h-80z" glyph-name="Scommaaccent" horiz-adv-x="901" unicode="Ș"/><glyph d="M403 -23q-121 0 -220 74t-136 176l109 66q27 -80 89 -138.5t156 -58.5q82 0 140.5 49.5t58.5 141.5q0 49 -16.5 84t-55.5 58.5t-68.5 34.5t-88.5 28q-70 20 -107 34.5t-85 45t-69.5 79.5t-21.5 119q0 137 85 218t216 81q111 0 194 -57.5t126 -141.5l-99 -75 q-80 158 -215 157q-82 0 -135 -50t-53 -122q0 -33 14.5 -59.5t30.5 -42.5t55 -33.5t61.5 -25t75.5 -23.5q68 -20 107 -36.5t86 -49.5t68.5 -84t21.5 -123q0 -154 -95.5 -240t-228.5 -86zM244 -446l98 303h162l-180 -303h-80z" glyph-name="scommaaccent" horiz-adv-x="768" unicode="ș"/><glyph d="M408 0v1292h-381v121h893v-121h-379v-1292h-133zM293 -446l98 303h162l-180 -303h-80z" glyph-name="uni021A" horiz-adv-x="946" unicode="Ț"/><glyph d="M379 0q-111 0 -163 68.5t-52 214.5v655h-127v111h127v364h127v-364h225v-111h-225v-631q0 -113 26.5 -157t96.5 -44h80v-106h-115zM199 -446l98 303h162l-180 -303h-80z" glyph-name="uni021B" horiz-adv-x="567" unicode="ț"/><glyph d="M68 -365h-91v111h80q90 0 90 133v1170h127v-1158q0 -137 -46.5 -196.5t-159.5 -59.5z" glyph-name="uni0237" horiz-adv-x="428" unicode="ȷ"/><glyph d="M49 1112l205 270h39l205 -270h-109l-115 162l-114 -162h-111z" glyph-name="circumflex" horiz-adv-x="544" unicode="ˆ"/><glyph d="M254 1092l-205 272h111l114 -158l115 158h109l-205 -272h-39z" glyph-name="caron" horiz-adv-x="546" unicode="ˇ"/><glyph d="M254 1094q-104 0 -174 71.5t-70 198.5h105q0 -74 40 -122t99 -48t100 48t41 122h103q0 -125 -70 -197.5t-174 -72.5z" glyph-name="breve" horiz-adv-x="505" unicode="˘"/><glyph d="M43 1180v184h125v-184h-125z" glyph-name="dotaccent" horiz-adv-x="212" unicode="˙"/><glyph d="M170 1075q-76 0 -118 51.5t-42 143.5q0 90 42 140t118 50q74 0 116 -51t42 -139q0 -92 -42 -143.5t-116 -51.5zM170 1159q41 0 63.5 29t22.5 80t-22.5 80.5t-63.5 29.5t-63.5 -29.5t-22.5 -80.5t22.5 -80t63.5 -29z" glyph-name="ring" horiz-adv-x="337" unicode="˚"/><glyph d="M289 -442q-74 0 -119 55t-45 141q0 145 133 256l66 -10q-117 -106 -117 -225q0 -63 22.5 -96t57.5 -33q55 0 92 69l70 -49q-56 -108 -160 -108z" glyph-name="ogonek" horiz-adv-x="389" unicode="˛"/><glyph d="M418 1067q-43 0 -81 23.5t-59.5 53.5t-51 53.5t-58.5 23.5q-39 0 -58.5 -40t-17.5 -96h-80q0 98 37 161t113 63q45 0 84 -24.5t60.5 -55.5t51 -55.5t58.5 -24.5q78 0 78 160h84q0 -119 -42 -180.5t-118 -61.5z" glyph-name="tilde" horiz-adv-x="587" unicode="˜"/><glyph d="M2 1130l170 234h158l-211 -234h-117zM274 1130l168 234h166l-219 -234h-115z" glyph-name="hungarumlaut" horiz-adv-x="616" unicode="˝"/><glyph d="M-123 1122l-225 242h168l174 -242h-117z" glyph-name="gravecomb" horiz-adv-x="0" unicode="̀"/><glyph d="M-332 1124l176 240h166l-239 -240h-103z" glyph-name="acutecomb" horiz-adv-x="0" unicode="́"/><glyph d="M-496 1112l205 270h39l205 -270h-109l-114 162l-115 -162h-111z" glyph-name="uni0302" horiz-adv-x="0" unicode="̂"/><glyph d="M-170 1067q-43 0 -81 23.5t-59.5 53.5t-51 53.5t-58.5 23.5q-39 0 -58.5 -40t-17.5 -96h-79q0 98 36.5 161t112.5 63q45 0 84 -24.5t60.5 -55.5t51 -55.5t58.5 -24.5q78 0 78 160h84q0 -119 -42 -180.5t-118 -61.5z" glyph-name="tildecomb" horiz-adv-x="0" unicode="̃"/><glyph d="M-489 1192v96h430v-96h-430z" glyph-name="uni0304" horiz-adv-x="0" unicode="̄"/><glyph d="M-251.5 1094q-104.5 0 -174.5 71.5t-70 198.5h105q0 -74 40 -122t99 -48t100 48t41 122h103q0 -125 -69.5 -197.5t-174 -72.5z" glyph-name="uni0306" horiz-adv-x="0" unicode="̆"/><glyph d="M-170 1180v184h125v-184h-125z" glyph-name="uni0307" horiz-adv-x="0" unicode="̇"/><glyph d="M-434 1174v190h133v-190h-133zM-174 1174v190h131v-190h-131z" glyph-name="uni0308" horiz-adv-x="0" unicode="̈"/><glyph d="M-203 1075q-82 0 -134 55.5t-52 139.5t52 137t134 53q80 0 132.5 -54t52.5 -136q0 -84 -52.5 -139.5t-132.5 -55.5zM-203 1159q45 0 75 31t30 78t-30 78.5t-75 31.5t-74.5 -31.5t-29.5 -78.5t29.5 -78t74.5 -31z" glyph-name="uni030A" horiz-adv-x="0" unicode="̊"/><glyph d="M-614 1130l170 234h157l-211 -234h-116zM-342 1130l168 234h166l-219 -234h-115z" glyph-name="uni030B" horiz-adv-x="0" unicode="̋"/><glyph d="M-293 1092l-205 272h111l115 -158l114 158h109l-205 -272h-39z" glyph-name="uni030C" horiz-adv-x="0" unicode="̌"/><glyph d="M223 1423l-98 -270h-162l180 270h80z" glyph-name="uni0312" horiz-adv-x="0" unicode="̒"/><glyph d="M-266 -446l98 303h162l-180 -303h-80z" glyph-name="uni0326" horiz-adv-x="0" unicode="̦"/><glyph d="M-162 -399q-51 0 -90 26.5t-57 67.5l71 39q12 -59 72 -60q74 0 74 64q0 27 -6 43t-35 31.5t-47.5 21.5t-77.5 27l74 141l90 -2l-66 -102q154 -43 154 -150q0 -63 -42 -105t-114 -42z" glyph-name="uni0327" horiz-adv-x="0" unicode="̧"/><glyph d="M-100 -442q-74 0 -119 55t-45 141q0 145 133 256l65 -10q-117 -106 -116 -225q0 -63 22.5 -96t57.5 -33q55 0 92 69l69 -49q-55 -108 -159 -108z" glyph-name="uni0328" horiz-adv-x="0" unicode="̨"/><glyph d="M-1016 528v82h512v-82h-512z" glyph-name="uni0335" horiz-adv-x="0" unicode="̵"/><glyph d="M-999 539v61h995v-61h-995z" glyph-name="uni0336" horiz-adv-x="0" unicode="̶"/><glyph d="M-893 123v135l608 539v-138z" glyph-name="uni0337" horiz-adv-x="0" unicode="̷"/><glyph d="M-961 57l-81 70l964 1202l84 -67z" glyph-name="uni0338" horiz-adv-x="0" unicode="̸"/><glyph d="M717 -20q-72 0 -116 57t-44 143v705h-233v-885h-113v885h-66v114h590v-114h-65v-701q0 -94 73 -94q23 0 41 12l25 -94q-51 -28 -92 -28z" glyph-name="pi" horiz-adv-x="962" unicode="π"/><glyph d="M803 1536h-117l-225 242h168zM1325 1413h139l-272 -1413h-193l-254 1274l-256 -1274h-192l-272 1413h139l223 -1270h8l262 1270h177l258 -1270h10z" glyph-name="Wgrave" horiz-adv-x="1488" unicode="Ẁ"/><glyph d="M651 1171h-116l-226 242h168zM1012 1049h137l-186 -1049h-179l-190 852l-191 -850h-178l-184 1047h137l139 -955l218 955h116l219 -945z" glyph-name="wgrave" horiz-adv-x="1189" unicode="ẁ"/><glyph d="M1036 1778l-239 -240h-103l176 240h166zM1325 1413h139l-272 -1413h-193l-254 1274l-256 -1274h-192l-272 1413h139l223 -1270h8l262 1270h177l258 -1270h10z" glyph-name="Wacute" horiz-adv-x="1488" unicode="Ẃ"/><glyph d="M885 1413l-240 -239h-102l176 239h166zM1012 1049h137l-186 -1049h-179l-190 852l-191 -850h-178l-184 1047h137l139 -955l218 955h116l219 -945z" glyph-name="wacute" horiz-adv-x="1189" unicode="ẃ"/><glyph d="M682 1778v-191h-133v191h133zM940 1778v-191h-131v191h131zM1325 1413h139l-272 -1413h-193l-254 1274l-256 -1274h-192l-272 1413h139l223 -1270h8l262 1270h177l258 -1270h10z" glyph-name="Wdieresis" horiz-adv-x="1488" unicode="Ẅ"/><glyph d="M530 1413v-190h-133v190h133zM788 1413v-190h-131v190h131zM1012 1049h137l-186 -1049h-179l-190 852l-191 -850h-178l-184 1047h137l139 -955l218 955h116l219 -945z" glyph-name="wdieresis" horiz-adv-x="1189" unicode="ẅ"/><glyph d="M657 1536q-55 0 -99 39t-80 77t-70 38q-39 0 -58.5 -40t-17.5 -96h-80q0 98 37 161t112 63q45 0 84 -24.5t60.5 -55.5t51.5 -55.5t58 -24.5q78 0 78 160h84q0 -119 -42 -180.5t-118 -61.5zM166 0v1413h735v-123h-600v-522h528v-123h-528v-522h600v-123h-735z" glyph-name="uni1EBC" horiz-adv-x="997" unicode="Ẽ"/><glyph d="M584 1171q-55 0 -99.5 39t-80 77t-70.5 38q-39 0 -58.5 -40t-17.5 -95h-80q0 98 37 160.5t113 62.5q45 0 84 -24.5t60.5 -55t51 -55.5t58.5 -25q78 0 77 160h84q0 -119 -41.5 -180.5t-117.5 -61.5zM825 535q0 -45 -2 -64h-616q8 -160 78.5 -266.5t203.5 -106.5 q129 0 230 103l76 -86q-127 -135 -306 -135q-201 0 -305 159.5t-104 386.5q0 106 19.5 197.5t61.5 172.5t119.5 127t184.5 46q113 0 189.5 -48t111.5 -134t47 -168t12 -184zM461 950q-238 0 -254 -368h502q-4 188 -56.5 278t-191.5 90z" glyph-name="uni1EBD" horiz-adv-x="886" unicode="ẽ"/><glyph d="M434 1536l-225 242h168l174 -242h-117zM426 0v553l-412 860h156l324 -739l321 739h158l-414 -860v-553h-133z" glyph-name="Ygrave" horiz-adv-x="987" unicode="Ỳ"/><glyph d="M319 1171l-225 242h168l174 -242h-117zM57 -365v111q47 0 83 7t62.5 27.5t42 35t32 54.5t22.5 58.5t23 71.5l-291 1049h137l190 -777q23 -94 23 -125h6q0 51 21 127l186 775h141l-303 -1090q-45 -162 -128 -243t-247 -81z" glyph-name="ygrave" horiz-adv-x="755" unicode="ỳ"/><glyph d="M616 1536q-55 0 -99 39t-80 77t-70 38q-39 0 -58.5 -40t-17.5 -96h-80q0 98 37 161t112 63q45 0 84 -24.5t60.5 -55.5t51.5 -55.5t58 -24.5q78 0 78 160h84q0 -119 -42 -180.5t-118 -61.5zM426 0v553l-412 860h156l324 -739l321 739h158l-414 -860v-553h-133z" glyph-name="uni1EF8" horiz-adv-x="987" unicode="Ỹ"/><glyph d="M502 1171q-55 0 -99.5 39t-80 77t-70.5 38q-39 0 -58.5 -40t-17.5 -95h-80q0 98 37 160.5t113 62.5q45 0 84 -24.5t60.5 -55t51 -55.5t58.5 -25q78 0 78 160h84q0 -119 -42 -180.5t-118 -61.5zM57 -365v111q47 0 83 7t62.5 27.5t42 35t32 54.5t22.5 58.5t23 71.5 l-291 1049h137l190 -777q23 -94 23 -125h6q0 51 21 127l186 775h141l-303 -1090q-45 -162 -128 -243t-247 -81z" glyph-name="uni1EF9" horiz-adv-x="755" unicode="ỹ"/><glyph d="M43 469v84h563v-84h-563z" glyph-name="endash" horiz-adv-x="649" unicode="–"/><glyph d="M10 469v84h1639v-84h-1639z" glyph-name="emdash" horiz-adv-x="1658" unicode="—"/><glyph d="M348 1413l-72 -313h66v-197h-178v197l104 313h80z" glyph-name="quoteleft" horiz-adv-x="471" unicode="‘"/><glyph d="M129 1413h178v-196l-104 -314h-80l72 314h-66v196z" glyph-name="quoteright" horiz-adv-x="475" unicode="’"/><glyph d="M119 197h178v-197l-104 -313h-80l71 313h-65v197z" glyph-name="quotesinglbase" horiz-adv-x="452" unicode="‚"/><glyph d="M268 1413h80l-72 -313h66v-197h-178v197zM631 1413l-72 -313h66v-197h-179v197l105 313h80z" glyph-name="quotedblleft" horiz-adv-x="753" unicode="“"/><glyph d="M129 1217v196h178v-196l-104 -314h-80l72 314h-66zM410 1413h178v-196l-105 -314h-80l72 314h-65v196z" glyph-name="quotedblright" horiz-adv-x="755" unicode="”"/><glyph d="M119 0v197h178v-197l-104 -313h-80l71 313h-65zM422 197h178v-197l-104 -313h-80l71 313h-65v197z" glyph-name="quotedblbase" horiz-adv-x="755" unicode="„"/><glyph d="M274 -205v1077h-176v95h176v446h103v-446h178v-95h-178v-1077h-103z" glyph-name="dagger" horiz-adv-x="653" unicode="†"/><glyph d="M274 -205v447h-176v94h176v536h-176v95h176v446h103v-446h178v-95h-178v-536h178v-94h-178v-447h-103z" glyph-name="daggerdbl" horiz-adv-x="653" unicode="‡"/><glyph d="M303 293q-96 0 -169 74.5t-73 173.5q0 96 73 168.5t169 72.5q100 0 173 -72.5t73 -168.5q0 -98 -74 -173t-172 -75z" glyph-name="bullet" horiz-adv-x="610" unicode="•"/><glyph d="M106 0v197h179v-197h-179zM578 0v197h178v-197h-178z" glyph-name="twodotenleader" horiz-adv-x="845" unicode="‥"/><glyph d="M106 0v197h179v-197h-179zM578 0v197h178v-197h-178zM1051 0v197h178v-197h-178z" glyph-name="ellipsis" horiz-adv-x="1318" unicode="…"/><glyph d="M293 803q-209 0 -209 315q0 317 203 318q209 0 209 -318q0 -315 -203 -315zM246 2l612 1409h125l-610 -1409h-127zM288.5 905q100.5 0 100.5 215q0 207 -102 207q-98 0 -99 -209q0 -213 100.5 -213zM954 2q-209 0 -209 313q0 317 203 318q209 0 209 -318 q0 -313 -203 -313zM1436 2q-106 0 -156.5 97.5t-50.5 215.5q0 121 49 219.5t154 98.5q100 0 154 -94.5t54 -223.5q0 -127 -53 -220t-151 -93zM952 106q98 0 98.5 211t-102.5 211q-98 0 -98 -213q0 -209 102 -209zM1434 106q47 0 73.5 66t26.5 145q0 84 -26.5 147.5 t-75.5 63.5q-47 0 -74 -65.5t-27 -147.5q0 -80 27 -144.5t76 -64.5z" glyph-name="perthousand" horiz-adv-x="1724" unicode="‰"/><glyph d="M387 190l-299 320l299 321v-149l-154 -172l154 -170v-150z" glyph-name="guilsinglleft" horiz-adv-x="475" unicode="‹"/><glyph d="M88 190v150l154 170l-154 172v149l299 -321z" glyph-name="guilsinglright" horiz-adv-x="475" unicode="›"/><glyph d="M-246 0l604 1413h127l-604 -1413h-127z" glyph-name="fraction" horiz-adv-x="239" unicode="⁄"/><glyph d="M981 1413v-123h-203q100 -94 121 -239h82v-121h-80q-18 -174 -146 -269.5t-329 -95.5h-74l574 -567h-191l-569 567v123h264q141 0 231.5 61.5t106.5 180.5h-602v121h596q-23 111 -113 175t-219 64h-264v123h815z" glyph-name="uni20A8" horiz-adv-x="983" unicode="₨"/><glyph d="M1561 870h-113l-43 -221h156v-100h-175l-106 -549h-193l-108 549h-291l-110 -549h-193l-106 549h-177v100h158l-43 221h-115v109h95l-84 434h139l76 -436l327 -2l90 438h177l90 -438l323 -2l78 440h139l-86 -442h95v-101zM834 1274l-60 -299h119zM348 870l39 -221h201 l45 221h-285zM709 649h249l-45 221h-161zM1278 649l39 221h-285l45 -221h201zM483 143l84 406h-164l72 -406h8zM1190 143l72 406h-164l82 -406h10z" glyph-name="uni20A9" horiz-adv-x="1662" unicode="₩"/><glyph d="M940 219l80 -67q-129 -172 -344 -172q-199 0 -322 143t-159 383h-193l43 100h139q-4 61 -4 96q0 59 2 89h-202l43 100h170q37 244 158.5 394.5t324.5 150.5q174 0 293 -123l-39 -111q-109 127 -254.5 127t-235.5 -122t-121 -316h519l-41 -105l-488 2q-4 -61 -4 -96 q0 -57 2 -86h436l-34 -100h-390q31 -184 120 -297t243 -113q164 0 258 123z" glyph-name="Euro" horiz-adv-x="1077" unicode="€"/><glyph d="M12 1331v82h434v-82h-174v-454h-86v454h-174zM936 1413h108v-536h-86v380l-127 -380h-81l-132 389v-389h-86v536h115l141 -448z" glyph-name="trademark" horiz-adv-x="1167" unicode="™"/><glyph d="M72 0v115h270q-125 86 -195.5 244.5t-70.5 359.5q0 324 138 506t386 182t386 -182.5t138 -507.5q0 -201 -66.5 -358.5t-187.5 -239.5h258v-119h-413v121q137 55 214 216t77 390q0 266 -107.5 414.5t-298 148.5t-298 -147.5t-107.5 -407.5q0 -205 75.5 -366.5 t212.5 -247.5v-121h-411z" glyph-name="uni2126" horiz-adv-x="1200" unicode="Ω"/><glyph d="M1681 686v-102h-1302l448 -312v-118l-725 485l725 479v-119l-448 -313h1302z" glyph-name="arrowleft" horiz-adv-x="1775" unicode="←"/><glyph d="M950 154v118l449 312h-1305v102h1305l-449 313v119l723 -479z" glyph-name="arrowright" horiz-adv-x="1777" unicode="→"/><glyph d="M430 -12q-160 0 -252 120.5t-92 321.5q0 250 128 426t316 176q160 0 226 -139q-14 197 -79 304.5t-177 107.5q-131 0 -187 -162l-108 37q39 121 118.5 185.5t184.5 64.5q188 0 280.5 -176.5t92.5 -483.5q0 -356 -119 -569t-332 -213zM430 109q139 0 223 145t84 342 q0 147 -52 232t-153 85q-139 0 -227 -151.5t-88 -337.5q0 -141 55.5 -228t157.5 -87z" glyph-name="partialdiff" horiz-adv-x="1001" unicode="∂"/><glyph d="M18 0l443 1411l442 -1411h-885zM184 117h553l-276 956z" glyph-name="uni2206" horiz-adv-x="919" unicode="∆"/><glyph d="M231 0v1296h-65v117h778v-117h-65v-1296h-113v1296h-422v-1296h-113z" glyph-name="product" horiz-adv-x="1110" unicode="∏"/><glyph d="M68 0v55l464 652l-464 653v53h813v-117h-607l418 -589l-418 -590h607v-117h-813z" glyph-name="summation" horiz-adv-x="948" unicode="∑"/><glyph d="M379 -160l-207 746h-121v114h201l133 -546l369 1263l106 -47z" glyph-name="radical" horiz-adv-x="903" unicode="√"/><glyph d="M358 342q-119 0 -198.5 80t-79.5 211t80 211t198 80q182 0 373 -213q190 213 373 213q119 0 199.5 -80t80.5 -211t-80.5 -211t-199.5 -80q-182 0 -373 213q-191 -213 -373 -213zM365 444q131 0 297 189q-166 188 -297 188q-78 0 -129.5 -50t-51.5 -138t51.5 -138.5 t129.5 -50.5zM1100 444q78 0 129 50.5t51 138.5t-51 138t-129 50q-133 0 -299 -188q166 -189 299 -189z" glyph-name="infinity" horiz-adv-x="1464" unicode="∞"/><glyph d="M27 -457v117q143 0 207.5 78t64.5 252v1173q0 125 62.5 205t152.5 80q84 0 162 -74l-74 -92q-41 49 -88 49q-43 0 -73.5 -43t-30.5 -121v-1171q0 -221 -101.5 -337t-281.5 -116z" glyph-name="integral" horiz-adv-x="702" unicode="∫"/><glyph d="M662 600q-55 0 -104.5 26.5t-79 59.5t-70.5 59.5t-80 26.5q-96 0 -92 -145h-101q0 111 49 178t142 67q66 0 119 -26.5t81.5 -57t66.5 -57t75 -26.5q57 0 79.5 40.5t22.5 120.5h109q0 -127 -57.5 -196.5t-159.5 -69.5zM662 152q-55 0 -104.5 26.5t-79 59t-70.5 59.5 t-80 27q-96 0 -92 -146h-101q0 111 49 178.5t142 67.5q66 0 119 -26.5t81.5 -57.5t66.5 -57.5t75 -26.5q57 0 79.5 41t22.5 121h109q0 -127 -57.5 -196.5t-159.5 -69.5z" glyph-name="approxequal" horiz-adv-x="931" unicode="≈"/><glyph d="M1040 1413l-260 -491h260v-119h-323l-117 -221h440v-119h-503l-246 -463h-141l245 463h-264v119h326l116 221h-442v119h506l260 491h143z" glyph-name="notequal" horiz-adv-x="1189" unicode="≠"/><glyph d="M991 193l-876 497l876 498v-123l-667 -375l667 -368v-129zM991 0h-899v96h899v-96z" glyph-name="lessequal" horiz-adv-x="1175" unicode="≤"/><glyph d="M164 193v129l667 368l-667 375v123l876 -498zM164 0v96h899v-96h-899z" glyph-name="greaterequal" horiz-adv-x="1155" unicode="≥"/><glyph d="M371 0l-295 717l295 717h133l293 -717l-293 -717h-133zM436 131l226 586l-226 586l-225 -586z" glyph-name="lozenge" horiz-adv-x="872" unicode="◊"/><glyph d="M145 1229v184h125v-184h-125zM145 0v1049h127v-1049h-127z" glyph-name="i.locl" horiz-adv-x="417"/><glyph d="M981 938h-225v-631q0 -113 26.5 -157t96.5 -44h79v-106h-114q-111 0 -163 68.5t-52 214.5v655h-127v2h-191v-940h-129v940h-147v109h147v120q0 113 64.5 178.5t154.5 65.5h84v-110h-71q-51 0 -77 -35t-26 -90v-129h318v364h127v-364h225v-111z" glyph-name="f_t.dlig" horiz-adv-x="1032"/><glyph d="M979 938h-225v-631q0 -113 26.5 -157t96.5 -44h79v-106h-114q-111 0 -163 68.5t-52 214.5v655h-336v-631q0 -113 26.5 -157t96.5 -44h80v-106h-115q-111 0 -163 68.5t-52 214.5v655h-127v111h127v364h127v-364h336v364h127v-364h225v-111z" glyph-name="t_t.dlig" horiz-adv-x="1030"/><glyph d="M330 1423l-99 -270h-161l180 270h80z" glyph-name="glyph398" horiz-adv-x="106"/><glyph d="M84 463v96h530v-96h-530z" glyph-name="glyph399" horiz-adv-x="698"/><glyph d="M938 -61q-322 0 -548 226t-226 547.5t226 548t548 226.5t548 -226.5t226 -548t-226 -547.5t-548 -226zM938 10q291 0 496.5 206t205.5 497t-205.5 496.5t-496.5 205.5t-496.5 -205.5t-205.5 -496.5t205.5 -497t496.5 -206zM535 410q-14 0 -24.5 10t-10.5 24v537 q0 14 10 25.5t24.5 11.5t25.5 -11.5t11 -25.5v-537q1 -34 -36 -34zM938 410q-35 0 -35 34v537q0 37 35 37t35 -37v-537q0 -34 -35 -34zM1339.5 410q-14.5 0 -22.5 10l-270 268q-10 10 -10.5 24.5t10.5 24.5l270 269q10 12 22 12q14 0 25.5 -12.5t11.5 -26.5q0 -12 -10 -23 l-244 -243l244 -244q10 -10 10 -23q0 -14 -11 -25t-25.5 -11zM670 678q-35 0 -35 35t35 35h133q37 0 37 -35t-37 -35h-133z" glyph-name="glyph400" horiz-adv-x="1875"/><glyph d="M0 762v108l1458 -8v-100h-1458zM0 440v101h1458v-101h-1458z" glyph-name="glyph401" horiz-adv-x="1458"/></font>
</defs>
</svg>
