<?xml version="1.0" standalone="no"?>
<!DOCTYPE svg PUBLIC "-//W3C//DTD SVG 1.1//EN" "http://www.w3.org/Graphics/SVG/1.1/DTD/svg11.dtd">
<svg xmlns="http://www.w3.org/2000/svg"><metadata>This SVG WebFont was generated by YouWorkForThem.
Copyright (c)2016, Radnika designed by Alfredo Marco Pradil (ammpradil@gmail.com). Radnika is a trademark of Alfredo Marco Pradil.</metadata><defs><font horiz-adv-x="0" id="ywftsvg"><font-face ascent="1638" bbox="-1536 -500 2433 2138" cap-height="1413" descent="-410" font-family="" font-stretch="normal" font-weight="900" panose-1="0 0 10 0 0 0 0 0 0 0" underline-position="0" underline-thickness="0" unicode-range="U+0020-FB02" units-per-em="2048" x-height="1049"/><missing-glyph d="M10 0v999h819v-999h-819zM113 102h614v795h-614v-795z" horiz-adv-x="839"/><glyph d="M1280 1049v-1049h-387v811h-281v-811h-387v811h-190v238h194v71q0 133 85 213t247 80h195v-266h-97q-47 0 -47 -57v-41h668zM893 1413h389v-252h-389v252z" glyph-name="uniFB01" horiz-adv-x="1384" unicode="fi"/><glyph d="M225 0v811h-190v238h194v71q0 133 85 213t247 80h236v-266h-138q-47 0 -47 -57v-41h185v-238h-185v-811h-387zM932 0v1413h387v-1413h-387z" glyph-name="uniFB02" horiz-adv-x="1431" unicode="fl"/><glyph d="M1278 1147q-47 0 -47 -57v-41h184v-213h-184v-836h-387v836h-262v-836h-387v836h-160v213h164v71q0 133 85 213t246 80h236v-266h-137q-47 0 -47 -57v-41h266v71q0 133 85 213t247 80h235v-266h-137z" glyph-name="f_f.liga" horiz-adv-x="1441" unicode="ff"/><glyph d="M821 1120q0 133 85 213t247 80h236v-266h-138q-47 0 -47 -57v-41h185v-213h-185v-836h-387v836h-235v-836h-387v836h-160v213h164v71q0 133 85 213t246 80h236v-266h-137q-47 0 -47 -57v-41h239v71zM1520 1413h389v-252h-389v252zM1520 0v1049h387v-1049h-387z" glyph-name="f_f_i.liga" horiz-adv-x="2011" unicode="ffi"/><glyph d="M844 1120q0 133 85 213t247 80h235v-266h-137q-47 0 -47 -57v-41h184v-213h-184v-836h-387v836h-258v-836h-387v836h-160v213h164v71q0 133 85 213t246 80h236v-266h-137q-47 0 -47 -57v-41h262v71zM1505 1413h387v-1413h-387v1413z" glyph-name="f_f_l.liga" horiz-adv-x="2004" unicode="ffl"/><glyph d="M10 0v999h819v-999h-819zM113 102h614v795h-614v-795z" glyph-name=".notdef" horiz-adv-x="839"/><glyph glyph-name="glyph1"/><glyph glyph-name="glyph2" horiz-adv-x="681"/><glyph glyph-name="space" horiz-adv-x="468" unicode=" "/><glyph d="M176 494l-29 919h345l-29 -919h-287zM135 0v367h369v-367h-369z" glyph-name="exclam" horiz-adv-x="638" unicode="!"/><glyph d="M90 817v596h307v-596h-307zM565 817v596h320v-596h-320z" glyph-name="quotedbl" horiz-adv-x="976" unicode="&quot;"/><glyph d="M184 0l78 385h-190v242h241l35 178h-198v235h247l78 373h250l-76 -358h191l75 358h248l-73 -369h190v-239h-240l-34 -178h198v-238h-248l-79 -389h-252l80 377h-191l-78 -377h-252zM563 627h191l34 178h-190z" glyph-name="numbersign" horiz-adv-x="1351" unicode="#"/><glyph d="M1180 467q0 -193 -114 -318.5t-306 -156.5v-152h-248v154q-291 51 -485 328l272 223q160 -229 340 -230q72 0 113 36t41 87q0 43 -36 72t-80 43t-149 43q-94 25 -155.5 49.5t-132 69.5t-106.5 118.5t-36 176.5q0 178 113 284.5t301 130.5v152h248v-154q207 -35 379 -206 l-217 -242q-133 154 -314 153q-121 0 -121 -65q0 -41 44 -63.5t163 -55.5q59 -16 95 -27.5t93.5 -34t93.5 -45t79 -60.5t67.5 -80t41 -101t16.5 -129z" glyph-name="dollar" horiz-adv-x="1222" unicode="$"/><glyph d="M414 721q-92 0 -162 38t-104.5 97t-50 113.5t-15.5 103.5q0 55 15.5 112.5t49 116t101 96.5t160.5 38q111 0 187.5 -61.5t106 -140.5t29.5 -163q0 -133 -79.5 -241.5t-237.5 -108.5zM283 0l757 1413h324l-760 -1413h-321zM410 987q16 0 34.5 21.5t18.5 64.5 q0 51 -18.5 76t-36.5 25q-25 0 -43.5 -24t-18.5 -77q1 -86 64 -86zM1262 -23q-94 0 -163 38t-103.5 96.5t-50 116t-15.5 112.5t15.5 114.5t49 121t101 100.5t159.5 39q84 0 149.5 -36t102.5 -94.5t54.5 -121t17.5 -123.5q0 -137 -79.5 -250t-237.5 -113zM1260 240q8 0 19 9 t21.5 34.5t10.5 58.5q0 37 -11.5 62.5t-22.5 33.5t-22 8q-23 0 -42 -25.5t-19 -80.5q0 -51 19.5 -75.5t46.5 -24.5z" glyph-name="percent" horiz-adv-x="1660" unicode="%"/><glyph d="M1192 350l358 -350h-485l-107 109q-145 -137 -387 -138q-219 0 -374.5 106.5t-155.5 305.5q0 152 97.5 254t236.5 125q-190 111 -191 303q0 129 74 216t174 121t215 34q188 0 325.5 -95.5t137.5 -277.5q0 -111 -56.5 -190.5t-211.5 -178.5l131 -127l289 365l247 -195z M653 1130q-45 0 -74.5 -27.5t-29.5 -64.5t16.5 -62.5t71.5 -78.5l2 -2q72 47 94.5 75.5t22.5 65.5t-28 65.5t-75 28.5zM588 276q78 0 145 64l-198 205q-41 -12 -72 -45t-31 -84q0 -70 44 -105t112 -35z" glyph-name="ampersand" horiz-adv-x="1499" unicode="&amp;"/><glyph d="M90 846v596h307v-596h-307z" glyph-name="quotesingle" horiz-adv-x="487" unicode="'"/><glyph d="M330 -313q-113 125 -191 383t-78 520q0 264 73 505.5t194 387.5h358q-145 -180 -224 -410.5t-79 -482.5q0 -537 307 -903h-360z" glyph-name="parenleft" horiz-adv-x="669" unicode="("/><glyph d="M340 -313h-360q307 367 307 903q0 252 -79 482.5t-224 410.5h358q121 -145 193.5 -387t72.5 -506q0 -262 -77.5 -520t-190.5 -383z" glyph-name="parenright" horiz-adv-x="669" unicode=")"/><glyph d="M254 803l29 203l-160 -125l-92 149l194 78l-194 78l92 151l160 -127l-29 203h174l-31 -203l162 127l88 -151l-190 -78l190 -78l-88 -149l-162 125l31 -203h-174z" glyph-name="asterisk" horiz-adv-x="677" unicode="*"/><glyph d="M516 0v373h-373v291h373v372h287v-372h373v-291h-373v-373h-287z" glyph-name="plus" horiz-adv-x="1318" unicode="+"/><glyph d="M74 387h446v-387h-12l-270 -365h-187l172 365h-149v387z" glyph-name="comma" horiz-adv-x="569" unicode=","/><glyph d="M143 373v291h818v-291h-818z" glyph-name="hyphen" horiz-adv-x="1103" unicode="-"/><glyph d="M92 0v387h447v-387h-447z" glyph-name="period" horiz-adv-x="630" unicode="."/><glyph d="M82 -156l659 1565h336l-657 -1565h-338z" glyph-name="slash" horiz-adv-x="1159" unicode="/"/><glyph d="M639 -20q-283 0 -440.5 199.5t-157.5 527t154.5 528.5t429.5 201q287 0 447.5 -201t160.5 -528.5t-156.5 -527t-437.5 -199.5zM633 326q94 0 144 99t50 284q0 182 -52 279t-150 97q-92 0 -141.5 -98t-49.5 -280q0 -184 51.5 -282.5t147.5 -98.5z" glyph-name="zero" horiz-adv-x="1273" unicode="0"/><glyph d="M358 0v1071l-317 -215v356l321 201h386v-1413h-390z" glyph-name="one" horiz-adv-x="962" unicode="1"/><glyph d="M530 332h676v-332h-1091v260q0 117 51 204t128 133t166 87t165.5 68.5t128 73.5t51.5 106q0 78 -37 122t-104 44q-160 0 -172 -232l-383 47q18 236 159.5 377.5t401.5 141.5q248 0 387 -128t139 -343q0 -139 -59.5 -239.5t-148.5 -154t-180 -88.5t-172 -70.5t-106 -76.5z " glyph-name="two" horiz-adv-x="1306" unicode="2"/><glyph d="M584 -20q-143 0 -263 55t-200 179t-80 298l381 14q0 -96 44 -150t126 -54q66 0 105.5 34.5t39.5 100.5q0 131 -168 131h-45v303h45q104 0 105 94q0 49 -30 77t-79 28q-63 0 -96 -44.5t-35 -113.5l-375 16q0 227 143.5 356.5t352.5 129.5q201 0 350.5 -115t149.5 -305 q0 -193 -166 -258v-2q94 -18 163.5 -98.5t69.5 -219.5q0 -211 -161.5 -333.5t-376.5 -122.5z" glyph-name="three" horiz-adv-x="1163" unicode="3"/><glyph d="M981 580h131v-314h-131v-266h-389v266h-541v318l531 829h399v-833zM592 580v401l-250 -401h250z" glyph-name="four" horiz-adv-x="1236" unicode="4"/><glyph d="M750 997q190 0 317 -131t127 -338q0 -240 -167 -394t-409 -154q-205 0 -358.5 113.5t-218.5 297.5l375 109q63 -147 198 -148q78 0 128.5 48.5t50.5 123.5q0 80 -53.5 127t-133.5 47q-102 0 -164 -94l-376 70l143 739h921v-332h-661l-37 -190l8 -2q134 108 310 108z" glyph-name="five" horiz-adv-x="1269" unicode="5"/><glyph d="M616 -20q-256 0 -415.5 179t-159.5 509q0 96 13.5 188t53 200.5t104 188.5t177.5 134.5t258 54.5q336 0 488 -281l-281 -162q-45 76 -94 106.5t-115 30.5q-121 0 -186.5 -81.5t-65.5 -239.5q106 125 293 125q197 0 327 -120t130 -333q0 -229 -151 -364t-376 -135z M621 311q70 0 116.5 46t46.5 116q0 68 -47 113t-116 45q-68 0 -112 -45t-44 -113q0 -70 44 -116t112 -46z" glyph-name="six" horiz-adv-x="1183" unicode="6"/><glyph d="M180 0q0 287 107.5 578.5t330.5 492.5v8h-548v334h923v-371q-106 -88 -181 -186t-116 -188t-62.5 -212t-26.5 -216.5t-5 -239.5h-422z" glyph-name="seven" horiz-adv-x="1024" unicode="7"/><glyph d="M610 -20q-254 0 -411.5 112.5t-157.5 310.5q0 131 73.5 229.5t209.5 129.5v4q-92 25 -151.5 103.5t-59.5 174.5q0 170 140 280t357 110t357.5 -110t140.5 -280q0 -96 -59.5 -174.5t-151.5 -103.5v-4q135 -31 209 -129t74 -230q0 -199 -158 -311t-412 -112zM610.5 891 q59.5 0 99.5 38t40 91t-40 91t-99.5 38t-99.5 -38t-40 -91t40 -91t99.5 -38zM610 301q80 0 129 45t49 117q0 68 -49 111.5t-129 43.5t-129 -44t-49 -111q0 -72 49 -117t129 -45z" glyph-name="eight" horiz-adv-x="1220" unicode="8"/><glyph d="M567 1434q256 0 416 -179.5t160 -509.5q0 -96 -13.5 -188t-53.5 -200.5t-104.5 -188.5t-177 -134t-257.5 -54q-336 0 -488 280l281 162q45 -76 94 -106.5t115 -30.5q121 0 186.5 82t65.5 239q-106 -125 -293 -125q-197 0 -327 120t-130 333q0 229 150.5 364.5 t375.5 135.5zM563 1102q-70 0 -117 -46t-47 -116q0 -68 47.5 -113t116.5 -45q68 0 112 45t44 113q0 70 -44 116t-112 46z" glyph-name="nine" horiz-adv-x="1183" unicode="9"/><glyph d="M90 688v387h447v-387h-447zM86 0v387h446v-387h-446z" glyph-name="colon" horiz-adv-x="595" unicode=":"/><glyph d="M578 1075v-387h-447v387h447zM150 387h446v-387h-12l-271 -365h-186l172 365h-149v387z" glyph-name="semicolon" horiz-adv-x="583" unicode=";"/><glyph d="M1274 78l-1202 596l1202 596v-340l-555 -256l555 -256v-340z" glyph-name="less" horiz-adv-x="1417" unicode="&lt;"/><glyph d="M104 618v314h932v-314h-932zM104 104v314h932v-314h-932z" glyph-name="equal" horiz-adv-x="1140" unicode="="/><glyph d="M178 78v340l555 256l-555 256v340l1202 -596z" glyph-name="greater" horiz-adv-x="1484" unicode=">"/><glyph d="M328 489v27q0 109 28.5 181.5t69.5 106.5t82 59.5t69.5 62.5t28.5 92q0 49 -27.5 79.5t-84.5 30.5q-143 0 -144 -157h-307q0 84 22.5 161.5t70.5 147.5t135 112t204 42q182 0 309 -99.5t127 -306.5q0 -86 -20.5 -146.5t-52 -88t-67.5 -55t-67.5 -48t-52 -65.5t-20.5 -111 v-25h-303zM303 0v367h352v-367h-352z" glyph-name="question" horiz-adv-x="972" unicode="?"/><glyph d="M920 1432q248 0 456.5 -122t327.5 -329t119 -449q0 -113 -28 -222t-81 -207.5t-147 -159t-215 -60.5t-200 66.5t-79 220.5q-104 -168 -285 -168q-164 0 -253 115.5t-89 304.5q0 252 145.5 429t332.5 177q82 0 148.5 -39t86.5 -127l29 129h192q-188 188 -456.5 188.5 t-452.5 -189t-184 -490.5q0 -274 160.5 -460.5t470.5 -186.5q59 0 120 10l68 -232q-84 -20 -182 -20q-385 0 -634 238.5t-249 642.5q0 412 252 676t627 264zM1376 123q29 0 59.5 16.5t64.5 54t55.5 117.5t21.5 191q0 248 -145 432l-144 -660q-16 -76 9.5 -113.5t78.5 -37.5z M852 268q100 0 169 97.5t69 226.5q0 96 -41 145t-111 49q-102 0 -172 -94t-70 -223q0 -96 42 -148.5t114 -52.5z" glyph-name="at" horiz-adv-x="1863" unicode="@"/><glyph d="M1090 0l-97 311h-473l-98 -311h-430l504 1413h514l506 -1413h-426zM621 627h272l-129 415h-10z" glyph-name="A" horiz-adv-x="1509" unicode="A"/><glyph d="M123 0v1413h676q225 0 346 -101.5t121 -289.5q0 -199 -179 -279v-6q121 -29 184.5 -111.5t63.5 -211.5q0 -199 -127 -306.5t-364 -107.5h-721zM522 872h283q45 0 75.5 32t30.5 79q0 45 -29.5 76t-76.5 31h-283v-218zM522 336h285q70 0 105.5 33.5t35.5 91.5 q0 111 -141 110h-285v-235z" glyph-name="B" horiz-adv-x="1376" unicode="B"/><glyph d="M680 -20q-141 0 -254 44t-183.5 114.5t-117.5 166.5t-65.5 195.5t-18.5 206t18.5 205t64.5 195.5t116.5 169t184.5 116t257 44q240 0 389.5 -108.5t226.5 -338.5l-378 -139q-16 125 -82 185.5t-158 60.5q-119 0 -185.5 -99.5t-66.5 -284t68.5 -289t175.5 -104.5 q193 0 256 256l375 -147q-76 -229 -227.5 -338.5t-395.5 -109.5z" glyph-name="C" horiz-adv-x="1335" unicode="C"/><glyph d="M123 0v1413h475q381 0 576.5 -186.5t195.5 -515.5q0 -342 -196.5 -526.5t-577.5 -184.5h-473zM520 348h51q203 0 305.5 93.5t102.5 269.5q0 170 -96.5 261t-288.5 91h-74v-715z" glyph-name="D" horiz-adv-x="1411" unicode="D"/><glyph d="M123 0v1413h981v-332h-584v-207h543v-331h-543v-209h584v-334h-981z" glyph-name="E" horiz-adv-x="1187" unicode="E"/><glyph d="M123 0v1413h1030v-332h-633v-207h545v-331h-545v-543h-397z" glyph-name="F" horiz-adv-x="1183" unicode="F"/><glyph d="M731 834h649v-834h-311l-10 135q-123 -156 -395 -155q-287 0 -455 211.5t-168 523.5q0 313 191.5 517t527.5 204q240 0 401.5 -120t206.5 -288l-340 -100q-63 184 -278 184q-162 0 -238 -113.5t-76 -291.5q0 -176 76 -282t242 -106q131 0 202.5 62.5t69.5 138.5h-295v314 z" glyph-name="G" horiz-adv-x="1482" unicode="G"/><glyph d="M123 0v1413h397v-528h475v528h398v-1413h-398v530h-475v-530h-397z" glyph-name="H" horiz-adv-x="1515" unicode="H"/><glyph d="M123 0v1413h397v-1413h-397z" glyph-name="I" horiz-adv-x="643" unicode="I"/><glyph d="M20 362q14 -2 74 -8t88 -6q41 0 59.5 3t43 16.5t35 47.5t10.5 91v907h397v-1026q0 -184 -126 -295.5t-347 -111.5q-166 0 -234 20v362z" glyph-name="J" horiz-adv-x="813" unicode="J"/><glyph d="M1071 0l-334 526l-217 -235v-291h-397v1413h397v-633l529 633h505l-550 -598l563 -815h-496z" glyph-name="K" horiz-adv-x="1566" unicode="K"/><glyph d="M123 0v1413h397v-1081h604v-332h-1001z" glyph-name="L" horiz-adv-x="1134" unicode="L"/><glyph d="M123 0v1413h557l326 -924l325 924h565v-1413h-397v918h-14l-316 -918h-327l-312 918h-16v-918h-391z" glyph-name="M" horiz-adv-x="2019" unicode="M"/><glyph d="M123 0v1413h385l551 -805h8v805h397v-1413h-389l-543 791h-12v-791h-397z" glyph-name="N" horiz-adv-x="1587" unicode="N"/><glyph d="M737 -20q-317 0 -506.5 196.5t-189.5 530t189.5 530.5t506.5 197q326 0 518.5 -197t192.5 -530.5t-192.5 -530t-518.5 -196.5zM737 317q129 0 206 105.5t77 284t-77 284t-206 105.5q-121 0 -193.5 -105.5t-72.5 -284t72.5 -284t193.5 -105.5z" glyph-name="O" horiz-adv-x="1488" unicode="O"/><glyph d="M123 0v1413h696q233 0 364.5 -136t131.5 -355.5t-133 -347.5t-363 -128h-301v-446h-395zM518 782h219q184 0 185 154q0 74 -43 106.5t-142 32.5h-219v-293z" glyph-name="P" horiz-adv-x="1341" unicode="P"/><glyph d="M1450 82l-213 -215l-174 176q-145 -63 -326 -63q-317 0 -506.5 196.5t-189.5 530t189.5 530.5t506.5 197q326 0 518.5 -197t192.5 -530q0 -289 -148 -478zM737 317q18 0 51 5l-120 122l206 209l121 -121q25 78 25 175q0 178 -77 283.5t-206 105.5q-121 0 -193.5 -105.5 t-72.5 -284t72.5 -284t193.5 -105.5z" glyph-name="Q" horiz-adv-x="1490" unicode="Q"/><glyph d="M123 -2v1415h735q211 0 348 -116.5t137 -315.5q0 -258 -235 -391l328 -592h-435l-251 534h-236v-534h-391zM516 831l299 3q74 2 110 35.5t36 91.5q0 125 -146 124h-299v-254z" glyph-name="R" horiz-adv-x="1411" unicode="R"/><glyph d="M643 -16q-381 0 -616 338l272 223q160 -229 340 -230q72 0 113 36t41 87q0 43 -36 72t-80 43t-149 43q-94 25 -155.5 49.5t-132 69.5t-106.5 118.5t-36 176.5q0 205 146.5 314.5t382.5 109.5q297 0 512 -217l-217 -242q-133 154 -314 153q-121 0 -121 -65q0 -41 44 -63.5 t163 -55.5q59 -16 95 -27.5t93.5 -34t93.5 -45t79 -60.5t67.5 -80t41 -101t16.5 -129q0 -221 -147.5 -352t-389.5 -131z" glyph-name="S" horiz-adv-x="1222" unicode="S"/><glyph d="M399 0v1081h-389v332h1180v-332h-393v-1081h-398z" glyph-name="T" horiz-adv-x="1200" unicode="T"/><glyph d="M729 -20q-606 0 -606 579v854h397v-866q0 -98 54.5 -151.5t154.5 -53.5q106 0 163.5 53.5t57.5 151.5v866h398v-844q-1 -589 -619 -589z" glyph-name="U" horiz-adv-x="1470" unicode="U"/><glyph d="M502 0l-506 1413h426l326 -1042h10l332 1042h430l-504 -1413h-514z" glyph-name="V" horiz-adv-x="1515" unicode="V"/><glyph d="M272 0l-266 1413h412l170 -1089h16l201 1089h432l201 -1089h14l170 1089h412l-269 -1413h-579l-170 946l-162 -946h-582z" glyph-name="W" horiz-adv-x="2039" unicode="W"/><glyph d="M-16 0l481 707l-479 706h493l285 -446l280 446h492l-483 -706l485 -707h-491l-285 438l-285 -438h-493z" glyph-name="X" horiz-adv-x="1521" unicode="X"/><glyph d="M526 0v549l-536 864h444l299 -500l277 500h444l-536 -864v-549h-392z" glyph-name="Y" horiz-adv-x="1443" unicode="Y"/><glyph d="M1239 1413v-268l-631 -813h631v-332h-1204v248l667 833h-622v332h1159z" glyph-name="Z" horiz-adv-x="1273" unicode="Z"/><glyph d="M123 -330v1825h489v-330h-163v-1159h163v-336h-489z" glyph-name="bracketleft" horiz-adv-x="632" unicode="["/><glyph d="M741 -156l-659 1565h338l657 -1565h-336z" glyph-name="backslash" horiz-adv-x="1159" unicode="\"/><glyph d="M510 -330h-490v336h164v1159h-164v330h490v-1825z" glyph-name="bracketright" horiz-adv-x="632" unicode="]"/><glyph d="M-2 442l524 971l522 -971h-376l-146 334l-149 -334h-375z" glyph-name="asciicircum" horiz-adv-x="1042" unicode="^"/><glyph d="M-10 -287v287h952v-287h-952z" glyph-name="underscore" horiz-adv-x="931" unicode="_"/><glyph d="M399 1118l-338 246h361l233 -246h-256z" glyph-name="grave" horiz-adv-x="716" unicode="`"/><glyph d="M535 1069q227 0 360 -91t133 -286v-692h-334v104q-131 -127 -319 -127q-152 0 -243 76t-91 209q0 193 203 295q113 57 450 129q-4 66 -37.5 91.5t-128.5 25.5q-82 0 -139 -27.5t-115 -95.5l-217 176q159 213 478 213zM539 238q88 6 155 67v154q-117 -25 -176 -51 q-76 -37 -76 -97q1 -77 97 -73z" glyph-name="a" horiz-adv-x="1112" unicode="a"/><glyph d="M799 1069q199 0 321.5 -148.5t122.5 -396.5q0 -250 -125 -398.5t-327 -148.5q-106 0 -193.5 49.5t-118.5 125.5v-152h-377v1413h387v-498q43 68 127.5 111t182.5 43zM666 295q186 0 186 233q0 223 -186 224q-80 0 -130.5 -60.5t-50.5 -163.5q0 -113 49.5 -173t131.5 -60z " glyph-name="b" horiz-adv-x="1298" unicode="b"/><glyph d="M606 -23q-264 0 -407.5 155t-143.5 390q0 238 143.5 392.5t405.5 154.5q207 0 328 -87t190 -257l-315 -119q-41 166 -191 166q-86 0 -135 -66.5t-49 -187.5q0 -115 49 -178.5t135 -63.5q147 0 191 166l301 -108q-59 -182 -179 -269.5t-323 -87.5z" glyph-name="c" horiz-adv-x="1142" unicode="c"/><glyph d="M809 1413h387v-1413h-377v152q-31 -76 -118 -125.5t-193 -49.5q-203 0 -328 148.5t-125 398.5q0 248 123 396.5t322 148.5q98 0 182 -43t127 -111v498zM633 295q82 0 131 60.5t49 172.5q0 102 -50 163t-130 61q-186 0 -187 -224q1 -233 187 -233z" glyph-name="d" horiz-adv-x="1298" unicode="d"/><glyph d="M870 403l242 -159q-106 -141 -220 -202.5t-271 -61.5q-111 0 -209.5 29.5t-180 91t-129 168t-47.5 245.5q0 262 153.5 408.5t381.5 146.5q131 0 243.5 -47t190.5 -154.5t78 -259.5q0 -104 -12 -164h-641q12 -172 174 -172q88 0 142 23.5t105 107.5zM588 795 q-129 0 -139 -127h278q-8 127 -139 127z" glyph-name="e" horiz-adv-x="1167" unicode="e"/><glyph d="M195 0v836h-160v213h164v71q0 133 85 213t246 80h236v-266h-137q-47 0 -47 -57v-41h184v-213h-184v-836h-387z" glyph-name="f" horiz-adv-x="792" unicode="f"/><glyph d="M805 1049h385v-951q0 -117 -36 -206t-90 -140t-128 -84t-138.5 -43t-133.5 -10q-176 0 -310.5 34t-261.5 138l156 250q160 -145 346 -146q88 0 149.5 43t61.5 144v100q-20 -51 -99 -92t-192 -41q-195 0 -327 132t-132 382t132 380t313 130q102 0 184 -40t121 -95v115z M629 340q82 0 134 56.5t52 152.5t-51 154.5t-135 58.5t-133.5 -57.5t-49.5 -153.5t49.5 -153.5t133.5 -57.5z" glyph-name="g" horiz-adv-x="1292" unicode="g"/><glyph d="M102 0v1413h387v-481h5q49 66 139 101.5t192 35.5q178 0 273.5 -103.5t95.5 -265.5v-700h-385v627q0 61 -37 102t-108 41q-82 0 -128.5 -42t-46.5 -105v-623h-387z" glyph-name="h" horiz-adv-x="1296" unicode="h"/><glyph d="M102 1161v252h390v-252h-390zM102 0v1049h387v-1049h-387z" glyph-name="i" horiz-adv-x="593" unicode="i"/><glyph d="M102 1161v252h390v-252h-390zM-61 -365v297q84 0 124.5 42t40.5 104v971h388v-967q0 -229 -131 -338t-422 -109z" glyph-name="j" horiz-adv-x="593" unicode="j"/><glyph d="M872 0l-229 403l-154 -149v-254h-387v1413h387v-721l345 357h462l-401 -396l414 -653h-437z" glyph-name="k" horiz-adv-x="1275" unicode="k"/><glyph d="M113 0v1413h387v-1413h-387z" glyph-name="l" horiz-adv-x="612" unicode="l"/><glyph d="M102 0v1049h379v-142h6q96 162 293 162q180 0 271 -170h10q59 84 129 127t176 43q170 0 263 -102.5t93 -280.5v-686h-387v625q0 117 -112 116q-119 0 -119 -141v-600h-387v623q0 119 -111 118q-117 0 -117 -141v-600h-387z" glyph-name="m" horiz-adv-x="1824" unicode="m"/><glyph d="M102 0v1049h379v-117h13q115 137 331 137q164 0 266.5 -101.5t102.5 -267.5v-700h-385v627q0 63 -41 100t-113 37q-74 0 -120 -39t-46 -102v-623h-387z" glyph-name="n" horiz-adv-x="1296" unicode="n"/><glyph d="M616 -23q-246 0 -403.5 142.5t-157.5 400.5q0 262 157 405.5t404.5 143.5t402.5 -142.5t155 -406.5q0 -258 -155 -400.5t-403 -142.5zM616 283q180 0 181 237q0 244 -181 244q-178 0 -178 -244q0 -237 178 -237z" glyph-name="o" horiz-adv-x="1228" unicode="o"/><glyph d="M801 1069q195 0 318.5 -148.5t123.5 -396.5q0 -250 -126 -398.5t-322 -148.5q-111 0 -199 51.5t-117 129.5v-523h-377v1414h387v-134q39 70 125.5 112t186.5 42zM668 295q184 0 184 235q0 113 -49 167.5t-135 54.5q-82 0 -133.5 -60.5t-51.5 -161.5q0 -115 50.5 -175 t134.5 -60z" glyph-name="p" horiz-adv-x="1298" unicode="p"/><glyph d="M809 1049h387v-1414h-377v523q-29 -78 -117 -129.5t-198 -51.5q-197 0 -323 148.5t-126 398.5q0 248 124 396.5t319 148.5q100 0 186 -42t125 -112v134zM631 295q84 0 134 60.5t50 174.5q0 100 -51 161t-133 61q-86 0 -135.5 -54.5t-49.5 -167.5q1 -235 185 -235z" glyph-name="q" horiz-adv-x="1298" unicode="q"/><glyph d="M102 0v1049h371v-158h6q35 82 97.5 128t130.5 46q72 0 106 -16v-310q-45 0 -100 -10q-223 -47 -224 -270v-459h-387z" glyph-name="r" horiz-adv-x="833" unicode="r"/><glyph d="M551 -23q-289 0 -508 140l143 250q133 -92 285 -113q154 -20 166 45q6 33 -31 49.5t-145 42.5q-66 16 -108 29.5t-95 40t-84 59.5t-53.5 87.5t-22.5 123.5q0 176 125 257t328 81q244 0 436 -125l-131 -237q-117 72 -246 96q-137 27 -157 -19q0 -14 -2 -23t15 -19.5 t28.5 -15.5t40 -14.5t49 -14.5t54.5 -13t56 -14q145 -41 228.5 -116t83.5 -224q0 -164 -111 -258.5t-344 -94.5z" glyph-name="s" horiz-adv-x="1058" unicode="s"/><glyph d="M381 0q-106 0 -170 71.5t-64 186.5v578h-137v213h137v364h385v-364h193v-213h-193v-480q0 -59 54 -59h139v-297h-344z" glyph-name="t" horiz-adv-x="755" unicode="t"/><glyph d="M1214 1049v-1049h-376v117h-17q-98 -147 -329 -148q-174 0 -271.5 109.5t-97.5 271.5v699h387v-592q0 -61 46 -103.5t120 -42.5q78 0 115.5 42t37.5 106v590h385z" glyph-name="u" horiz-adv-x="1316" unicode="u"/><glyph d="M821 1049h414l-412 -1049h-428l-411 1049h415l211 -699z" glyph-name="v" horiz-adv-x="1218" unicode="v"/><glyph d="M1417 1049h408l-301 -1049h-494l-131 549l-125 -557h-493l-297 1057h407l156 -715l180 715h350l178 -721z" glyph-name="w" horiz-adv-x="1808" unicode="w"/><glyph d="M-4 0l366 528l-366 521h477l178 -283l172 283h482l-377 -521l377 -528h-482l-172 291l-178 -291h-477z" glyph-name="x" horiz-adv-x="1300" unicode="x"/><glyph d="M100 -365v297q223 0 267 107l-398 1010h412l176 -611h21l182 611h414l-420 -1049q-59 -152 -127 -225.5t-188 -106.5t-339 -33z" glyph-name="y" horiz-adv-x="1134" unicode="y"/><glyph d="M1016 1049v-279l-441 -473h441v-297h-948v266l475 488h-480v295h953z" glyph-name="z" horiz-adv-x="1087" unicode="z"/><glyph d="M498 -330q-145 0 -245.5 101.5t-100.5 244.5v328q0 41 -27 59.5t-94 16.5v325q68 -2 94.5 16.5t26.5 59.5v328q0 145 100 245.5t246 100.5h174v-348h-94q-37 0 -58.5 -20.5t-21.5 -55.5v-289q0 -131 -115 -198q115 -68 115 -201v-289q0 -35 21.5 -55.5t58.5 -20.5h94 v-348h-174z" glyph-name="braceleft" horiz-adv-x="702" unicode="{"/><glyph d="M133 -156v1692h283v-1692h-283z" glyph-name="bar" horiz-adv-x="548" unicode="|"/><glyph d="M205 -330h-174v348h94q37 0 58.5 20.5t21.5 55.5v289q0 133 114 201q-115 68 -114 198v289q0 35 -21.5 55.5t-58.5 20.5h-94v348h174q143 0 244.5 -100.5t101.5 -245.5v-328q0 -41 26.5 -59.5t94.5 -16.5v-325q-68 2 -94.5 -16.5t-26.5 -59.5v-328q0 -143 -101.5 -244.5 t-244.5 -101.5z" glyph-name="braceright" horiz-adv-x="702" unicode="}"/><glyph d="M797 344q-92 0 -201 72.5t-166 72.5q-96 0 -96 -145h-262q0 211 78.5 322.5t228.5 111.5q76 0 140.5 -36.5t119.5 -72.5t106 -36q96 0 97 145h262q0 -211 -78.5 -322.5t-228.5 -111.5z" glyph-name="asciitilde" horiz-adv-x="1175" unicode="~"/><glyph d="M135 682v367h369v-367h-369zM147 -387l29 942h287l29 -942h-345z" glyph-name="exclamdown" horiz-adv-x="638" unicode="¡"/><glyph d="M616 276q147 0 191 166l301 -108q-51 -156 -145.5 -242t-245.5 -106v-191h-283v203q-182 47 -280.5 190.5t-98.5 333.5q0 195 97.5 337t281.5 190v151h283v-139q154 -23 250 -107t155 -229l-315 -119q-41 166 -191 166q-86 0 -135 -66.5t-49 -187.5q0 -115 49 -178.5 t135 -63.5z" glyph-name="cent" horiz-adv-x="1142" unicode="¢"/><glyph d="M537 508v-189h747v-319h-1094v508h-163v293h163v61q0 250 158 411t402 161q174 0 325.5 -105.5t208.5 -271.5l-328 -111q-23 63 -80 103.5t-126 40.5q-100 0 -156.5 -60.5t-56.5 -167.5v-61h381v-293h-381z" glyph-name="sterling" horiz-adv-x="1325" unicode="£"/><glyph d="M256 88l-215 225l113 111q-66 119 -66 256t66 256l-113 111l215 225l115 -119q121 66 256 66t256 -66l114 119l215 -225l-112 -111q66 -119 65.5 -256t-65.5 -256l112 -111l-215 -225l-114 119q-121 -66 -256 -66t-256 66zM627 451q92 0 164 67q66 70 65.5 162t-65.5 162 q-72 68 -164 67.5t-164 -67.5q-66 -70 -66 -162t66 -162q72 -67 164 -67z" glyph-name="currency" horiz-adv-x="1253" unicode="¤"/><glyph d="M606 -59v170h-297v243h297v129h-297v252h152l-471 678h393l373 -622l383 622h393l-471 -686h151v-244h-297v-129h297v-243h-297v-170h-309z" glyph-name="yen" horiz-adv-x="1521" unicode="¥"/><glyph d="M135 774v639h336v-639h-336zM135 -156v578h336v-578h-336z" glyph-name="brokenbar" horiz-adv-x="606" unicode="¦"/><glyph d="M610 -18q-406 0 -469 284l336 101q12 -53 49 -82t117 -29q121 0 121 66q0 39 -44 61.5t-110.5 29.5t-144.5 23.5t-144.5 40t-110.5 82.5t-44 150q0 131 96 209q-94 74 -94 204q0 158 114.5 235t311.5 77q350 0 440 -271l-301 -71q-20 86 -141 86q-117 0 -117 -64 q0 -37 44 -58.5t110.5 -28.5t144.5 -24.5t144.5 -44t110.5 -92t44 -164.5q0 -117 -90 -192q90 -70 90 -186q0 -178 -126 -260t-337 -82zM723 659q45 45 0 91q-39 39 -215 69q-37 -43 -10 -84q18 -29 60 -42t138 -29q19 -3 27 -5z" glyph-name="section" horiz-adv-x="1161" unicode="§"/><glyph d="M61 1108v256h261v-256h-261zM487 1108v256h261v-256h-261z" glyph-name="dieresis" horiz-adv-x="808" unicode="¨"/><glyph d="M829 -70q-324 0 -556 230.5t-232 550.5q0 317 233.5 547.5t555 230.5t554 -230.5t232.5 -547.5q0 -319 -232.5 -550t-554.5 -231zM829.5 68q268.5 0 460 188t191.5 455q0 264 -191.5 452.5t-460 188.5t-460 -187.5t-191.5 -454t191.5 -454.5t460 -188zM840 240 q-227 0 -352.5 134t-125.5 337q0 207 124 340t352 133q178 0 281.5 -75t164.5 -222l-272 -103q-35 143 -164 144q-74 0 -117 -57.5t-43 -161.5q0 -100 43 -154.5t117 -54.5q127 0 164 143l260 -94q-51 -158 -154.5 -233.5t-277.5 -75.5z" glyph-name="copyright" horiz-adv-x="1656" unicode="©"/><glyph d="M362 1436q156 0 247 -62.5t91 -195.5v-473h-227v71q-90 -88 -219 -88q-102 0 -164.5 52.5t-62.5 142.5q0 133 137 202q70 35 307 89q-2 45 -24.5 62t-88.5 17q-102 0 -172 -84l-149 119q110 148 325 148zM367 866q55 4 106 47v105q-84 -16 -121 -35q-51 -25 -51 -65 q0 -52 66 -52z" glyph-name="ordfeminine" horiz-adv-x="772" unicode="ª"/><glyph d="M569 113l-518 395l518 403v-280l-166 -123l166 -117v-278zM1137 113l-519 395l519 403v-280l-166 -123l166 -117v-278z" glyph-name="guillemotleft" horiz-adv-x="1185" unicode="«"/><glyph d="M778 106v355h-674v336h1051v-691h-377z" glyph-name="logicalnot" horiz-adv-x="1259" unicode="¬"/><glyph d="M655 352q-219 0 -373.5 158t-154.5 383t154.5 383t373.5 158t375 -159t156 -382t-156 -382t-375 -159zM655 487q166 0 284 119t118 287t-118 287.5t-284 119.5t-282.5 -119.5t-116.5 -287.5t116.5 -287t282.5 -119zM469 633v530h215q88 0 139 -47t51 -127 q0 -100 -88 -155l140 -201h-183l-102 176h-10v-176h-162zM625 948h59q39 0 39 41q0 39 -39 39h-59v-80z" glyph-name="registered" horiz-adv-x="1312" unicode="®"/><glyph d="M61 1171v183h601v-183h-601z" glyph-name="macron" horiz-adv-x="722" unicode="¯"/><glyph d="M416 721q-166 0 -267.5 98.5t-101.5 258t101.5 258t267.5 98.5q162 0 263 -99.5t101 -257t-101 -257t-263 -99.5zM416 967q53 0 83.5 29.5t30.5 80.5q0 49 -30.5 79t-83.5 30q-55 0 -87 -30t-32 -79q0 -51 32 -80.5t87 -29.5z" glyph-name="degree" horiz-adv-x="827" unicode="°"/><glyph d="M561 377v373h-457v290h457v373h287v-373h457v-290h-457v-373h-287zM106 -4v287h1197v-287h-1197z" glyph-name="plusminus" horiz-adv-x="1409" unicode="±"/><glyph d="M61 1118l234 246h360l-338 -246h-256z" glyph-name="acute" horiz-adv-x="716" unicode="´"/><glyph d="M102 -266v1265h330v-542q0 -80 45 -123t117 -43q78 0 123 42t45 124v542h330v-999h-330v78q-102 -100 -225 -101h-113l-14 -243h-308z" glyph-name="uni00B5" horiz-adv-x="1193" unicode="µ"/><glyph d="M524 -287v910q-184 0 -318 107.5t-134 287.5t134 287.5t318 107.5h211v-1700h-211zM915 -287v1700h213v-1700h-213z" glyph-name="paragraph" horiz-adv-x="1241" unicode="¶"/><glyph d="M268 586q-84 0 -136 50t-52 124q0 84 52 136t136 52q72 0 123 -53t51 -135q0 -72 -50 -123t-124 -51z" glyph-name="periodcentered" horiz-adv-x="522" unicode="·"/><glyph d="M328 -500q-94 0 -166 43t-101 113l170 76q16 -57 78 -58q27 0 47.5 15.5t20.5 40.5q0 47 -58 61l-184 49l96 160h254l-79 -106l18 -5q57 -12 98 -57t41 -127q0 -102 -67.5 -153.5t-167.5 -51.5z" glyph-name="cedilla" horiz-adv-x="624" unicode="¸"/><glyph d="M420 696q-166 0 -272.5 95.5t-106.5 269.5q0 178 106.5 274.5t272.5 96.5q168 0 272.5 -96.5t104.5 -274.5q0 -174 -104.5 -269.5t-272.5 -95.5zM420 901q121 0 121 160q0 166 -121 166t-121 -166q0 -160 121 -160z" glyph-name="ordmasculine" horiz-adv-x="837" unicode="º"/><glyph d="M72 113v288l166 107l-166 113v290l518 -403zM639 113v288l166 107l-166 113v290l518 -403z" glyph-name="guillemotright" horiz-adv-x="1208" unicode="»"/><glyph d="M731 1049v-367h-352v367h352zM707 559v-27q0 -109 -29 -181t-70 -106t-82 -59.5t-69.5 -62.5t-28.5 -92q0 -49 27.5 -80t85.5 -31q143 0 143 158h307q0 -84 -22.5 -162t-70.5 -147.5t-135 -111.5t-204 -42q-182 0 -309 99.5t-127 305.5q0 86 20.5 146.5t52 88.5 t67.5 55.5t67.5 48t52 65.5t20.5 111v24h304z" glyph-name="questiondown" horiz-adv-x="1042" unicode="¿"/><glyph d="M881 1528h-256l-338 246h360zM1090 0l-97 311h-473l-98 -311h-430l504 1413h514l506 -1413h-426zM621 627h272l-129 415h-10z" glyph-name="Agrave" horiz-adv-x="1509" unicode="À"/><glyph d="M1221 1774l-338 -246h-256l233 246h361zM1090 0l-97 311h-473l-98 -311h-430l504 1413h514l506 -1413h-426zM621 627h272l-129 415h-10z" glyph-name="Aacute" horiz-adv-x="1509" unicode="Á"/><glyph d="M752 1630l-76 -117h-277l238 261h231l240 -261h-281zM1090 0l-97 311h-473l-98 -311h-430l504 1413h514l506 -1413h-426zM621 627h272l-129 415h-10z" glyph-name="Acircumflex" horiz-adv-x="1509" unicode="Â"/><glyph d="M922 1485q-70 0 -121 27.5t-89 54t-71 26.5q-57 0 -61 -110h-222q0 295 238 295q90 0 167 -49.5t114 -49.5q66 0 65 95h209q0 -289 -229 -289zM1090 0l-97 311h-473l-98 -311h-430l504 1413h514l506 -1413h-426zM621 627h272l-129 415h-10z" glyph-name="Atilde" horiz-adv-x="1509" unicode="Ã"/><glyph d="M670 1774v-256h-260v256h260zM1096 1774v-256h-260v256h260zM1090 0l-97 311h-473l-98 -311h-430l504 1413h514l506 -1413h-426zM621 627h272l-129 415h-10z" glyph-name="Adieresis" horiz-adv-x="1509" unicode="Ä"/><glyph d="M1040 1325l476 -1325h-426l-97 311h-473l-98 -311h-430l471 1325q-57 86 -57 195q0 143 101 242.5t247 99.5q143 0 244.5 -99.5t101.5 -242.5q-1 -107 -60 -195zM754 1620q-100 0 -101 -104q0 -45 28 -73t73 -28q43 0 72.5 30t29.5 71q0 43 -29.5 73.5t-72.5 30.5z M621 627h272l-129 415h-10z" glyph-name="Aring" horiz-adv-x="1509" unicode="Å"/><glyph d="M1974 1059h-645v-174h555v-355h-555v-182h645v-348h-1018v287h-438l-117 -287h-409l602 1413h1380v-354zM641 592h315v543h-96z" glyph-name="AE" horiz-adv-x="2058" unicode="Æ"/><glyph d="M1303 428q-129 -391 -500 -440l-70 -94l19 -5q57 -12 98 -57t41 -127q0 -102 -67.5 -153.5t-168.5 -51.5q-94 0 -165.5 43t-100.5 113l170 76q16 -57 78 -58q27 0 47.5 15.5t20.5 40.5q0 47 -58 61l-184 49l90 150q-113 18 -203 69.5t-147.5 121t-94 159.5t-52 180 t-15.5 187q0 106 18.5 204.5t64.5 195.5t116.5 169t184.5 116t257 44q240 0 389.5 -108.5t226.5 -338.5l-378 -139q-16 125 -82 185.5t-158 60.5q-119 0 -185.5 -99.5t-66.5 -284t68.5 -289t175.5 -104.5q193 0 256 256z" glyph-name="Ccedilla" horiz-adv-x="1335" unicode="Ç"/><glyph d="M485 1528l-338 246h361l233 -246h-256zM123 0v1413h981v-332h-584v-207h543v-331h-543v-209h584v-334h-981z" glyph-name="Egrave" horiz-adv-x="1187" unicode="È"/><glyph d="M487 1528l234 246h360l-338 -246h-256zM123 0v1413h981v-332h-584v-207h543v-331h-543v-209h584v-334h-981z" glyph-name="Eacute" horiz-adv-x="1187" unicode="É"/><glyph d="M260 1513l238 261h231l240 -261h-281l-76 117l-75 -117h-277zM123 0v1413h981v-332h-584v-207h543v-331h-543v-209h584v-334h-981z" glyph-name="Ecircumflex" horiz-adv-x="1187" unicode="Ê"/><glyph d="M270 1518v256h260v-256h-260zM696 1518v256h260v-256h-260zM123 0v1413h981v-332h-584v-207h543v-331h-543v-209h584v-334h-981z" glyph-name="Edieresis" horiz-adv-x="1187" unicode="Ë"/><glyph d="M186 1528l-338 246h361l233 -246h-256zM123 0v1413h397v-1413h-397z" glyph-name="Igrave" horiz-adv-x="643" unicode="Ì"/><glyph d="M188 1528l234 246h360l-338 -246h-256zM123 0v1413h397v-1413h-397z" glyph-name="Iacute" horiz-adv-x="643" unicode="Í"/><glyph d="M-39 1513l238 261h231l240 -261h-281l-76 117l-75 -117h-277zM123 0v1413h397v-1413h-397z" glyph-name="Icircumflex" horiz-adv-x="643" unicode="Î"/><glyph d="M-29 1518v256h260v-256h-260zM397 1518v256h260v-256h-260zM123 0v1413h397v-1413h-397z" glyph-name="Idieresis" horiz-adv-x="643" unicode="Ï"/><glyph d="M598 1413q381 0 576.5 -186.5t195.5 -515.5q0 -342 -196.5 -526.5t-577.5 -184.5h-473v592h-92v242h92v579h475zM571 348q203 0 305.5 93.5t102.5 269.5q0 170 -96.5 261t-288.5 91h-74v-229h289v-242h-289v-244h51z" glyph-name="Eth" horiz-adv-x="1413" unicode="Ð"/><glyph d="M956 1485q-70 0 -121 27.5t-88.5 54t-70.5 26.5q-57 0 -62 -110h-221q0 295 238 295q90 0 166.5 -49.5t113.5 -49.5q66 0 66 95h209q-1 -289 -230 -289zM123 0v1413h385l551 -805h8v805h397v-1413h-389l-543 791h-12v-791h-397z" glyph-name="Ntilde" horiz-adv-x="1587" unicode="Ñ"/><glyph d="M608 1528l-338 246h361l233 -246h-256zM737 -20q-317 0 -506.5 196.5t-189.5 530t189.5 530.5t506.5 197q326 0 518.5 -197t192.5 -530.5t-192.5 -530t-518.5 -196.5zM737 317q129 0 206 105.5t77 284t-77 284t-206 105.5q-121 0 -193.5 -105.5t-72.5 -284t72.5 -284 t193.5 -105.5z" glyph-name="Ograve" horiz-adv-x="1488" unicode="Ò"/><glyph d="M610 1528l234 246h360l-338 -246h-256zM737 -20q-317 0 -506.5 196.5t-189.5 530t189.5 530.5t506.5 197q326 0 518.5 -197t192.5 -530.5t-192.5 -530t-518.5 -196.5zM737 317q129 0 206 105.5t77 284t-77 284t-206 105.5q-121 0 -193.5 -105.5t-72.5 -284t72.5 -284 t193.5 -105.5z" glyph-name="Oacute" horiz-adv-x="1488" unicode="Ó"/><glyph d="M383 1513l238 261h231l240 -261h-281l-76 117l-76 -117h-276zM737 -20q-317 0 -506.5 196.5t-189.5 530t189.5 530.5t506.5 197q326 0 518.5 -197t192.5 -530.5t-192.5 -530t-518.5 -196.5zM737 317q129 0 206 105.5t77 284t-77 284t-206 105.5q-121 0 -193.5 -105.5 t-72.5 -284t72.5 -284t193.5 -105.5z" glyph-name="Ocircumflex" horiz-adv-x="1488" unicode="Ô"/><glyph d="M905 1485q-70 0 -121 27.5t-89 54t-70 26.5q-57 0 -62 -110h-221q0 295 238 295q90 0 166.5 -49.5t113.5 -49.5q66 0 66 95h209q-1 -289 -230 -289zM737 -20q-317 0 -506.5 196.5t-189.5 530t189.5 530.5t506.5 197q326 0 518.5 -197t192.5 -530.5t-192.5 -530 t-518.5 -196.5zM737 317q129 0 206 105.5t77 284t-77 284t-206 105.5q-121 0 -193.5 -105.5t-72.5 -284t72.5 -284t193.5 -105.5z" glyph-name="Otilde" horiz-adv-x="1488" unicode="Õ"/><glyph d="M393 1518v256h260v-256h-260zM819 1518v256h260v-256h-260zM737 -20q-317 0 -506.5 196.5t-189.5 530t189.5 530.5t506.5 197q326 0 518.5 -197t192.5 -530.5t-192.5 -530t-518.5 -196.5zM737 317q129 0 206 105.5t77 284t-77 284t-206 105.5q-121 0 -193.5 -105.5 t-72.5 -284t72.5 -284t193.5 -105.5z" glyph-name="Odieresis" horiz-adv-x="1488" unicode="Ö"/><glyph d="M877 47l-265 264l-262 -264l-207 207l265 262l-265 264l203 203l264 -264l264 264l205 -205l-264 -264l264 -264z" glyph-name="multiply" horiz-adv-x="1222" unicode="×"/><glyph d="M1331 1141q117 -180 117 -434q0 -334 -192.5 -530.5t-518.5 -196.5q-256 0 -434 131l-98 -99l-166 158l111 111q-109 178 -109 426q0 334 189.5 530.5t506.5 196.5q258 0 439 -127l94 94l164 -158zM471 707q0 -51 6 -99l426 426q-72 61 -166 62q-121 0 -193.5 -105.5 t-72.5 -283.5zM737 317q129 0 206 105.5t77 284.5q0 55 -10 112l-435 -436q66 -66 162 -66z" glyph-name="Oslash" horiz-adv-x="1488" unicode="Ø"/><glyph d="M608 1528l-338 246h361l233 -246h-256zM729 -20q-606 0 -606 579v854h397v-866q0 -98 54.5 -151.5t154.5 -53.5q106 0 163.5 53.5t57.5 151.5v866h398v-844q-1 -589 -619 -589z" glyph-name="Ugrave" horiz-adv-x="1470" unicode="Ù"/><glyph d="M610 1528l234 246h360l-338 -246h-256zM729 -20q-606 0 -606 579v854h397v-866q0 -98 54.5 -151.5t154.5 -53.5q106 0 163.5 53.5t57.5 151.5v866h398v-844q-1 -589 -619 -589z" glyph-name="Uacute" horiz-adv-x="1470" unicode="Ú"/><glyph d="M383 1513l238 261h231l240 -261h-281l-76 117l-76 -117h-276zM729 -20q-606 0 -606 579v854h397v-866q0 -98 54.5 -151.5t154.5 -53.5q106 0 163.5 53.5t57.5 151.5v866h398v-844q-1 -589 -619 -589z" glyph-name="Ucircumflex" horiz-adv-x="1470" unicode="Û"/><glyph d="M393 1518v256h260v-256h-260zM819 1518v256h260v-256h-260zM729 -20q-606 0 -606 579v854h397v-866q0 -98 54.5 -151.5t154.5 -53.5q106 0 163.5 53.5t57.5 151.5v866h398v-844q-1 -589 -619 -589z" glyph-name="Udieresis" horiz-adv-x="1470" unicode="Ü"/><glyph d="M594 1528l233 246h361l-338 -246h-256zM526 0v549l-536 864h444l299 -500l277 500h444l-536 -864v-549h-392z" glyph-name="Yacute" horiz-adv-x="1443" unicode="Ý"/><glyph d="M123 0v1413h334v-108h291q219 0 360 -118t141 -372q0 -131 -41 -226t-112.5 -146.5t-157.5 -75t-190 -23.5h-291v-344h-334zM457 668h270q188 0 188 153q0 152 -188 152h-270v-305z" glyph-name="Thorn" horiz-adv-x="1275" unicode="Þ"/><glyph d="M739 -18q-74 0 -149 14v344q84 -27 141 -27q82 0 82 58q0 39 -30.5 71.5t-74.5 59t-87 57.5t-74 79t-31 110q0 63 34 110t76 69.5t75.5 55.5t33.5 74q0 43 -33.5 70.5t-93.5 27.5q-152 0 -151 -192v-963h-357v961q0 223 145.5 348t354.5 125q113 0 218.5 -34t187 -122 t81.5 -215q0 -80 -33.5 -138.5t-73.5 -83t-74 -50t-34 -48.5q0 -27 46.5 -62.5t101.5 -72.5t101 -113.5t46 -177.5q0 -164 -116.5 -249.5t-311.5 -85.5z" glyph-name="germandbls" horiz-adv-x="1210" unicode="ß"/><glyph d="M647 1167h-256l-338 246h361zM535 1069q227 0 360 -91t133 -286v-692h-334v104q-131 -127 -319 -127q-152 0 -243 76t-91 209q0 193 203 295q113 57 450 129q-4 66 -37.5 91.5t-128.5 25.5q-82 0 -139 -27.5t-115 -95.5l-217 176q159 213 478 213zM539 238q88 6 155 67 v154q-117 -25 -176 -51q-76 -37 -76 -97q1 -77 97 -73z" glyph-name="agrave" horiz-adv-x="1112" unicode="à"/><glyph d="M987 1413l-338 -246h-256l234 246h360zM535 1069q227 0 360 -91t133 -286v-692h-334v104q-131 -127 -319 -127q-152 0 -243 76t-91 209q0 193 203 295q113 57 450 129q-4 66 -37.5 91.5t-128.5 25.5q-82 0 -139 -27.5t-115 -95.5l-217 176q159 213 478 213zM539 238 q88 6 155 67v154q-117 -25 -176 -51q-76 -37 -76 -97q1 -77 97 -73z" glyph-name="aacute" horiz-adv-x="1112" unicode="á"/><glyph d="M518 1270l-76 -117h-276l237 260h232l239 -260h-280zM535 1069q227 0 360 -91t133 -286v-692h-334v104q-131 -127 -319 -127q-152 0 -243 76t-91 209q0 193 203 295q113 57 450 129q-4 66 -37.5 91.5t-128.5 25.5q-82 0 -139 -27.5t-115 -95.5l-217 176q159 213 478 213z M539 238q88 6 155 67v154q-117 -25 -176 -51q-76 -37 -76 -97q1 -77 97 -73z" glyph-name="acircumflex" horiz-adv-x="1112" unicode="â"/><glyph d="M688 1124q-70 0 -121 28t-89 54.5t-70 26.5q-57 0 -62 -111h-221q0 295 237 295q90 0 167 -49t114 -49q66 0 66 94h209q-1 -289 -230 -289zM535 1069q227 0 360 -91t133 -286v-692h-334v104q-131 -127 -319 -127q-152 0 -243 76t-91 209q0 193 203 295q113 57 450 129 q-4 66 -37.5 91.5t-128.5 25.5q-82 0 -139 -27.5t-115 -95.5l-217 176q159 213 478 213zM539 238q88 6 155 67v154q-117 -25 -176 -51q-76 -37 -76 -97q1 -77 97 -73z" glyph-name="atilde" horiz-adv-x="1112" unicode="ã"/><glyph d="M436 1413v-256h-260v256h260zM862 1413v-256h-260v256h260zM535 1069q227 0 360 -91t133 -286v-692h-334v104q-131 -127 -319 -127q-152 0 -243 76t-91 209q0 193 203 295q113 57 450 129q-4 66 -37.5 91.5t-128.5 25.5q-82 0 -139 -27.5t-115 -95.5l-217 176 q159 213 478 213zM539 238q88 6 155 67v154q-117 -25 -176 -51q-76 -37 -76 -97q1 -77 97 -73z" glyph-name="adieresis" horiz-adv-x="1112" unicode="ä"/><glyph d="M520 1116q-98 0 -165.5 68.5t-67.5 167.5q0 96 68.5 163.5t164.5 67.5t165 -67.5t69 -164t-69 -166t-165 -69.5zM520 1282q29 0 49.5 19.5t20.5 48t-20.5 49t-49.5 20.5q-68 0 -67 -69q0 -31 18 -49.5t49 -18.5zM535 1069q227 0 360 -91t133 -286v-692h-334v104 q-131 -127 -319 -127q-152 0 -243 76t-91 209q0 193 203 295q113 57 450 129q-4 66 -37.5 91.5t-128.5 25.5q-82 0 -139 -27.5t-115 -95.5l-217 176q159 213 478 213zM539 238q88 6 155 67v154q-117 -25 -176 -51q-76 -37 -76 -97q1 -77 97 -73z" glyph-name="aring" horiz-adv-x="1112" unicode="å"/><glyph d="M1485 403l241 -159q-106 -141 -219.5 -202.5t-271.5 -61.5q-285 0 -440 170q-154 -172 -400 -173q-158 0 -253 76t-95 213q0 188 211 291q150 72 430 123q2 8 7 26.5t10 26.5q-41 47 -132 47q-168 0 -301 -135l-231 186q78 102 212 169t304 67q213 0 344 -82 q133 84 303 84q131 0 244 -47t190.5 -154.5t77.5 -259.5q0 -104 -12 -164h-641v-10q18 -162 174 -162q88 0 142.5 23.5t105.5 107.5zM1202 795q-129 0 -139 -127h278q-8 127 -139 127zM535 252q113 0 163 65q-20 72 -26 138q-121 -33 -176 -70q-45 -31 -45 -70q0 -63 84 -63 z" glyph-name="ae" horiz-adv-x="1781" unicode="æ"/><glyph d="M616 276q147 0 191 166l301 -108q-92 -283 -338 -340l-76 -100l19 -5q57 -12 98 -57t41 -127q0 -102 -67.5 -153.5t-168.5 -51.5q-94 0 -165.5 43t-100.5 113l170 76q16 -57 78 -58q27 0 47.5 15.5t20.5 40.5q0 47 -58 61l-184 49l86 144q-219 29 -337 177t-118 361 q0 238 143.5 392.5t405.5 154.5q207 0 328 -87t190 -257l-315 -119q-41 166 -191 166q-86 0 -135 -66.5t-49 -187.5q0 -115 49 -178.5t135 -63.5z" glyph-name="ccedilla" horiz-adv-x="1142" unicode="ç"/><glyph d="M707 1167h-256l-338 246h360zM870 403l242 -159q-106 -141 -220 -202.5t-271 -61.5q-111 0 -209.5 29.5t-180 91t-129 168t-47.5 245.5q0 262 153.5 408.5t381.5 146.5q131 0 243.5 -47t190.5 -154.5t78 -259.5q0 -104 -12 -164h-641q12 -172 174 -172q88 0 142 23.5 t105 107.5zM588 795q-129 0 -139 -127h278q-8 127 -139 127z" glyph-name="egrave" horiz-adv-x="1167" unicode="è"/><glyph d="M1047 1413l-338 -246h-256l233 246h361zM870 403l242 -159q-106 -141 -220 -202.5t-271 -61.5q-111 0 -209.5 29.5t-180 91t-129 168t-47.5 245.5q0 262 153.5 408.5t381.5 146.5q131 0 243.5 -47t190.5 -154.5t78 -259.5q0 -104 -12 -164h-641q12 -172 174 -172 q88 0 142 23.5t105 107.5zM588 795q-129 0 -139 -127h278q-8 127 -139 127z" glyph-name="eacute" horiz-adv-x="1167" unicode="é"/><glyph d="M578 1270l-76 -117h-277l238 260h231l240 -260h-281zM870 403l242 -159q-106 -141 -220 -202.5t-271 -61.5q-111 0 -209.5 29.5t-180 91t-129 168t-47.5 245.5q0 262 153.5 408.5t381.5 146.5q131 0 243.5 -47t190.5 -154.5t78 -259.5q0 -104 -12 -164h-641 q12 -172 174 -172q88 0 142 23.5t105 107.5zM588 795q-129 0 -139 -127h278q-8 127 -139 127z" glyph-name="ecircumflex" horiz-adv-x="1167" unicode="ê"/><glyph d="M496 1413v-256h-260v256h260zM922 1413v-256h-260v256h260zM870 403l242 -159q-106 -141 -220 -202.5t-271 -61.5q-111 0 -209.5 29.5t-180 91t-129 168t-47.5 245.5q0 262 153.5 408.5t381.5 146.5q131 0 243.5 -47t190.5 -154.5t78 -259.5q0 -104 -12 -164h-641 q12 -172 174 -172q88 0 142 23.5t105 107.5zM588 795q-129 0 -139 -127h278q-8 127 -139 127z" glyph-name="edieresis" horiz-adv-x="1167" unicode="ë"/><glyph d="M178 1167l-338 246h361l233 -246h-256zM113 0v1049h387v-1049h-387z" glyph-name="igrave" horiz-adv-x="612" unicode="ì"/><glyph d="M180 1167l234 246h360l-338 -246h-256zM113 0v1049h387v-1049h-387z" glyph-name="iacute" horiz-adv-x="612" unicode="í"/><glyph d="M-47 1153l237 260h232l240 -260h-281l-76 117l-76 -117h-276zM113 0v1049h387v-1049h-387z" glyph-name="icircumflex" horiz-adv-x="612" unicode="î"/><glyph d="M-37 1157v256h260v-256h-260zM389 1157v256h260v-256h-260zM113 0v1049h387v-1049h-387z" glyph-name="idieresis" horiz-adv-x="612" unicode="ï"/><glyph d="M668 1391q231 -145 353 -367.5t122 -507.5q0 -219 -149.5 -375.5t-399.5 -156.5q-256 0 -401.5 155.5t-145.5 376.5q0 217 138.5 375t367.5 158q168 0 248 -99q-94 141 -266 238l-72 -109l-127 80l59 88q-57 20 -121 33l140 236q45 -16 127 -54l90 133l123 -75zM594 289 q68 0 107.5 61.5t39.5 166t-39.5 165.5t-107.5 61q-70 0 -111 -61t-41 -165.5t41 -166t111 -61.5z" glyph-name="eth" horiz-adv-x="1187" unicode="ð"/><glyph d="M821 1128q-70 0 -121 28t-89 54.5t-70 26.5q-57 0 -62 -111h-221q0 295 238 295q90 0 166.5 -49t113.5 -49q66 0 66 94h209q-1 -289 -230 -289zM102 0v1049h379v-117h13q115 137 331 137q164 0 266.5 -101.5t102.5 -267.5v-700h-385v627q0 63 -41 100t-113 37 q-74 0 -120 -39t-46 -102v-623h-387z" glyph-name="ntilde" horiz-adv-x="1296" unicode="ñ"/><glyph d="M487 1167l-337 246h360l233 -246h-256zM616 -23q-246 0 -403.5 142.5t-157.5 400.5q0 262 157 405.5t404.5 143.5t402.5 -142.5t155 -406.5q0 -258 -155 -400.5t-403 -142.5zM616 283q180 0 181 237q0 244 -181 244q-178 0 -178 -244q0 -237 178 -237z" glyph-name="ograve" horiz-adv-x="1228" unicode="ò"/><glyph d="M489 1167l234 246h360l-338 -246h-256zM616 -23q-246 0 -403.5 142.5t-157.5 400.5q0 262 157 405.5t404.5 143.5t402.5 -142.5t155 -406.5q0 -258 -155 -400.5t-403 -142.5zM616 283q180 0 181 237q0 244 -181 244q-178 0 -178 -244q0 -237 178 -237z" glyph-name="oacute" horiz-adv-x="1228" unicode="ó"/><glyph d="M262 1153l238 260h231l240 -260h-281l-76 117l-75 -117h-277zM616 -23q-246 0 -403.5 142.5t-157.5 400.5q0 262 157 405.5t404.5 143.5t402.5 -142.5t155 -406.5q0 -258 -155 -400.5t-403 -142.5zM616 283q180 0 181 237q0 244 -181 244q-178 0 -178 -244 q0 -237 178 -237z" glyph-name="ocircumflex" horiz-adv-x="1228" unicode="ô"/><glyph d="M784 1124q-70 0 -121 28t-88.5 54.5t-70.5 26.5q-57 0 -62 -111h-221q0 295 238 295q90 0 166.5 -49t113.5 -49q66 0 66 94h209q-1 -289 -230 -289zM616 -23q-246 0 -403.5 142.5t-157.5 400.5q0 262 157 405.5t404.5 143.5t402.5 -142.5t155 -406.5q0 -258 -155 -400.5 t-403 -142.5zM616 283q180 0 181 237q0 244 -181 244q-178 0 -178 -244q0 -237 178 -237z" glyph-name="otilde" horiz-adv-x="1228" unicode="õ"/><glyph d="M272 1157v256h260v-256h-260zM698 1157v256h260v-256h-260zM616 -23q-246 0 -403.5 142.5t-157.5 400.5q0 262 157 405.5t404.5 143.5t402.5 -142.5t155 -406.5q0 -258 -155 -400.5t-403 -142.5zM616 283q180 0 181 237q0 244 -181 244q-178 0 -178 -244q0 -237 178 -237 z" glyph-name="odieresis" horiz-adv-x="1228" unicode="ö"/><glyph d="M469 786v250h295v-250h-295zM143 373v291h947v-291h-947zM469 0v250h295v-250h-295z" glyph-name="divide" horiz-adv-x="1232" unicode="÷"/><glyph d="M1071 868q102 -137 103 -348q0 -258 -155 -400.5t-403 -142.5q-199 0 -340 93l-36 -37l-119 112l37 37q-102 135 -103 338q0 262 157 405.5t404 143.5q201 0 338 -92l39 39l115 -111zM438 520q0 -39 2 -55l275 272q-41 27 -99 27q-178 0 -178 -244zM616 283 q180 0 181 237q0 27 -4 68l-277 -277q41 -28 100 -28z" glyph-name="oslash" horiz-adv-x="1228" unicode="ø"/><glyph d="M539 1167l-338 246h360l234 -246h-256zM1214 1049v-1049h-376v117h-17q-98 -147 -329 -148q-174 0 -271.5 109.5t-97.5 271.5v699h387v-592q0 -61 46 -103.5t120 -42.5q78 0 115.5 42t37.5 106v590h385z" glyph-name="ugrave" horiz-adv-x="1316" unicode="ù"/><glyph d="M541 1167l233 246h361l-338 -246h-256zM1214 1049v-1049h-376v117h-17q-98 -147 -329 -148q-174 0 -271.5 109.5t-97.5 271.5v699h387v-592q0 -61 46 -103.5t120 -42.5q78 0 115.5 42t37.5 106v590h385z" glyph-name="uacute" horiz-adv-x="1316" unicode="ú"/><glyph d="M313 1153l238 260h231l240 -260h-281l-75 117l-76 -117h-277zM1214 1049v-1049h-376v117h-17q-98 -147 -329 -148q-174 0 -271.5 109.5t-97.5 271.5v699h387v-592q0 -61 46 -103.5t120 -42.5q78 0 115.5 42t37.5 106v590h385z" glyph-name="ucircumflex" horiz-adv-x="1316" unicode="û"/><glyph d="M324 1157v256h260v-256h-260zM750 1157v256h260v-256h-260zM1214 1049v-1049h-376v117h-17q-98 -147 -329 -148q-174 0 -271.5 109.5t-97.5 271.5v699h387v-592q0 -61 46 -103.5t120 -42.5q78 0 115.5 42t37.5 106v590h385z" glyph-name="udieresis" horiz-adv-x="1316" unicode="ü"/><glyph d="M449 1167l233 246h360l-337 -246h-256zM100 -365v297q223 0 267 107l-398 1010h412l176 -611h21l182 611h414l-420 -1049q-59 -152 -127 -225.5t-188 -106.5t-339 -33z" glyph-name="yacute" horiz-adv-x="1134" unicode="ý"/><glyph d="M102 -365v1778h394v-528h4q113 135 282 135q193 0 309.5 -144.5t116.5 -376t-116.5 -375.5t-309.5 -144q-57 0 -95 5t-92 35.5t-95 88.5h-13v-474h-385zM670 295q184 0 184 221q0 236 -184 236q-82 0 -133.5 -62.5t-51.5 -173.5q0 -104 51.5 -162.5t133.5 -58.5z" glyph-name="thorn" horiz-adv-x="1263" unicode="þ"/><glyph d="M231 1157v256h261v-256h-261zM657 1157v256h261v-256h-261zM100 -365v297q223 0 267 107l-398 1010h412l176 -611h21l182 611h414l-420 -1049q-59 -152 -127 -225.5t-188 -106.5t-339 -33z" glyph-name="ydieresis" horiz-adv-x="1134" unicode="ÿ"/><glyph d="M1059 1763v-182h-600v182h600zM1090 0l-97 311h-473l-98 -311h-430l504 1413h514l506 -1413h-426zM621 627h272l-129 415h-10z" glyph-name="Amacron" horiz-adv-x="1509" unicode="Ā"/><glyph d="M825 1403v-182h-600v182h600zM535 1069q227 0 360 -91t133 -286v-692h-334v104q-131 -127 -319 -127q-152 0 -243 76t-91 209q0 193 203 295q113 57 450 129q-4 66 -37.5 91.5t-128.5 25.5q-82 0 -139 -27.5t-115 -95.5l-217 176q159 213 478 213zM539 238q88 6 155 67 v154q-117 -25 -176 -51q-76 -37 -76 -97q1 -77 97 -73z" glyph-name="amacron" horiz-adv-x="1112" unicode="ā"/><glyph d="M754 1501q-150 0 -237 73t-87 198h219q0 -41 29 -65t76 -24q49 0 77.5 24t28.5 65h230q0 -125 -91 -198t-245 -73zM1090 0l-97 311h-473l-98 -311h-430l504 1413h514l506 -1413h-426zM621 627h272l-129 415h-10z" glyph-name="Abreve" horiz-adv-x="1509" unicode="Ă"/><glyph d="M520 1141q-150 0 -236.5 72.5t-86.5 197.5h219q0 -41 28.5 -64.5t75.5 -23.5q49 0 78 23.5t29 64.5h229q0 -125 -91 -197.5t-245 -72.5zM535 1069q227 0 360 -91t133 -286v-692h-334v104q-131 -127 -319 -127q-152 0 -243 76t-91 209q0 193 203 295q113 57 450 129 q-4 66 -37.5 91.5t-128.5 25.5q-82 0 -139 -27.5t-115 -95.5l-217 176q159 213 478 213zM539 238q88 6 155 67v154q-117 -25 -176 -51q-76 -37 -76 -97q1 -77 97 -73z" glyph-name="abreve" horiz-adv-x="1112" unicode="ă"/><glyph d="M1411 -227l178 -127q-92 -135 -248 -135q-98 0 -177 52t-79 175q0 160 166 262h-161l-97 311h-473l-98 -311h-430l504 1413h514l506 -1413q-219 -141 -220 -236q0 -43 43 -43q47 1 72 52zM621 627h272l-129 415h-10z" glyph-name="Aogonek" horiz-adv-x="1509" unicode="Ą"/><glyph d="M924 -227l178 -127q-92 -135 -248 -135q-98 0 -177 52t-79 175q0 160 166 262h-70v104q-131 -127 -319 -127q-152 0 -243 76t-91 209q0 193 203 295q113 57 450 129q-4 66 -37.5 91.5t-128.5 25.5q-82 0 -139 -27.5t-115 -95.5l-217 176q158 213 478 213q227 0 360 -91 t133 -286v-692q-219 -141 -219 -236q0 -43 43 -43q47 1 72 52zM694 305v154q-117 -25 -176 -51q-76 -37 -76 -97q0 -78 97 -73q87 6 155 67z" glyph-name="aogonek" horiz-adv-x="1112" unicode="ą"/><glyph d="M553 1528l233 246h361l-338 -246h-256zM680 -20q-141 0 -254 44t-183.5 114.5t-117.5 166.5t-65.5 195.5t-18.5 206t18.5 205t64.5 195.5t116.5 169t184.5 116t257 44q240 0 389.5 -108.5t226.5 -338.5l-378 -139q-16 125 -82 185.5t-158 60.5q-119 0 -185.5 -99.5 t-66.5 -284t68.5 -289t175.5 -104.5q193 0 256 256l375 -147q-76 -229 -227.5 -338.5t-395.5 -109.5z" glyph-name="Cacute" horiz-adv-x="1335" unicode="Ć"/><glyph d="M463 1167l233 246h361l-338 -246h-256zM606 -23q-264 0 -407.5 155t-143.5 390q0 238 143.5 392.5t405.5 154.5q207 0 328 -87t190 -257l-315 -119q-41 166 -191 166q-86 0 -135 -66.5t-49 -187.5q0 -115 49 -178.5t135 -63.5q147 0 191 166l301 -108 q-59 -182 -179 -269.5t-323 -87.5z" glyph-name="cacute" horiz-adv-x="1142" unicode="ć"/><glyph d="M549 1518v256h260v-256h-260zM680 -20q-141 0 -254 44t-183.5 114.5t-117.5 166.5t-65.5 195.5t-18.5 206t18.5 205t64.5 195.5t116.5 169t184.5 116t257 44q240 0 389.5 -108.5t226.5 -338.5l-378 -139q-16 125 -82 185.5t-158 60.5q-119 0 -185.5 -99.5t-66.5 -284 t68.5 -289t175.5 -104.5q193 0 256 256l375 -147q-76 -229 -227.5 -338.5t-395.5 -109.5z" glyph-name="Cdotaccent" horiz-adv-x="1335" unicode="Ċ"/><glyph d="M459 1157v256h260v-256h-260zM606 -23q-264 0 -407.5 155t-143.5 390q0 238 143.5 392.5t405.5 154.5q207 0 328 -87t190 -257l-315 -119q-41 166 -191 166q-86 0 -135 -66.5t-49 -187.5q0 -115 49 -178.5t135 -63.5q147 0 191 166l301 -108q-59 -182 -179 -269.5 t-323 -87.5z" glyph-name="cdotaccent" horiz-adv-x="1142" unicode="ċ"/><glyph d="M563 1522l-237 252h276l76 -109l76 109h280l-239 -252h-232zM680 -20q-141 0 -254 44t-183.5 114.5t-117.5 166.5t-65.5 195.5t-18.5 206t18.5 205t64.5 195.5t116.5 169t184.5 116t257 44q240 0 389.5 -108.5t226.5 -338.5l-378 -139q-16 125 -82 185.5t-158 60.5 q-119 0 -185.5 -99.5t-66.5 -284t68.5 -289t175.5 -104.5q193 0 256 256l375 -147q-76 -229 -227.5 -338.5t-395.5 -109.5z" glyph-name="Ccaron" horiz-adv-x="1335" unicode="Č"/><glyph d="M473 1161l-237 252h276l76 -108l76 108h280l-239 -252h-232zM606 -23q-264 0 -407.5 155t-143.5 390q0 238 143.5 392.5t405.5 154.5q207 0 328 -87t190 -257l-315 -119q-41 166 -191 166q-86 0 -135 -66.5t-49 -187.5q0 -115 49 -178.5t135 -63.5q147 0 191 166 l301 -108q-59 -182 -179 -269.5t-323 -87.5z" glyph-name="ccaron" horiz-adv-x="1142" unicode="č"/><glyph d="M424 1522l-238 252h277l76 -109l75 109h281l-240 -252h-231zM123 0v1413h475q381 0 576.5 -186.5t195.5 -515.5q0 -342 -196.5 -526.5t-577.5 -184.5h-473zM520 348h51q203 0 305.5 93.5t102.5 269.5q0 170 -96.5 261t-288.5 91h-74v-715z" glyph-name="Dcaron" horiz-adv-x="1411" unicode="Ď"/><glyph d="M1296 1415h385v-334h-12l-231 -315h-162l149 315h-129v334zM809 915v498h387v-1413h-377v152q-31 -76 -118 -125.5t-193 -49.5q-203 0 -328 148.5t-125 398.5q0 248 123 396.5t322 148.5q98 0 182 -43t127 -111zM633 295q82 0 131 60.5t49 172.5q0 102 -50 163t-130 61 q-186 0 -187 -224q1 -233 187 -233z" glyph-name="dcaron" horiz-adv-x="1548" unicode="ď"/><glyph d="M598 1413q381 0 576.5 -186.5t195.5 -515.5q0 -342 -196.5 -526.5t-577.5 -184.5h-473v592h-92v242h92v579h475zM571 348q203 0 305.5 93.5t102.5 269.5q0 170 -96.5 261t-288.5 91h-74v-229h289v-242h-289v-244h51z" glyph-name="Dcroat" horiz-adv-x="1413" unicode="Đ"/><glyph d="M1372 1307v-164h-176v-1143h-377v152q-31 -76 -118 -125.5t-193 -49.5q-203 0 -328 148.5t-125 398.5q0 248 123 396.5t322 148.5q98 0 182 -43t127 -111v228h-113v164h113v106h387v-106h176zM633 295q82 0 131 60.5t49 172.5q0 102 -50 163t-130 61q-186 0 -187 -224 q1 -233 187 -233z" glyph-name="dcroat" horiz-adv-x="1298" unicode="đ"/><glyph d="M319 1581v182h601v-182h-601zM123 0v1413h981v-332h-584v-207h543v-331h-543v-209h584v-334h-981z" glyph-name="Emacron" horiz-adv-x="1187" unicode="Ē"/><glyph d="M885 1403v-182h-600v182h600zM870 403l242 -159q-106 -141 -220 -202.5t-271 -61.5q-111 0 -209.5 29.5t-180 91t-129 168t-47.5 245.5q0 262 153.5 408.5t381.5 146.5q131 0 243.5 -47t190.5 -154.5t78 -259.5q0 -104 -12 -164h-641q12 -172 174 -172q88 0 142 23.5 t105 107.5zM588 795q-129 0 -139 -127h278q-8 127 -139 127z" glyph-name="emacron" horiz-adv-x="1167" unicode="ē"/><glyph d="M483 1518v256h260v-256h-260zM123 0v1413h981v-332h-584v-207h543v-331h-543v-209h584v-334h-981z" glyph-name="Edotaccent" horiz-adv-x="1187" unicode="Ė"/><glyph d="M709 1413v-256h-260v256h260zM870 403l242 -159q-106 -141 -220 -202.5t-271 -61.5q-111 0 -209.5 29.5t-180 91t-129 168t-47.5 245.5q0 262 153.5 408.5t381.5 146.5q131 0 243.5 -47t190.5 -154.5t78 -259.5q0 -104 -12 -164h-641q12 -172 174 -172q88 0 142 23.5 t105 107.5zM588 795q-129 0 -139 -127h278q-8 127 -139 127z" glyph-name="edotaccent" horiz-adv-x="1167" unicode="ė"/><glyph d="M999 -227l179 -127q-92 -135 -248 -135q-98 0 -177 52t-79 175q0 160 166 262h-717v1413h981v-332h-584v-207h543v-331h-543v-209h584v-334q-219 -141 -219 -236q0 -43 43 -43q46 1 71 52z" glyph-name="Eogonek" horiz-adv-x="1187" unicode="Ę"/><glyph d="M1112 244q-96 -129 -194 -189q-219 -141 -220 -235q0 -43 43 -43q47 0 72 51l178 -127q-92 -135 -248 -135q-98 0 -177 52t-79 175q0 106 74 189q-217 16 -361.5 148t-144.5 384q0 262 153.5 408.5t381.5 146.5q131 0 243.5 -47t190.5 -154.5t78 -259.5q0 -104 -12 -164 h-641q12 -172 174 -172q88 0 142 23.5t105 107.5zM588 795q-129 0 -139 -127h278q-8 127 -139 127z" glyph-name="eogonek" horiz-adv-x="1167" unicode="ę"/><glyph d="M498 1522l-238 252h277l75 -109l76 109h281l-240 -252h-231zM123 0v1413h981v-332h-584v-207h543v-331h-543v-209h584v-334h-981z" glyph-name="Ecaron" horiz-adv-x="1187" unicode="Ě"/><glyph d="M694 1161h-231l-238 252h277l76 -108l75 108h281zM870 403l242 -159q-106 -141 -220 -202.5t-271 -61.5q-111 0 -209.5 29.5t-180 91t-129 168t-47.5 245.5q0 262 153.5 408.5t381.5 146.5q131 0 243.5 -47t190.5 -154.5t78 -259.5q0 -104 -12 -164h-641 q12 -172 174 -172q88 0 142 23.5t105 107.5zM588 795q-129 0 -139 -127h278q-8 127 -139 127z" glyph-name="ecaron" horiz-adv-x="1167" unicode="ě"/><glyph d="M729 1501q-150 0 -236.5 73t-86.5 198h219q0 -41 28.5 -65t75.5 -24q49 0 78 24t29 65h229q0 -125 -91 -198t-245 -73zM731 834h649v-834h-311l-10 135q-123 -156 -395 -155q-287 0 -455 211.5t-168 523.5q0 313 191.5 517t527.5 204q240 0 401.5 -120t206.5 -288 l-340 -100q-63 184 -278 184q-162 0 -238 -113.5t-76 -291.5q0 -176 76 -282t242 -106q131 0 202.5 62.5t69.5 138.5h-295v314z" glyph-name="Gbreve" horiz-adv-x="1482" unicode="Ğ"/><glyph d="M627 1141q-150 0 -237 72.5t-87 197.5h219q0 -41 29 -64.5t76 -23.5q49 0 77.5 23.5t28.5 64.5h230q0 -125 -91 -197.5t-245 -72.5zM805 1049h385v-951q0 -117 -36 -206t-90 -140t-128 -84t-138.5 -43t-133.5 -10q-176 0 -310.5 34t-261.5 138l156 250q160 -145 346 -146 q88 0 149.5 43t61.5 144v100q-20 -51 -99 -92t-192 -41q-195 0 -327 132t-132 382t132 380t313 130q102 0 184 -40t121 -95v115zM629 340q82 0 134 56.5t52 152.5t-51 154.5t-135 58.5t-133.5 -57.5t-49.5 -153.5t49.5 -153.5t133.5 -57.5z" glyph-name="gbreve" horiz-adv-x="1292" unicode="ğ"/><glyph d="M858 1774v-256h-260v256h260zM731 834h649v-834h-311l-10 135q-123 -156 -395 -155q-287 0 -455 211.5t-168 523.5q0 313 191.5 517t527.5 204q240 0 401.5 -120t206.5 -288l-340 -100q-63 184 -278 184q-162 0 -238 -113.5t-76 -291.5q0 -176 76 -282t242 -106 q131 0 202.5 62.5t69.5 138.5h-295v314z" glyph-name="Gdotaccent" horiz-adv-x="1482" unicode="Ġ"/><glyph d="M756 1413v-256h-260v256h260zM805 1049h385v-951q0 -117 -36 -206t-90 -140t-128 -84t-138.5 -43t-133.5 -10q-176 0 -310.5 34t-261.5 138l156 250q160 -145 346 -146q88 0 149.5 43t61.5 144v100q-20 -51 -99 -92t-192 -41q-195 0 -327 132t-132 382t132 380t313 130 q102 0 184 -40t121 -95v115zM629 340q82 0 134 56.5t52 152.5t-51 154.5t-135 58.5t-133.5 -57.5t-49.5 -153.5t49.5 -153.5t133.5 -57.5z" glyph-name="gdotaccent" horiz-adv-x="1292" unicode="ġ"/><glyph d="M731 834h649v-834h-311l-10 135q-123 -156 -395 -155q-287 0 -455 211.5t-168 523.5q0 313 191.5 517t527.5 204q240 0 401.5 -120t206.5 -288l-340 -100q-63 184 -278 184q-162 0 -238 -113.5t-76 -291.5q0 -176 76 -282t242 -106q131 0 202.5 62.5t69.5 138.5h-295v314 zM377 -430l149 301h342l-288 -301h-203z" glyph-name="Gcommaaccent" horiz-adv-x="1482" unicode="Ģ"/><glyph d="M770 1413l-149 -270h-342l288 270h203zM805 1049h385v-951q0 -117 -36 -206t-90 -140t-128 -84t-138.5 -43t-133.5 -10q-176 0 -310.5 34t-261.5 138l156 250q160 -145 346 -146q88 0 149.5 43t61.5 144v100q-20 -51 -99 -92t-192 -41q-195 0 -327 132t-132 382t132 380 t313 130q102 0 184 -40t121 -95v115zM629 340q82 0 134 56.5t52 152.5t-51 154.5t-135 58.5t-133.5 -57.5t-49.5 -153.5t49.5 -153.5t133.5 -57.5z" glyph-name="gcommaaccent" horiz-adv-x="1292" unicode="ģ"/><glyph d="M1495 1221v-213h-102v-1008h-398v530h-475v-530h-397v1008h-103v213h103v192h397v-192h475v192h398v-192h102zM995 885v123h-475v-123h475z" glyph-name="Hbar" horiz-adv-x="1515" unicode="Ħ"/><glyph d="M825 1069q178 0 273.5 -103.5t95.5 -265.5v-700h-385v627q0 61 -37 102t-108 41q-82 0 -128.5 -42t-46.5 -105v-623h-387v1151h-106v164h106v98h387v-98h183v-164h-183v-219h5q49 66 139 101.5t192 35.5z" glyph-name="hbar" horiz-adv-x="1296" unicode="ħ"/><glyph d="M483 1485q-70 0 -121 27.5t-88.5 54t-70.5 26.5q-57 0 -62 -110h-221q0 295 238 295q90 0 166.5 -49.5t113.5 -49.5q66 0 66 95h209q-1 -289 -230 -289zM123 0v1413h397v-1413h-397z" glyph-name="Itilde" horiz-adv-x="643" unicode="Ĩ"/><glyph d="M475 1124q-70 0 -121 28t-89 54.5t-70 26.5q-57 0 -62 -111h-221q0 295 238 295q90 0 166.5 -49t113.5 -49q66 0 66 94h209q-1 -289 -230 -289zM113 0v1049h387v-1049h-387z" glyph-name="itilde" horiz-adv-x="612" unicode="ĩ"/><glyph d="M20 1581v182h601v-182h-601zM123 0v1413h397v-1413h-397z" glyph-name="Imacron" horiz-adv-x="643" unicode="Ī"/><glyph d="M12 1221v182h600v-182h-600zM113 0v1049h387v-1049h-387z" glyph-name="imacron" horiz-adv-x="612" unicode="ī"/><glyph d="M416 -227l178 -127q-92 -135 -248 -135q-98 0 -177 52t-79 175q0 160 166 262h-133v1413h397v-1413q-219 -141 -219 -236q0 -43 43 -43q47 1 72 52z" glyph-name="Iogonek" horiz-adv-x="643" unicode="Į"/><glyph d="M492 1413v-252h-390v252h390zM385 -227l178 -127q-92 -135 -248 -135q-98 0 -177 52t-79 175q0 160 166 262h-123v1049h387v-1049q-219 -141 -219 -236q0 -43 43 -43q47 1 72 52z" glyph-name="iogonek" horiz-adv-x="593" unicode="į"/><glyph d="M184 1518v256h260v-256h-260zM123 0v1413h397v-1413h-397z" glyph-name="Idotaccent" horiz-adv-x="643" unicode="İ"/><glyph d="M113 0v1049h387v-1049h-387z" glyph-name="dotlessi" horiz-adv-x="612" unicode="ı"/><glyph d="M1004 815l563 -815h-496l-334 526l-217 -235v-291h-397v1413h397v-633l529 633h505zM449 -430l149 301h342l-289 -301h-202z" glyph-name="Kcommaaccent" horiz-adv-x="1566" unicode="Ķ"/><glyph d="M895 653l414 -653h-437l-229 403l-154 -149v-254h-387v1413h387v-721l345 357h462zM324 -430l149 301h342l-289 -301h-202z" glyph-name="kcommaaccent" horiz-adv-x="1275" unicode="ķ"/><glyph d="M852 0l-223 391l-140 -137v-254h-387v1049h387v-351l324 351h483l-401 -396l414 -653h-457z" glyph-name="kgreenlandic" horiz-adv-x="1275" unicode="ĸ"/><glyph d="M168 1532l233 246h361l-338 -246h-256zM123 0v1413h397v-1081h604v-332h-1001z" glyph-name="Lacute" horiz-adv-x="1134" unicode="Ĺ"/><glyph d="M178 1532l234 246h360l-338 -246h-256zM113 0v1413h387v-1413h-387z" glyph-name="lacute" horiz-adv-x="612" unicode="ĺ"/><glyph d="M123 0v1413h397v-1081h604v-332h-1001zM354 -430l150 301h342l-289 -301h-203z" glyph-name="Lcommaaccent" horiz-adv-x="1134" unicode="Ļ"/><glyph d="M113 0v1413h387v-1413h-387zM-16 -430l149 301h342l-289 -301h-202z" glyph-name="lcommaaccent" horiz-adv-x="612" unicode="ļ"/><glyph d="M520 1413v-1081h604v-332h-1001v1413h397zM750 1413h385v-334h-13l-231 -315h-162l150 315h-129v334z" glyph-name="Lcaron" horiz-adv-x="1134" unicode="Ľ"/><glyph d="M113 0v1413h387v-1413h-387zM618 1413h386v-334h-13l-231 -315h-162l150 315h-130v334z" glyph-name="lcaron" horiz-adv-x="860" unicode="ľ"/><glyph d="M520 332h604v-332h-1001v330l-131 -101v277l131 104v803h397v-487l205 164v-302l-205 -155v-301z" glyph-name="Lslash" horiz-adv-x="1134" unicode="Ł"/><glyph d="M713 1198v-321l-213 -162v-715h-387v418l-179 -135v295l179 141v694h387v-385z" glyph-name="lslash" horiz-adv-x="612" unicode="ł"/><glyph d="M662 1528l233 246h360l-337 -246h-256zM123 0v1413h385l551 -805h8v805h397v-1413h-389l-543 791h-12v-791h-397z" glyph-name="Nacute" horiz-adv-x="1587" unicode="Ń"/><glyph d="M526 1171l234 246h360l-338 -246h-256zM102 0v1049h379v-117h13q115 137 331 137q164 0 266.5 -101.5t102.5 -267.5v-700h-385v627q0 63 -41 100t-113 37q-74 0 -120 -39t-46 -102v-623h-387z" glyph-name="nacute" horiz-adv-x="1296" unicode="ń"/><glyph d="M123 0v1413h385l551 -805h8v805h397v-1413h-389l-543 791h-12v-791h-397zM467 -430l149 301h342l-288 -301h-203z" glyph-name="Ncommaaccent" horiz-adv-x="1587" unicode="Ņ"/><glyph d="M102 0v1049h379v-117h13q115 137 331 137q164 0 266.5 -101.5t102.5 -267.5v-700h-385v627q0 63 -41 100t-113 37q-74 0 -120 -39t-46 -102v-623h-387zM326 -430l149 301h342l-289 -301h-202z" glyph-name="ncommaaccent" horiz-adv-x="1296" unicode="ņ"/><glyph d="M672 1522l-238 252h277l75 -109l76 109h281l-240 -252h-231zM123 0v1413h385l551 -805h8v805h397v-1413h-389l-543 791h-12v-791h-397z" glyph-name="Ncaron" horiz-adv-x="1587" unicode="Ň"/><glyph d="M537 1165l-238 252h276l76 -108l76 108h281l-240 -252h-231zM102 0v1049h379v-117h13q115 137 331 137q164 0 266.5 -101.5t102.5 -267.5v-700h-385v627q0 63 -41 100t-113 37q-74 0 -120 -39t-46 -102v-623h-387z" glyph-name="ncaron" horiz-adv-x="1296" unicode="ň"/><glyph d="M1067 1413h397v-1413q0 -170 -101 -229.5t-300 -59.5h-133v166h53q45 0 68.5 36t23.5 87l-543 791h-12v-791h-397v1413h385l551 -805h8v805z" glyph-name="Eng" horiz-adv-x="1587" unicode="Ŋ"/><glyph d="M113 0v999h348v-155h18q94 172 320 172q139 0 235 -67.5t134 -159t38 -195.5v-526q0 -45 -3 -73t-13 -76t-37 -80t-70 -63.5t-115.5 -48t-170.5 -16.5h-172v242h123q86 0 86 98v473q0 76 -49.5 124t-125 48t-125 -50t-49.5 -128v-518h-372z" glyph-name="eng" horiz-adv-x="1327" unicode="ŋ"/><glyph d="M442 1581v182h600v-182h-600zM737 -20q-317 0 -506.5 196.5t-189.5 530t189.5 530.5t506.5 197q326 0 518.5 -197t192.5 -530.5t-192.5 -530t-518.5 -196.5zM737 317q129 0 206 105.5t77 284t-77 284t-206 105.5q-121 0 -193.5 -105.5t-72.5 -284t72.5 -284t193.5 -105.5 z" glyph-name="Omacron" horiz-adv-x="1488" unicode="Ō"/><glyph d="M322 1221v182h600v-182h-600zM616 -23q-246 0 -403.5 142.5t-157.5 400.5q0 262 157 405.5t404.5 143.5t402.5 -142.5t155 -406.5q0 -258 -155 -400.5t-403 -142.5zM616 283q180 0 181 237q0 244 -181 244q-178 0 -178 -244q0 -237 178 -237z" glyph-name="omacron" horiz-adv-x="1228" unicode="ō"/><glyph d="M381 1540l201 234h272l-219 -234h-254zM788 1540l203 234h326l-279 -234h-250zM737 -20q-317 0 -506.5 196.5t-189.5 530t189.5 530.5t506.5 197q326 0 518.5 -197t192.5 -530.5t-192.5 -530t-518.5 -196.5zM737 317q129 0 206 105.5t77 284t-77 284t-206 105.5 q-121 0 -193.5 -105.5t-72.5 -284t72.5 -284t193.5 -105.5z" glyph-name="Ohungarumlaut" horiz-adv-x="1488" unicode="Ő"/><glyph d="M260 1180l201 233h272l-219 -233h-254zM668 1180l202 233h326l-278 -233h-250zM616 -23q-246 0 -403.5 142.5t-157.5 400.5q0 262 157 405.5t404.5 143.5t402.5 -142.5t155 -406.5q0 -258 -155 -400.5t-403 -142.5zM616 283q180 0 181 237q0 244 -181 244 q-178 0 -178 -244q0 -237 178 -237z" glyph-name="ohungarumlaut" horiz-adv-x="1228" unicode="ő"/><glyph d="M2101 1081h-530v-207h491v-331h-491v-209h530v-334h-891v135q-188 -156 -473 -155q-317 0 -506.5 196.5t-189.5 530t189.5 530.5t506.5 197q285 0 473 -156v135h891v-332zM737 317q129 0 206 105.5t77 284t-77 284t-206 105.5q-121 0 -193.5 -105.5t-72.5 -284t72.5 -284 t193.5 -105.5z" glyph-name="OE" horiz-adv-x="2185" unicode="Œ"/><glyph d="M1632 403l242 -159q-106 -141 -220 -202.5t-272 -61.5q-233 0 -387 120q-147 -123 -379 -123q-246 0 -403.5 142.5t-157.5 400.5q0 262 157 405.5t404 143.5q233 0 381 -123q141 123 355 123q131 0 243.5 -47t190.5 -154.5t78 -259.5q0 -104 -13 -164h-641 q12 -172 174 -172q88 0 142.5 23.5t105.5 107.5zM1350 795q-129 0 -140 -127h279q-8 127 -139 127zM616 283q180 0 181 237q0 244 -181 244q-178 0 -178 -244q0 -237 178 -237z" glyph-name="oe" horiz-adv-x="1929" unicode="œ"/><glyph d="M528 1528l234 246h360l-338 -246h-256zM123 -2v1415h735q211 0 348 -116.5t137 -315.5q0 -258 -235 -391l328 -592h-435l-251 534h-236v-534h-391zM516 831l299 3q74 2 110 35.5t36 91.5q0 125 -146 124h-299v-254z" glyph-name="Racute" horiz-adv-x="1411" unicode="Ŕ"/><glyph d="M332 1167l233 246h361l-338 -246h-256zM102 0v1049h371v-158h6q35 82 97.5 128t130.5 46q72 0 106 -16v-310q-45 0 -100 -10q-223 -47 -224 -270v-459h-387z" glyph-name="racute" horiz-adv-x="833" unicode="ŕ"/><glyph d="M123 -2v1415h735q211 0 348 -116.5t137 -315.5q0 -258 -235 -391l328 -592h-435l-251 534h-236v-534h-391zM516 831l299 3q74 2 110 35.5t36 91.5q0 125 -146 124h-299v-254zM350 -430l150 301h342l-289 -301h-203z" glyph-name="Rcommaaccent" horiz-adv-x="1411" unicode="Ŗ"/><glyph d="M102 0v1049h371v-158h6q35 82 97.5 128t130.5 46q72 0 106 -16v-310q-45 0 -100 -10q-223 -47 -224 -270v-459h-387zM-25 -430l150 301h342l-289 -301h-203z" glyph-name="rcommaaccent" horiz-adv-x="833" unicode="ŗ"/><glyph d="M539 1522l-238 252h277l75 -109l76 109h281l-240 -252h-231zM123 -2v1415h735q211 0 348 -116.5t137 -315.5q0 -258 -235 -391l328 -592h-435l-251 534h-236v-534h-391zM516 831l299 3q74 2 110 35.5t36 91.5q0 125 -146 124h-299v-254z" glyph-name="Rcaron" horiz-adv-x="1411" unicode="Ř"/><glyph d="M342 1161l-238 252h277l76 -108l75 108h281l-240 -252h-231zM102 0v1049h371v-158h6q35 82 97.5 128t130.5 46q72 0 106 -16v-310q-45 0 -100 -10q-223 -47 -224 -270v-459h-387z" glyph-name="rcaron" horiz-adv-x="833" unicode="ř"/><glyph d="M473 1528l234 246h360l-338 -246h-256zM643 -16q-381 0 -616 338l272 223q160 -229 340 -230q72 0 113 36t41 87q0 43 -36 72t-80 43t-149 43q-94 25 -155.5 49.5t-132 69.5t-106.5 118.5t-36 176.5q0 205 146.5 314.5t382.5 109.5q297 0 512 -217l-217 -242 q-133 154 -314 153q-121 0 -121 -65q0 -41 44 -63.5t163 -55.5q59 -16 95 -27.5t93.5 -34t93.5 -45t79 -60.5t67.5 -80t41 -101t16.5 -129q0 -221 -147.5 -352t-389.5 -131z" glyph-name="Sacute" horiz-adv-x="1222" unicode="Ś"/><glyph d="M399 1167l234 246h360l-338 -246h-256zM551 -23q-289 0 -508 140l143 250q133 -92 285 -113q154 -20 166 45q6 33 -31 49.5t-145 42.5q-66 16 -108 29.5t-95 40t-84 59.5t-53.5 87.5t-22.5 123.5q0 176 125 257t328 81q244 0 436 -125l-131 -237q-117 72 -246 96 q-137 27 -157 -19q0 -14 -2 -23t15 -19.5t28.5 -15.5t40 -14.5t49 -14.5t54.5 -13t56 -14q145 -41 228.5 -116t83.5 -224q0 -164 -111 -258.5t-344 -94.5z" glyph-name="sacute" horiz-adv-x="1058" unicode="ś"/><glyph d="M1180 467q0 -201 -123 -329t-330 -150l-68 -90l19 -4q57 -12 98 -57.5t41 -127.5q0 -102 -67.5 -153.5t-167.5 -51.5q-94 0 -166 43t-101 113l170 76q16 -57 78 -58q27 0 47.5 15.5t20.5 40.5q0 47 -58 61l-184 49l94 156q-274 61 -456 322l272 223q160 -229 340 -230 q72 0 113 36t41 87q0 43 -36 72t-80 43t-149 43q-94 25 -155.5 49.5t-132 69.5t-106.5 118.5t-36 176.5q0 205 146.5 314.5t382.5 109.5q297 0 512 -217l-217 -242q-133 154 -314 153q-121 0 -121 -65q0 -41 44 -63.5t163 -55.5q59 -16 95 -27.5t93.5 -34t93.5 -45t79 -60.5 t67.5 -80t41 -101t16.5 -129z" glyph-name="Scedilla" horiz-adv-x="1222" unicode="Ş"/><glyph d="M1006 330q0 -295 -326 -344l-70 -92l19 -5q57 -12 98 -57t41 -127q0 -102 -67.5 -153.5t-168.5 -51.5q-94 0 -165.5 43t-100.5 113l170 76q16 -57 78 -58q27 0 47.5 15.5t20.5 40.5q0 47 -58 61l-184 49l88 146q-215 25 -385 131l143 250q133 -92 285 -113 q154 -20 166 45q6 33 -31 49.5t-145 42.5q-66 16 -108 29.5t-95 40t-84 59.5t-53.5 87.5t-22.5 123.5q0 176 125 257t328 81q244 0 436 -125l-131 -237q-117 72 -246 96q-137 27 -157 -19q0 -14 -2 -23t15 -19.5t28.5 -15.5t40 -14.5t49 -14.5t54.5 -13t56 -14 q145 -41 228.5 -115.5t83.5 -224.5z" glyph-name="scedilla" horiz-adv-x="1058" unicode="ş"/><glyph d="M483 1522l-237 252h276l76 -109l76 109h280l-239 -252h-232zM643 -16q-381 0 -616 338l272 223q160 -229 340 -230q72 0 113 36t41 87q0 43 -36 72t-80 43t-149 43q-94 25 -155.5 49.5t-132 69.5t-106.5 118.5t-36 176.5q0 205 146.5 314.5t382.5 109.5q297 0 512 -217 l-217 -242q-133 154 -314 153q-121 0 -121 -65q0 -41 44 -63.5t163 -55.5q59 -16 95 -27.5t93.5 -34t93.5 -45t79 -60.5t67.5 -80t41 -101t16.5 -129q0 -221 -147.5 -352t-389.5 -131z" glyph-name="Scaron" horiz-adv-x="1222" unicode="Š"/><glyph d="M410 1161l-238 252h277l75 -108l76 108h281l-240 -252h-231zM551 -23q-289 0 -508 140l143 250q133 -92 285 -113q154 -20 166 45q6 33 -31 49.5t-145 42.5q-66 16 -108 29.5t-95 40t-84 59.5t-53.5 87.5t-22.5 123.5q0 176 125 257t328 81q244 0 436 -125l-131 -237 q-117 72 -246 96q-137 27 -157 -19q0 -14 -2 -23t15 -19.5t28.5 -15.5t40 -14.5t49 -14.5t54.5 -13t56 -14q145 -41 228.5 -116t83.5 -224q0 -164 -111 -258.5t-344 -94.5z" glyph-name="scaron" horiz-adv-x="1058" unicode="š"/><glyph d="M10 1413h1180v-332h-393v-1081h-78l-80 -106l18 -5q57 -12 98.5 -57t41.5 -127q0 -102 -67.5 -153.5t-168.5 -51.5q-94 0 -165.5 43t-100.5 113l170 76q16 -57 78 -58q27 0 47 15.5t20 40.5q0 47 -57 61l-184 49l96 160h-66v1081h-389v332z" glyph-name="Tcommaaccent" horiz-adv-x="1200" unicode="Ţ"/><glyph d="M725 836h-193v-480q0 -59 54 -59h139v-297h-145l-80 -106l18 -5q57 -12 98 -57t41 -127q0 -102 -67.5 -153.5t-167.5 -51.5q-94 0 -166 43t-100 113l170 76q16 -57 77 -58q27 0 47.5 15.5t20.5 40.5q0 47 -57 61l-185 49l97 160h55q-106 0 -170 71.5t-64 186.5v578h-137 v213h137v364h385v-364h193v-213z" glyph-name="tcommaaccent" horiz-adv-x="755" unicode="ţ"/><glyph d="M475 1522l-237 252h276l76 -109l76 109h280l-239 -252h-232zM399 0v1081h-389v332h1180v-332h-393v-1081h-398z" glyph-name="Tcaron" horiz-adv-x="1200" unicode="Ť"/><glyph d="M629 1749h385v-334h-13l-231 -315h-162l150 315h-129v334zM532 1413v-364h193v-213h-193v-480q0 -59 54 -59h139v-297h-344q-106 0 -170 71.5t-64 186.5v578h-137v213h137v364h385z" glyph-name="tcaron" horiz-adv-x="980" unicode="ť"/><glyph d="M1190 1081h-393v-293h133v-163h-133v-625h-398v625h-145v163h145v293h-389v332h1180v-332z" glyph-name="Tbar" horiz-adv-x="1200" unicode="Ŧ"/><glyph d="M725 836h-193v-230h162v-164h-162v-86q0 -59 54 -59h139v-297h-344q-106 0 -170 71.5t-64 186.5v184h-129v164h129v230h-137v213h137v364h385v-364h193v-213z" glyph-name="tbar" horiz-adv-x="755" unicode="ŧ"/><glyph d="M905 1485q-70 0 -121 27.5t-89 54t-70 26.5q-57 0 -62 -110h-221q0 295 238 295q90 0 166.5 -49.5t113.5 -49.5q66 0 66 95h209q-1 -289 -230 -289zM729 -20q-606 0 -606 579v854h397v-866q0 -98 54.5 -151.5t154.5 -53.5q106 0 163.5 53.5t57.5 151.5v866h398v-844 q-1 -589 -619 -589z" glyph-name="Utilde" horiz-adv-x="1470" unicode="Ũ"/><glyph d="M836 1124q-70 0 -121 28t-89 54.5t-71 26.5q-57 0 -61 -111h-222q0 295 238 295q90 0 167 -49t114 -49q66 0 65 94h209q0 -289 -229 -289zM1214 1049v-1049h-376v117h-17q-98 -147 -329 -148q-174 0 -271.5 109.5t-97.5 271.5v699h387v-592q0 -61 46 -103.5t120 -42.5 q78 0 115.5 42t37.5 106v590h385z" glyph-name="utilde" horiz-adv-x="1316" unicode="ũ"/><glyph d="M442 1581v182h600v-182h-600zM729 -20q-606 0 -606 579v854h397v-866q0 -98 54.5 -151.5t154.5 -53.5q106 0 163.5 53.5t57.5 151.5v866h398v-844q-1 -589 -619 -589z" glyph-name="Umacron" horiz-adv-x="1470" unicode="Ū"/><glyph d="M373 1221v182h600v-182h-600zM1214 1049v-1049h-376v117h-17q-98 -147 -329 -148q-174 0 -271.5 109.5t-97.5 271.5v699h387v-592q0 -61 46 -103.5t120 -42.5q78 0 115.5 42t37.5 106v590h385z" glyph-name="umacron" horiz-adv-x="1316" unicode="ū"/><glyph d="M737 1477q-98 0 -165.5 68.5t-67.5 166.5q0 96 68.5 164t165 68t165 -68t68.5 -164t-69 -165.5t-165 -69.5zM737 1642q29 0 49.5 19.5t20.5 48.5t-20.5 49.5t-49.5 20.5q-68 0 -67 -70q0 -31 18 -49.5t49 -18.5zM729 -20q-606 0 -606 579v854h397v-866q0 -98 54.5 -151.5 t154.5 -53.5q106 0 163.5 53.5t57.5 151.5v866h398v-844q-1 -589 -619 -589z" glyph-name="Uring" horiz-adv-x="1470" unicode="Ů"/><glyph d="M668 1116q-98 0 -166 68.5t-68 167.5q0 96 68.5 163.5t165 67.5t165 -67.5t68.5 -164t-68.5 -166t-164.5 -69.5zM668 1282q29 0 49 19.5t20 48t-20.5 49t-48.5 20.5q-68 0 -68 -69q0 -31 18.5 -49.5t49.5 -18.5zM1214 1049v-1049h-376v117h-17q-98 -147 -329 -148 q-174 0 -271.5 109.5t-97.5 271.5v699h387v-592q0 -61 46 -103.5t120 -42.5q78 0 115.5 42t37.5 106v590h385z" glyph-name="uring" horiz-adv-x="1316" unicode="ů"/><glyph d="M381 1540l201 234h272l-219 -234h-254zM788 1540l203 234h326l-279 -234h-250zM729 -20q-606 0 -606 579v854h397v-866q0 -98 54.5 -151.5t154.5 -53.5q106 0 163.5 53.5t57.5 151.5v866h398v-844q-1 -589 -619 -589z" glyph-name="Uhungarumlaut" horiz-adv-x="1470" unicode="Ű"/><glyph d="M311 1180l201 233h272l-219 -233h-254zM719 1180l203 233h325l-278 -233h-250zM1214 1049v-1049h-376v117h-17q-98 -147 -329 -148q-174 0 -271.5 109.5t-97.5 271.5v699h387v-592q0 -61 46 -103.5t120 -42.5q78 0 115.5 42t37.5 106v590h385z" glyph-name="uhungarumlaut" horiz-adv-x="1316" unicode="ű"/><glyph d="M1090 53q-133 -98 -134 -174q0 -43 43 -43q47 0 72 51l178 -127q-92 -135 -248 -135q-98 0 -177 52.5t-79 175.5q0 70 31 127h-47q-606 0 -606 579v854h397v-866q0 -98 54.5 -151.5t154.5 -53.5q106 0 163.5 53.5t57.5 151.5v866h398v-844q0 -379 -258 -516z" glyph-name="Uogonek" horiz-adv-x="1470" unicode="Ų"/><glyph d="M1120 -227l178 -127q-92 -135 -247 -135q-98 0 -177 52t-79 175q0 160 166 262h-123v117h-17q-98 -147 -329 -148q-174 0 -271.5 109.5t-97.5 271.5v699h387v-592q0 -61 46 -103.5t120 -42.5q78 0 115.5 42t37.5 106v590h385v-1049h11q-219 -141 -219 -236q0 -43 43 -43 q46 1 71 52z" glyph-name="uogonek" horiz-adv-x="1316" unicode="ų"/><glyph d="M662 1518l237 260h231l240 -260h-280l-76 116l-76 -116h-276zM272 0l-266 1413h412l170 -1089h16l201 1089h432l201 -1089h14l170 1089h412l-269 -1413h-579l-170 946l-162 -946h-582z" glyph-name="Wcircumflex" horiz-adv-x="2039" unicode="Ŵ"/><glyph d="M905 1270l-76 -117h-276l238 260h231l240 -260h-281zM1417 1049h408l-301 -1049h-494l-131 549l-125 -557h-493l-297 1057h407l156 -715l180 715h350l178 -721z" glyph-name="wcircumflex" horiz-adv-x="1808" unicode="ŵ"/><glyph d="M367 1513l237 261h232l239 -261h-280l-76 117l-76 -117h-276zM526 0v549l-536 864h444l299 -500l277 500h444l-536 -864v-549h-392z" glyph-name="Ycircumflex" horiz-adv-x="1443" unicode="Ŷ"/><glyph d="M221 1153l238 260h231l240 -260h-281l-76 117l-75 -117h-277zM100 -365v297q223 0 267 107l-398 1010h412l176 -611h21l182 611h414l-420 -1049q-59 -152 -127 -225.5t-188 -106.5t-339 -33z" glyph-name="ycircumflex" horiz-adv-x="1134" unicode="ŷ"/><glyph d="M377 1518v256h260v-256h-260zM803 1518v256h260v-256h-260zM526 0v549l-536 864h444l299 -500l277 500h444l-536 -864v-549h-392z" glyph-name="Ydieresis" horiz-adv-x="1443" unicode="Ÿ"/><glyph d="M1087 1774l-337 -246h-256l233 246h360zM1239 1413v-268l-631 -813h631v-332h-1204v248l667 833h-622v332h1159z" glyph-name="Zacute" horiz-adv-x="1273" unicode="Ź"/><glyph d="M1004 1413l-338 -246h-256l233 246h361zM1016 1049v-279l-441 -473h441v-297h-948v266l475 488h-480v295h953z" glyph-name="zacute" horiz-adv-x="1087" unicode="ź"/><glyph d="M750 1774v-256h-261v256h261zM1239 1413v-268l-631 -813h631v-332h-1204v248l667 833h-622v332h1159z" glyph-name="Zdotaccent" horiz-adv-x="1273" unicode="Ż"/><glyph d="M666 1413v-256h-260v256h260zM1016 1049v-279l-441 -473h441v-297h-948v266l475 488h-480v295h953z" glyph-name="zdotaccent" horiz-adv-x="1087" unicode="ż"/><glyph d="M735 1522h-231l-238 252h277l75 -109l76 109h281zM1239 1413v-268l-631 -813h631v-332h-1204v248l667 833h-622v332h1159z" glyph-name="Zcaron" horiz-adv-x="1273" unicode="Ž"/><glyph d="M651 1161h-231l-238 252h277l76 -108l75 108h281zM1016 1049v-279l-441 -473h441v-297h-948v266l475 488h-480v295h953z" glyph-name="zcaron" horiz-adv-x="1087" unicode="ž"/><glyph d="M717 1147q-47 0 -47 -57v-41h184v-213h-184v-836q0 -238 -156 -347.5t-422 -109.5v307q106 0 148.5 34t42.5 116v836h-160v213h164v71q0 133 85 213t246 80h236v-266h-137z" glyph-name="florin" horiz-adv-x="1001" unicode="ƒ"/><glyph d="M868 1522h-231l-238 252h277l76 -109l75 109h281zM1090 0l-97 311h-473l-98 -311h-430l504 1413h514l506 -1413h-426zM621 627h272l-129 415h-10z" glyph-name="uni01CD" horiz-adv-x="1509" unicode="Ǎ"/><glyph d="M635 1161h-232l-237 252h276l76 -108l76 108h280zM535 1069q227 0 360 -91t133 -286v-692h-334v104q-131 -127 -319 -127q-152 0 -243 76t-91 209q0 193 203 295q113 57 450 129q-4 66 -37.5 91.5t-128.5 25.5q-82 0 -139 -27.5t-115 -95.5l-217 176q159 213 478 213z M539 238q88 6 155 67v154q-117 -25 -176 -51q-76 -37 -76 -97q1 -77 97 -73z" glyph-name="uni01CE" horiz-adv-x="1112" unicode="ǎ"/><glyph d="M199 1522l-238 252h277l75 -109l76 109h281l-240 -252h-231zM123 0v1413h397v-1413h-397z" glyph-name="uni01CF" horiz-adv-x="643" unicode="Ǐ"/><glyph d="M190 1161l-237 252h276l76 -108l76 108h281l-240 -252h-232zM113 0v1049h387v-1049h-387z" glyph-name="uni01D0" horiz-adv-x="612" unicode="ǐ"/><glyph d="M621 1522l-238 252h276l76 -109l76 109h281l-240 -252h-231zM737 -20q-317 0 -506.5 196.5t-189.5 530t189.5 530.5t506.5 197q326 0 518.5 -197t192.5 -530.5t-192.5 -530t-518.5 -196.5zM737 317q129 0 206 105.5t77 284t-77 284t-206 105.5q-121 0 -193.5 -105.5 t-72.5 -284t72.5 -284t193.5 -105.5z" glyph-name="uni01D1" horiz-adv-x="1488" unicode="Ǒ"/><glyph d="M500 1161l-238 252h277l75 -108l76 108h281l-240 -252h-231zM616 -23q-246 0 -403.5 142.5t-157.5 400.5q0 262 157 405.5t404.5 143.5t402.5 -142.5t155 -406.5q0 -258 -155 -400.5t-403 -142.5zM616 283q180 0 181 237q0 244 -181 244q-178 0 -178 -244 q0 -237 178 -237z" glyph-name="uni01D2" horiz-adv-x="1228" unicode="ǒ"/><glyph d="M621 1522l-238 252h276l76 -109l76 109h281l-240 -252h-231zM729 -20q-606 0 -606 579v854h397v-866q0 -98 54.5 -151.5t154.5 -53.5q106 0 163.5 53.5t57.5 151.5v866h398v-844q-1 -589 -619 -589z" glyph-name="uni01D3" horiz-adv-x="1470" unicode="Ǔ"/><glyph d="M551 1161l-238 252h277l76 -108l75 108h281l-240 -252h-231zM1214 1049v-1049h-376v117h-17q-98 -147 -329 -148q-174 0 -271.5 109.5t-97.5 271.5v699h387v-592q0 -61 46 -103.5t120 -42.5q78 0 115.5 42t37.5 106v590h385z" glyph-name="uni01D4" horiz-adv-x="1316" unicode="ǔ"/><glyph d="M442 1946v182h600v-182h-600zM393 1518v256h260v-256h-260zM819 1518v256h260v-256h-260zM729 -20q-606 0 -606 579v854h397v-866q0 -98 54.5 -151.5t154.5 -53.5q106 0 163.5 53.5t57.5 151.5v866h398v-844q-1 -589 -619 -589z" glyph-name="uni01D5" horiz-adv-x="1470" unicode="Ǖ"/><glyph d="M373 1585v182h600v-182h-600zM324 1157v256h260v-256h-260zM750 1157v256h260v-256h-260zM1214 1049v-1049h-376v117h-17q-98 -147 -329 -148q-174 0 -271.5 109.5t-97.5 271.5v699h387v-592q0 -61 46 -103.5t120 -42.5q78 0 115.5 42t37.5 106v590h385z" glyph-name="uni01D6" horiz-adv-x="1316" unicode="ǖ"/><glyph d="M610 1892l234 246h360l-338 -246h-256zM393 1518v256h260v-256h-260zM819 1518v256h260v-256h-260zM729 -20q-606 0 -606 579v854h397v-866q0 -98 54.5 -151.5t154.5 -53.5q106 0 163.5 53.5t57.5 151.5v866h398v-844q-1 -589 -619 -589z" glyph-name="uni01D7" horiz-adv-x="1470" unicode="Ǘ"/><glyph d="M541 1532l233 246h361l-338 -246h-256zM324 1157v256h260v-256h-260zM750 1157v256h260v-256h-260zM1214 1049v-1049h-376v117h-17q-98 -147 -329 -148q-174 0 -271.5 109.5t-97.5 271.5v699h387v-592q0 -61 46 -103.5t120 -42.5q78 0 115.5 42t37.5 106v590h385z" glyph-name="uni01D8" horiz-adv-x="1316" unicode="ǘ"/><glyph d="M621 1886l-238 252h276l76 -108l76 108h281l-240 -252h-231zM393 1518v256h260v-256h-260zM819 1518v256h260v-256h-260zM729 -20q-606 0 -606 579v854h397v-866q0 -98 54.5 -151.5t154.5 -53.5q106 0 163.5 53.5t57.5 151.5v866h398v-844q-1 -589 -619 -589z" glyph-name="uni01D9" horiz-adv-x="1470" unicode="Ǚ"/><glyph d="M551 1526l-238 252h277l76 -109l75 109h281l-240 -252h-231zM324 1157v256h260v-256h-260zM750 1157v256h260v-256h-260zM1214 1049v-1049h-376v117h-17q-98 -147 -329 -148q-174 0 -271.5 109.5t-97.5 271.5v699h387v-592q0 -61 46 -103.5t120 -42.5q78 0 115.5 42 t37.5 106v590h385z" glyph-name="uni01DA" horiz-adv-x="1316" unicode="ǚ"/><glyph d="M608 1892l-338 246h361l233 -246h-256zM393 1518v256h260v-256h-260zM819 1518v256h260v-256h-260zM729 -20q-606 0 -606 579v854h397v-866q0 -98 54.5 -151.5t154.5 -53.5q106 0 163.5 53.5t57.5 151.5v866h398v-844q-1 -589 -619 -589z" glyph-name="uni01DB" horiz-adv-x="1470" unicode="Ǜ"/><glyph d="M539 1532l-338 246h360l234 -246h-256zM324 1157v256h260v-256h-260zM750 1157v256h260v-256h-260zM1214 1049v-1049h-376v117h-17q-98 -147 -329 -148q-174 0 -271.5 109.5t-97.5 271.5v699h387v-592q0 -61 46 -103.5t120 -42.5q78 0 115.5 42t37.5 106v590h385z" glyph-name="uni01DC" horiz-adv-x="1316" unicode="ǜ"/><glyph d="M1204 1774l-338 -246h-256l234 246h360zM1331 1141q117 -180 117 -434q0 -334 -192.5 -530.5t-518.5 -196.5q-256 0 -434 131l-98 -99l-166 158l111 111q-109 178 -109 426q0 334 189.5 530.5t506.5 196.5q258 0 439 -127l94 94l164 -158zM471 707q0 -51 6 -99l426 426 q-72 61 -166 62q-121 0 -193.5 -105.5t-72.5 -283.5zM737 317q129 0 206 105.5t77 284.5q0 55 -10 112l-435 -436q66 -66 162 -66z" glyph-name="Oslashacute" horiz-adv-x="1488" unicode="Ǿ"/><glyph d="M1083 1413l-338 -246h-256l234 246h360zM1071 868q102 -137 103 -348q0 -258 -155 -400.5t-403 -142.5q-199 0 -340 93l-36 -37l-119 112l37 37q-102 135 -103 338q0 262 157 405.5t404 143.5q201 0 338 -92l39 39l115 -111zM438 520q0 -39 2 -55l275 272q-41 27 -99 27 q-178 0 -178 -244zM616 283q180 0 181 237q0 27 -4 68l-277 -277q41 -28 100 -28z" glyph-name="oslashacute" horiz-adv-x="1228" unicode="ǿ"/><glyph d="M643 -16q-381 0 -616 338l272 223q160 -229 340 -230q72 0 113 36t41 87q0 43 -36 72t-80 43t-149 43q-94 25 -155.5 49.5t-132 69.5t-106.5 118.5t-36 176.5q0 205 146.5 314.5t382.5 109.5q297 0 512 -217l-217 -242q-133 154 -314 153q-121 0 -121 -65q0 -41 44 -63.5 t163 -55.5q59 -16 95 -27.5t93.5 -34t93.5 -45t79 -60.5t67.5 -80t41 -101t16.5 -129q0 -221 -147.5 -352t-389.5 -131zM291 -426l149 301h342l-288 -301h-203z" glyph-name="Scommaaccent" horiz-adv-x="1222" unicode="Ș"/><glyph d="M551 -23q-289 0 -508 140l143 250q133 -92 285 -113q154 -20 166 45q6 33 -31 49.5t-145 42.5q-66 16 -108 29.5t-95 40t-84 59.5t-53.5 87.5t-22.5 123.5q0 176 125 257t328 81q244 0 436 -125l-131 -237q-117 72 -246 96q-137 27 -157 -19q0 -14 -2 -23t15 -19.5 t28.5 -15.5t40 -14.5t49 -14.5t54.5 -13t56 -14q145 -41 228.5 -116t83.5 -224q0 -164 -111 -258.5t-344 -94.5zM242 -430l149 301h342l-289 -301h-202z" glyph-name="scommaaccent" horiz-adv-x="1058" unicode="ș"/><glyph d="M399 0v1081h-389v332h1180v-332h-393v-1081h-398zM270 -430l150 301h342l-289 -301h-203z" glyph-name="uni021A" horiz-adv-x="1200" unicode="Ț"/><glyph d="M381 0q-106 0 -170 71.5t-64 186.5v578h-137v213h137v364h385v-364h193v-213h-193v-480q0 -59 54 -59h139v-297h-344zM131 -430l150 301h342l-289 -301h-203z" glyph-name="uni021B" horiz-adv-x="755" unicode="ț"/><glyph d="M113 -365h-174v297h73q37 0 64.5 22.5t27.5 61.5v1033h388v-1029q0 -162 -98.5 -273.5t-280.5 -111.5z" glyph-name="uni0237" horiz-adv-x="593" unicode="ȷ"/><glyph d="M61 1077l238 260h231l240 -260h-281l-75 117l-76 -117h-277z" glyph-name="circumflex" horiz-adv-x="831" unicode="ˆ"/><glyph d="M299 1112l-238 252h277l76 -109l75 109h281l-240 -252h-231z" glyph-name="caron" horiz-adv-x="831" unicode="ˇ"/><glyph d="M385 1092q-150 0 -237 72.5t-87 197.5h220q0 -41 28.5 -64.5t75.5 -23.5q49 0 78 23.5t29 64.5h229q0 -125 -91 -197.5t-245 -72.5z" glyph-name="breve" horiz-adv-x="782" unicode="˘"/><glyph d="M61 1108v256h261v-256h-261z" glyph-name="dotaccent" horiz-adv-x="382" unicode="˙"/><glyph d="M301 1106q-102 0 -171 70.5t-69 171t69 171t171 70.5q100 0 172 -70.5t72 -170.5q0 -102 -71 -172t-173 -70zM301 1247q45 0 72.5 30t27.5 77q0 43 -25.5 67.5t-74.5 24.5q-43 0 -70.5 -26.5t-27.5 -65.5q0 -45 28.5 -76t69.5 -31z" glyph-name="ring" horiz-adv-x="606" unicode="˚"/><glyph d="M317 -489q-98 0 -177 52t-79 175q0 45 13.5 85t32 66.5t44 52t44 38t41 25.5t24.5 15l232 -20q-219 -141 -220 -236q0 -43 43 -43q47 0 72 52l178 -127q-92 -135 -248 -135z" glyph-name="ogonek" horiz-adv-x="626" unicode="˛"/><glyph d="M625 1079q-70 0 -121 28t-89 54.5t-71 26.5q-57 0 -61 -111h-222q0 295 238 295q90 0 167 -49t114 -49q66 0 65 94h209q0 -289 -229 -289z" glyph-name="tilde" horiz-adv-x="915" unicode="˜"/><glyph d="M61 1130l201 234h273l-220 -234h-254zM469 1130l203 234h325l-278 -234h-250z" glyph-name="hungarumlaut" horiz-adv-x="1058" unicode="˝"/><glyph d="M-317 1118l-338 246h360l234 -246h-256z" glyph-name="gravecomb" unicode="̀"/><glyph d="M-655 1118l233 246h361l-338 -246h-256z" glyph-name="acutecomb" unicode="́"/><glyph d="M-770 1077l238 260h231l240 -260h-281l-76 117l-76 -117h-276z" glyph-name="uni0302" unicode="̂"/><glyph d="M-291 1079q-70 0 -121 28t-89 54.5t-70 26.5q-57 0 -62 -111h-221q0 295 238 295q90 0 166.5 -49t113.5 -49q66 0 66 94h209q-1 -289 -230 -289z" glyph-name="tildecomb" unicode="̃"/><glyph d="M-662 1171v183h601v-183h-601z" glyph-name="uni0304" unicode="̄"/><glyph d="M-397 1092q-150 0 -237 72.5t-87 197.5h219q0 -41 29 -64.5t76 -23.5q49 0 77.5 23.5t28.5 64.5h230q0 -125 -91 -197.5t-245 -72.5z" glyph-name="uni0306" unicode="̆"/><glyph d="M-322 1108v256h261v-256h-261z" glyph-name="uni0307" unicode="̇"/><glyph d="M-748 1108v256h261v-256h-261zM-322 1108v256h261v-256h-261z" glyph-name="uni0308" unicode="̈"/><glyph d="M-295 1116q-98 0 -165.5 68.5t-67.5 167.5q0 96 68.5 163.5t164.5 67.5t165 -67.5t69 -164t-69 -166t-165 -69.5zM-295 1282q29 0 49.5 19.5t20.5 48t-20.5 49t-49.5 20.5q-68 0 -67 -69q0 -31 18 -49.5t49 -18.5z" glyph-name="uni030A" unicode="̊"/><glyph d="M-997 1130l200 234h273l-219 -234h-254zM-590 1130l203 234h326l-279 -234h-250z" glyph-name="uni030B" unicode="̋"/><glyph d="M-532 1112l-238 252h276l76 -109l76 109h281l-240 -252h-231z" glyph-name="uni030C" unicode="̌"/><glyph d="M-61 1409l-150 -270h-342l289 270h203z" glyph-name="uni0312" unicode="̒"/><glyph d="M-553 -430l150 301h342l-289 -301h-203z" glyph-name="uni0326" unicode="̦"/><glyph d="M-297 -500q-94 0 -166 43t-100 113l170 76q16 -57 78 -58q27 0 47 15.5t20 40.5q0 47 -57 61l-184 49l96 160h254l-80 -106l18 -5q57 -12 98.5 -57t41.5 -127q0 -102 -68 -153.5t-168 -51.5z" glyph-name="uni0327" unicode="̧"/><glyph d="M-309 -489q-98 0 -177 52t-79 175q0 45 13 85t31.5 66.5t44 52t44 38t41 25.5t24.5 15l232 -20q-219 -141 -219 -236q0 -43 43 -43q47 0 71 52l179 -127q-92 -135 -248 -135z" glyph-name="uni0328" unicode="̨"/><glyph d="M-737 508v164h676v-164h-676z" glyph-name="uni0335" unicode="̵"/><glyph d="M-1536 463v213h1475v-213h-1475z" glyph-name="uni0336" unicode="̶"/><glyph d="M-1040 190v371l979 780v-403z" glyph-name="uni0337" unicode="̷"/><glyph d="M-1290 12l-166 158l1231 1231l164 -158z" glyph-name="uni0338" unicode="̸"/><glyph d="M913 -20q-133 0 -209.5 77.5t-76.5 173.5v459h-125v-690h-307v690h-82v309h903v-309h-82v-377q0 -27 17.5 -38t40 -5t32.5 25l96 -254q-90 -61 -207 -61z" glyph-name="pi" horiz-adv-x="1222" unicode="π"/><glyph d="M887 1532l-338 246h360l234 -246h-256zM272 0l-266 1413h412l170 -1089h16l201 1089h432l201 -1089h14l170 1089h412l-269 -1413h-579l-170 946l-162 -946h-582z" glyph-name="Wgrave" horiz-adv-x="2039" unicode="Ẁ"/><glyph d="M1034 1167h-256l-338 246h361zM1417 1049h408l-301 -1049h-494l-131 549l-125 -557h-493l-297 1057h407l156 -715l180 715h350l178 -721z" glyph-name="wgrave" horiz-adv-x="1808" unicode="ẁ"/><glyph d="M889 1532l233 246h361l-338 -246h-256zM272 0l-266 1413h412l170 -1089h16l201 1089h432l201 -1089h14l170 1089h412l-269 -1413h-579l-170 946l-162 -946h-582z" glyph-name="Wacute" horiz-adv-x="2039" unicode="Ẃ"/><glyph d="M1374 1413l-338 -246h-256l234 246h360zM1417 1049h408l-301 -1049h-494l-131 549l-125 -557h-493l-297 1057h407l156 -715l180 715h350l178 -721z" glyph-name="wacute" horiz-adv-x="1808" unicode="ẃ"/><glyph d="M672 1522v256h260v-256h-260zM1098 1522v256h260v-256h-260zM272 0l-266 1413h412l170 -1089h16l201 1089h432l201 -1089h14l170 1089h412l-269 -1413h-579l-170 946l-162 -946h-582z" glyph-name="Wdieresis" horiz-adv-x="2039" unicode="Ẅ"/><glyph d="M823 1413v-256h-260v256h260zM1249 1413v-256h-260v256h260zM1417 1049h408l-301 -1049h-494l-131 549l-125 -557h-493l-297 1057h407l156 -715l180 715h350l178 -721z" glyph-name="wdieresis" horiz-adv-x="1808" unicode="ẅ"/><glyph d="M782 1485q-70 0 -121 27.5t-88.5 54t-70.5 26.5q-57 0 -62 -110h-221q0 295 238 295q90 0 166.5 -49.5t113.5 -49.5q66 0 66 95h209q-1 -289 -230 -289zM123 0v1413h981v-332h-584v-207h543v-331h-543v-209h584v-334h-981z" glyph-name="uni1EBC" horiz-adv-x="1187" unicode="Ẽ"/><glyph d="M748 1124q-70 0 -121.5 28t-89 54.5t-70.5 26.5q-57 0 -61 -111h-222q0 295 238 295q90 0 167 -49t113 -49q66 0 66 94h209q0 -289 -229 -289zM870 403l242 -159q-106 -141 -220 -202.5t-271 -61.5q-111 0 -209.5 29.5t-180 91t-129 168t-47.5 245.5q0 262 153.5 408.5 t381.5 146.5q131 0 243.5 -47t190.5 -154.5t78 -259.5q0 -104 -12 -164h-641q12 -172 174 -172q88 0 142 23.5t105 107.5zM588 795q-129 0 -139 -127h278q-8 127 -139 127z" glyph-name="uni1EBD" horiz-adv-x="1167" unicode="ẽ"/><glyph d="M592 1528l-338 246h360l234 -246h-256zM526 0v549l-536 864h444l299 -500l277 500h444l-536 -864v-549h-392z" glyph-name="Ygrave" horiz-adv-x="1443" unicode="Ỳ"/><glyph d="M446 1167l-337 246h360l233 -246h-256zM100 -365v297q223 0 267 107l-398 1010h412l176 -611h21l182 611h414l-420 -1049q-59 -152 -127 -225.5t-188 -106.5t-339 -33z" glyph-name="ygrave" horiz-adv-x="1134" unicode="ỳ"/><glyph d="M889 1485q-70 0 -121 27.5t-89 54t-71 26.5q-57 0 -61 -110h-221q0 295 237 295q90 0 167 -49.5t114 -49.5q66 0 65 95h209q0 -289 -229 -289zM526 0v549l-536 864h444l299 -500l277 500h444l-536 -864v-549h-392z" glyph-name="uni1EF8" horiz-adv-x="1443" unicode="Ỹ"/><glyph d="M743 1124q-70 0 -121 28t-88.5 54.5t-70.5 26.5q-57 0 -62 -111h-221q0 295 238 295q90 0 167 -49t113 -49q66 0 66 94h209q-1 -289 -230 -289zM100 -365v297q223 0 267 107l-398 1010h412l176 -611h21l182 611h414l-420 -1049q-59 -152 -127 -225.5t-188 -106.5 t-339 -33z" glyph-name="uni1EF9" horiz-adv-x="1134" unicode="ỹ"/><glyph d="M31 358v328h870v-328h-870z" glyph-name="endash" horiz-adv-x="931" unicode="–"/><glyph d="M0 358v328h2048v-328h-2048z" glyph-name="emdash" horiz-adv-x="2048" unicode="—"/><glyph d="M510 1475l-172 -365h149v-387h-446v387h12l271 365h186z" glyph-name="quoteleft" horiz-adv-x="548" unicode="‘"/><glyph d="M63 1413h447v-387h-12l-271 -364h-186l172 364h-150v387z" glyph-name="quoteright" horiz-adv-x="550" unicode="’"/><glyph d="M74 387h446v-387h-12l-270 -365h-187l172 365h-149v387z" glyph-name="quotesinglbase" horiz-adv-x="569" unicode="‚"/><glyph d="M324 1475h186l-172 -365h149v-387h-446v387h12zM1090 1475l-172 -365h149v-387h-446v387h12l270 365h187z" glyph-name="quotedblleft" horiz-adv-x="1128" unicode="“"/><glyph d="M63 1026v387h447v-387h-12l-271 -364h-186l172 364h-150zM637 1413h446v-387h-12l-270 -364h-187l172 364h-149v387z" glyph-name="quotedblright" horiz-adv-x="1124" unicode="”"/><glyph d="M74 0v387h446v-387h-12l-270 -365h-187l172 365h-149zM647 387h447v-387h-13l-270 -365h-186l172 365h-150v387z" glyph-name="quotedblbase" horiz-adv-x="1142" unicode="„"/><glyph d="M322 -205v948h-222v353h222v317h348v-317h221v-353h-221v-948h-348z" glyph-name="dagger" horiz-adv-x="991" unicode="†"/><glyph d="M322 -205v318h-222v352h222v278h-222v353h222v317h348v-317h221v-353h-221v-278h221v-352h-221v-318h-348z" glyph-name="daggerdbl" horiz-adv-x="991" unicode="‡"/><glyph d="M578 18q-211 0 -358.5 148.5t-147.5 357.5t147.5 357.5t358.5 148.5q207 0 354 -148.5t147 -357.5t-147 -357.5t-354 -148.5z" glyph-name="bullet" horiz-adv-x="1150" unicode="•"/><glyph d="M92 0v367h311v-367h-311zM588 0v367h311v-367h-311z" glyph-name="twodotenleader" horiz-adv-x="991" unicode="‥"/><glyph d="M92 0v387h447v-387h-447zM723 0v387h446v-387h-446zM1354 0v387h446v-387h-446z" glyph-name="ellipsis" horiz-adv-x="1892" unicode="…"/><glyph d="M379 721q-92 0 -162 38t-104.5 97t-50 113.5t-15.5 103.5q0 55 15.5 112.5t49 116t101.5 96.5t160 38q111 0 187.5 -61.5t106 -140.5t29.5 -163q0 -133 -79.5 -241.5t-237.5 -108.5zM248 0l758 1413h323l-760 -1413h-321zM375 987q16 0 34.5 21.5t18.5 64.5 q0 51 -18.5 76t-36.5 25q-25 0 -43.5 -24t-18.5 -77q1 -86 64 -86zM1227 -23q-94 0 -163 38t-103.5 96.5t-50 116t-15.5 112.5t15.5 114.5t49 121t101 100.5t160.5 39q84 0 149.5 -36t102 -94.5t54 -121t17.5 -123.5q0 -137 -79.5 -250t-237.5 -113zM1905 -23q-88 0 -157 38 t-104.5 96.5t-53 117t-17.5 111.5q0 55 17.5 114.5t52 121t101 100.5t154.5 39q160 0 248 -119t88 -256q0 -133 -85.5 -248t-243.5 -115zM1225 240q8 0 19 9t21.5 34.5t10.5 58.5q0 37 -11.5 62.5t-22.5 33.5t-21 8q-23 0 -42.5 -25.5t-19.5 -80.5q0 -51 19.5 -75.5 t46.5 -24.5zM1901 240q8 0 20 9t22.5 34.5t10.5 58.5q0 53 -17.5 78.5t-38.5 25.5q-49 0 -49 -106q1 -100 52 -100z" glyph-name="perthousand" horiz-adv-x="2285" unicode="‰"/><glyph d="M586 113l-518 397l518 399v-288l-166 -111l166 -109v-288z" glyph-name="guilsinglleft" horiz-adv-x="655" unicode="‹"/><glyph d="M68 113v288l165 109l-165 111v288l518 -399z" glyph-name="guilsinglright" horiz-adv-x="655" unicode="›"/><glyph d="M-332 0l846 1413h365l-859 -1413h-352z" glyph-name="fraction" horiz-adv-x="548" unicode="⁄"/><glyph d="M829 317q63 0 108.5 16.5t66 34t55.5 56.5l151 -346q-150 -100 -379 -101q-270 0 -419.5 140.5t-198.5 363.5h-231l81 154h130q-2 25 -3 72v20h-170l91 164h94q41 238 192.5 391.5t433.5 153.5q229 0 379 -101l-163 -395q-59 156 -218 156q-176 0 -231 -205h428l-68 -164 h-380v-20q0 -49 2 -72h342l-64 -154h-246q61 -164 217 -164z" glyph-name="Euro" horiz-adv-x="1243" unicode="€"/><glyph d="M10 1233v180h492v-180h-135v-459h-220v459h-137zM1010 1413h315v-639h-201v436l-75 -436h-199l-84 416v-416h-199v639h314l69 -405z" glyph-name="trademark" horiz-adv-x="1370" unicode="™"/><glyph d="M37 0v305h168q-86 76 -125 202t-39 241q0 279 220 469t517 190q301 0 521.5 -195.5t220.5 -482.5q0 -113 -38 -233.5t-116 -208.5h158v-287h-621v274q125 0 213 104.5t88 283.5q0 203 -116.5 320.5t-307.5 117.5q-193 0 -308.5 -120t-115.5 -323q0 -193 97.5 -288 t203.5 -95v-274h-620z" glyph-name="uni2126" horiz-adv-x="1560" unicode="Ω"/><glyph d="M2433 799v-328h-1513l372 -184v-314l-1179 666l1179 653v-313l-370 -180h1511z" glyph-name="arrowleft" horiz-adv-x="2545" unicode="←"/><glyph d="M1253 -27v314l373 184h-1513v328h1511l-371 180v313l1180 -653z" glyph-name="arrowright" horiz-adv-x="2545" unicode="→"/><glyph d="M559 -12q-242 0 -378 137t-136 360q0 254 166 422t387 168q102 0 182 -40t113 -111h8q0 104 -69.5 177t-169.5 73q-63 0 -138 -35l-143 223q121 68 278 68q143 0 251 -55.5t170.5 -152t93 -214t30.5 -252.5q0 -215 -70.5 -386t-219 -276.5t-355.5 -105.5zM553 299 q131 0 219 95t88 239q0 182 -170 182q-137 0 -227 -98.5t-90 -233.5q0 -184 180 -184z" glyph-name="partialdiff" horiz-adv-x="1265" unicode="∂"/><glyph d="M-8 0l670 1589l669 -1589h-1339zM440 307h443l-221 588z" glyph-name="uni2206" horiz-adv-x="1325" unicode="∆"/><glyph d="M205 0v1106h-164v307h1302v-307h-163v-1106h-308v1106h-360v-1106h-307z" glyph-name="product" horiz-adv-x="1384" unicode="∏"/><glyph d="M61 0v164l553 543l-553 540v166h1184v-307h-651l455 -399l-455 -400h651v-307h-1184z" glyph-name="summation" horiz-adv-x="1306" unicode="∑"/><glyph d="M143 373v291h947v-291h-947z" glyph-name="minus" horiz-adv-x="1232" unicode="−"/><glyph d="M1114 1438l293 -95l-672 -1576h-250l-276 720h-168v312h397l180 -588z" glyph-name="radical" horiz-adv-x="1437" unicode="√"/><glyph d="M406 254q-158 0 -261.5 108.5t-103.5 270.5t103.5 270.5t261.5 108.5q182 0 372 -174q190 174 375 174q158 0 261.5 -108.5t103.5 -270.5t-103.5 -270.5t-261.5 -108.5q-184 0 -375 174q-190 -174 -372 -174zM428 530q51 0 164 103q-113 102 -164 102q-47 0 -79 -27.5 t-32 -74.5t32 -75t79 -28zM1130 530q47 0 79 28t32 75t-31.5 74.5t-79.5 27.5q-51 0 -163 -102q112 -103 163 -103z" glyph-name="infinity" horiz-adv-x="1558" unicode="∞"/><glyph d="M-2 -457v307q158 0 206 41t48 170v1041q0 152 101.5 249t252.5 97q160 0 258 -98l-200 -236q-39 27 -58 27q-10 0 -17 -1t-16.5 -15.5t-9.5 -43.5v-1050q0 -227 -157.5 -357.5t-407.5 -130.5z" glyph-name="integral" horiz-adv-x="862" unicode="∫"/><glyph d="M694 606q-74 0 -139.5 37t-120.5 73t-106 36q-96 0 -97 -146h-262q0 211 79 322.5t228 111.5q76 0 140.5 -36.5t120 -72.5t106.5 -36q96 0 96 145h262q0 -211 -78.5 -322.5t-228.5 -111.5zM694 96q-74 0 -139.5 36t-120.5 73t-106 37q-96 0 -97 -146h-262q0 211 79 322.5 t228 111.5q76 0 140.5 -35.5t120 -72.5t106.5 -37q96 0 96 145h262q0 -211 -78.5 -322.5t-228.5 -111.5z" glyph-name="approxequal" horiz-adv-x="1067" unicode="≈"/><glyph d="M1221 639h-365l-115 -201h480v-313h-658l-164 -289h-295l168 289h-196v313h377l116 201h-493v313h676l172 297h280l-170 -297h187v-313z" glyph-name="notequal" horiz-adv-x="1308" unicode="≠"/><glyph d="M1278 389l-1202 596l1202 596v-340l-555 -256l555 -256v-340zM1278 0h-1174v287h1174v-287z" glyph-name="lessequal" horiz-adv-x="1435" unicode="≤"/><glyph d="M158 389v340l555 256l-555 256v340l1202 -596zM158 0v287h1173v-287h-1173z" glyph-name="greaterequal" horiz-adv-x="1435" unicode="≥"/><glyph d="M489 0l-417 717l417 717h265l411 -717l-411 -717h-265zM616 340l189 377l-189 377l-184 -377z" glyph-name="lozenge" horiz-adv-x="1236" unicode="◊"/><glyph d="M176 1157v256h260v-256h-260zM113 0v1049h387v-1049h-387z" glyph-name="i.locl" horiz-adv-x="612"/><glyph d="M1423 836h-192v-480q0 -59 53 -59h139v-297h-344q-106 0 -169.5 71.5t-63.5 186.5v578h-264v-836h-387v836h-160v213h164v71q0 133 85 213t246 80h236v-266h-137q-47 0 -47 -57v-41h264v364h385v-364h192v-213z" glyph-name="f_t.dlig" horiz-adv-x="1454"/><glyph d="M1374 836h-192v-480q0 -59 53 -59h139v-297h-344q-106 0 -169.5 71.5t-63.5 186.5v578h-265v-480q0 -59 54 -59h139v-297h-344q-106 0 -170 71.5t-64 186.5v578h-137v213h137v364h385v-364h265v364h385v-364h192v-213z" glyph-name="t_t.dlig" horiz-adv-x="1404"/><glyph d="M917.5 -61q-321.5 0 -548 226t-226.5 547.5t226.5 548t548 226.5t548 -226.5t226.5 -548t-226.5 -547.5t-548 -226zM917.5 10q290.5 0 496.5 206t206 497t-206 496.5t-496.5 205.5t-496.5 -205.5t-206 -496.5t206 -497t496.5 -206zM514 410q-14 0 -24.5 10t-10.5 24v537 q0 14 10.5 25.5t24.5 11.5t25.5 -11.5t11.5 -25.5v-537q0 -34 -37 -34zM917.5 410q-34.5 0 -34.5 34v537q0 37 34.5 37t34.5 -37v-537q0 -34 -34.5 -34zM1319 410q-14 0 -23 10l-270 268q-6 10 -6 25q0 18 6 24l270 269q10 12 23 12q14 0 25.5 -11.5t11.5 -23.5 q0 -16 -10 -27l-244 -243l244 -244q10 -10 10 -27q0 -12 -11.5 -22t-25.5 -10zM649 678q-35 0 -35 35t35 35h133q37 0 37 -35t-37 -35h-133z" glyph-name="glyph397" horiz-adv-x="1835"/></font>
</defs>
</svg>
