<?xml version="1.0" standalone="no"?>
<!DOCTYPE svg PUBLIC "-//W3C//DTD SVG 1.1//EN" "http://www.w3.org/Graphics/SVG/1.1/DTD/svg11.dtd">
<svg xmlns="http://www.w3.org/2000/svg"><metadata>This SVG WebFont was generated by YouWorkForThem.
Copyright (c)2016, Radnika designed by Alfredo Marco Pradil (ammpradil@gmail.com). Radnika is a trademark of Alfredo Marco Pradil.</metadata><defs><font horiz-adv-x="1132" id="ywftsvg"><font-face ascent="1638" bbox="-1432 -504 2144 2142" cap-height="1413" descent="-410" font-family="" font-stretch="normal" font-weight="300" panose-1="0 0 4 0 0 0 0 0 0 0" underline-position="0" underline-thickness="0" unicode-range="U+0020-FB02" units-per-em="2048" x-height="1049"/><missing-glyph d="M45 0v999h819v-999h-819zM147 102h615v795h-615v-795z" horiz-adv-x="909"/><glyph d="M905 1049v-1049h-127v940h-436v-940h-129v940h-182v109h182v120q0 113 80 178.5t186 65.5h109v-121h-107q-139 0 -139 -125v-118h563zM778 1413h127v-190h-127v190z" glyph-name="uniFB01" horiz-adv-x="1095" unicode="fi"/><glyph d="M213 0v940h-182v109h182v120q0 113 80 178.5t186 65.5h129v-121h-127q-139 0 -139 -125v-118h266v-109h-266v-940h-129zM780 0v1413h127v-1413h-127z" glyph-name="uniFB02" horiz-adv-x="1085" unicode="fl"/><glyph d="M1069 1300q-78 0 -126 -48t-48 -128v-75h285v-111h-285v-938h-127v938h-420v-938h-127v938h-190v111h190v65q0 137 82 218t219 81h111v-113h-111q-80 0 -127 -48t-47 -128v-75h420v65q0 137 82 218t219 81h111v-113h-111z" glyph-name="f_f.liga" horiz-adv-x="1206" unicode="ff"/><glyph d="M793 1114q0 137 81.5 218t219.5 81h110v-113h-110q-78 0 -126 -48t-48 -128v-75h284v-111h-284v-938h-127v938h-445v-938h-127v938h-190v111h190v65q0 137 82 218t219 81h111v-113h-111q-80 0 -127 -48t-47 -128v-75h445v65zM1370 1413h127v-190h-127v190zM1370 0v1049 h127v-1049h-127z" glyph-name="f_f_i.liga" horiz-adv-x="1687" unicode="ffi"/><glyph d="M737 1114q0 137 82 218t219 81h111v-113h-111q-80 0 -127 -48t-47 -128v-75h285v-111h-285v-938h-127v938h-389v-938h-127v938h-190v111h190v65q0 137 82 218t219 81h111v-113h-111q-80 0 -127 -48t-47 -128v-75h389v65zM1264 1413h127v-1413h-127v1413z" glyph-name="f_f_l.liga" horiz-adv-x="1568" unicode="ffl"/><glyph d="M45 0v999h819v-999h-819zM147 102h615v795h-615v-795z" glyph-name=".notdef" horiz-adv-x="909"/><glyph glyph-name="glyph1" horiz-adv-x="0"/><glyph glyph-name="glyph2" horiz-adv-x="681"/><glyph glyph-name="space" horiz-adv-x="468" unicode=" "/><glyph d="M211 371l-29 1042h154l-29 -1042h-96zM170 0v176h178v-176h-178z" glyph-name="exclam" horiz-adv-x="518" unicode="!"/><glyph d="M145 874v539h117v-539h-117zM436 874v539h115v-539h-115z" glyph-name="quotedbl" horiz-adv-x="692" unicode="&quot;"/><glyph d="M223 0l90 446h-241v95h262l69 352h-249v90h270l90 430h100l-88 -416h338l88 416h101l-86 -426h241v-94h-262l-69 -352h249v-90h-270l-92 -451h-102l92 436h-338l-90 -436h-103zM436 541h338l70 352h-338z" glyph-name="numbersign" horiz-adv-x="1280" unicode="#"/><glyph d="M1001 377q0 -164 -110.5 -271.5t-284.5 -119.5v-146h-131v150q-139 23 -248.5 111.5t-165.5 246.5l121 60q53 -150 154.5 -222.5t232.5 -72.5t213 65.5t82 179.5q0 66 -24.5 116t-77.5 89t-100.5 62.5t-125 56.5t-115.5 49.5t-101.5 55t-94 74.5t-56.5 93.5t-26 126.5 q0 143 91.5 237.5t240.5 111.5v147h131v-147q199 -25 334 -209l-90 -84q-131 172 -315 172q-113 0 -183.5 -59.5t-70.5 -157.5q0 -45 20.5 -85t44 -66t78.5 -57.5t85 -46t101 -44.5q92 -41 144.5 -69t119 -78t97 -116.5t30.5 -152.5z" glyph-name="dollar" horiz-adv-x="1073" unicode="$"/><glyph d="M342 803q-90 0 -149.5 53t-80 120.5t-20.5 141.5q0 121 58.5 219.5t185.5 98.5q119 0 185.5 -95.5t66.5 -222.5t-64.5 -221t-181.5 -94zM301 2l756 1409h133l-754 -1409h-135zM337.5 905q65.5 0 100.5 65.5t35 149.5q0 82 -35 144.5t-102 62.5q-66 0 -99.5 -62.5 t-33.5 -146.5t34.5 -148.5t100 -64.5zM1169 2q-90 0 -149 53.5t-79.5 120t-20.5 139.5q0 121 58 219.5t185 98.5q119 0 185.5 -95.5t66.5 -222.5t-64.5 -220t-181.5 -93zM1167 106q66 0 99.5 65t33.5 146q0 86 -34.5 148.5t-102.5 62.5q-66 0 -99.5 -64.5t-33.5 -148.5 q0 -82 34.5 -145.5t102.5 -63.5z" glyph-name="percent" horiz-adv-x="1507" unicode="%"/><glyph d="M1018 317l301 -317h-189l-190 203q-84 -115 -183.5 -171.5t-238.5 -56.5q-180 0 -302 104.5t-122 285.5q0 276 324 405q-49 55 -75 85t-59.5 100.5t-33.5 138.5q0 154 97 242.5t241 88.5q139 0 230 -86t91 -235q0 -209 -299 -361l318 -331l225 393l113 -64zM383 1100 q0 -119 147 -273q254 123 254 281q0 90 -56 150.5t-140 60.5q-88 0 -146.5 -61.5t-58.5 -157.5zM518 88q111 0 186.5 50t143.5 159l-361 385q-129 -57 -192.5 -132t-63.5 -190q0 -117 87 -194.5t200 -77.5z" glyph-name="ampersand" horiz-adv-x="1323" unicode="&amp;"/><glyph d="M145 903v539h117v-539h-117z" glyph-name="quotesingle" horiz-adv-x="407" unicode="'"/><glyph d="M395 -260q-115 168 -173 409.5t-58 473.5q0 233 58.5 474.5t172.5 407.5h133q-227 -393 -227 -882q0 -487 227 -883h-133z" glyph-name="parenleft" horiz-adv-x="630" unicode="("/><glyph d="M233 -260h-133q227 395 228 883q0 489 -228 882h133q115 -166 173.5 -407.5t58.5 -474.5q0 -231 -58.5 -473t-173.5 -410z" glyph-name="parenright" horiz-adv-x="630" unicode=")"/><glyph d="M258 926l16 188l-153 -108l-49 84l168 79l-168 80l49 86l153 -110l-16 188h96l-16 -188l154 110l49 -86l-168 -80l168 -79l-49 -84l-154 108l16 -188h-96z" glyph-name="asterisk" horiz-adv-x="612" unicode="*"/><glyph d="M596 0v459h-446v119h446v458h121v-458h444v-119h-444v-459h-121z" glyph-name="plus" horiz-adv-x="1310" unicode="+"/><glyph d="M143 197h191v-197l-117 -313h-88l84 313h-70v197z" glyph-name="comma" horiz-adv-x="534" unicode=","/><glyph d="M197 459v119h733v-119h-733z" glyph-name="hyphen" horiz-adv-x="1126" unicode="-"/><glyph d="M125 0v197h190v-197h-190z" glyph-name="period" horiz-adv-x="415" unicode="."/><glyph d="M82 -156l604 1569h135l-606 -1569h-133z" glyph-name="slash" horiz-adv-x="903" unicode="/"/><glyph d="M553 -20q-137 0 -235.5 66.5t-147.5 180t-70.5 230t-21.5 250.5q0 104 11 199t44 194.5t82 171t133 118t191 46.5q162 0 270.5 -108.5t153.5 -268.5t45 -357q0 -195 -44 -352t-150.5 -263.5t-260.5 -106.5zM547 106q96 0 163.5 57.5t98.5 156t43 190.5t12 199 q0 596 -325 596q-330 0 -330 -598q0 -601 338 -601z" glyph-name="zero" horiz-adv-x="1085" unicode="0"/><glyph d="M414 0v1262l-332 -191v141l348 201h119v-1413h-135z" glyph-name="one" horiz-adv-x="774" unicode="1"/><glyph d="M113 0v141q0 115 38.5 205t101 148.5t138.5 106.5t153 90t139 87t101 110.5t39 147.5q0 121 -75.5 199t-194.5 78q-135 0 -215 -96.5t-70 -255.5l-137 12q0 213 113.5 336t304.5 123q182 0 297 -112t115 -286q0 -96 -40 -175t-102.5 -132t-139.5 -99t-153.5 -90 t-139 -91.5t-102.5 -115t-40 -151.5v-61h745v-119h-876z" glyph-name="two" horiz-adv-x="1081" unicode="2"/><glyph d="M551 -20q-207 0 -340 106.5t-133 302.5l125 14q0 -141 102.5 -224t245.5 -83q141 0 246.5 81t105.5 222.5t-96 214t-236 72.5h-108v127h108q113 0 182.5 64.5t69.5 181.5t-84 186.5t-213 69.5t-212 -70.5t-85 -189.5l-123 16q0 168 117 265.5t305 97.5q184 0 302 -96.5 t118 -264.5q0 -115 -63.5 -201t-147.5 -106v-18q279 -49 289 -351q0 -201 -133 -309t-342 -108z" glyph-name="three" horiz-adv-x="1103" unicode="3"/><glyph d="M834 508h241v-119h-241v-389h-127v389h-646v98l648 926h125v-905zM707 508v723l-496 -723h496z" glyph-name="four" horiz-adv-x="1081" unicode="4"/><glyph d="M584 915q195 0 318.5 -131t123.5 -333q0 -205 -130 -338t-333 -133q-160 0 -289 111.5t-161 283.5l118 39q27 -141 122.5 -232.5t211.5 -91.5q141 0 230.5 102.5t89.5 262.5q0 152 -90 249t-230 97q-82 0 -165 -46t-126 -116l-110 61l121 713h678v-119h-574l-84 -491 l4 -2q39 47 120 80.5t155 33.5z" glyph-name="five" horiz-adv-x="1081" unicode="5"/><glyph d="M541 -18q-209 0 -335 148.5t-128 463.5q0 82 2 147.5t13 155.5t29.5 160.5t55.5 144.5t88 122t128 79t173 31q311 0 426 -297l-116 -47q-84 217 -304 217q-109 0 -185.5 -58.5t-111 -154t-48 -173t-15.5 -161.5q117 147 336 147q207 0 329.5 -127t122.5 -334 q0 -188 -131.5 -326t-328.5 -138zM542.5 100q143.5 0 236.5 96.5t93 248t-92 247.5t-237.5 96t-234.5 -93t-89 -244.5t90 -251t233.5 -99.5z" glyph-name="six" horiz-adv-x="1079" unicode="6"/><glyph d="M262 0q20 176 47 316.5t78 318.5t139 346t207 309v4h-698v119h831v-129q-123 -145 -211 -310t-138 -339t-74.5 -315.5t-43.5 -319.5h-137z" glyph-name="seven" horiz-adv-x="903" unicode="7"/><glyph d="M547 -20q-205 0 -338 114.5t-133 288.5q0 133 80 239.5t202 133.5v10q-92 33 -151.5 121t-59.5 192q0 154 112 254.5t286 100.5t285.5 -100.5t111.5 -254.5q0 -109 -59.5 -196.5t-151.5 -116.5v-10q123 -33 203 -137.5t80 -235.5q0 -176 -132 -289.5t-335 -113.5z M551 801q115 0 190.5 73.5t75.5 186.5t-75.5 186.5t-190.5 73.5q-119 0 -194.5 -72.5t-75.5 -183.5q0 -115 75.5 -189.5t194.5 -74.5zM542.5 88q145.5 0 241 87t95.5 220t-95.5 219t-241 86t-240.5 -86t-95 -219t95 -220t240.5 -87z" glyph-name="eight" horiz-adv-x="1089" unicode="8"/><glyph d="M539 1432q209 0 334.5 -148.5t127.5 -464.5q0 -82 -2 -147.5t-13 -155.5t-29.5 -160.5t-55.5 -144.5t-88 -122t-128 -78.5t-173 -30.5q-311 0 -426 296l117 48q84 -217 303 -218q109 0 185.5 58.5t111.5 154t48 173t15 161.5q-117 -147 -336 -147q-207 0 -329.5 127 t-122.5 334q0 188 132 326.5t329 138.5zM536.5 1313q-143.5 0 -236.5 -96.5t-93 -248t92 -247.5t237.5 -96t234.5 93t89 244.5t-90 251t-233.5 99.5z" glyph-name="nine" horiz-adv-x="1079" unicode="9"/><glyph d="M127 776v197h190v-197h-190zM129 0v197h190v-197h-190z" glyph-name="colon" horiz-adv-x="448" unicode=":"/><glyph d="M133 973h191v-197h-191v197zM131 0v197h191v-197l-117 -313h-88l84 313h-70z" glyph-name="semicolon" horiz-adv-x="544" unicode=";"/><glyph d="M991 176l-876 498l876 497v-122l-667 -375l667 -369v-129z" glyph-name="less" horiz-adv-x="1153" unicode="&lt;"/><glyph d="M150 629v119h741v-119h-741zM150 289v119h741v-119h-741z" glyph-name="equal" horiz-adv-x="1040" unicode="="/><glyph d="M184 176v129l668 369l-668 375v122l877 -497z" glyph-name="greater" horiz-adv-x="1153" unicode=">"/><glyph d="M412 367v247q0 78 34.5 128.5t83 77t97.5 53t83.5 79t34.5 131.5q0 115 -76.5 175.5t-195.5 60.5q-111 0 -192.5 -64.5t-83.5 -175.5h-127q2 160 117.5 257.5t277.5 97.5q176 0 290.5 -93.5t114.5 -261.5q0 -92 -34.5 -154.5t-85 -94t-100.5 -58.5t-85 -65.5t-35 -94.5 v-245h-118zM385 0v176h178v-176h-178z" glyph-name="question" horiz-adv-x="952" unicode="?"/><glyph d="M952 -348q-358 0 -608 261t-250 629.5t249 629t611.5 260.5t621.5 -260.5t259 -622.5q0 -238 -114.5 -416t-323.5 -178q-137 0 -203 77t-45 204q-55 -76 -142 -119t-182 -43q-147 0 -227 104.5t-80 261.5q0 131 49 263.5t156.5 230.5t249.5 98q109 0 184.5 -54t89.5 -149 l29 152h137l-131 -674q-25 -119 6 -168t117 -51q82 -2 143.5 46t93 124t46 152.5t14.5 150.5q0 299 -220 520.5t-527.5 221.5t-517.5 -221.5t-210 -535t210 -534.5t513 -221q119 0 248 39l47 -127q-143 -51 -293 -51zM842 207q113 0 197.5 77.5t121.5 180t37 205.5 q0 106 -49 166.5t-150 60.5q-164 0 -259 -147.5t-95 -313.5q0 -229 197 -229z" glyph-name="at" horiz-adv-x="1929" unicode="@"/><glyph d="M987 0l-100 322h-631l-100 -322h-144l467 1413h189l465 -1413h-146zM293 436h557l-277 883h-4z" glyph-name="A" horiz-adv-x="1140" unicode="A"/><glyph d="M205 0v1413h508q201 0 316.5 -101.5t115.5 -273.5q0 -125 -74 -204.5t-145 -92.5v-8q115 -4 201.5 -104.5t86.5 -245.5q0 -176 -116.5 -279.5t-302.5 -103.5h-590zM338 782h348q129 0 220 70t91 192q0 244 -290 244h-369v-506zM338 129h440q152 0 225.5 68.5t73.5 193.5 q0 121 -88 192.5t-211 71.5h-440v-526z" glyph-name="B" horiz-adv-x="1308" unicode="B"/><glyph d="M737 -20q-289 0 -466 193.5t-177 533.5q0 342 177.5 535.5t463.5 193.5q184 0 339 -103.5t212 -267.5l-110 -53q-49 135 -164 215t-279 80q-231 0 -368.5 -161t-137.5 -429q0 -276 139.5 -442t372.5 -166q147 0 265 80.5t172 213.5l110 -51q-57 -166 -211 -269t-338 -103 z" glyph-name="C" horiz-adv-x="1347" unicode="C"/><glyph d="M205 0v1413h352q340 0 522.5 -184.5t182.5 -534.5q0 -334 -185.5 -514t-521.5 -180h-350zM340 127h190q299 0 445.5 142.5t146.5 437t-141 438t-428 143.5h-213v-1161z" glyph-name="D" horiz-adv-x="1355" unicode="D"/><glyph d="M205 0v1413h909v-123h-774v-522h676v-123h-676v-522h774v-123h-909z" glyph-name="E" horiz-adv-x="1224" unicode="E"/><glyph d="M205 0v1413h901v-123h-766v-522h678v-123h-678v-645h-135z" glyph-name="F" horiz-adv-x="1157" unicode="F"/><glyph d="M862 705h455v-705h-109l-4 266q-55 -117 -182 -201.5t-309 -84.5q-293 0 -456 207.5t-163 523.5q0 201 66.5 361.5t213 262t353.5 101.5q395 0 569 -371l-125 -51q-143 289 -446 289q-248 0 -373 -166t-125 -420q0 -168 51.5 -302t164 -219t272.5 -85q197 0 329 123.5 t146 353.5h-328v117z" glyph-name="G" horiz-adv-x="1497" unicode="G"/><glyph d="M205 0v1413h135v-647h737v647h135v-1413h-135v647h-737v-647h-135z" glyph-name="H" horiz-adv-x="1417" unicode="H"/><glyph d="M205 0v1413h135v-1413h-135z" glyph-name="I" horiz-adv-x="544" unicode="I"/><glyph d="M31 127q88 -31 151 -31q270 0 271 385v932h135v-917q0 -516 -412 -516q-74 0 -145 20v127z" glyph-name="J" horiz-adv-x="739" unicode="J"/><glyph d="M1026 0l-510 760l-176 -189v-571h-135v1413h135v-674l616 674h168l-522 -561l602 -852h-178z" glyph-name="K" horiz-adv-x="1214" unicode="K"/><glyph d="M205 0v1413h135v-1290h604v-123h-739z" glyph-name="L" horiz-adv-x="964" unicode="L"/><glyph d="M205 0v1413h233l408 -1300l407 1300h234v-1413h-135v1303h-6l-408 -1303h-184l-408 1303h-6v-1303h-135z" glyph-name="M" horiz-adv-x="1691" unicode="M"/><glyph d="M205 0v1413h211l712 -1272h11v1272h135v-1413h-215l-713 1286h-6v-1286h-135z" glyph-name="N" horiz-adv-x="1478" unicode="N"/><glyph d="M727 -20q-291 0 -462 196.5t-171 530t171 530.5t462 197q287 0 458 -197t171 -530.5t-171 -530t-458 -196.5zM727 106q229 0 364.5 163t135.5 437.5t-135.5 437.5t-364.5 163q-231 0 -367.5 -163t-136.5 -437.5t136.5 -437.5t367.5 -163z" glyph-name="O" horiz-adv-x="1449" unicode="O"/><glyph d="M205 0v1413h567q215 0 340 -112.5t125 -319.5q0 -201 -121 -308.5t-344 -107.5h-432v-565h-135zM340 688h444q317 0 318 289q0 150 -80 231.5t-238 81.5h-444v-602z" glyph-name="P" horiz-adv-x="1298" unicode="P"/><glyph d="M1364 -47l-80 -82l-207 209q-147 -100 -350 -100q-291 0 -462 196.5t-171 530t171 530.5t462 197q287 0 458 -197t171 -530q0 -356 -193 -553zM727 106q145 0 256 70l-268 273l73 77l283 -280q156 166 156 461q0 274 -135.5 437t-364.5 163q-231 0 -367.5 -163 t-136.5 -437.5t136.5 -437.5t367.5 -163z" glyph-name="Q" horiz-adv-x="1458" unicode="Q"/><glyph d="M205 -2v1415h567q199 0 320.5 -105.5t121.5 -281.5q0 -145 -82.5 -240.5t-224.5 -123.5l344 -664h-151l-328 647h-432v-647h-135zM342 768h463q274 12 274 258q0 127 -78.5 195.5t-226.5 68.5h-432v-522z" glyph-name="R" horiz-adv-x="1323" unicode="R"/><glyph d="M563 -16q-164 0 -301 91t-201 273l121 60q53 -150 154.5 -222.5t232.5 -72.5t213 65.5t82 179.5q0 66 -24.5 116t-77.5 89t-100.5 62.5t-125 56.5t-115.5 49.5t-101.5 55t-94 74.5t-56.5 93.5t-26 126.5q0 158 108.5 255.5t285.5 97.5q246 0 403 -213l-90 -84 q-131 172 -315 172q-113 0 -183.5 -59.5t-70.5 -157.5q0 -45 20.5 -85t44 -66t78.5 -57.5t85 -46t101 -44.5q92 -41 144.5 -69t119 -78t97 -116.5t30.5 -152.5q0 -172 -124 -282.5t-314 -110.5z" glyph-name="S" horiz-adv-x="1073" unicode="S"/><glyph d="M508 0v1292h-488v121h1108v-121h-485v-1292h-135z" glyph-name="T" horiz-adv-x="1148" unicode="T"/><glyph d="M664 -20q-223 0 -353.5 135t-130.5 372v926h135v-932q0 -176 93.5 -277.5t255.5 -101.5q160 0 252 101.5t92 277.5v932h135v-915q0 -242 -129 -380t-350 -138z" glyph-name="U" horiz-adv-x="1323" unicode="U"/><glyph d="M487 0l-467 1413h144l414 -1319h4l413 1319h146l-465 -1413h-189z" glyph-name="V" horiz-adv-x="1161" unicode="V"/><glyph d="M362 0l-342 1413h140l289 -1270h4l352 1270h196l353 -1270h4l289 1270h139l-342 -1413h-172l-369 1327l-368 -1327h-173z" glyph-name="W" horiz-adv-x="1808" unicode="W"/><glyph d="M20 0l465 707l-462 706h161l375 -596l375 596h162l-463 -706l465 -707h-162l-379 586l-375 -586h-162z" glyph-name="X" horiz-adv-x="1118" unicode="X"/><glyph d="M592 0v553l-582 860h162l485 -739l496 739h162l-586 -860v-553h-137z" glyph-name="Y" horiz-adv-x="1325" unicode="Y"/><glyph d="M1116 1413v-119l-921 -1171h921v-123h-1081v115l911 1175h-866v123h1036z" glyph-name="Z" horiz-adv-x="1150" unicode="Z"/><glyph d="M143 -274v1779h353v-94h-248v-1589h248v-96h-353z" glyph-name="bracketleft" horiz-adv-x="536" unicode="["/><glyph d="M686 -156l-604 1569h133l606 -1569h-135z" glyph-name="backslash" horiz-adv-x="903" unicode="\"/><glyph d="M393 -274h-352v96h248v1589h-248v94h352v-1779z" glyph-name="bracketright" horiz-adv-x="536" unicode="]"/><glyph d="M25 645l346 766l348 -766h-123l-225 537l-221 -537h-125z" glyph-name="asciicircum" horiz-adv-x="743" unicode="^"/><glyph d="M0 -96v96h762v-96h-762z" glyph-name="underscore" horiz-adv-x="761" unicode="_"/><glyph d="M272 1122l-274 242h188l215 -242h-129z" glyph-name="grave" horiz-adv-x="409" unicode="`"/><glyph d="M541 1069q176 0 284.5 -81t108.5 -230v-758h-123v178q-184 -201 -381 -201q-143 0 -237.5 84t-94.5 222q0 182 183 272q119 59 530 166v18q0 113 -63.5 161t-190.5 48q-229 0 -336 -162l-102 70q143 213 422 213zM453 92q172 0 358 217v297q-352 -92 -461 -153 q-115 -66 -114 -170q0 -88 63.5 -139.5t153.5 -51.5z" glyph-name="a" horiz-adv-x="1067" unicode="a"/><glyph d="M682 1069q231 0 345 -150.5t114 -394.5q0 -246 -113 -396.5t-344 -150.5q-211 0 -358 148h-9v-125h-127v1413h127v-489h11q149 145 354 145zM653 94q180 0 270.5 112.5t90.5 317.5q0 201 -90 312.5t-271 111.5q-160 0 -253 -114.5t-93 -309.5q0 -199 92 -314.5 t254 -115.5z" glyph-name="b" horiz-adv-x="1230" unicode="b"/><glyph d="M551 -23q-219 0 -340 158t-121 387q0 233 120 390t339 157q143 0 247.5 -70.5t149.5 -195.5l-112 -47q-27 92 -104 146t-181 54q-88 0 -154.5 -39.5t-103.5 -105.5t-54.5 -138.5t-17.5 -150.5t17.5 -150.5t54.5 -137t103.5 -103.5t154.5 -39q106 0 184 55.5t105 141.5 l108 -41q-45 -127 -148.5 -199t-246.5 -72z" glyph-name="c" horiz-adv-x="1007" unicode="c"/><glyph d="M913 1413h127v-1413h-127v125h-8q-147 -147 -358 -148q-231 0 -344 151t-113 396q0 244 113.5 394.5t345.5 150.5q205 0 354 -145h10v489zM578 94q162 0 254 116t92 314q0 195 -93.5 309.5t-252.5 114.5q-180 0 -270.5 -111.5t-90.5 -312.5q0 -205 90.5 -317.5 t270.5 -112.5z" glyph-name="d" horiz-adv-x="1230" unicode="d"/><glyph d="M1018 535q0 -45 -2 -64h-795q14 -162 105.5 -267.5t273.5 -105.5q178 0 305 103l70 -86q-160 -135 -373 -135q-135 0 -237.5 46t-161 124.5t-86 173t-27.5 202.5q0 104 25.5 196.5t80 172.5t149.5 127t224 47q131 0 224.5 -49t139.5 -132t65.5 -169t19.5 -184zM563 950 q-176 0 -258 -105.5t-88 -262.5h680q-8 174 -92 271t-242 97z" glyph-name="e" horiz-adv-x="1107" unicode="e"/><glyph d="M221 0v938h-190v111h190v65q0 137 82 218t219 81h111v-113h-111q-80 0 -127 -48t-47 -128v-75h285v-111h-285v-938h-127z" glyph-name="f" horiz-adv-x="659" unicode="f"/><glyph d="M575 -385q-170 0 -296.5 61.5t-155.5 171.5l100 43q31 -86 134.5 -126.5t224.5 -40.5q160 0 246.5 77.5t86.5 198.5v170q-127 -162 -360 -162q-229 0 -347 152.5t-118 382.5q0 227 120 376.5t363 149.5q213 0 326 -143h14v123h129v-1049q0 -174 -121 -279.5t-346 -105.5z M584 121q178 0 262 108.5t84 290.5q0 186 -86 312t-271 126q-178 0 -266 -117.5t-88 -301.5q0 -182 89.5 -300t275.5 -118z" glyph-name="g" horiz-adv-x="1232" unicode="g"/><glyph d="M190 0v1413h127v-526h13q106 182 303 182q158 0 251 -104.5t93 -284.5v-680h-127v668q0 279 -232 278q-129 0 -215 -94t-86 -236v-616h-127z" glyph-name="h" unicode="h"/><glyph d="M190 1223v190h127v-190h-127zM190 0v1049h127v-1049h-127z" glyph-name="i" horiz-adv-x="507" unicode="i"/><glyph d="M180 1221v192h152v-192h-152zM-37 -365v111q111 0 171.5 58.5t60.5 158.5v1086h127v-1065q0 -172 -94.5 -260.5t-264.5 -88.5z" glyph-name="j" horiz-adv-x="522" unicode="j"/><glyph d="M872 0l-436 535l-119 -115v-420h-127v1413h127v-835l488 471h160l-443 -431l516 -618h-166z" glyph-name="k" horiz-adv-x="1019" unicode="k"/><glyph d="M178 0v1413h127v-1413h-127z" glyph-name="l" horiz-adv-x="483" unicode="l"/><glyph d="M190 0v1049h127v-146h7q92 166 284 166q211 0 291 -197h6q57 104 132 151.5t186 45.5q160 -2 243.5 -104.5t83.5 -282.5v-682h-127v680q0 123 -55 197.5t-176 74.5q-133 0 -196.5 -93t-63.5 -241v-618h-127v684q0 268 -223 268q-135 0 -200 -93t-65 -241v-618h-127z" glyph-name="m" horiz-adv-x="1705" unicode="m"/><glyph d="M190 0v1049h129v-162h9q106 182 301 182q162 0 255 -105.5t93 -283.5v-680h-127v668q0 281 -223 280q-135 0 -222.5 -92t-87.5 -240v-616h-127z" glyph-name="n" unicode="n"/><glyph d="M573 -23q-219 0 -351 142.5t-132 400.5q0 262 132 405.5t351 143.5q217 0 351.5 -144.5t134.5 -404.5q0 -256 -134.5 -399.5t-351.5 -143.5zM575 96q170 0 266.5 107.5t96.5 316.5q0 213 -96.5 322.5t-266.5 109.5q-168 0 -264 -109.5t-96 -322.5q0 -209 96 -316.5 t264 -107.5z" glyph-name="o" horiz-adv-x="1148" unicode="o"/><glyph d="M190 -365v1414h123v-129h19q127 150 350 149q215 0 336 -153.5t121 -391t-121 -392.5t-336 -155q-207 0 -358 152h-7v-494h-127zM651 88q168 0 265.5 118t97.5 318.5t-97.5 317t-265.5 116.5q-164 0 -259 -116.5t-95 -317.5q0 -203 95 -319.5t259 -116.5z" glyph-name="p" horiz-adv-x="1228" unicode="p"/><glyph d="M1038 -365h-127v494h-6q-152 -152 -358 -152q-215 0 -336 155t-121 392.5t121 391t336 153.5q223 0 350 -149h18v129h123v-1414zM578 88q164 0 259 117t95 319q0 201 -95.5 317.5t-258.5 116.5q-168 0 -265.5 -116.5t-97.5 -317t97.5 -318.5t265.5 -118z" glyph-name="q" horiz-adv-x="1228" unicode="q"/><glyph d="M190 0v1049h132v-170h6q80 186 258 186q92 0 141 -18v-121q-84 20 -127 14q-137 -8 -210 -133t-73 -344v-463h-127z" glyph-name="r" horiz-adv-x="747" unicode="r"/><glyph d="M477 -23q-147 0 -265 76t-151 180l121 60q25 -78 104 -136.5t203 -58.5q111 0 188 48.5t77 140.5q0 49 -22.5 84t-76 58.5t-90.5 33.5t-116 29q-66 14 -104 24t-92 33.5t-83 49.5t-51.5 70t-22.5 99q0 139 102.5 220t266.5 81q131 0 225 -59.5t146 -147.5l-103 -67 q-96 154 -274 153q-102 0 -173 -46t-71 -120q0 -27 10.5 -49t36 -39.5t46 -30t66.5 -25.5t68.5 -18.5t77.5 -19.5q68 -16 109 -27.5t94 -36t83 -53t51.5 -75t21.5 -105.5q0 -152 -121 -239t-281 -87z" glyph-name="s" horiz-adv-x="950" unicode="s"/><glyph d="M473 0q-143 0 -208.5 68.5t-65.5 214.5v655h-162v111h162v364h125v-364h294v-111h-294v-631q0 -113 37.5 -157t132.5 -44h124v-106h-145z" glyph-name="t" horiz-adv-x="671" unicode="t"/><glyph d="M942 1049v-1049h-129v162h-16q-102 -176 -293 -176q-162 0 -255 102t-93 283v678h127v-668q0 -270 223 -270q135 0 222 90t87 231v617h127z" glyph-name="u" unicode="u"/><glyph d="M733 1049h137l-313 -1049h-199l-313 1049h139l275 -990z" glyph-name="v" horiz-adv-x="915" unicode="v"/><glyph d="M1227 1049h141l-223 -1049h-191l-249 866l-250 -864h-193l-221 1047h141l176 -969l287 969h115l291 -969z" glyph-name="w" horiz-adv-x="1409" unicode="w"/><glyph d="M23 0l350 528l-350 521h135l274 -426l279 426h135l-348 -521l348 -528h-135l-279 434l-274 -434h-135z" glyph-name="x" horiz-adv-x="868" unicode="x"/><glyph d="M53 -365v111q84 0 144.5 19.5t96.5 59.5t54.5 72.5t38.5 86.5q4 10 6 16l-358 1049h137l279 -887h6l270 887h139l-377 -1108q-35 -102 -85 -167t-113.5 -93.5t-114.5 -37t-123 -8.5z" glyph-name="y" horiz-adv-x="888" unicode="y"/><glyph d="M854 1049v-111l-647 -821h639v-117h-793v98l649 836h-624v115h776z" glyph-name="z" horiz-adv-x="901" unicode="z"/><glyph d="M500 -274q-98 0 -167 68.5t-69 164.5v485q0 47 -9 76t-29.5 41t-36 15.5t-46.5 3.5v100q31 0 48.5 3t36 15.5t27.5 41t9 75.5v488q0 98 68.5 166.5t167.5 68.5h59v-125h-59q-49 0 -82 -31.5t-33 -78.5v-476q0 -86 -13.5 -128t-64.5 -70q51 -25 64.5 -68t13.5 -131v-471 q0 -47 33 -79t82 -32h59v-122h-59z" glyph-name="braceleft" horiz-adv-x="641" unicode="{"/><glyph d="M205 -156v1690h92v-1690h-92z" glyph-name="bar" horiz-adv-x="501" unicode="|"/><glyph d="M141 -274h-59v122h59q49 0 82 32t33 79v471q0 88 13.5 131t64.5 68q-51 29 -64.5 70.5t-13.5 127.5v476q0 47 -33 78.5t-82 31.5h-59v125h59q98 0 167 -68.5t69 -166.5v-488q0 -88 29.5 -111.5t91.5 -23.5v-100q-31 0 -46.5 -3.5t-36 -15.5t-29.5 -40.5t-9 -76.5v-485 q0 -96 -69 -164.5t-167 -68.5z" glyph-name="braceright" horiz-adv-x="645" unicode="}"/><glyph d="M618 379q-55 0 -104 26.5t-78.5 59.5t-70.5 59.5t-80 26.5q-96 0 -92 -145h-101q0 111 49 178t142 67q66 0 119 -26.5t81.5 -57t66.5 -57.5t75 -27q57 0 79.5 41t22.5 121h109q0 -127 -58 -196.5t-160 -69.5z" glyph-name="asciitilde" horiz-adv-x="927" unicode="~"/><glyph d="M170 872v177h178v-177h-178zM182 -387l29 1065h96l29 -1065h-154z" glyph-name="exclamdown" horiz-adv-x="518" unicode="¡"/><glyph d="M549 92q106 0 184 55.5t105 141.5l108 -41q-41 -117 -133 -187.5t-217 -80.5v-185h-92v185q-199 18 -306.5 171.5t-107.5 370.5q0 219 107.5 373t306.5 172v133h92v-133q125 -10 217 -79.5t133 -184.5l-112 -47q-27 92 -104 146t-181 54q-88 0 -154.5 -39.5 t-103.5 -105.5t-54.5 -138.5t-17.5 -150.5t17.5 -150.5t54.5 -137t103.5 -103.5t154.5 -39z" glyph-name="cent" horiz-adv-x="1007" unicode="¢"/><glyph d="M383 571v-448h750v-123h-881v571h-164v117h164v279q0 205 127 336t328 131q141 0 263 -89.5t163 -226.5l-127 -55q-20 102 -107.5 169.5t-191.5 67.5q-145 0 -234.5 -91t-89.5 -242v-279h381v-117h-381z" glyph-name="sterling" horiz-adv-x="1232" unicode="£"/><glyph d="M195 236l-72 75l100 101q-94 115 -94 268.5t94 267.5l-100 101l72 75l100 -104q121 96 270.5 96t270.5 -96l100 104l72 -75l-101 -101q94 -115 94 -268.5t-94 -267.5l101 -101l-72 -75l-100 104q-121 -96 -270.5 -96t-270.5 96zM565 348q137 0 236 98q96 96 96 233.5 t-96 233.5q-98 98 -235.5 98.5t-235.5 -98.5q-96 -96 -96.5 -233t96.5 -234q98 -98 235 -98z" glyph-name="currency" horiz-adv-x="1130" unicode="¤"/><glyph d="M514 18v170h-303v101h303v252h-303v96h274l-475 776h123l442 -711l441 711h123l-477 -774h274v-98h-301v-252h301v-101h-301v-170h-121z" glyph-name="yen" horiz-adv-x="1148" unicode="¥"/><glyph d="M201 758v655h94v-655h-94zM201 -156v643h94v-643h-94z" glyph-name="brokenbar" horiz-adv-x="495" unicode="¦"/><glyph d="M565 -18q-154 0 -262 72.5t-151 215.5l137 43q57 -190 276 -190q233 0 234 164q0 53 -44 84.5t-110.5 44t-144.5 32t-144.5 43t-110.5 85t-44 153.5q0 127 100 213q-98 70 -98 195q0 137 104.5 217t245.5 80q135 0 234.5 -70t136.5 -197l-140 -37q-47 162 -233 162 q-86 0 -146.5 -42t-60.5 -124q0 -59 61.5 -88.5t149.5 -45t176 -39t149.5 -90t61.5 -177.5q0 -129 -94 -211q94 -70 94 -196q0 -150 -110.5 -223.5t-266.5 -73.5zM692 537q106 45 107 159q0 43 -22.5 75t-70 52.5t-82 30.5t-95 21.5t-74.5 15.5q-111 -45 -111 -162 q0 -41 24.5 -71.5t70.5 -50t85 -31t94.5 -23.5t73.5 -16z" glyph-name="section" horiz-adv-x="1093" unicode="§"/><glyph d="M45 1174v190h152v-190h-152zM354 1174v190h152v-190h-152z" glyph-name="dieresis" horiz-adv-x="550" unicode="¨"/><glyph d="M836 -49q-305 0 -523.5 221t-218.5 534.5t218 534.5t524 221q307 0 526 -221t219 -534.5t-219 -534.5t-526 -221zM836 51q264 0 453.5 194.5t189.5 461t-189.5 461t-453.5 194.5q-260 0 -450.5 -194.5t-190.5 -461t190.5 -461t450.5 -194.5zM848 240q-188 0 -292.5 136 t-104.5 335q0 201 103 337t292 136q125 0 215 -60.5t129 -169.5l-96 -41q-23 80 -90.5 126t-157.5 46q-98 0 -166 -60t-93.5 -141t-25.5 -173.5t25.5 -172t93.5 -139t166 -59.5q94 0 160.5 48t89.5 122l94 -35q-39 -111 -129 -173t-213 -62z" glyph-name="copyright" horiz-adv-x="1675" unicode="©"/><glyph d="M369 1434q121 0 194.5 -55.5t73.5 -157.5v-519h-84v123q-125 -139 -260 -139q-96 0 -160.5 57.5t-64.5 151.5q0 125 125 186q86 43 360 113v14q0 76 -43 109t-129 33q-160 0 -229 -111l-70 47q97 148 287 148zM309 766q119 0 244 147v203q-225 -57 -313 -104 q-78 -43 -78 -117q0 -59 43 -94t104 -35z" glyph-name="ordfeminine" horiz-adv-x="700" unicode="ª"/><glyph d="M508 190l-354 322l354 317v-147l-197 -170l197 -172v-150zM870 190l-354 322l354 317v-147l-196 -170l196 -172v-150z" glyph-name="guillemotleft" horiz-adv-x="1028" unicode="«"/><glyph d="M895 250v432h-745v115h860v-547h-115z" glyph-name="logicalnot" horiz-adv-x="1159" unicode="¬"/><glyph d="M629 352q-219 0 -374 158t-155 383t155 383t374 158t374.5 -159t155.5 -382t-155.5 -382t-374.5 -159zM628.5 430q186.5 0 322.5 137.5t136 325.5t-136 326.5t-322.5 138.5t-321.5 -138.5t-135 -326.5t135 -325.5t321.5 -137.5zM451 606v563h217q193 0 192 -161 q0 -129 -117 -158l144 -244h-109l-127 236h-106v-236h-94zM537 922h131q106 0 106 86t-106 86h-131v-172z" glyph-name="registered" horiz-adv-x="1259" unicode="®"/><glyph d="M66 1192v96h528v-96h-528z" glyph-name="macron" horiz-adv-x="661" unicode="¯"/><glyph d="M373 850q-121 0 -206 85t-85 208q0 121 85 206t206 85t207 -85t86 -206q0 -123 -86 -208t-207 -85zM373 950q80 0 136 56.5t56 136.5t-57 136t-135 56t-134.5 -56t-56.5 -136q0 -82 56.5 -137.5t134.5 -55.5z" glyph-name="degree" horiz-adv-x="747" unicode="°"/><glyph d="M606 203v471h-456v94h456v471h96v-471h457v-94h-457v-471h-96zM152 0v96h1007v-96h-1007z" glyph-name="plusminus" horiz-adv-x="1308" unicode="±"/><glyph d="M20 1124l218 240h186l-295 -240h-109z" glyph-name="acute" horiz-adv-x="409" unicode="´"/><glyph d="M168 -266v1265h139v-598q0 -301 213 -301q127 0 217 97.5t90 228.5v573h140v-999h-140v186q-31 -78 -121 -143.5t-202 -65.5q-111 0 -195 58l-22 -301h-119z" glyph-name="uni00B5" horiz-adv-x="1157" unicode="µ"/><glyph d="M535 -287v910q-184 0 -318.5 107.5t-134.5 287.5t134 287.5t319 107.5h108v-1700h-108zM823 -287v1700h111v-1700h-111z" glyph-name="paragraph" horiz-adv-x="1112" unicode="¶"/><glyph d="M242 709q-47 0 -82 35.5t-35 86.5q0 49 34 83t83 34q51 0 87 -33.5t36 -83.5q0 -51 -36 -86.5t-87 -35.5z" glyph-name="periodcentered" horiz-adv-x="489" unicode="·"/><glyph d="M201 -500q-129 0 -178 121l77 43q6 -33 33 -55.5t66 -22.5q43 0 67.5 26t24.5 60q0 84 -96 115l-111 37l92 176h92l-75 -133l49 -17q141 -49 141 -172q0 -86 -54 -132t-128 -46z" glyph-name="cedilla" horiz-adv-x="389" unicode="¸"/><glyph d="M387 696q-147 0 -236.5 95.5t-89.5 269.5q0 178 89.5 274.5t236.5 96.5q145 0 236.5 -97.5t91.5 -273.5q0 -172 -91.5 -268.5t-236.5 -96.5zM389 776q113 0 178.5 73t65.5 212q0 143 -65.5 218t-178.5 75q-115 0 -179.5 -74t-64.5 -219q0 -139 64.5 -212t179.5 -73z" glyph-name="ordmasculine" horiz-adv-x="776" unicode="º"/><glyph d="M154 190v150l196 172l-196 170v147l354 -317zM516 190v150l197 172l-197 170v147l354 -317z" glyph-name="guillemotright" horiz-adv-x="1028" unicode="»"/><glyph d="M567 1049v-177h-178v177h178zM541 682v-248q0 -78 -35 -128t-84 -76.5t-97.5 -53t-83 -79t-34.5 -132.5q0 -115 76.5 -175t195.5 -60q111 0 193 64.5t84 174.5h127q-2 -160 -118 -257t-278 -97q-176 0 -290.5 93t-114.5 261q0 92 35 154.5t85 94.5t100 58.5t85 65.5 t35 94v246h119z" glyph-name="questiondown" horiz-adv-x="882" unicode="¿"/><glyph d="M639 1536h-129l-274 242h188zM987 0l-100 322h-631l-100 -322h-144l467 1413h189l465 -1413h-146zM293 436h557l-277 883h-4z" glyph-name="Agrave" horiz-adv-x="1140" unicode="À"/><glyph d="M924 1778l-295 -240h-109l217 240h187zM987 0l-100 322h-631l-100 -322h-144l467 1413h189l465 -1413h-146zM293 436h557l-277 883h-4z" glyph-name="Aacute" horiz-adv-x="1140" unicode="Á"/><glyph d="M575 1669l-151 -162h-119l258 271h23l260 -271h-117zM987 0l-100 322h-631l-100 -322h-144l467 1413h189l465 -1413h-146zM293 436h557l-277 883h-4z" glyph-name="Acircumflex" horiz-adv-x="1140" unicode="Â"/><glyph d="M727 1536q-70 0 -125 39t-101 77t-91 38q-53 0 -78 -40t-23 -96h-82q0 223 181 224q57 0 105 -24.5t76.5 -55.5t65.5 -55.5t74 -24.5q102 0 102 160h91q0 -117 -52.5 -179.5t-142.5 -62.5zM987 0l-100 322h-631l-100 -322h-144l467 1413h189l465 -1413h-146zM293 436h557 l-277 883h-4z" glyph-name="Atilde" horiz-adv-x="1140" unicode="Ã"/><glyph d="M496 1778v-191h-152v191h152zM805 1778v-191h-152v191h152zM987 0l-100 322h-631l-100 -322h-144l467 1413h189l465 -1413h-146zM293 436h557l-277 883h-4z" glyph-name="Adieresis" horiz-adv-x="1140" unicode="Ä"/><glyph d="M684 1366l449 -1366h-146l-100 322h-631l-100 -322h-144l451 1366q-82 57 -82 160q0 80 56.5 135t136 55t136 -55t56.5 -135q0 -103 -82 -160zM573 1634q-49 0 -78.5 -29.5t-29.5 -80.5q0 -49 30.5 -79t77.5 -30q45 0 78 32t33 77q0 47 -32 78.5t-79 31.5zM293 436h557 l-277 883h-4z" glyph-name="Aring" horiz-adv-x="1140" unicode="Å"/><glyph d="M1647 1294h-748v-528h662v-119h-662v-520h748v-127h-889v311h-473l-113 -311h-160l525 1413h1110v-119zM332 442h426v840h-123z" glyph-name="AE" horiz-adv-x="1757" unicode="Æ"/><glyph d="M739 109q147 0 265 80.5t172 213.5l110 -51q-49 -147 -180 -246.5t-293 -121.5l-68 -117l50 -17q141 -49 141 -172q0 -86 -54.5 -132t-127.5 -46q-129 0 -179 121l78 43q6 -33 33 -55.5t66 -22.5q43 0 67.5 26t24.5 60q0 84 -96 115l-111 37l82 156q-281 6 -453 199.5 t-172 527.5q0 342 177.5 535.5t463.5 193.5q184 0 339 -103.5t212 -267.5l-110 -53q-49 135 -164 215t-279 80q-231 0 -368.5 -161t-137.5 -429q0 -276 139.5 -442t372.5 -166z" glyph-name="Ccedilla" horiz-adv-x="1347" unicode="Ç"/><glyph d="M596 1536l-274 242h188l215 -242h-129zM205 0v1413h909v-123h-774v-522h676v-123h-676v-522h774v-123h-909z" glyph-name="Egrave" horiz-adv-x="1224" unicode="È"/><glyph d="M606 1538l217 240h187l-295 -240h-109zM205 0v1413h909v-123h-774v-522h676v-123h-676v-522h774v-123h-909z" glyph-name="Eacute" horiz-adv-x="1224" unicode="É"/><glyph d="M391 1507l258 271h23l260 -271h-117l-153 162l-152 -162h-119zM205 0v1413h909v-123h-774v-522h676v-123h-676v-522h774v-123h-909z" glyph-name="Ecircumflex" horiz-adv-x="1224" unicode="Ê"/><glyph d="M430 1587v191h152v-191h-152zM739 1587v191h152v-191h-152zM205 0v1413h909v-123h-774v-522h676v-123h-676v-522h774v-123h-909z" glyph-name="Edieresis" horiz-adv-x="1224" unicode="Ë"/><glyph d="M209 1536l-275 242h189l215 -242h-129zM205 0v1413h135v-1413h-135z" glyph-name="Igrave" horiz-adv-x="544" unicode="Ì"/><glyph d="M219 1538l217 240h187l-295 -240h-109zM205 0v1413h135v-1413h-135z" glyph-name="Iacute" horiz-adv-x="544" unicode="Í"/><glyph d="M4 1507l258 271h23l260 -271h-117l-154 162l-151 -162h-119zM205 0v1413h135v-1413h-135z" glyph-name="Icircumflex" horiz-adv-x="544" unicode="Î"/><glyph d="M43 1587v191h152v-191h-152zM352 1587v191h152v-191h-152zM205 0v1413h135v-1413h-135z" glyph-name="Idieresis" horiz-adv-x="544" unicode="Ï"/><glyph d="M528 1413q340 0 522.5 -184.5t182.5 -534.5q0 -334 -185.5 -514t-521.5 -180h-350v657h-149v111h149v645h352zM502 127q299 0 445.5 142.5t146.5 437t-141.5 438t-428.5 143.5h-213v-520h375v-111h-375v-530h191z" glyph-name="Eth" horiz-adv-x="1327" unicode="Ð"/><glyph d="M893 1536q-70 0 -125 39t-101 77t-92 38q-53 0 -77.5 -40t-22.5 -96h-82q0 223 180 224q57 0 105.5 -24.5t77 -55.5t65.5 -55.5t74 -24.5q102 0 102 160h90q0 -117 -52 -179.5t-142 -62.5zM205 0v1413h211l712 -1272h11v1272h135v-1413h-215l-713 1286h-6v-1286h-135z " glyph-name="Ntilde" horiz-adv-x="1478" unicode="Ñ"/><glyph d="M662 1536l-275 242h188l216 -242h-129zM727 -20q-291 0 -462 196.5t-171 530t171 530.5t462 197q287 0 458 -197t171 -530.5t-171 -530t-458 -196.5zM727 106q229 0 364.5 163t135.5 437.5t-135.5 437.5t-364.5 163q-231 0 -367.5 -163t-136.5 -437.5t136.5 -437.5 t367.5 -163z" glyph-name="Ograve" horiz-adv-x="1449" unicode="Ò"/><glyph d="M672 1538l217 240h186l-295 -240h-108zM727 -20q-291 0 -462 196.5t-171 530t171 530.5t462 197q287 0 458 -197t171 -530.5t-171 -530t-458 -196.5zM727 106q229 0 364.5 163t135.5 437.5t-135.5 437.5t-364.5 163q-231 0 -367.5 -163t-136.5 -437.5t136.5 -437.5 t367.5 -163z" glyph-name="Oacute" horiz-adv-x="1449" unicode="Ó"/><glyph d="M457 1507l258 271h22l260 -271h-116l-154 162l-152 -162h-118zM727 -20q-291 0 -462 196.5t-171 530t171 530.5t462 197q287 0 458 -197t171 -530.5t-171 -530t-458 -196.5zM727 106q229 0 364.5 163t135.5 437.5t-135.5 437.5t-364.5 163q-231 0 -367.5 -163 t-136.5 -437.5t136.5 -437.5t367.5 -163z" glyph-name="Ocircumflex" horiz-adv-x="1449" unicode="Ô"/><glyph d="M879 1536q-70 0 -125.5 39t-101.5 77t-91 38q-53 0 -77.5 -40t-22.5 -96h-82q0 223 180 224q57 0 105.5 -24.5t77 -55.5t65.5 -55.5t74 -24.5q102 0 102 160h90q0 -117 -52 -179.5t-142 -62.5zM727 -20q-291 0 -462 196.5t-171 530t171 530.5t462 197q287 0 458 -197 t171 -530.5t-171 -530t-458 -196.5zM727 106q229 0 364.5 163t135.5 437.5t-135.5 437.5t-364.5 163q-231 0 -367.5 -163t-136.5 -437.5t136.5 -437.5t367.5 -163z" glyph-name="Otilde" horiz-adv-x="1449" unicode="Õ"/><glyph d="M496 1587v191h151v-191h-151zM805 1587v191h151v-191h-151zM727 -20q-291 0 -462 196.5t-171 530t171 530.5t462 197q287 0 458 -197t171 -530.5t-171 -530t-458 -196.5zM727 106q229 0 364.5 163t135.5 437.5t-135.5 437.5t-364.5 163q-231 0 -367.5 -163t-136.5 -437.5 t136.5 -437.5t367.5 -163z" glyph-name="Odieresis" horiz-adv-x="1449" unicode="Ö"/><glyph d="M930 100l-326 324l-315 -315l-84 84l315 315l-323 326l86 84l323 -324l316 313l84 -84l-316 -313l324 -326z" glyph-name="multiply" horiz-adv-x="1210" unicode="×"/><glyph d="M1368 1270l-121 -121q109 -182 109 -442q0 -334 -171 -530.5t-458 -196.5t-457 192l-106 -106l-80 77l119 119q-109 184 -109 445q0 334 171 530.5t462 196.5q285 0 455 -193l104 105zM223 707q0 -203 76 -349l788 789q-135 160 -360 160q-231 0 -367.5 -163t-136.5 -437 zM1227 707q0 201 -76 346l-789 -789q139 -158 365 -158q229 0 364.5 163.5t135.5 437.5z" glyph-name="Oslash" horiz-adv-x="1449" unicode="Ø"/><glyph d="M596 1536l-274 242h188l215 -242h-129zM664 -20q-223 0 -353.5 135t-130.5 372v926h135v-932q0 -176 93.5 -277.5t255.5 -101.5q160 0 252 101.5t92 277.5v932h135v-915q0 -242 -129 -380t-350 -138z" glyph-name="Ugrave" horiz-adv-x="1323" unicode="Ù"/><glyph d="M606 1538l217 240h187l-295 -240h-109zM664 -20q-223 0 -353.5 135t-130.5 372v926h135v-932q0 -176 93.5 -277.5t255.5 -101.5q160 0 252 101.5t92 277.5v932h135v-915q0 -242 -129 -380t-350 -138z" glyph-name="Uacute" horiz-adv-x="1323" unicode="Ú"/><glyph d="M391 1507l258 271h23l260 -271h-117l-153 162l-152 -162h-119zM664 -20q-223 0 -353.5 135t-130.5 372v926h135v-932q0 -176 93.5 -277.5t255.5 -101.5q160 0 252 101.5t92 277.5v932h135v-915q0 -242 -129 -380t-350 -138z" glyph-name="Ucircumflex" horiz-adv-x="1323" unicode="Û"/><glyph d="M430 1587v191h152v-191h-152zM739 1587v191h152v-191h-152zM664 -20q-223 0 -353.5 135t-130.5 372v926h135v-932q0 -176 93.5 -277.5t255.5 -101.5q160 0 252 101.5t92 277.5v932h135v-915q0 -242 -129 -380t-350 -138z" glyph-name="Udieresis" horiz-adv-x="1323" unicode="Ü"/><glyph d="M608 1538l217 240h187l-295 -240h-109zM592 0v553l-582 860h162l485 -739l496 739h162l-586 -860v-553h-137z" glyph-name="Yacute" horiz-adv-x="1325" unicode="Ý"/><glyph d="M205 0v1413h143v-215h314q213 0 335.5 -101.5t122.5 -275.5q0 -180 -121.5 -279.5t-336.5 -99.5h-314v-442h-143zM348 569h314q154 0 234.5 62.5t80.5 185.5q0 121 -82 187.5t-233 66.5h-314v-502z" glyph-name="Thorn" horiz-adv-x="1181" unicode="Þ"/><glyph d="M705 -18q-82 0 -203 38v136q111 -51 200 -52q84 0 140.5 53.5t56.5 145.5q0 68 -48 125t-105.5 93t-105.5 102.5t-48 152.5q0 59 35 108.5t76.5 79t76.5 74.5t35 97q0 86 -66.5 137t-173.5 51q-127 0 -197.5 -69.5t-70.5 -184.5v-1069h-135v1073q0 164 110.5 262.5 t272.5 98.5t278.5 -82t116.5 -217q0 -61 -35.5 -115.5t-79.5 -87.5t-80 -76t-36 -84q0 -47 32.5 -89t79 -77t92.5 -73.5t78.5 -98t32.5 -135.5q0 -139 -94 -228t-235 -89z" glyph-name="germandbls" horiz-adv-x="1118" unicode="ß"/><glyph d="M608 1171h-129l-274 242h188zM541 1069q176 0 284.5 -81t108.5 -230v-758h-123v178q-184 -201 -381 -201q-143 0 -237.5 84t-94.5 222q0 182 183 272q119 59 530 166v18q0 113 -63.5 161t-190.5 48q-229 0 -336 -162l-102 70q143 213 422 213zM453 92q172 0 358 217v297 q-352 -92 -461 -153q-115 -66 -114 -170q0 -88 63.5 -139.5t153.5 -51.5z" glyph-name="agrave" horiz-adv-x="1067" unicode="à"/><glyph d="M893 1413l-295 -239h-109l218 239h186zM541 1069q176 0 284.5 -81t108.5 -230v-758h-123v178q-184 -201 -381 -201q-143 0 -237.5 84t-94.5 222q0 182 183 272q119 59 530 166v18q0 113 -63.5 161t-190.5 48q-229 0 -336 -162l-102 70q143 213 422 213zM453 92 q172 0 358 217v297q-352 -92 -461 -153q-115 -66 -114 -170q0 -88 63.5 -139.5t153.5 -51.5z" glyph-name="aacute" horiz-adv-x="1067" unicode="á"/><glyph d="M545 1305l-152 -162h-119l258 270h23l260 -270h-117zM541 1069q176 0 284.5 -81t108.5 -230v-758h-123v178q-184 -201 -381 -201q-143 0 -237.5 84t-94.5 222q0 182 183 272q119 59 530 166v18q0 113 -63.5 161t-190.5 48q-229 0 -336 -162l-102 70q143 213 422 213z M453 92q172 0 358 217v297q-352 -92 -461 -153q-115 -66 -114 -170q0 -88 63.5 -139.5t153.5 -51.5z" glyph-name="acircumflex" horiz-adv-x="1067" unicode="â"/><glyph d="M696 1171q-70 0 -125 39t-101 77t-91 38q-53 0 -78 -40t-22 -95h-82q0 223 180 223q57 0 105 -24.5t77 -55t66 -55.5t73 -25q102 0 103 160h90q0 -117 -52.5 -179.5t-142.5 -62.5zM541 1069q176 0 284.5 -81t108.5 -230v-758h-123v178q-184 -201 -381 -201 q-143 0 -237.5 84t-94.5 222q0 182 183 272q119 59 530 166v18q0 113 -63.5 161t-190.5 48q-229 0 -336 -162l-102 70q143 213 422 213zM453 92q172 0 358 217v297q-352 -92 -461 -153q-115 -66 -114 -170q0 -88 63.5 -139.5t153.5 -51.5z" glyph-name="atilde" horiz-adv-x="1067" unicode="ã"/><glyph d="M465 1413v-190h-152v190h152zM774 1413v-190h-151v190h151zM541 1069q176 0 284.5 -81t108.5 -230v-758h-123v178q-184 -201 -381 -201q-143 0 -237.5 84t-94.5 222q0 182 183 272q119 59 530 166v18q0 113 -63.5 161t-190.5 48q-229 0 -336 -162l-102 70 q143 213 422 213zM453 92q172 0 358 217v297q-352 -92 -461 -153q-115 -66 -114 -170q0 -88 63.5 -139.5t153.5 -51.5z" glyph-name="adieresis" horiz-adv-x="1067" unicode="ä"/><glyph d="M543 1124q-82 0 -137.5 56.5t-55.5 138.5q0 80 56.5 135t136.5 55t136 -55t56 -135t-56 -137.5t-136 -57.5zM543 1208q45 0 77.5 32t32.5 77q0 47 -31.5 78.5t-78.5 31.5q-49 0 -79 -29.5t-30 -80.5q0 -49 31 -79t78 -30zM541 1069q176 0 284.5 -81t108.5 -230v-758h-123 v178q-184 -201 -381 -201q-143 0 -237.5 84t-94.5 222q0 182 183 272q119 59 530 166v18q0 113 -63.5 161t-190.5 48q-229 0 -336 -162l-102 70q143 213 422 213zM453 92q172 0 358 217v297q-352 -92 -461 -153q-115 -66 -114 -170q0 -88 63.5 -139.5t153.5 -51.5z" glyph-name="aring" horiz-adv-x="1067" unicode="å"/><glyph d="M1737 535q0 -45 -2 -64h-795q14 -162 105.5 -267.5t273.5 -105.5q178 0 305 103l70 -86q-160 -135 -373 -135q-332 0 -457 266q-61 -129 -173.5 -199t-246.5 -70q-158 0 -252 83t-94 223q0 182 183 272q160 76 530 127v57q0 209 -250 209q-219 0 -330 -160l-104 70 q154 209 430 209q121 0 215 -47t135 -135q123 184 381 184q131 0 224.5 -49t139.5 -132t65.5 -169t19.5 -184zM1282 950q-176 0 -258 -105.5t-88 -262.5h680q-8 174 -92 271t-242 97zM461 102q133 0 239.5 86t110.5 281q-2 20 -2 57q0 29 2 43q-340 -51 -461 -116 q-115 -61 -114 -174q0 -84 62.5 -130.5t162.5 -46.5z" glyph-name="ae" horiz-adv-x="1826" unicode="æ"/><glyph d="M549 92q106 0 184 55.5t105 141.5l108 -41q-80 -225 -317 -264l-66 -117l49 -17q141 -49 142 -172q0 -86 -54.5 -132t-128.5 -46q-129 0 -178 121l78 43q6 -33 32.5 -55.5t65.5 -22.5q43 0 68 26t25 60q0 84 -97 115l-110 37l80 153q-213 6 -329 163t-116 382 q0 233 120 390t339 157q143 0 247.5 -70.5t149.5 -195.5l-112 -47q-27 92 -104 146t-181 54q-88 0 -154.5 -39.5t-103.5 -105.5t-54.5 -138.5t-17.5 -150.5t17.5 -150.5t54.5 -137t103.5 -103.5t154.5 -39z" glyph-name="ccedilla" horiz-adv-x="1007" unicode="ç"/><glyph d="M629 1171h-129l-275 242h189zM1018 535q0 -45 -2 -64h-795q14 -162 105.5 -267.5t273.5 -105.5q178 0 305 103l70 -86q-160 -135 -373 -135q-135 0 -237.5 46t-161 124.5t-86 173t-27.5 202.5q0 104 25.5 196.5t80 172.5t149.5 127t224 47q131 0 224.5 -49t139.5 -132 t65.5 -169t19.5 -184zM563 950q-176 0 -258 -105.5t-88 -262.5h680q-8 174 -92 271t-242 97z" glyph-name="egrave" horiz-adv-x="1107" unicode="è"/><glyph d="M913 1413l-295 -239h-108l217 239h186zM1018 535q0 -45 -2 -64h-795q14 -162 105.5 -267.5t273.5 -105.5q178 0 305 103l70 -86q-160 -135 -373 -135q-135 0 -237.5 46t-161 124.5t-86 173t-27.5 202.5q0 104 25.5 196.5t80 172.5t149.5 127t224 47q131 0 224.5 -49 t139.5 -132t65.5 -169t19.5 -184zM563 950q-176 0 -258 -105.5t-88 -262.5h680q-8 174 -92 271t-242 97z" glyph-name="eacute" horiz-adv-x="1107" unicode="é"/><glyph d="M565 1305l-151 -162h-119l258 270h22l261 -270h-117zM1018 535q0 -45 -2 -64h-795q14 -162 105.5 -267.5t273.5 -105.5q178 0 305 103l70 -86q-160 -135 -373 -135q-135 0 -237.5 46t-161 124.5t-86 173t-27.5 202.5q0 104 25.5 196.5t80 172.5t149.5 127t224 47 q131 0 224.5 -49t139.5 -132t65.5 -169t19.5 -184zM563 950q-176 0 -258 -105.5t-88 -262.5h680q-8 174 -92 271t-242 97z" glyph-name="ecircumflex" horiz-adv-x="1107" unicode="ê"/><glyph d="M485 1413v-190h-151v190h151zM795 1413v-190h-152v190h152zM1018 535q0 -45 -2 -64h-795q14 -162 105.5 -267.5t273.5 -105.5q178 0 305 103l70 -86q-160 -135 -373 -135q-135 0 -237.5 46t-161 124.5t-86 173t-27.5 202.5q0 104 25.5 196.5t80 172.5t149.5 127t224 47 q131 0 224.5 -49t139.5 -132t65.5 -169t19.5 -184zM563 950q-176 0 -258 -105.5t-88 -262.5h680q-8 174 -92 271t-242 97z" glyph-name="edieresis" horiz-adv-x="1107" unicode="ë"/><glyph d="M174 1171l-274 242h188l215 -242h-129zM178 0v1049h125v-1049h-125z" glyph-name="igrave" horiz-adv-x="481" unicode="ì"/><glyph d="M184 1174l217 239h187l-295 -239h-109zM178 0v1049h125v-1049h-125z" glyph-name="iacute" horiz-adv-x="481" unicode="í"/><glyph d="M-31 1143l258 270h23l260 -270h-117l-153 162l-152 -162h-119zM178 0v1049h125v-1049h-125z" glyph-name="icircumflex" horiz-adv-x="481" unicode="î"/><glyph d="M8 1223v190h152v-190h-152zM317 1223v190h152v-190h-152zM178 0v1049h125v-1049h-125z" glyph-name="idieresis" horiz-adv-x="481" unicode="ï"/><glyph d="M600 1399q240 -135 333 -339t93 -544q0 -221 -126 -376.5t-341 -155.5t-343 155.5t-128 376.5t128 377t343 156q82 0 161 -36t109 -85q-23 127 -97.5 213t-199.5 155l-92 -143l-69 43l92 137q-92 45 -174 80l51 103q104 -37 190 -80l82 123l66 -39zM559 109 q166 0 251 118.5t85 288.5q0 172 -86 290t-250 118q-166 0 -252 -119t-86 -289t86 -288.5t252 -118.5z" glyph-name="eth" horiz-adv-x="1118" unicode="ð"/><glyph d="M709 1176q-70 0 -125.5 38.5t-101.5 76.5t-91 38q-53 0 -77.5 -40t-22.5 -95h-82q0 223 180 223q57 0 105.5 -24.5t77 -55t65.5 -55.5t74 -25q102 0 102 160h90q0 -117 -52 -179t-142 -62zM190 0v1049h129v-162h9q106 182 301 182q162 0 255 -105.5t93 -283.5v-680h-127 v668q0 281 -223 280q-135 0 -222.5 -92t-87.5 -240v-616h-127z" glyph-name="ntilde" unicode="ñ"/><glyph d="M508 1171l-275 242h189l215 -242h-129zM573 -23q-219 0 -351 142.5t-132 400.5q0 262 132 405.5t351 143.5q217 0 351.5 -144.5t134.5 -404.5q0 -256 -134.5 -399.5t-351.5 -143.5zM575 96q170 0 266.5 107.5t96.5 316.5q0 213 -96.5 322.5t-266.5 109.5 q-168 0 -264 -109.5t-96 -322.5q0 -209 96 -316.5t264 -107.5z" glyph-name="ograve" horiz-adv-x="1148" unicode="ò"/><glyph d="M518 1174l217 239h187l-295 -239h-109zM573 -23q-219 0 -351 142.5t-132 400.5q0 262 132 405.5t351 143.5q217 0 351.5 -144.5t134.5 -404.5q0 -256 -134.5 -399.5t-351.5 -143.5zM575 96q170 0 266.5 107.5t96.5 316.5q0 213 -96.5 322.5t-266.5 109.5 q-168 0 -264 -109.5t-96 -322.5q0 -209 96 -316.5t264 -107.5z" glyph-name="oacute" horiz-adv-x="1148" unicode="ó"/><glyph d="M303 1143l258 270h23l260 -270h-117l-154 162l-151 -162h-119zM573 -23q-219 0 -351 142.5t-132 400.5q0 262 132 405.5t351 143.5q217 0 351.5 -144.5t134.5 -404.5q0 -256 -134.5 -399.5t-351.5 -143.5zM575 96q170 0 266.5 107.5t96.5 316.5q0 213 -96.5 322.5 t-266.5 109.5q-168 0 -264 -109.5t-96 -322.5q0 -209 96 -316.5t264 -107.5z" glyph-name="ocircumflex" horiz-adv-x="1148" unicode="ô"/><glyph d="M725 1171q-70 0 -125 39t-101 77t-91 38q-53 0 -78 -40t-23 -95h-82q0 223 181 223q57 0 105 -24.5t76.5 -55t65.5 -55.5t74 -25q102 0 102 160h91q0 -117 -52.5 -179.5t-142.5 -62.5zM573 -23q-219 0 -351 142.5t-132 400.5q0 262 132 405.5t351 143.5 q217 0 351.5 -144.5t134.5 -404.5q0 -256 -134.5 -399.5t-351.5 -143.5zM575 96q170 0 266.5 107.5t96.5 316.5q0 213 -96.5 322.5t-266.5 109.5q-168 0 -264 -109.5t-96 -322.5q0 -209 96 -316.5t264 -107.5z" glyph-name="otilde" horiz-adv-x="1148" unicode="õ"/><glyph d="M342 1223v190h152v-190h-152zM651 1223v190h152v-190h-152zM573 -23q-219 0 -351 142.5t-132 400.5q0 262 132 405.5t351 143.5q217 0 351.5 -144.5t134.5 -404.5q0 -256 -134.5 -399.5t-351.5 -143.5zM575 96q170 0 266.5 107.5t96.5 316.5q0 213 -96.5 322.5 t-266.5 109.5q-168 0 -264 -109.5t-96 -322.5q0 -209 96 -316.5t264 -107.5z" glyph-name="odieresis" horiz-adv-x="1148" unicode="ö"/><glyph d="M475 807v184h193v-184h-193zM197 457v121h751v-121h-751zM475 27v186h193v-186h-193z" glyph-name="divide" horiz-adv-x="1144" unicode="÷"/><glyph d="M971 866q88 -139 88 -346q0 -256 -134 -399.5t-352 -143.5q-223 0 -350 144l-47 -47l-55 53l55 55q-86 133 -86 338q0 262 132 405.5t351 143.5q217 0 349 -141l45 45l57 -53zM215 520q0 -150 51 -248l574 574q-94 106 -265 106q-168 0 -264 -109.5t-96 -322.5zM575.5 96 q169.5 0 266 107.5t96.5 316.5q0 158 -53 260l-576 -573q97 -111 266.5 -111z" glyph-name="oslash" horiz-adv-x="1148" unicode="ø"/><glyph d="M483 1171l-274 242h188l215 -242h-129zM942 1049v-1049h-129v162h-16q-102 -176 -293 -176q-162 0 -255 102t-93 283v678h127v-668q0 -270 223 -270q135 0 222 90t87 231v617h127z" glyph-name="ugrave" unicode="ù"/><glyph d="M494 1174l217 239h186l-295 -239h-108zM942 1049v-1049h-129v162h-16q-102 -176 -293 -176q-162 0 -255 102t-93 283v678h127v-668q0 -270 223 -270q135 0 222 90t87 231v617h127z" glyph-name="uacute" unicode="ú"/><glyph d="M279 1143l258 270h22l260 -270h-117l-153 162l-152 -162h-118zM942 1049v-1049h-129v162h-16q-102 -176 -293 -176q-162 0 -255 102t-93 283v678h127v-668q0 -270 223 -270q135 0 222 90t87 231v617h127z" glyph-name="ucircumflex" unicode="û"/><glyph d="M317 1223v190h152v-190h-152zM627 1223v190h151v-190h-151zM942 1049v-1049h-129v162h-16q-102 -176 -293 -176q-162 0 -255 102t-93 283v678h127v-668q0 -270 223 -270q135 0 222 90t87 231v617h127z" glyph-name="udieresis" unicode="ü"/><glyph d="M391 1174l217 239h187l-295 -239h-109zM53 -365v111q84 0 144.5 19.5t96.5 59.5t54.5 72.5t38.5 86.5q4 10 6 16l-358 1049h137l279 -887h6l270 887h139l-377 -1108q-35 -102 -85 -167t-113.5 -93.5t-114.5 -37t-123 -8.5z" glyph-name="yacute" horiz-adv-x="888" unicode="ý"/><glyph d="M190 -365v1778h127v-539h11q131 145 342 146q203 0 318.5 -147.5t115.5 -373t-116 -372.5t-318 -147q-213 0 -344 145h-7v-490h-129zM635 90q168 0 254 118t86 292t-86 290.5t-254 116.5q-164 0 -247 -116.5t-83 -290.5q0 -176 82 -293t248 -117z" glyph-name="thorn" horiz-adv-x="1193" unicode="þ"/><glyph d="M215 1223v190h152v-190h-152zM524 1223v190h152v-190h-152zM53 -365v111q84 0 144.5 19.5t96.5 59.5t54.5 72.5t38.5 86.5q4 10 6 16l-358 1049h137l279 -887h6l270 887h139l-377 -1108q-35 -102 -85 -167t-113.5 -93.5t-114.5 -37t-123 -8.5z" glyph-name="ydieresis" horiz-adv-x="888" unicode="ÿ"/><glyph d="M840 1702v-96h-529v96h529zM987 0l-100 322h-631l-100 -322h-144l467 1413h189l465 -1413h-146zM293 436h557l-277 883h-4z" glyph-name="Amacron" horiz-adv-x="1140" unicode="Ā"/><glyph d="M809 1337v-96h-528v96h528zM541 1069q176 0 284.5 -81t108.5 -230v-758h-123v178q-184 -201 -381 -201q-143 0 -237.5 84t-94.5 222q0 182 183 272q119 59 530 166v18q0 113 -63.5 161t-190.5 48q-229 0 -336 -162l-102 70q143 213 422 213zM453 92q172 0 358 217v297 q-352 -92 -461 -153q-115 -66 -114 -170q0 -88 63.5 -139.5t153.5 -51.5z" glyph-name="amacron" horiz-adv-x="1067" unicode="ā"/><glyph d="M575 1507q-127 0 -215 73t-88 198h117q0 -74 53.5 -122t132.5 -48q76 0 130.5 49t54.5 121h114q0 -123 -87 -197t-212 -74zM987 0l-100 322h-631l-100 -322h-144l467 1413h189l465 -1413h-146zM293 436h557l-277 883h-4z" glyph-name="Abreve" horiz-adv-x="1140" unicode="Ă"/><glyph d="M545 1143q-127 0 -215 72.5t-88 197.5h116q0 -74 53.5 -122t133.5 -48q76 0 130 49t54 121h115q0 -123 -87 -196.5t-212 -73.5zM541 1069q176 0 284.5 -81t108.5 -230v-758h-123v178q-184 -201 -381 -201q-143 0 -237.5 84t-94.5 222q0 182 183 272q119 59 530 166v18 q0 113 -63.5 161t-190.5 48q-229 0 -336 -162l-102 70q143 213 422 213zM453 92q172 0 358 217v297q-352 -92 -461 -153q-115 -66 -114 -170q0 -88 63.5 -139.5t153.5 -51.5z" glyph-name="abreve" horiz-adv-x="1067" unicode="ă"/><glyph d="M1227 -285l76 -49q-68 -109 -193 -108q-92 0 -145.5 55t-53.5 141q0 152 146 246h-70l-100 322h-631l-100 -322h-144l467 1413h189l465 -1413q-133 -100 -134 -225q0 -63 30 -96t75 -33q74 -1 123 69zM293 436h557l-277 883h-4z" glyph-name="Aogonek" horiz-adv-x="1140" unicode="Ą"/><glyph d="M1028 -285l76 -49q-68 -109 -193 -108q-92 0 -145 55t-53 141q0 152 145 246h-47v178q-184 -201 -381 -201q-143 0 -237.5 84t-94.5 222q0 182 183 272q119 59 530 166v18q0 113 -63.5 161t-190.5 48q-229 0 -336 -162l-102 70q143 213 422 213q176 0 284.5 -81 t108.5 -230v-758q-133 -100 -133 -225q0 -63 29.5 -96t74.5 -33q74 -1 123 69zM811 309v297q-352 -92 -461 -153q-115 -66 -114 -170q0 -88 63 -139.5t154 -51.5q172 0 358 217z" glyph-name="aogonek" horiz-adv-x="1067" unicode="ą"/><glyph d="M637 1538l217 240h186l-295 -240h-108zM737 -20q-289 0 -466 193.5t-177 533.5q0 342 177.5 535.5t463.5 193.5q184 0 339 -103.5t212 -267.5l-110 -53q-49 135 -164 215t-279 80q-231 0 -368.5 -161t-137.5 -429q0 -276 139.5 -442t372.5 -166q147 0 265 80.5t172 213.5 l110 -51q-57 -166 -211 -269t-338 -103z" glyph-name="Cacute" horiz-adv-x="1347" unicode="Ć"/><glyph d="M457 1174l217 239h186l-295 -239h-108zM551 -23q-219 0 -340 158t-121 387q0 233 120 390t339 157q143 0 247.5 -70.5t149.5 -195.5l-112 -47q-27 92 -104 146t-181 54q-88 0 -154.5 -39.5t-103.5 -105.5t-54.5 -138.5t-17.5 -150.5t17.5 -150.5t54.5 -137t103.5 -103.5 t154.5 -39q106 0 184 55.5t105 141.5l108 -41q-45 -127 -148.5 -199t-246.5 -72z" glyph-name="cacute" horiz-adv-x="1007" unicode="ć"/><glyph d="M621 1593v185h141v-185h-141zM737 -20q-289 0 -466 193.5t-177 533.5q0 342 177.5 535.5t463.5 193.5q184 0 339 -103.5t212 -267.5l-110 -53q-49 135 -164 215t-279 80q-231 0 -368.5 -161t-137.5 -429q0 -276 139.5 -442t372.5 -166q147 0 265 80.5t172 213.5l110 -51 q-57 -166 -211 -269t-338 -103z" glyph-name="Cdotaccent" horiz-adv-x="1347" unicode="Ċ"/><glyph d="M440 1229v184h142v-184h-142zM551 -23q-219 0 -340 158t-121 387q0 233 120 390t339 157q143 0 247.5 -70.5t149.5 -195.5l-112 -47q-27 92 -104 146t-181 54q-88 0 -154.5 -39.5t-103.5 -105.5t-54.5 -138.5t-17.5 -150.5t17.5 -150.5t54.5 -137t103.5 -103.5t154.5 -39 q106 0 184 55.5t105 141.5l108 -41q-45 -127 -148.5 -199t-246.5 -72z" glyph-name="cdotaccent" horiz-adv-x="1007" unicode="ċ"/><glyph d="M680 1505l-258 273h119l151 -158l154 158h117l-261 -273h-22zM737 -20q-289 0 -466 193.5t-177 533.5q0 342 177.5 535.5t463.5 193.5q184 0 339 -103.5t212 -267.5l-110 -53q-49 135 -164 215t-279 80q-231 0 -368.5 -161t-137.5 -429q0 -276 139.5 -442t372.5 -166 q147 0 265 80.5t172 213.5l110 -51q-57 -166 -211 -269t-338 -103z" glyph-name="Ccaron" horiz-adv-x="1347" unicode="Č"/><glyph d="M500 1141l-258 272h118l152 -158l154 158h116l-260 -272h-22zM551 -23q-219 0 -340 158t-121 387q0 233 120 390t339 157q143 0 247.5 -70.5t149.5 -195.5l-112 -47q-27 92 -104 146t-181 54q-88 0 -154.5 -39.5t-103.5 -105.5t-54.5 -138.5t-17.5 -150.5t17.5 -150.5 t54.5 -137t103.5 -103.5t154.5 -39q106 0 184 55.5t105 141.5l108 -41q-45 -127 -148.5 -199t-246.5 -72z" glyph-name="ccaron" horiz-adv-x="1007" unicode="č"/><glyph d="M723 1505l-258 273h119l151 -158l154 158h117l-261 -273h-22zM205 0v1413h352q340 0 522.5 -184.5t182.5 -534.5q0 -334 -185.5 -514t-521.5 -180h-350zM340 127h190q299 0 445.5 142.5t146.5 437t-141 438t-428 143.5h-213v-1161z" glyph-name="Dcaron" horiz-adv-x="1355" unicode="Ď"/><glyph d="M913 924v489h127v-1413h-127v125h-8q-147 -147 -358 -148q-231 0 -344 151t-113 396q0 244 113.5 394.5t345.5 150.5q205 0 354 -145h10zM1169 1413h164v-170l-100 -270h-76l74 270h-62v170zM578 94q162 0 254 116t92 314q0 195 -93.5 309.5t-252.5 114.5 q-180 0 -270.5 -111.5t-90.5 -312.5q0 -205 90.5 -317.5t270.5 -112.5z" glyph-name="dcaron" horiz-adv-x="1200" unicode="ď"/><glyph d="M528 1413q340 0 522.5 -184.5t182.5 -534.5q0 -334 -185.5 -514t-521.5 -180h-350v657h-149v111h149v645h352zM502 127q299 0 445.5 142.5t146.5 437t-141.5 438t-428.5 143.5h-213v-520h375v-111h-375v-530h191z" glyph-name="Dcroat" horiz-adv-x="1327" unicode="Đ"/><glyph d="M1245 1296v-82h-205v-1214h-127v125h-8q-147 -147 -358 -148q-231 0 -344 151t-113 396q0 244 113.5 394.5t345.5 150.5q205 0 354 -145h10v290h-303v82h303v117h127v-117h205zM578 94q162 0 254 116t92 314q0 195 -93.5 309.5t-252.5 114.5q-180 0 -270.5 -111.5 t-90.5 -312.5q0 -205 90.5 -317.5t270.5 -112.5z" glyph-name="dcroat" horiz-adv-x="1230" unicode="đ"/><glyph d="M397 1606v96h529v-96h-529zM205 0v1413h909v-123h-774v-522h676v-123h-676v-522h774v-123h-909z" glyph-name="Emacron" horiz-adv-x="1224" unicode="Ē"/><glyph d="M829 1337v-96h-528v96h528zM1018 535q0 -45 -2 -64h-795q14 -162 105.5 -267.5t273.5 -105.5q178 0 305 103l70 -86q-160 -135 -373 -135q-135 0 -237.5 46t-161 124.5t-86 173t-27.5 202.5q0 104 25.5 196.5t80 172.5t149.5 127t224 47q131 0 224.5 -49t139.5 -132 t65.5 -169t19.5 -184zM563 950q-176 0 -258 -105.5t-88 -262.5h680q-8 174 -92 271t-242 97z" glyph-name="emacron" horiz-adv-x="1107" unicode="ē"/><glyph d="M590 1593v185h141v-185h-141zM205 0v1413h909v-123h-774v-522h676v-123h-676v-522h774v-123h-909z" glyph-name="Edotaccent" horiz-adv-x="1224" unicode="Ė"/><glyph d="M635 1413v-184h-141v184h141zM1018 535q0 -45 -2 -64h-795q14 -162 105.5 -267.5t273.5 -105.5q178 0 305 103l70 -86q-160 -135 -373 -135q-135 0 -237.5 46t-161 124.5t-86 173t-27.5 202.5q0 104 25.5 196.5t80 172.5t149.5 127t224 47q131 0 224.5 -49t139.5 -132 t65.5 -169t19.5 -184zM563 950q-176 0 -258 -105.5t-88 -262.5h680q-8 174 -92 271t-242 97z" glyph-name="edotaccent" horiz-adv-x="1107" unicode="ė"/><glyph d="M1208 -285l76 -49q-68 -109 -192 -108q-92 0 -145.5 55t-53.5 141q0 152 145 246h-833v1413h909v-123h-774v-522h676v-123h-676v-522h774v-123q-133 -100 -133 -225q0 -63 29.5 -96t74.5 -33q74 -1 123 69z" glyph-name="Eogonek" horiz-adv-x="1224" unicode="Ę"/><glyph d="M1069 -170l76 -49q-68 -109 -193 -109q-92 0 -145 55.5t-53 141.5q0 78 41 141q-90 -31 -193 -30q-135 0 -237.5 46t-161 124.5t-86 173t-27.5 202.5q0 104 25.5 196.5t80 172.5t149.5 127t224 47q131 0 224.5 -49t139.5 -132t65.5 -169t19.5 -184q0 -45 -2 -64h-795 q14 -162 105.5 -267.5t273.5 -105.5q178 0 305 103l70 -86q-12 -12 -27 -21q-106 -92 -106 -205q0 -63 29.5 -96t74.5 -33q74 0 123 70zM563 950q-176 0 -258 -105.5t-88 -262.5h680q-8 174 -92 271t-242 97z" glyph-name="eogonek" horiz-adv-x="1107" unicode="ę"/><glyph d="M649 1505l-258 273h119l152 -158l153 158h117l-260 -273h-23zM205 0v1413h909v-123h-774v-522h676v-123h-676v-522h774v-123h-909z" glyph-name="Ecaron" horiz-adv-x="1224" unicode="Ě"/><glyph d="M575 1141h-22l-258 272h119l151 -158l154 158h117zM1018 535q0 -45 -2 -64h-795q14 -162 105.5 -267.5t273.5 -105.5q178 0 305 103l70 -86q-160 -135 -373 -135q-135 0 -237.5 46t-161 124.5t-86 173t-27.5 202.5q0 104 25.5 196.5t80 172.5t149.5 127t224 47 q131 0 224.5 -49t139.5 -132t65.5 -169t19.5 -184zM563 950q-176 0 -258 -105.5t-88 -262.5h680q-8 174 -92 271t-242 97z" glyph-name="ecaron" horiz-adv-x="1107" unicode="ě"/><glyph d="M727 1507q-127 0 -215 73t-88 198h117q0 -74 53 -122t133 -48q76 0 130 49t54 121h115q0 -123 -87 -197t-212 -74zM862 705h455v-705h-109l-4 266q-55 -117 -182 -201.5t-309 -84.5q-293 0 -456 207.5t-163 523.5q0 201 66.5 361.5t213 262t353.5 101.5q395 0 569 -371 l-125 -51q-143 289 -446 289q-248 0 -373 -166t-125 -420q0 -168 51.5 -302t164 -219t272.5 -85q197 0 329 123.5t146 353.5h-328v117z" glyph-name="Gbreve" horiz-adv-x="1497" unicode="Ğ"/><glyph d="M567 1143q-127 0 -215 72.5t-88 197.5h117q0 -74 53 -122t133 -48q76 0 130.5 49t54.5 121h114q0 -123 -87 -196.5t-212 -73.5zM575 -385q-170 0 -296.5 61.5t-155.5 171.5l100 43q31 -86 134.5 -126.5t224.5 -40.5q160 0 246.5 77.5t86.5 198.5v170q-127 -162 -360 -162 q-229 0 -347 152.5t-118 382.5q0 227 120 376.5t363 149.5q213 0 326 -143h14v123h129v-1049q0 -174 -121 -279.5t-346 -105.5zM584 121q178 0 262 108.5t84 290.5q0 186 -86 312t-271 126q-178 0 -266 -117.5t-88 -301.5q0 -182 89.5 -300t275.5 -118z" glyph-name="gbreve" horiz-adv-x="1232" unicode="ğ"/><glyph d="M797 1778v-185h-142v185h142zM862 705h455v-705h-109l-4 266q-55 -117 -182 -201.5t-309 -84.5q-293 0 -456 207.5t-163 523.5q0 201 66.5 361.5t213 262t353.5 101.5q395 0 569 -371l-125 -51q-143 289 -446 289q-248 0 -373 -166t-125 -420q0 -168 51.5 -302t164 -219 t272.5 -85q197 0 329 123.5t146 353.5h-328v117z" glyph-name="Gdotaccent" horiz-adv-x="1497" unicode="Ġ"/><glyph d="M496 1229v184h141v-184h-141zM575 -385q-170 0 -296.5 61.5t-155.5 171.5l100 43q31 -86 134.5 -126.5t224.5 -40.5q160 0 246.5 77.5t86.5 198.5v170q-127 -162 -360 -162q-229 0 -347 152.5t-118 382.5q0 227 120 376.5t363 149.5q213 0 326 -143h14v123h129v-1049 q0 -174 -121 -279.5t-346 -105.5zM584 121q178 0 262 108.5t84 290.5q0 186 -86 312t-271 126q-178 0 -266 -117.5t-88 -301.5q0 -182 89.5 -300t275.5 -118z" glyph-name="gdotaccent" horiz-adv-x="1232" unicode="ġ"/><glyph d="M862 705h455v-705h-109l-4 266q-55 -117 -182 -201.5t-309 -84.5q-293 0 -456 207.5t-163 523.5q0 201 66.5 361.5t213 262t353.5 101.5q395 0 569 -371l-125 -51q-143 289 -446 289q-248 0 -373 -166t-125 -420q0 -168 51.5 -302t164 -219t272.5 -85q197 0 329 123.5 t146 353.5h-328v117zM545 -446l119 303h182l-215 -303h-86z" glyph-name="Gcommaaccent" horiz-adv-x="1497" unicode="Ģ"/><glyph d="M735 1413l-119 -270h-182l215 270h86zM575 -385q-170 0 -296.5 61.5t-155.5 171.5l100 43q31 -86 134.5 -126.5t224.5 -40.5q160 0 246.5 77.5t86.5 198.5v170q-127 -162 -360 -162q-229 0 -347 152.5t-118 382.5q0 227 120 376.5t363 149.5q213 0 326 -143h14v123h129 v-1049q0 -174 -121 -279.5t-346 -105.5zM584 121q178 0 262 108.5t84 290.5q0 186 -86 312t-271 126q-178 0 -266 -117.5t-88 -301.5q0 -182 89.5 -300t275.5 -118z" glyph-name="gcommaaccent" horiz-adv-x="1220" unicode="ģ"/><glyph d="M1315 1165v-102h-103v-1063h-135v647h-737v-647h-135v1063h-103v102h103v248h135v-248h737v248h135v-248h103zM1077 766v297h-737v-297h737z" glyph-name="Hbar" horiz-adv-x="1417" unicode="Ħ"/><glyph d="M633 1069q158 0 251 -104.5t93 -284.5v-680h-127v668q0 279 -232 278q-129 0 -215 -94t-86 -236v-616h-127v1182h-190v82h190v149h127v-149h318v-82h-318v-295h13q106 182 303 182z" glyph-name="hbar" unicode="ħ"/><glyph d="M426 1536q-70 0 -125 39t-101 77t-91 38q-53 0 -78 -40t-23 -96h-82q0 223 180 224q57 0 105.5 -24.5t77 -55.5t65.5 -55.5t74 -24.5q102 0 102 160h91q0 -117 -52.5 -179.5t-142.5 -62.5zM205 0v1413h135v-1413h-135z" glyph-name="Itilde" horiz-adv-x="544" unicode="Ĩ"/><glyph d="M391 1171q-70 0 -125 39t-101 77t-91 38q-53 0 -78 -40t-23 -95h-82q0 223 181 223q57 0 105 -24.5t77 -55t65.5 -55.5t73.5 -25q102 0 103 160h90q0 -117 -52.5 -179.5t-142.5 -62.5zM178 0v1049h125v-1049h-125z" glyph-name="itilde" horiz-adv-x="481" unicode="ĩ"/><glyph d="M10 1606v96h529v-96h-529zM205 0v1413h135v-1413h-135z" glyph-name="Imacron" horiz-adv-x="544" unicode="Ī"/><glyph d="M-25 1241v96h529v-96h-529zM178 0v1049h125v-1049h-125z" glyph-name="imacron" horiz-adv-x="481" unicode="ī"/><glyph d="M434 -285l76 -49q-68 -109 -193 -108q-92 0 -145 55t-53 141q0 152 145 246h-59v1413h135v-1413q-133 -100 -133 -225q0 -63 29.5 -96t74.5 -33q74 -1 123 69z" glyph-name="Iogonek" horiz-adv-x="544" unicode="Į"/><glyph d="M317 1413v-190h-127v190h127zM401 -285l76 -49q-68 -109 -192 -108q-92 0 -145.5 55t-53.5 141q0 152 145 246h-41v1049h127v-1049h-10q-133 -100 -133 -225q0 -63 29.5 -96t75.5 -33q73 -1 122 69z" glyph-name="iogonek" horiz-adv-x="507" unicode="į"/><glyph d="M203 1593v185h141v-185h-141zM205 0v1413h135v-1413h-135z" glyph-name="Idotaccent" horiz-adv-x="544" unicode="İ"/><glyph d="M178 0v1049h125v-1049h-125z" glyph-name="dotlessi" horiz-adv-x="481" unicode="ı"/><glyph d="M602 852l602 -852h-178l-510 760l-176 -189v-571h-135v1413h135v-674l616 674h168zM473 -446l119 303h182l-215 -303h-86z" glyph-name="Kcommaaccent" horiz-adv-x="1214" unicode="Ķ"/><glyph d="M522 618l516 -618h-166l-436 535l-119 -115v-420h-127v1413h127v-835l488 471h160zM385 -446l119 303h182l-215 -303h-86z" glyph-name="kcommaaccent" horiz-adv-x="1019" unicode="ķ"/><glyph d="M860 0l-436 535l-119 -115v-420h-127v1049h127v-471l488 471h159l-442 -431l516 -618h-166z" glyph-name="kgreenlandic" horiz-adv-x="1007" unicode="ĸ"/><glyph d="M244 1538l217 240h186l-295 -240h-108zM205 0v1413h135v-1290h604v-123h-739z" glyph-name="Lacute" horiz-adv-x="964" unicode="Ĺ"/><glyph d="M186 1538l217 240h187l-295 -240h-109zM178 0v1413h127v-1413h-127z" glyph-name="lacute" horiz-adv-x="483" unicode="ĺ"/><glyph d="M205 0v1413h135v-1290h604v-123h-739zM285 -446l118 303h183l-215 -303h-86z" glyph-name="Lcommaaccent" horiz-adv-x="964" unicode="Ļ"/><glyph d="M178 0v1413h127v-1413h-127zM31 -446l119 303h182l-215 -303h-86z" glyph-name="lcommaaccent" horiz-adv-x="483" unicode="ļ"/><glyph d="M340 1413v-1290h604v-123h-739v1413h135zM754 1413h190v-196l-117 -314h-88l84 314h-69v196z" glyph-name="Lcaron" horiz-adv-x="964" unicode="Ľ"/><glyph d="M178 0v1413h127v-1413h-127zM455 1413h190v-196l-117 -314h-88l84 314h-69v196z" glyph-name="lcaron" horiz-adv-x="585" unicode="ľ"/><glyph d="M340 123h604v-123h-739v532l-207 -151v131l207 154v747h135v-647l203 149v-133l-203 -149v-510z" glyph-name="Lslash" horiz-adv-x="964" unicode="Ł"/><glyph d="M514 993v-133l-209 -153v-707h-127v612l-209 -153v131l209 155v668h127v-575z" glyph-name="lslash" horiz-adv-x="483" unicode="ł"/><glyph d="M686 1538l217 240h187l-295 -240h-109zM205 0v1413h211l712 -1272h11v1272h135v-1413h-215l-713 1286h-6v-1286h-135z" glyph-name="Nacute" horiz-adv-x="1478" unicode="Ń"/><glyph d="M502 1178l217 239h186l-295 -239h-108zM190 0v1049h129v-162h9q106 182 301 182q162 0 255 -105.5t93 -283.5v-680h-127v668q0 281 -223 280q-135 0 -222.5 -92t-87.5 -240v-616h-127z" glyph-name="nacute" unicode="ń"/><glyph d="M205 0v1413h211l712 -1272h11v1272h135v-1413h-215l-713 1286h-6v-1286h-135zM530 -446l119 303h182l-215 -303h-86z" glyph-name="Ncommaaccent" horiz-adv-x="1478" unicode="Ņ"/><glyph d="M190 0v1049h129v-162h9q106 182 301 182q162 0 255 -105.5t93 -283.5v-680h-127v668q0 281 -223 280q-135 0 -222.5 -92t-87.5 -240v-616h-127zM373 -446l119 303h182l-215 -303h-86z" glyph-name="ncommaaccent" unicode="ņ"/><glyph d="M729 1505l-258 273h119l151 -158l154 158h117l-260 -273h-23zM205 0v1413h211l712 -1272h11v1272h135v-1413h-215l-713 1286h-6v-1286h-135z" glyph-name="Ncaron" horiz-adv-x="1478" unicode="Ň"/><glyph d="M545 1145l-258 272h119l151 -157l154 157h116l-260 -272h-22zM190 0v1049h129v-162h9q106 182 301 182q162 0 255 -105.5t93 -283.5v-680h-127v668q0 281 -223 280q-135 0 -222.5 -92t-87.5 -240v-616h-127z" glyph-name="ncaron" unicode="ň"/><glyph d="M1274 0v-18q0 -49 -1 -76t-15.5 -70t-41 -65.5t-80 -41t-130.5 -18.5h-78v109h76q51 0 82.5 15t44 46t14.5 50.5t2 56.5v12h-88l-713 1286h-6v-1286h-135v1413h211l712 -1272h11v1272h135v-1413z" glyph-name="Eng" horiz-adv-x="1478" unicode="Ŋ"/><glyph d="M168 0v999h135v-165h12q104 182 316 182q166 0 244.5 -114t78.5 -292v-641q0 -258 -258 -258h-78v99h33q61 0 100.5 20t52.5 55t16 52.5t3 42.5v616q0 291 -215 291q-127 0 -218 -94.5t-91 -225.5v-567h-131z" glyph-name="eng" horiz-adv-x="1112" unicode="ŋ"/><glyph d="M463 1606v96h528v-96h-528zM727 -20q-291 0 -462 196.5t-171 530t171 530.5t462 197q287 0 458 -197t171 -530.5t-171 -530t-458 -196.5zM727 106q229 0 364.5 163t135.5 437.5t-135.5 437.5t-364.5 163q-231 0 -367.5 -163t-136.5 -437.5t136.5 -437.5t367.5 -163z" glyph-name="Omacron" horiz-adv-x="1449" unicode="Ō"/><glyph d="M309 1241v96h529v-96h-529zM573 -23q-219 0 -351 142.5t-132 400.5q0 262 132 405.5t351 143.5q217 0 351.5 -144.5t134.5 -404.5q0 -256 -134.5 -399.5t-351.5 -143.5zM575 96q170 0 266.5 107.5t96.5 316.5q0 213 -96.5 322.5t-266.5 109.5q-168 0 -264 -109.5 t-96 -322.5q0 -209 96 -316.5t264 -107.5z" glyph-name="omacron" horiz-adv-x="1148" unicode="ō"/><glyph d="M469 1544l215 234h186l-270 -234h-131zM799 1544l213 234h188l-272 -234h-129zM727 -20q-291 0 -462 196.5t-171 530t171 530.5t462 197q287 0 458 -197t171 -530.5t-171 -530t-458 -196.5zM727 106q229 0 364.5 163t135.5 437.5t-135.5 437.5t-364.5 163 q-231 0 -367.5 -163t-136.5 -437.5t136.5 -437.5t367.5 -163z" glyph-name="Ohungarumlaut" horiz-adv-x="1449" unicode="Ő"/><glyph d="M315 1180l215 233h187l-271 -233h-131zM645 1180l213 233h189l-273 -233h-129zM573 -23q-219 0 -351 142.5t-132 400.5q0 262 132 405.5t351 143.5q217 0 351.5 -144.5t134.5 -404.5q0 -256 -134.5 -399.5t-351.5 -143.5zM575 96q170 0 266.5 107.5t96.5 316.5 q0 213 -96.5 322.5t-266.5 109.5q-168 0 -264 -109.5t-96 -322.5q0 -209 96 -316.5t264 -107.5z" glyph-name="ohungarumlaut" horiz-adv-x="1148" unicode="ő"/><glyph d="M2144 1290h-774v-522h676v-123h-676v-522h774v-123h-909v244q-170 -264 -508 -264q-291 0 -462 196.5t-171 530t171 530.5t462 197q338 0 508 -265v244h909v-123zM727 106q229 0 364.5 163t135.5 437.5t-135.5 437.5t-364.5 163q-231 0 -367.5 -163t-136.5 -437.5 t136.5 -437.5t367.5 -163z" glyph-name="OE" horiz-adv-x="2254" unicode="Œ"/><glyph d="M1868 535q0 -45 -2 -64h-795q14 -162 105.5 -267.5t273.5 -105.5q178 0 305 103l70 -86q-160 -135 -373 -135q-326 0 -451 256q-59 -125 -170.5 -192t-257.5 -67q-219 0 -351 142.5t-132 400.5q0 262 132 405.5t351 143.5q143 0 254 -65.5t170 -188.5q119 254 422 254 q131 0 224.5 -49t139.5 -132t65.5 -169t19.5 -184zM575 96q170 0 266.5 107.5t96.5 316.5q0 213 -96.5 322.5t-266.5 109.5q-168 0 -264 -109.5t-96 -322.5q0 -209 96 -316.5t264 -107.5zM1067 582h680q-8 174 -92 271t-242 97q-176 0 -258 -105t-88 -263z" glyph-name="oe" horiz-adv-x="1957" unicode="œ"/><glyph d="M580 1538l217 240h186l-295 -240h-108zM205 -2v1415h567q199 0 320.5 -105.5t121.5 -281.5q0 -145 -82.5 -240.5t-224.5 -123.5l344 -664h-151l-328 647h-432v-647h-135zM342 768h463q274 12 274 258q0 127 -78.5 195.5t-226.5 68.5h-432v-522z" glyph-name="Racute" horiz-adv-x="1323" unicode="Ŕ"/><glyph d="M403 1174l218 239h186l-295 -239h-109zM190 0v1049h132v-170h6q80 186 258 186q92 0 141 -18v-121q-84 20 -127 14q-137 -8 -210 -133t-73 -344v-463h-127z" glyph-name="racute" horiz-adv-x="747" unicode="ŕ"/><glyph d="M205 -2v1415h567q199 0 320.5 -105.5t121.5 -281.5q0 -145 -82.5 -240.5t-224.5 -123.5l344 -664h-151l-328 647h-432v-647h-135zM342 768h463q274 12 274 258q0 127 -78.5 195.5t-226.5 68.5h-432v-522zM465 -446l119 303h182l-215 -303h-86z" glyph-name="Rcommaaccent" horiz-adv-x="1323" unicode="Ŗ"/><glyph d="M190 0v1049h132v-170h6q80 186 258 186q92 0 141 -18v-121q-84 20 -127 14q-137 -8 -210 -133t-73 -344v-463h-127zM41 -446l119 303h182l-215 -303h-86z" glyph-name="rcommaaccent" horiz-adv-x="747" unicode="ŗ"/><glyph d="M623 1505l-258 273h118l152 -158l153 158h117l-260 -273h-22zM205 -2v1415h567q199 0 320.5 -105.5t121.5 -281.5q0 -145 -82.5 -240.5t-224.5 -123.5l344 -664h-151l-328 647h-432v-647h-135zM342 768h463q274 12 274 258q0 127 -78.5 195.5t-226.5 68.5h-432v-522z" glyph-name="Rcaron" horiz-adv-x="1323" unicode="Ř"/><glyph d="M446 1141l-258 272h119l152 -158l153 158h117l-260 -272h-23zM190 0v1049h132v-170h6q80 186 258 186q92 0 141 -18v-121q-84 20 -127 14q-137 -8 -210 -133t-73 -344v-463h-127z" glyph-name="rcaron" horiz-adv-x="747" unicode="ř"/><glyph d="M471 1538l217 240h186l-294 -240h-109zM563 -16q-164 0 -301 91t-201 273l121 60q53 -150 154.5 -222.5t232.5 -72.5t213 65.5t82 179.5q0 66 -24.5 116t-77.5 89t-100.5 62.5t-125 56.5t-115.5 49.5t-101.5 55t-94 74.5t-56.5 93.5t-26 126.5q0 158 108.5 255.5 t285.5 97.5q246 0 403 -213l-90 -84q-131 172 -315 172q-113 0 -183.5 -59.5t-70.5 -157.5q0 -45 20.5 -85t44 -66t78.5 -57.5t85 -46t101 -44.5q92 -41 144.5 -69t119 -78t97 -116.5t30.5 -152.5q0 -172 -124 -282.5t-314 -110.5z" glyph-name="Sacute" horiz-adv-x="1073" unicode="Ś"/><glyph d="M406 1174l217 239h186l-295 -239h-108zM477 -23q-147 0 -265 76t-151 180l121 60q25 -78 104 -136.5t203 -58.5q111 0 188 48.5t77 140.5q0 49 -22.5 84t-76 58.5t-90.5 33.5t-116 29q-66 14 -104 24t-92 33.5t-83 49.5t-51.5 70t-22.5 99q0 139 102.5 220t266.5 81 q131 0 225 -59.5t146 -147.5l-103 -67q-96 154 -274 153q-102 0 -173 -46t-71 -120q0 -27 10.5 -49t36 -39.5t46 -30t66.5 -25.5t68.5 -18.5t77.5 -19.5q68 -16 109 -27.5t94 -36t83 -53t51.5 -75t21.5 -105.5q0 -152 -121 -239t-281 -87z" glyph-name="sacute" horiz-adv-x="950" unicode="ś"/><glyph d="M563 -16h-2l-69 -121l49 -17q141 -49 141 -172q0 -86 -54.5 -132t-127.5 -46q-129 0 -178 121l77 43q6 -33 33 -55.5t66 -22.5q43 0 67.5 25.5t24.5 60.5q0 84 -96 115l-111 37l90 172q-137 20 -247.5 110.5t-164.5 245.5l121 60q53 -150 154.5 -222.5t232.5 -72.5 t213 65.5t82 179.5q0 66 -24.5 116t-77.5 89t-100.5 62.5t-125 56.5t-115.5 49.5t-101.5 55t-94 74.5t-56.5 93.5t-26 126.5q0 158 108.5 255.5t285.5 97.5q246 0 403 -213l-90 -84q-131 172 -315 172q-113 0 -183.5 -59.5t-70.5 -157.5q0 -45 20.5 -85t44 -66t78.5 -57.5 t85 -46t101 -44.5q92 -41 144.5 -69t119 -78t97 -116.5t30.5 -152.5q0 -172 -124 -282.5t-314 -110.5z" glyph-name="Scedilla" horiz-adv-x="1073" unicode="Ş"/><glyph d="M879 303q0 -133 -94.5 -216t-231.5 -103l-66 -117l50 -17q141 -49 141 -172q0 -86 -54.5 -132t-127.5 -46q-129 0 -179 121l78 43q6 -33 33 -55.5t66 -22.5q43 0 67.5 26t24.5 60q0 84 -97 115l-110 37l80 153q-143 4 -254 80t-144 176l121 60q25 -78 104 -136.5 t203 -58.5q111 0 188 48.5t77 140.5q0 49 -22.5 84t-76 58.5t-90.5 33.5t-116 29q-66 14 -104 24t-92 33.5t-83 49.5t-51.5 70t-22.5 99q0 139 102.5 220t266.5 81q131 0 225 -59.5t146 -147.5l-103 -67q-96 154 -274 153q-102 0 -173 -46t-71 -120q0 -27 10.5 -49t36 -39.5 t46 -30t66.5 -25.5t68.5 -18.5t77.5 -19.5q68 -16 109 -27.5t94 -36t83 -53t51.5 -75t21.5 -105.5z" glyph-name="scedilla" horiz-adv-x="950" unicode="ş"/><glyph d="M514 1505l-258 273h119l151 -158l154 158h117l-260 -273h-23zM563 -16q-164 0 -301 91t-201 273l121 60q53 -150 154.5 -222.5t232.5 -72.5t213 65.5t82 179.5q0 66 -24.5 116t-77.5 89t-100.5 62.5t-125 56.5t-115.5 49.5t-101.5 55t-94 74.5t-56.5 93.5t-26 126.5 q0 158 108.5 255.5t285.5 97.5q246 0 403 -213l-90 -84q-131 172 -315 172q-113 0 -183.5 -59.5t-70.5 -157.5q0 -45 20.5 -85t44 -66t78.5 -57.5t85 -46t101 -44.5q92 -41 144.5 -69t119 -78t97 -116.5t30.5 -152.5q0 -172 -124 -282.5t-314 -110.5z" glyph-name="Scaron" horiz-adv-x="1073" unicode="Š"/><glyph d="M449 1141l-259 272h119l152 -158l153 158h117l-260 -272h-22zM477 -23q-147 0 -265 76t-151 180l121 60q25 -78 104 -136.5t203 -58.5q111 0 188 48.5t77 140.5q0 49 -22.5 84t-76 58.5t-90.5 33.5t-116 29q-66 14 -104 24t-92 33.5t-83 49.5t-51.5 70t-22.5 99 q0 139 102.5 220t266.5 81q131 0 225 -59.5t146 -147.5l-103 -67q-96 154 -274 153q-102 0 -173 -46t-71 -120q0 -27 10.5 -49t36 -39.5t46 -30t66.5 -25.5t68.5 -18.5t77.5 -19.5q68 -16 109 -27.5t94 -36t83 -53t51.5 -75t21.5 -105.5q0 -152 -121 -239t-281 -87z" glyph-name="scaron" horiz-adv-x="950" unicode="š"/><glyph d="M643 0h-14l-76 -133l49 -17q141 -49 141 -172q0 -86 -54 -132t-128 -46q-129 0 -178 121l78 43q6 -33 32.5 -55.5t65.5 -22.5q43 0 67.5 26t24.5 60q0 84 -96 115l-111 37l93 176h-29v1292h-488v121h1108v-121h-485v-1292z" glyph-name="Tcommaaccent" horiz-adv-x="1148" unicode="Ţ"/><glyph d="M485 -150q141 -49 142 -172q0 -86 -54.5 -132t-128.5 -46q-129 0 -178 121l78 43q6 -33 32.5 -55.5t65.5 -22.5q43 0 68 26t25 60q0 84 -97 115l-110 37l92 176h53q-143 0 -208.5 68.5t-65.5 214.5v655h-162v111h162v364h125v-364h294v-111h-294v-631q0 -113 37.5 -157 t132.5 -44h124v-106h-106l-76 -133z" glyph-name="tcommaaccent" horiz-adv-x="671" unicode="ţ"/><glyph d="M563 1505l-258 273h119l151 -158l154 158h117l-260 -273h-23zM508 0v1292h-488v121h1108v-121h-485v-1292h-135z" glyph-name="Tcaron" horiz-adv-x="1148" unicode="Ť"/><glyph d="M545 1661h190v-197l-117 -313h-88l84 313h-69v197zM324 1413v-364h294v-111h-294v-631q0 -113 37.5 -157t132.5 -44h124v-106h-145q-143 0 -208.5 68.5t-65.5 214.5v655h-162v111h162v364h125z" glyph-name="tcaron" horiz-adv-x="671" unicode="ť"/><glyph d="M1128 1292h-485v-544h250v-82h-250v-666h-135v666h-250v82h250v544h-488v121h1108v-121z" glyph-name="Tbar" horiz-adv-x="1148" unicode="Ŧ"/><glyph d="M618 938h-294v-373h268v-82h-268v-176q0 -113 37.5 -157t132.5 -44h124v-106h-145q-143 0 -208.5 68.5t-65.5 214.5v200h-160v82h160v373h-162v111h162v364h125v-364h294v-111z" glyph-name="tbar" horiz-adv-x="671" unicode="ŧ"/><glyph d="M813 1536q-70 0 -125 39t-101 77t-91 38q-53 0 -78 -40t-23 -96h-82q0 223 181 224q57 0 105 -24.5t77 -55.5t65.5 -55.5t73.5 -24.5q102 0 103 160h90q0 -117 -52.5 -179.5t-142.5 -62.5zM664 -20q-223 0 -353.5 135t-130.5 372v926h135v-932q0 -176 93.5 -277.5 t255.5 -101.5q160 0 252 101.5t92 277.5v932h135v-915q0 -242 -129 -380t-350 -138z" glyph-name="Utilde" horiz-adv-x="1323" unicode="Ũ"/><glyph d="M700 1171q-70 0 -125 39t-101 77t-91 38q-53 0 -77.5 -40t-22.5 -95h-82q0 223 180 223q57 0 105.5 -24.5t77 -55t65.5 -55.5t73 -25q102 0 103 160h90q0 -117 -52.5 -179.5t-142.5 -62.5zM942 1049v-1049h-129v162h-16q-102 -176 -293 -176q-162 0 -255 102t-93 283v678 h127v-668q0 -270 223 -270q135 0 222 90t87 231v617h127z" glyph-name="utilde" unicode="ũ"/><glyph d="M397 1606v96h529v-96h-529zM664 -20q-223 0 -353.5 135t-130.5 372v926h135v-932q0 -176 93.5 -277.5t255.5 -101.5q160 0 252 101.5t92 277.5v932h135v-915q0 -242 -129 -380t-350 -138z" glyph-name="Umacron" horiz-adv-x="1323" unicode="Ū"/><glyph d="M285 1241v96h528v-96h-528zM942 1049v-1049h-129v162h-16q-102 -176 -293 -176q-162 0 -255 102t-93 283v678h127v-668q0 -270 223 -270q135 0 222 90t87 231v617h127z" glyph-name="umacron" unicode="ū"/><glyph d="M659 1489q-82 0 -137 56.5t-55 137.5q0 80 56.5 135.5t136 55.5t136 -55.5t56.5 -135t-56.5 -137t-136.5 -57.5zM659 1573q45 0 78 31.5t33 76.5q0 47 -31.5 79t-79.5 32q-49 0 -78.5 -29.5t-29.5 -81.5q0 -49 30.5 -78.5t77.5 -29.5zM664 -20q-223 0 -353.5 135 t-130.5 372v926h135v-932q0 -176 93.5 -277.5t255.5 -101.5q160 0 252 101.5t92 277.5v932h135v-915q0 -242 -129 -380t-350 -138z" glyph-name="Uring" horiz-adv-x="1323" unicode="Ů"/><glyph d="M547 1124q-82 0 -137.5 56.5t-55.5 138.5q0 80 56.5 135t136.5 55t136 -55t56 -135t-56 -137.5t-136 -57.5zM547 1208q45 0 77.5 32t32.5 77q0 47 -31.5 78.5t-78.5 31.5q-49 0 -79 -29.5t-30 -80.5q0 -49 31 -79t78 -30zM942 1049v-1049h-129v162h-16 q-102 -176 -293 -176q-162 0 -255 102t-93 283v678h127v-668q0 -270 223 -270q135 0 222 90t87 231v617h127z" glyph-name="uring" unicode="ů"/><glyph d="M403 1544l215 234h187l-270 -234h-132zM733 1544l213 234h189l-273 -234h-129zM664 -20q-223 0 -353.5 135t-130.5 372v926h135v-932q0 -176 93.5 -277.5t255.5 -101.5q160 0 252 101.5t92 277.5v932h135v-915q0 -242 -129 -380t-350 -138z" glyph-name="Uhungarumlaut" horiz-adv-x="1323" unicode="Ű"/><glyph d="M291 1180l215 233h186l-270 -233h-131zM621 1180l213 233h188l-272 -233h-129zM942 1049v-1049h-129v162h-16q-102 -176 -293 -176q-162 0 -255 102t-93 283v678h127v-668q0 -270 223 -270q135 0 222 90t87 231v617h127z" glyph-name="uhungarumlaut" unicode="ű"/><glyph d="M954 63q-117 -96 -116 -210q0 -63 29.5 -96t74.5 -33q74 0 123 69l76 -49q-68 -109 -193 -109q-92 0 -145 55.5t-53 141.5q0 92 57 164q-72 -16 -143 -16q-223 0 -353.5 135t-130.5 372v926h135v-932q0 -176 93.5 -277.5t255.5 -101.5q160 0 252 101.5t92 277.5v932h135 v-915q-1 -296 -189 -435z" glyph-name="Uogonek" horiz-adv-x="1323" unicode="Ų"/><glyph d="M1036 -285l76 -49q-68 -109 -192 -108q-92 0 -145.5 55t-53.5 141q0 152 145 246h-53v162h-16q-102 -176 -293 -176q-162 0 -255 102t-93 283v678h127v-668q0 -270 223 -270q135 0 222 90t87 231v617h127v-1049q-133 -100 -133 -225q0 -63 29.5 -96t74.5 -33 q74 -1 123 69z" glyph-name="uogonek" unicode="ų"/><glyph d="M637 1507l258 271h23l260 -271h-117l-154 162l-151 -162h-119zM362 0l-342 1413h140l289 -1270h4l352 1270h196l353 -1270h4l289 1270h139l-342 -1413h-172l-369 1327l-368 -1327h-173z" glyph-name="Wcircumflex" horiz-adv-x="1808" unicode="Ŵ"/><glyph d="M702 1305l-151 -162h-119l258 270h23l260 -270h-117zM1227 1049h141l-223 -1049h-191l-249 866l-250 -864h-193l-221 1047h141l176 -969l287 969h115l291 -969z" glyph-name="wcircumflex" horiz-adv-x="1409" unicode="ŵ"/><glyph d="M393 1507l258 271h23l260 -271h-117l-153 162l-152 -162h-119zM592 0v553l-582 860h162l485 -739l496 739h162l-586 -860v-553h-137z" glyph-name="Ycircumflex" horiz-adv-x="1325" unicode="Ŷ"/><glyph d="M176 1143l258 270h23l260 -270h-117l-154 162l-151 -162h-119zM53 -365v111q84 0 144.5 19.5t96.5 59.5t54.5 72.5t38.5 86.5q4 10 6 16l-358 1049h137l279 -887h6l270 887h139l-377 -1108q-35 -102 -85 -167t-113.5 -93.5t-114.5 -37t-123 -8.5z" glyph-name="ycircumflex" horiz-adv-x="888" unicode="ŷ"/><glyph d="M432 1587v191h152v-191h-152zM741 1587v191h152v-191h-152zM592 0v553l-582 860h162l485 -739l496 739h162l-586 -860v-553h-137z" glyph-name="Ydieresis" horiz-adv-x="1325" unicode="Ÿ"/><glyph d="M934 1778l-295 -240h-109l218 240h186zM1116 1413v-119l-921 -1171h921v-123h-1081v115l911 1175h-866v123h1036z" glyph-name="Zacute" horiz-adv-x="1150" unicode="Ź"/><glyph d="M801 1413l-295 -239h-109l217 239h187zM854 1049v-111l-647 -821h639v-117h-793v98l649 836h-624v115h776z" glyph-name="zacute" horiz-adv-x="901" unicode="ź"/><glyph d="M655 1778v-185h-141v185h141zM1116 1413v-119l-921 -1171h921v-123h-1081v115l911 1175h-866v123h1036z" glyph-name="Zdotaccent" horiz-adv-x="1150" unicode="Ż"/><glyph d="M522 1413v-184h-141v184h141zM854 1049v-111l-647 -821h639v-117h-793v98l649 836h-624v115h776z" glyph-name="zdotaccent" horiz-adv-x="901" unicode="ż"/><glyph d="M596 1505h-23l-258 273h119l152 -158l153 158h117zM1116 1413v-119l-921 -1171h921v-123h-1081v115l911 1175h-866v123h1036z" glyph-name="Zcaron" horiz-adv-x="1150" unicode="Ž"/><glyph d="M463 1141h-23l-258 272h119l152 -158l153 158h117zM854 1049v-111l-647 -821h639v-117h-793v98l649 836h-624v115h776z" glyph-name="zcaron" horiz-adv-x="901" unicode="ž"/><glyph d="M608 1300q-80 0 -127 -48t-47 -128v-75h285v-111h-285v-938q0 -381 -352 -381v117q109 0 167 55t58 209v938h-190v111h190v65q0 137 82 218t219 81h111v-113h-111z" glyph-name="florin" horiz-adv-x="866" unicode="ƒ"/><glyph d="M586 1505h-23l-258 273h119l151 -158l154 158h117zM987 0l-100 322h-631l-100 -322h-144l467 1413h189l465 -1413h-146zM293 436h557l-277 883h-4z" glyph-name="uni01CD" horiz-adv-x="1140" unicode="Ǎ"/><glyph d="M555 1141h-23l-258 272h119l152 -158l153 158h117zM541 1069q176 0 284.5 -81t108.5 -230v-758h-123v178q-184 -201 -381 -201q-143 0 -237.5 84t-94.5 222q0 182 183 272q119 59 530 166v18q0 113 -63.5 161t-190.5 48q-229 0 -336 -162l-102 70q143 213 422 213z M453 92q172 0 358 217v297q-352 -92 -461 -153q-115 -66 -114 -170q0 -88 63.5 -139.5t153.5 -51.5z" glyph-name="uni01CE" horiz-adv-x="1067" unicode="ǎ"/><glyph d="M262 1505l-258 273h119l151 -158l154 158h117l-260 -273h-23zM205 0v1413h135v-1413h-135z" glyph-name="uni01CF" horiz-adv-x="544" unicode="Ǐ"/><glyph d="M227 1141l-258 272h119l152 -158l153 158h117l-260 -272h-23zM178 0v1049h125v-1049h-125z" glyph-name="uni01D0" horiz-adv-x="481" unicode="ǐ"/><glyph d="M715 1505l-258 273h118l152 -158l154 158h116l-260 -273h-22zM727 -20q-291 0 -462 196.5t-171 530t171 530.5t462 197q287 0 458 -197t171 -530.5t-171 -530t-458 -196.5zM727 106q229 0 364.5 163t135.5 437.5t-135.5 437.5t-364.5 163q-231 0 -367.5 -163 t-136.5 -437.5t136.5 -437.5t367.5 -163z" glyph-name="uni01D1" horiz-adv-x="1449" unicode="Ǒ"/><glyph d="M561 1141l-258 272h119l151 -158l154 158h117l-260 -272h-23zM573 -23q-219 0 -351 142.5t-132 400.5q0 262 132 405.5t351 143.5q217 0 351.5 -144.5t134.5 -404.5q0 -256 -134.5 -399.5t-351.5 -143.5zM575 96q170 0 266.5 107.5t96.5 316.5q0 213 -96.5 322.5 t-266.5 109.5q-168 0 -264 -109.5t-96 -322.5q0 -209 96 -316.5t264 -107.5z" glyph-name="uni01D2" horiz-adv-x="1148" unicode="ǒ"/><glyph d="M649 1505l-258 273h119l152 -158l153 158h117l-260 -273h-23zM664 -20q-223 0 -353.5 135t-130.5 372v926h135v-932q0 -176 93.5 -277.5t255.5 -101.5q160 0 252 101.5t92 277.5v932h135v-915q0 -242 -129 -380t-350 -138z" glyph-name="uni01D3" horiz-adv-x="1323" unicode="Ǔ"/><glyph d="M537 1141l-258 272h118l152 -158l153 158h117l-260 -272h-22zM942 1049v-1049h-129v162h-16q-102 -176 -293 -176q-162 0 -255 102t-93 283v678h127v-668q0 -270 223 -270q135 0 222 90t87 231v617h127z" glyph-name="uni01D4" unicode="ǔ"/><glyph d="M397 1970v96h529v-96h-529zM430 1587v191h152v-191h-152zM739 1587v191h152v-191h-152zM664 -20q-223 0 -353.5 135t-130.5 372v926h135v-932q0 -176 93.5 -277.5t255.5 -101.5q160 0 252 101.5t92 277.5v932h135v-915q0 -242 -129 -380t-350 -138z" glyph-name="uni01D5" horiz-adv-x="1323" unicode="Ǖ"/><glyph d="M285 1606v96h528v-96h-528zM317 1223v190h152v-190h-152zM627 1223v190h151v-190h-151zM942 1049v-1049h-129v162h-16q-102 -176 -293 -176q-162 0 -255 102t-93 283v678h127v-668q0 -270 223 -270q135 0 222 90t87 231v617h127z" glyph-name="uni01D6" unicode="ǖ"/><glyph d="M606 1903l217 239h187l-295 -239h-109zM430 1587v191h152v-191h-152zM739 1587v191h152v-191h-152zM664 -20q-223 0 -353.5 135t-130.5 372v926h135v-932q0 -176 93.5 -277.5t255.5 -101.5q160 0 252 101.5t92 277.5v932h135v-915q0 -242 -129 -380t-350 -138z" glyph-name="uni01D7" horiz-adv-x="1323" unicode="Ǘ"/><glyph d="M494 1538l217 240h186l-295 -240h-108zM317 1223v190h152v-190h-152zM627 1223v190h151v-190h-151zM942 1049v-1049h-129v162h-16q-102 -176 -293 -176q-162 0 -255 102t-93 283v678h127v-668q0 -270 223 -270q135 0 222 90t87 231v617h127z" glyph-name="uni01D8" unicode="ǘ"/><glyph d="M649 1870l-258 272h119l152 -157l153 157h117l-260 -272h-23zM430 1587v191h152v-191h-152zM739 1587v191h152v-191h-152zM664 -20q-223 0 -353.5 135t-130.5 372v926h135v-932q0 -176 93.5 -277.5t255.5 -101.5q160 0 252 101.5t92 277.5v932h135v-915q0 -242 -129 -380 t-350 -138z" glyph-name="uni01D9" horiz-adv-x="1323" unicode="Ǚ"/><glyph d="M537 1505l-258 273h118l152 -158l153 158h117l-260 -273h-22zM317 1223v190h152v-190h-152zM627 1223v190h151v-190h-151zM942 1049v-1049h-129v162h-16q-102 -176 -293 -176q-162 0 -255 102t-93 283v678h127v-668q0 -270 223 -270q135 0 222 90t87 231v617h127z" glyph-name="uni01DA" unicode="ǚ"/><glyph d="M596 1901l-274 241h188l215 -241h-129zM430 1587v191h152v-191h-152zM739 1587v191h152v-191h-152zM664 -20q-223 0 -353.5 135t-130.5 372v926h135v-932q0 -176 93.5 -277.5t255.5 -101.5q160 0 252 101.5t92 277.5v932h135v-915q0 -242 -129 -380t-350 -138z" glyph-name="uni01DB" horiz-adv-x="1323" unicode="Ǜ"/><glyph d="M483 1536l-274 242h188l215 -242h-129zM317 1223v190h152v-190h-152zM627 1223v190h151v-190h-151zM942 1049v-1049h-129v162h-16q-102 -176 -293 -176q-162 0 -255 102t-93 283v678h127v-668q0 -270 223 -270q135 0 222 90t87 231v617h127z" glyph-name="uni01DC" unicode="ǜ"/><glyph d="M1075 1778l-295 -240h-108l217 240h186zM1368 1270l-121 -121q109 -182 109 -442q0 -334 -171 -530.5t-458 -196.5t-457 192l-106 -106l-80 77l119 119q-109 184 -109 445q0 334 171 530.5t462 196.5q285 0 455 -193l104 105zM223 707q0 -203 76 -349l788 789 q-135 160 -360 160q-231 0 -367.5 -163t-136.5 -437zM1227 707q0 201 -76 346l-789 -789q139 -158 365 -158q229 0 364.5 163.5t135.5 437.5z" glyph-name="Oslashacute" horiz-adv-x="1449" unicode="Ǿ"/><glyph d="M922 1413l-295 -239h-109l217 239h187zM971 866q88 -139 88 -346q0 -256 -134 -399.5t-352 -143.5q-223 0 -350 144l-47 -47l-55 53l55 55q-86 133 -86 338q0 262 132 405.5t351 143.5q217 0 349 -141l45 45l57 -53zM215 520q0 -150 51 -248l574 574q-94 106 -265 106 q-168 0 -264 -109.5t-96 -322.5zM575.5 96q169.5 0 266 107.5t96.5 316.5q0 158 -53 260l-576 -573q97 -111 266.5 -111z" glyph-name="oslashacute" horiz-adv-x="1148" unicode="ǿ"/><glyph d="M563 -16q-164 0 -301 91t-201 273l121 60q53 -150 154.5 -222.5t232.5 -72.5t213 65.5t82 179.5q0 66 -24.5 116t-77.5 89t-100.5 62.5t-125 56.5t-115.5 49.5t-101.5 55t-94 74.5t-56.5 93.5t-26 126.5q0 158 108.5 255.5t285.5 97.5q246 0 403 -213l-90 -84 q-131 172 -315 172q-113 0 -183.5 -59.5t-70.5 -157.5q0 -45 20.5 -85t44 -66t78.5 -57.5t85 -46t101 -44.5q92 -41 144.5 -69t119 -78t97 -116.5t30.5 -152.5q0 -172 -124 -282.5t-314 -110.5zM303 -451l119 304h182l-215 -304h-86z" glyph-name="Scommaaccent" horiz-adv-x="1073" unicode="Ș"/><glyph d="M477 -23q-147 0 -265 76t-151 180l121 60q25 -78 104 -136.5t203 -58.5q111 0 188 48.5t77 140.5q0 49 -22.5 84t-76 58.5t-90.5 33.5t-116 29q-66 14 -104 24t-92 33.5t-83 49.5t-51.5 70t-22.5 99q0 139 102.5 220t266.5 81q131 0 225 -59.5t146 -147.5l-103 -67 q-96 154 -274 153q-102 0 -173 -46t-71 -120q0 -27 10.5 -49t36 -39.5t46 -30t66.5 -25.5t68.5 -18.5t77.5 -19.5q68 -16 109 -27.5t94 -36t83 -53t51.5 -75t21.5 -105.5q0 -152 -121 -239t-281 -87zM299 -446l119 303h182l-215 -303h-86z" glyph-name="scommaaccent" horiz-adv-x="950" unicode="ș"/><glyph d="M508 0v1292h-488v121h1108v-121h-485v-1292h-135zM365 -446l118 303h183l-215 -303h-86z" glyph-name="uni021A" horiz-adv-x="1148" unicode="Ț"/><glyph d="M473 0q-143 0 -208.5 68.5t-65.5 214.5v655h-162v111h162v364h125v-364h294v-111h-294v-631q0 -113 37.5 -157t132.5 -44h124v-106h-145zM248 -446l119 303h182l-215 -303h-86z" glyph-name="uni021B" horiz-adv-x="671" unicode="ț"/><glyph d="M66 -365h-103v111h103q66 0 91 34t25 99v1170h127v-1158q0 -137 -55 -196.5t-188 -59.5z" glyph-name="uni0237" horiz-adv-x="499" unicode="ȷ"/><glyph d="M61 1112l258 270h23l260 -270h-117l-153 162l-152 -162h-119z" glyph-name="circumflex" horiz-adv-x="659" unicode="ˆ"/><glyph d="M317 1092l-258 272h119l152 -158l153 158h117l-260 -272h-23z" glyph-name="caron" horiz-adv-x="659" unicode="ˇ"/><glyph d="M307 1094q-127 0 -215 72.5t-88 197.5h117q0 -74 53 -122t133 -48q76 0 130.5 49t54.5 121h114q0 -123 -87 -196.5t-212 -73.5z" glyph-name="breve" horiz-adv-x="610" unicode="˘"/><glyph d="M45 1180v184h141v-184h-141z" glyph-name="dotaccent" horiz-adv-x="231" unicode="˙"/><glyph d="M199 1075q-82 0 -137.5 56.5t-55.5 138.5q0 80 56.5 135t136.5 55t136 -55t56 -135t-56 -137.5t-136 -57.5zM199 1159q45 0 77.5 32t32.5 77q0 47 -31.5 78.5t-78.5 31.5q-49 0 -79 -29.5t-30 -80.5q0 -49 31 -79t78 -30z" glyph-name="ring" horiz-adv-x="399" unicode="˚"/><glyph d="M369 -442q-92 0 -145.5 55t-53.5 141q0 158 162 256l59 -10q-133 -100 -133 -225q0 -63 29.5 -96t74.5 -33q74 0 123 69l76 -49q-67 -108 -192 -108z" glyph-name="ogonek" horiz-adv-x="466" unicode="˛"/><glyph d="M510 1067q-55 0 -102.5 23.5t-75 53.5t-65.5 53.5t-74 23.5q-53 0 -78 -40t-23 -96h-82q0 223 180 224q57 0 105.5 -24.5t77 -55.5t65.5 -55.5t74 -24.5q102 0 102 160h91q0 -117 -52.5 -179.5t-142.5 -62.5z" glyph-name="tilde" horiz-adv-x="712" unicode="˜"/><glyph d="M0 1130l215 234h186l-270 -234h-131zM330 1130l213 234h188l-272 -234h-129z" glyph-name="hungarumlaut" horiz-adv-x="747" unicode="˝"/><glyph d="M-137 1122l-275 242h189l215 -242h-129z" glyph-name="gravecomb" horiz-adv-x="0" unicode="̀"/><glyph d="M-389 1124l217 240h186l-295 -240h-108z" glyph-name="acutecomb" horiz-adv-x="0" unicode="́"/><glyph d="M-598 1112l258 270h23l260 -270h-117l-154 162l-151 -162h-119z" glyph-name="uni0302" horiz-adv-x="0" unicode="̂"/><glyph d="M-203 1067q-55 0 -102 23.5t-75 53.5t-65.5 53.5t-74.5 23.5q-53 0 -78 -40t-23 -96h-81q0 223 180 224q57 0 105 -24.5t77 -55.5t65.5 -55.5t73.5 -24.5q102 0 103 160h90q0 -117 -52.5 -179.5t-142.5 -62.5z" glyph-name="tildecomb" horiz-adv-x="0" unicode="̃"/><glyph d="M-596 1192v96h528v-96h-528z" glyph-name="uni0304" horiz-adv-x="0" unicode="̄"/><glyph d="M-303 1094q-127 0 -215 72.5t-88 197.5h117q0 -74 53 -122t133 -48q76 0 130 49t54 121h115q0 -123 -87 -196.5t-212 -73.5z" glyph-name="uni0306" horiz-adv-x="0" unicode="̆"/><glyph d="M-186 1180v184h141v-184h-141z" glyph-name="uni0307" horiz-adv-x="0" unicode="̇"/><glyph d="M-506 1174v190h152v-190h-152zM-197 1174v190h152v-190h-152z" glyph-name="uni0308" horiz-adv-x="0" unicode="̈"/><glyph d="M-283 1075q-82 0 -137 56.5t-55 138.5q0 80 56.5 135t136 55t136 -55t56.5 -135t-56.5 -137.5t-136.5 -57.5zM-283 1159q45 0 78 32t33 77q0 47 -32 78.5t-79 31.5q-49 0 -78.5 -29.5t-29.5 -80.5q0 -49 30.5 -79t77.5 -30z" glyph-name="uni030A" horiz-adv-x="0" unicode="̊"/><glyph d="M-748 1130l216 234h186l-270 -234h-132zM-418 1130l213 234h189l-273 -234h-129z" glyph-name="uni030B" horiz-adv-x="0" unicode="̋"/><glyph d="M-342 1092l-258 272h119l151 -158l154 158h117l-260 -272h-23z" glyph-name="uni030C" horiz-adv-x="0" unicode="̌"/><glyph d="M270 1423l-118 -270h-183l215 270h86z" glyph-name="uni0312" horiz-adv-x="0" unicode="̒"/><glyph d="M-285 -446l119 303h182l-215 -303h-86z" glyph-name="uni0326" horiz-adv-x="0" unicode="̦"/><glyph d="M-188 -500q-129 0 -179 121l78 43q6 -33 33 -55.5t66 -22.5q43 0 67.5 26t24.5 60q0 84 -97 115l-110 37l92 176h92l-76 -133l50 -17q141 -49 141 -172q0 -86 -54 -132t-128 -46z" glyph-name="uni0327" horiz-adv-x="0" unicode="̧"/><glyph d="M-98 -442q-92 0 -145.5 55t-53.5 141q0 158 162 256l59 -10q-133 -100 -133 -225q0 -63 29.5 -96t75.5 -33q74 0 122 69l76 -49q-67 -108 -192 -108z" glyph-name="uni0328" horiz-adv-x="0" unicode="̨"/><glyph d="M-1432 528v82h635v-82h-635z" glyph-name="uni0335" horiz-adv-x="0" unicode="̵"/><glyph d="M-1223 518v103h1213v-103h-1213z" glyph-name="uni0336" horiz-adv-x="0" unicode="̶"/><glyph d="M-1141 82v176l729 539v-179z" glyph-name="uni0337" horiz-adv-x="0" unicode="̷"/><glyph d="M-1190 57l-80 78l1202 1202l82 -75z" glyph-name="uni0338" horiz-adv-x="0" unicode="̸"/><glyph d="M881 -20q-80 0 -134.5 66.5t-54.5 154.5v684h-315v-885h-117v885h-82v114h713v-114h-82v-690q0 -78 46 -106t110 20l18 -101q-51 -28 -102 -28z" glyph-name="pi" horiz-adv-x="1173" unicode="π"/><glyph d="M842 1536l-275 242h189l215 -242h-129zM362 0l-342 1413h140l289 -1270h4l352 1270h196l353 -1270h4l289 1270h139l-342 -1413h-172l-369 1327l-368 -1327h-173z" glyph-name="Wgrave" horiz-adv-x="1808" unicode="Ẁ"/><glyph d="M766 1171h-129l-275 242h189zM1227 1049h141l-223 -1049h-191l-249 866l-250 -864h-193l-221 1047h141l176 -969l287 969h115l291 -969z" glyph-name="wgrave" horiz-adv-x="1409" unicode="ẁ"/><glyph d="M852 1538l217 240h186l-294 -240h-109zM362 0l-342 1413h140l289 -1270h4l352 1270h196l353 -1270h4l289 1270h139l-342 -1413h-172l-369 1327l-368 -1327h-173z" glyph-name="Wacute" horiz-adv-x="1808" unicode="Ẃ"/><glyph d="M1051 1413l-295 -239h-109l217 239h187zM1227 1049h141l-223 -1049h-191l-249 866l-250 -864h-193l-221 1047h141l176 -969l287 969h115l291 -969z" glyph-name="wacute" horiz-adv-x="1409" unicode="ẃ"/><glyph d="M676 1587v191h151v-191h-151zM985 1587v191h152v-191h-152zM362 0l-342 1413h140l289 -1270h4l352 1270h196l353 -1270h4l289 1270h139l-342 -1413h-172l-369 1327l-368 -1327h-173z" glyph-name="Wdieresis" horiz-adv-x="1808" unicode="Ẅ"/><glyph d="M623 1413v-190h-152v190h152zM932 1413v-190h-152v190h152zM1227 1049h141l-223 -1049h-191l-249 866l-250 -864h-193l-221 1047h141l176 -969l287 969h115l291 -969z" glyph-name="wdieresis" horiz-adv-x="1409" unicode="ẅ"/><glyph d="M813 1536q-70 0 -125 39t-101 77t-91 38q-53 0 -78 -40t-23 -96h-82q0 223 181 224q57 0 105 -24.5t77 -55.5t65.5 -55.5t73.5 -24.5q102 0 103 160h90q0 -117 -52.5 -179.5t-142.5 -62.5zM205 0v1413h909v-123h-774v-522h676v-123h-676v-522h774v-123h-909z" glyph-name="uni1EBC" horiz-adv-x="1224" unicode="Ẽ"/><glyph d="M717 1171q-70 0 -125 39t-101.5 77t-91.5 38q-53 0 -77.5 -40t-22.5 -95h-82q0 223 180 223q57 0 105.5 -24.5t77 -55t65.5 -55.5t74 -25q102 0 102 160h90q0 -117 -52 -179.5t-142 -62.5zM1018 535q0 -45 -2 -64h-795q14 -162 105.5 -267.5t273.5 -105.5q178 0 305 103 l70 -86q-160 -135 -373 -135q-135 0 -237.5 46t-161 124.5t-86 173t-27.5 202.5q0 104 25.5 196.5t80 172.5t149.5 127t224 47q131 0 224.5 -49t139.5 -132t65.5 -169t19.5 -184zM563 950q-176 0 -258 -105.5t-88 -262.5h680q-8 174 -92 271t-242 97z" glyph-name="uni1EBD" horiz-adv-x="1107" unicode="ẽ"/><glyph d="M598 1536l-274 242h188l215 -242h-129zM592 0v553l-582 860h162l485 -739l496 739h162l-586 -860v-553h-137z" glyph-name="Ygrave" horiz-adv-x="1325" unicode="Ỳ"/><glyph d="M381 1171l-275 242h189l215 -242h-129zM53 -365v111q84 0 144.5 19.5t96.5 59.5t54.5 72.5t38.5 86.5q4 10 6 16l-358 1049h137l279 -887h6l270 887h139l-377 -1108q-35 -102 -85 -167t-113.5 -93.5t-114.5 -37t-123 -8.5z" glyph-name="ygrave" horiz-adv-x="888" unicode="ỳ"/><glyph d="M815 1536q-70 0 -125 39t-101 77t-91 38q-53 0 -78 -40t-23 -96h-82q0 223 181 224q57 0 105 -24.5t77 -55.5t65.5 -55.5t73.5 -24.5q102 0 103 160h90q0 -117 -52.5 -179.5t-142.5 -62.5zM592 0v553l-582 860h162l485 -739l496 739h162l-586 -860v-553h-137z" glyph-name="uni1EF8" horiz-adv-x="1325" unicode="Ỹ"/><glyph d="M598 1171q-70 0 -125 39t-101 77t-91 38q-53 0 -78 -40t-23 -95h-82q0 223 181 223q57 0 105 -24.5t76.5 -55t65.5 -55.5t74 -25q102 0 102 160h91q0 -117 -52.5 -179.5t-142.5 -62.5zM53 -365v111q84 0 144.5 19.5t96.5 59.5t54.5 72.5t38.5 86.5q4 10 6 16l-358 1049 h137l279 -887h6l270 887h139l-377 -1108q-35 -102 -85 -167t-113.5 -93.5t-114.5 -37t-123 -8.5z" glyph-name="uni1EF9" horiz-adv-x="888" unicode="ỹ"/><glyph d="M41 469v84h680v-84h-680z" glyph-name="endash" horiz-adv-x="761" unicode="–"/><glyph d="M0 469v84h2048v-84h-2048z" glyph-name="emdash" horiz-adv-x="2048" unicode="—"/><glyph d="M322 1413l-84 -313h69v-197h-190v197l116 313h89z" glyph-name="quoteleft" horiz-adv-x="475" unicode="‘"/><glyph d="M160 1413h190v-196l-117 -314h-88l84 314h-69v196z" glyph-name="quoteright" horiz-adv-x="475" unicode="’"/><glyph d="M143 197h191v-197l-117 -313h-88l84 313h-70v197z" glyph-name="quotesinglbase" horiz-adv-x="534" unicode="‚"/><glyph d="M233 1413h89l-84 -313h69v-197h-190v197zM686 1413l-84 -313h70v-197h-191v197l117 313h88z" glyph-name="quotedblleft" horiz-adv-x="839" unicode="“"/><glyph d="M160 1217v196h190v-196l-117 -314h-88l84 314h-69zM549 1413h190v-196l-116 -314h-88l83 314h-69v196z" glyph-name="quotedblright" horiz-adv-x="864" unicode="”"/><glyph d="M143 0v197h191v-197l-117 -313h-88l84 313h-70zM532 197h191v-197l-117 -313h-88l84 313h-70v197z" glyph-name="quotedblbase" horiz-adv-x="923" unicode="„"/><glyph d="M332 -205v1077h-221v95h221v446h96v-446h221v-95h-221v-1077h-96z" glyph-name="dagger" horiz-adv-x="759" unicode="†"/><glyph d="M332 -205v447h-221v94h221v536h-221v95h221v446h96v-446h221v-95h-221v-536h221v-94h-221v-447h-96z" glyph-name="daggerdbl" horiz-adv-x="759" unicode="‡"/><glyph d="M356 238q-123 0 -210 88t-87 210.5t87 210t210 87.5t210 -87.5t87 -210t-87 -210.5t-210 -88z" glyph-name="bullet" horiz-adv-x="712" unicode="•"/><glyph d="M125 0v176h188v-176h-188zM539 0v176h188v-176h-188z" glyph-name="twodotenleader" horiz-adv-x="827" unicode="‥"/><glyph d="M125 0v197h190v-197h-190zM715 0v197h190v-197h-190zM1305 0v197h190v-197h-190z" glyph-name="ellipsis" horiz-adv-x="1595" unicode="…"/><glyph d="M307 803q-90 0 -149.5 53t-80 120.5t-20.5 141.5q0 121 58.5 219.5t185.5 98.5q119 0 185.5 -95.5t66.5 -222.5t-64.5 -221t-181.5 -94zM266 2l756 1409h133l-754 -1409h-135zM303.5 905q65.5 0 100 65.5t34.5 149.5q0 82 -34.5 144.5t-102.5 62.5q-66 0 -99.5 -62.5 t-33.5 -146.5t35 -148.5t100.5 -64.5zM1135 2q-90 0 -149.5 53.5t-80 120t-20.5 139.5q0 121 58 219.5t185 98.5q119 0 185.5 -95.5t66.5 -222.5t-64 -220t-181 -93zM1735 2q-129 0 -189.5 97.5t-60.5 215.5q0 74 20.5 141.5t78.5 122t145 54.5q121 0 185 -94.5t64 -223.5 q0 -127 -62 -220t-181 -93zM1133 106q66 0 99.5 65t33.5 146q0 86 -35 148.5t-103 62.5q-66 0 -99.5 -64.5t-33.5 -148.5q0 -82 35 -145.5t103 -63.5zM1730.5 106q67.5 0 101.5 65t34 146q0 84 -35 147.5t-102 63.5q-66 0 -101 -64.5t-35 -148.5q0 -82 35 -145.5 t102.5 -63.5z" glyph-name="perthousand" horiz-adv-x="2039" unicode="‰"/><glyph d="M457 190l-355 320l355 321v-149l-197 -172l197 -170v-150z" glyph-name="guilsinglleft" horiz-adv-x="557" unicode="‹"/><glyph d="M102 190v150l197 170l-197 172v149l355 -321z" glyph-name="guilsinglright" horiz-adv-x="557" unicode="›"/><glyph d="M-317 0l743 1413h129l-741 -1413h-131z" glyph-name="fraction" horiz-adv-x="235" unicode="⁄"/><glyph d="M1167 219l82 -67q-156 -172 -422 -172q-246 0 -397 143t-197 383h-243l49 100h180q-4 61 -4 96q0 33 4 86l-266 3l49 100h229q43 244 195 394.5t401 150.5q215 0 363 -123l-39 -111q-145 127 -326 127q-186 0 -301.5 -122t-154.5 -316h657l-49 -105l-623 2q-4 -61 -4 -96 q0 -29 4 -86h551l-41 -100h-495q39 -186 153.5 -298t313.5 -112q210 0 331 123z" glyph-name="Euro" horiz-adv-x="1310" unicode="€"/><glyph d="M12 1331v82h434v-82h-174v-454h-86v454h-174zM936 1413h108v-536h-86v380l-127 -380h-81l-132 389v-389h-86v536h115l141 -448z" glyph-name="trademark" horiz-adv-x="1167" unicode="™"/><glyph d="M82 0v115h362q-162 84 -260 244.5t-98 359.5q0 285 188.5 486.5t456.5 201.5q270 0 456.5 -203t186.5 -487q0 -195 -92 -356.5t-248 -241.5h344v-119h-491v121q162 53 262 227t100 379q0 254 -151.5 408.5t-366.5 154.5q-217 0 -368.5 -158.5t-151.5 -396.5 q0 -190 100.5 -362t261.5 -252v-121h-491z" glyph-name="uni2126" horiz-adv-x="1460" unicode="Ω"/><glyph d="M2103 686v-102h-1642l583 -312v-118l-866 485l866 479v-119l-585 -313h1644z" glyph-name="arrowleft" horiz-adv-x="2281" unicode="←"/><glyph d="M1237 154v118l584 312h-1643v102h1645l-586 313v119l866 -479z" glyph-name="arrowright" horiz-adv-x="2281" unicode="→"/><glyph d="M518 -12q-195 0 -306.5 120.5t-111.5 321.5q0 250 160 426t393 176q184 0 273 -151h8q-10 201 -95 312.5t-239 111.5q-174 0 -248 -162l-131 37q49 121 152.5 185.5t240.5 64.5q229 0 342 -177.5t113 -482.5q0 -356 -145.5 -569t-405.5 -213zM520 109q178 0 286.5 145 t108.5 342q0 147 -68.5 232t-199.5 85q-180 0 -293.5 -151.5t-113.5 -337.5q0 -141 72.5 -228t207.5 -87z" glyph-name="partialdiff" horiz-adv-x="1218" unicode="∂"/><glyph d="M12 0l537 1411l536 -1411h-1073zM184 117h729l-364 956z" glyph-name="uni2206" horiz-adv-x="1093" unicode="∆"/><glyph d="M287 0v1296h-123v117h1030v-117h-123v-1296h-117v1296h-551v-1296h-116z" glyph-name="product" horiz-adv-x="1357" unicode="∏"/><glyph d="M72 0v55l583 652l-583 653v53h993v-117h-774l532 -589l-532 -590h774v-117h-993z" glyph-name="summation" horiz-adv-x="1136" unicode="∑"/><glyph d="M197 457v121h751v-121h-751z" glyph-name="minus" horiz-adv-x="1144" unicode="−"/><glyph d="M926 1417l108 -47l-569 -1485h-33l-233 701h-148v114h230l174 -544z" glyph-name="radical" horiz-adv-x="1075" unicode="√"/><glyph d="M373 342q-119 0 -199 80t-80 211t80 211t199 80q182 0 372 -213q190 213 373 213q119 0 200 -80t81 -211t-81 -211t-200 -80q-182 0 -373 213q-190 -213 -372 -213zM379 444q131 0 297 189q-166 188 -297 188q-78 0 -129 -50t-51 -138t51 -138.5t129 -50.5zM1114 444 q78 0 129 50.5t51 138.5t-51 138t-129 50q-133 0 -299 -188q166 -189 299 -189z" glyph-name="infinity" horiz-adv-x="1492" unicode="∞"/><glyph d="M25 -457v117q182 0 267 79t85 251v1173q0 123 74.5 204t181.5 81q100 0 196 -74l-77 -92q-51 49 -119 49q-59 0 -100 -43t-41 -121v-1171q0 -223 -123 -338t-344 -115z" glyph-name="integral" horiz-adv-x="854" unicode="∫"/><glyph d="M662 600q-55 0 -104.5 26.5t-79 59.5t-70.5 59.5t-80 26.5q-96 0 -92 -145h-101q0 111 49 178t142 67q66 0 119 -26.5t81.5 -57t66.5 -57t75 -26.5q57 0 79.5 40.5t22.5 120.5h109q0 -127 -57.5 -196.5t-159.5 -69.5zM662 152q-55 0 -104.5 26.5t-79 59t-70.5 59.5 t-80 27q-96 0 -92 -146h-101q0 111 49 178.5t142 67.5q66 0 119 -26.5t81.5 -57.5t66.5 -57.5t75 -26.5q57 0 79.5 41t22.5 121h109q0 -127 -57.5 -196.5t-159.5 -69.5z" glyph-name="approxequal" horiz-adv-x="931" unicode="≈"/><glyph d="M1040 1249l-256 -481h256v-119h-317l-119 -221h436v-119h-497l-252 -473h-141l249 473h-268v119h332l117 221h-449v119h512l254 481h143z" glyph-name="notequal" horiz-adv-x="1189" unicode="≠"/><glyph d="M991 193l-876 497l876 498v-123l-667 -375l667 -368v-129zM991 0h-899v96h899v-96z" glyph-name="lessequal" horiz-adv-x="1175" unicode="≤"/><glyph d="M164 193v129l667 368l-667 375v123l876 -498zM164 0v96h899v-96h-899z" glyph-name="greaterequal" horiz-adv-x="1155" unicode="≥"/><glyph d="M442 0l-360 717l360 717h154l360 -717l-360 -717h-154zM520 131l295 586l-295 586l-297 -586z" glyph-name="lozenge" horiz-adv-x="1038" unicode="◊"/><glyph d="M168 1229v184h141v-184h-141zM178 0v1049h125v-1049h-125z" glyph-name="i.locl" horiz-adv-x="481"/><glyph d="M1155 938h-295v-631q0 -113 38 -157t132 -44h125v-106h-145q-143 0 -209 68.5t-66 214.5v655h-387v-938h-127v938h-190v111h190v65q0 137 82 218t219 81h111v-113h-111q-80 0 -127 -48t-47 -128v-75h387v364h125v-364h295v-111z" glyph-name="f_t.dlig" horiz-adv-x="1208"/><glyph d="M1163 938h-295v-631q0 -113 38 -157t132 -44h125v-106h-145q-143 0 -209 68.5t-66 214.5v655h-419v-631q0 -113 37.5 -157t132.5 -44h124v-106h-145q-143 0 -208.5 68.5t-65.5 214.5v655h-162v111h162v364h125v-364h419v364h125v-364h295v-111z" glyph-name="t_t.dlig" horiz-adv-x="1216"/><glyph d="M927.5 -61q-321.5 0 -547.5 226t-226 547.5t226 548t547.5 226.5t548 -226.5t226.5 -548t-226.5 -547.5t-548 -226zM928 10q293 0 497.5 206t204.5 497t-204.5 496.5t-497.5 205.5t-498 -205.5t-205 -496.5t205 -497t498 -206zM524 410q-14 0 -24.5 10t-10.5 24v537 q0 14 10.5 25.5t24.5 11.5q16 0 26.5 -11.5t10.5 -25.5v-537q0 -34 -37 -34zM928 410q-35 0 -35 34v537q0 37 35 37t35 -37v-537q0 -34 -35 -34zM1329 410q-14 0 -22 10l-271 268q-10 10 -10 24.5t10 24.5l271 269q8 12 22 12t25.5 -12.5t11.5 -26.5q0 -12 -10 -23 l-244 -243l244 -244q10 -10 10 -23q0 -14 -11.5 -25t-25.5 -11zM659 678q-35 0 -34.5 35t34.5 35h134q37 0 36.5 -35t-36.5 -35h-134z" glyph-name="glyph397" horiz-adv-x="1855"/></font>
</defs>
</svg>
