<?xml version="1.0" standalone="no"?>
<!DOCTYPE svg PUBLIC "-//W3C//DTD SVG 1.1//EN" "http://www.w3.org/Graphics/SVG/1.1/DTD/svg11.dtd">
<svg xmlns="http://www.w3.org/2000/svg"><metadata>This SVG WebFont was generated by YouWorkForThem.
Copyright (c)2016, Radnika designed by Alfredo Marco Pradil (ammpradil@gmail.com). Radnika is a trademark of Alfredo Marco Pradil.</metadata><defs><font horiz-adv-x="0" id="ywftsvg"><font-face ascent="1638" bbox="-1405 -502 2314 2140" cap-height="1413" descent="-410" font-family="" font-stretch="normal" font-weight="500" panose-1="0 0 6 0 0 0 0 0 0 0" underline-position="0" underline-thickness="0" unicode-range="U+0020-FB02" units-per-em="2048" x-height="1049"/><missing-glyph d="M-76 0l211 999h819l-211 -999h-819zM47 102h615l169 795h-614z" horiz-adv-x="888"/><glyph d="M1128 1049l-221 -1049h-205l191 901h-389l-191 -901h-207l191 901h-184l30 148h185l26 114q25 119 117 184.5t215 65.5h141l-34 -164h-97q-57 0 -95 -32.5t-48 -81.5l-18 -86h593zM1001 1413h207l-45 -209h-207z" glyph-name="uniFB01" horiz-adv-x="1181" unicode="fi"/><glyph d="M106 0l191 901h-184l30 148h185l26 114q25 119 117 184.5t215 65.5h168l-35 -164h-123q-57 0 -95 -32.5t-48 -81.5l-18 -86h241l-31 -148h-241l-191 -901h-207zM715 0l299 1413h207l-299 -1413h-207z" glyph-name="uniFB02" horiz-adv-x="1189" unicode="fl"/><glyph d="M1294 1255q-63 0 -112 -43t-62 -108l-14 -55h256l-31 -142h-254l-192 -907h-205l192 907h-372l-193 -907h-205l193 907h-182l30 142h183l16 75q29 137 124 213t241 76h155l-33 -158h-112q-63 0 -112.5 -43t-61.5 -108l-15 -55h375l17 75q29 137 124 213t240 76h156 l-33 -158h-113z" glyph-name="f_f.liga" horiz-adv-x="1277" unicode="ff"/><glyph d="M102 0l193 907h-182l30 142h183l16 75q29 137 124 213t241 76h155l-33 -158h-112q-63 0 -112.5 -43t-61.5 -108l-15 -55h394l16 75q29 137 124 213t241 76h155l-33 -158h-112q-63 0 -112.5 -43t-61.5 -108l-15 -55h607l-222 -1049h-204l192 907h-401l-193 -907h-205 l193 907h-391l-193 -907h-205zM1559 1204l45 209h204l-45 -209h-204z" glyph-name="f_f_i.liga" horiz-adv-x="1783" unicode="ffi"/><glyph d="M1339 1049l-30 -142h-254l-193 -907h-205l193 907h-350l-193 -907h-205l193 907h-182l30 142h183l16 75q29 137 124 213t241 76h155l-33 -158h-112q-63 0 -112.5 -43t-61.5 -108l-15 -55h353l16 75q29 137 124 213t241 76h155l-33 -158h-112q-63 0 -112.5 -43t-61.5 -108 l-15 -55h256zM1524 1413h207l-299 -1413h-207z" glyph-name="f_f_l.liga" horiz-adv-x="1699" unicode="ffl"/><glyph d="M-76 0l211 999h819l-211 -999h-819zM47 102h615l169 795h-614z" glyph-name=".notdef" horiz-adv-x="888"/><glyph glyph-name="glyph1"/><glyph glyph-name="glyph2" horiz-adv-x="681"/><glyph glyph-name="space" horiz-adv-x="468" unicode=" "/><glyph d="M176 408l184 1005h211l-241 -1005h-154zM49 0l49 233h236l-49 -233h-236z" glyph-name="exclam" horiz-adv-x="555" unicode="!"/><glyph d="M199 858l118 555h175l-119 -555h-174zM545 858l119 555h176l-119 -555h-176z" glyph-name="quotedbl" horiz-adv-x="778" unicode="&quot;"/><glyph d="M98 0l176 428h-223l31 139h252l125 299h-234l29 133h262l174 414h150l-170 -399h291l167 399h150l-170 -409h223l-28 -138h-254l-123 -299h233l-29 -135h-262l-180 -432h-151l178 418h-291l-174 -418h-152zM485 567h289l125 299h-291z" glyph-name="numbersign" horiz-adv-x="1302" unicode="#"/><glyph d="M686 831q37 -14 63.5 -25t61.5 -27.5t60.5 -32t53 -38t46 -45t35 -53t23.5 -63.5t7 -75t-10 -87q-39 -180 -188.5 -290.5t-350.5 -110.5q-41 0 -61 2l-39 -123l-158 49l37 117q-197 90 -250 319l179 92q61 -266 305 -266q119 0 207 61.5t110 165.5q4 20 5 40t-5 37.5 t-10 30.5t-19.5 27.5t-22.5 23.5t-30.5 23.5t-33 20.5t-39 20.5t-39 18.5t-43.5 21q-37 12 -62.5 22t-60.5 25.5t-58.5 30t-51.5 35t-45 42t-33.5 50t-22.5 59t-6 69.5t8 82q35 162 167 256.5t316 98.5l41 127l158 -50l-33 -100q154 -47 246 -199l-144 -116 q-94 160 -272 159q-100 0 -176 -53t-94 -139q-8 -39 1 -69.5t48 -60.5t63.5 -43t92.5 -46q16 -9 24 -13z" glyph-name="dollar" horiz-adv-x="1118" unicode="$"/><glyph d="M434 778q-80 0 -132 35t-70.5 87t-23.5 112.5t9 111.5q25 117 104.5 214.5t215.5 97.5q137 0 189 -106.5t24 -246.5q-27 -121 -110 -213t-206 -92zM182 2l1055 1409h197l-1055 -1409h-197zM438.5 913q67.5 0 114.5 61.5t63 139.5q18 70 -3 126t-87 56q-68 0 -114.5 -59 t-65.5 -137q-14 -72 5.5 -129.5t87 -57.5zM1102 -2q-78 0 -131 35t-71.5 87t-24 112.5t9.5 111.5q27 117 105.5 214t211.5 97q139 0 192.5 -107.5t22.5 -244.5q-25 -121 -107.5 -213t-207.5 -92zM1108 135q66 0 113 60.5t63 136.5q18 72 -3 129t-87 57q-68 0 -115 -61.5 t-63 -139.5q-14 -70 5 -126t87 -56z" glyph-name="percent" horiz-adv-x="1554" unicode="%"/><glyph d="M1386 739l-358 -411l246 -328h-273l-124 168q-195 -195 -443 -195q-199 0 -312.5 112t-72.5 304q59 272 408 387q-139 166 -103 330q33 156 156 240t270 84q160 0 250 -95.5t57 -263.5q-23 -100 -108.5 -182t-265.5 -164l207 -266l329 385zM547 1061q-16 -86 69 -213 q137 63 202 123.5t81 134.5q16 66 -17.5 111t-101.5 45q-82 0 -147.5 -56.5t-85.5 -144.5zM442 145q166 0 326 172l-236 322q-238 -96 -276 -283q-20 -94 36 -152.5t150 -58.5z" glyph-name="ampersand" horiz-adv-x="1376" unicode="&amp;"/><glyph d="M205 887l119 555h174l-119 -555h-174z" glyph-name="quotesingle" horiz-adv-x="432" unicode="'"/><glyph d="M217 -291q-78 170 -86 435.5t43 490.5q45 223 143.5 460.5t231.5 407.5h188q-319 -418 -411 -901q-96 -504 43 -893h-152z" glyph-name="parenleft" horiz-adv-x="638" unicode="("/><glyph d="M-78 -291q326 416 426 926q90 457 -37 868h156q68 -174 75 -429t-42 -476q-47 -233 -149.5 -477t-241.5 -412h-187z" glyph-name="parenright" horiz-adv-x="636" unicode=")"/><glyph d="M334 889l63 192l-176 -112l-43 102l191 80l-160 80l80 104l135 -114l22 192h119l-63 -192l178 114l41 -104l-189 -80l158 -80l-78 -102l-137 112l-22 -192h-119z" glyph-name="asterisk" horiz-adv-x="632" unicode="*"/><glyph d="M461 0l92 432h-426l39 172h424l90 432h172l-92 -432h424l-39 -172h-422l-90 -432h-172z" glyph-name="plus" horiz-adv-x="1312" unicode="+"/><glyph d="M66 254h266l-51 -254l-232 -330h-125l182 330h-94z" glyph-name="comma" horiz-adv-x="544" unicode=","/><glyph d="M162 432l37 172h757l-36 -172h-758z" glyph-name="hyphen" horiz-adv-x="1120" unicode="-"/><glyph d="M4 0l53 254h269l-54 -254h-268z" glyph-name="period" horiz-adv-x="481" unicode="."/><glyph d="M-66 -156l955 1567h201l-955 -1567h-201z" glyph-name="slash" horiz-adv-x="980" unicode="/"/><glyph d="M479 -20q-141 0 -234 66.5t-127 172t-39 239.5t30 269q29 135 80 255t126.5 225.5t186 167t241.5 61.5q174 0 274.5 -106.5t115 -273.5t-22.5 -372q-66 -303 -229.5 -503.5t-401.5 -200.5zM483 172q84 0 156 50t121 135t81.5 177.5t55.5 194.5q111 510 -164 510 q-88 0 -160.5 -48t-123 -133t-83 -175t-55.5 -197q-107 -514 172 -514z" glyph-name="zero" horiz-adv-x="1142" unicode="0"/><glyph d="M287 0l258 1204l-371 -198l41 206l383 201h199l-299 -1413h-211z" glyph-name="one" horiz-adv-x="831" unicode="1"/><glyph d="M2 0l39 186q31 150 127 257.5t212 167t230.5 110.5t203.5 126t111.5 177t-24.5 163.5t-145 61.5q-123 0 -216.5 -90t-119.5 -235l-203 41q53 217 196.5 342t348.5 125q209 0 310.5 -122t60.5 -317q-25 -115 -96.5 -204t-162 -140t-191.5 -102t-188 -91t-154 -105.5 t-83 -147.5l-22 -21h745l-37 -182h-942z" glyph-name="two" horiz-adv-x="1148" unicode="2"/><glyph d="M461 -20q-217 0 -338 120.5t-74 335.5l201 -4q-29 -129 35.5 -198.5t185.5 -69.5q125 0 229.5 71.5t130.5 192.5q25 113 -39.5 171t-185.5 58h-96l37 179h82q96 0 167.5 57t92.5 158q20 90 -34 143t-155 53q-113 0 -197.5 -66.5t-109.5 -170.5l-190 34q39 184 180 287 t330 103q197 0 306 -107.5t71 -290.5q-23 -104 -94.5 -179t-159.5 -97l-5 -19q115 -23 169.5 -110.5t25.5 -241.5q-43 -197 -201.5 -303t-363.5 -106z" glyph-name="three" horiz-adv-x="1122" unicode="3"/><glyph d="M879 530h208l-36 -178h-209l-74 -352h-207l74 352h-612l30 164l803 897h211zM674 530l135 625l-551 -625h416z" glyph-name="four" horiz-adv-x="1128" unicode="4"/><glyph d="M1163 1231h-598l-149 -393q55 47 136 74.5t155 27.5q199 0 299 -137t55 -348q-45 -209 -209 -342t-373 -133q-178 0 -294.5 116.5t-121.5 292.5l201 41q2 -119 65.5 -190.5t159.5 -71.5q127 0 229.5 93t131.5 235q27 121 -31.5 197.5t-173.5 76.5q-78 0 -160 -43 t-135 -106l-182 71l283 721h751z" glyph-name="five" horiz-adv-x="1138" unicode="5"/><glyph d="M465 -18q-229 0 -335.5 162.5t-39.5 492.5q168 797 678 797q326 0 395 -301l-174 -64q-20 92 -72.5 138t-150.5 46q-78 0 -147.5 -33.5t-116.5 -84t-87 -118t-62.5 -127t-37.5 -118.5q135 143 342 143q209 0 311.5 -131t55.5 -348q-41 -193 -200.5 -323.5t-358.5 -130.5z M481 164q127 0 227.5 88t125.5 221q23 119 -38 193.5t-178 74.5q-127 0 -222 -85t-120 -218q-23 -119 33.5 -196.5t171.5 -77.5z" glyph-name="six" horiz-adv-x="1110" unicode="6"/><glyph d="M137 0q219 797 705 1231h-647l38 182h861l-39 -209q-285 -248 -440.5 -540.5t-254.5 -663.5h-223z" glyph-name="seven" horiz-adv-x="940" unicode="7"/><glyph d="M465 -20q-223 0 -343 119.5t-81 310.5q29 127 123 225t223 125l21 8q-88 31 -131.5 122t-20.5 200q35 150 170 247t315 97q193 0 295.5 -110t67.5 -275q-23 -98 -94.5 -178t-167.5 -107l-21 -8q121 -33 179.5 -140.5t29.5 -246.5q-37 -174 -194.5 -281.5t-370.5 -107.5z M625 827q104 0 186 69t100 173q16 88 -33 144.5t-141 56.5q-106 0 -188 -67.5t-100 -170.5q-18 -90 32 -147.5t144 -57.5zM473 152q133 0 234.5 79.5t123.5 204.5q23 104 -41.5 172t-183.5 68q-131 0 -233.5 -80t-124.5 -201q-20 -106 42 -174.5t183 -68.5z" glyph-name="eight" horiz-adv-x="1128" unicode="8"/><glyph d="M723 1432q229 0 335.5 -163t39.5 -493q-168 -797 -678 -796q-326 0 -395 301l174 63q20 -92 72.5 -138t150.5 -46q78 0 147.5 33.5t116.5 84t87 118t62.5 127t36.5 118.5q-135 -143 -342 -143q-209 0 -311 131t-55 348q41 193 200.5 324t358.5 131zM707 1249 q-127 0 -227.5 -88t-125.5 -221q-23 -119 38 -193.5t177 -74.5q127 0 222.5 85t119.5 218q23 119 -33 196.5t-171 77.5z" glyph-name="nine" horiz-adv-x="1110" unicode="9"/><glyph d="M164 750l53 254h266l-51 -254h-268zM6 0l53 254h267l-54 -254h-266z" glyph-name="colon" horiz-adv-x="493" unicode=":"/><glyph d="M174 750l53 254h269l-54 -254h-268zM68 254h268l-51 -254l-232 -330h-129l182 330h-92z" glyph-name="semicolon" horiz-adv-x="548" unicode=";"/><glyph d="M997 147l-862 527l1086 526l-39 -186l-707 -340l563 -334z" glyph-name="less" horiz-adv-x="1232" unicode="&lt;"/><glyph d="M158 627l37 176h798l-37 -176h-798zM74 233l39 177h798l-39 -177h-798z" glyph-name="equal" horiz-adv-x="1071" unicode="="/><glyph d="M104 147l37 193l711 340l-561 342l35 178l864 -526z" glyph-name="greater" horiz-adv-x="1253" unicode=">"/><glyph d="M360 403l41 191q18 86 62.5 144.5t97.5 87t105.5 56t95.5 73.5t57 118q23 94 -28.5 141.5t-147.5 47.5q-104 0 -186 -63.5t-105 -160.5l-178 19q37 164 167 270.5t304 106.5q182 0 285.5 -104.5t62.5 -285.5q-20 -86 -66 -145t-99.5 -91t-106.5 -58.5t-95 -69.5t-57 -107 l-34 -170h-175zM250 0l49 233h231l-49 -233h-231z" glyph-name="question" horiz-adv-x="958" unicode="?"/><glyph d="M772 -360q-373 0 -572.5 260t-117.5 647q80 375 379 630t659 255q246 0 429.5 -123t259 -332t22.5 -453q-49 -233 -198.5 -412.5t-358.5 -179.5q-137 0 -195.5 78t-13.5 207q-139 -164 -336 -164q-158 0 -221.5 114t-24.5 288q45 215 208 395t360 180q104 0 170.5 -53 t60.5 -148l64 154h176l-287 -694q-43 -111 -28.5 -150t83.5 -41q133 -2 237.5 138.5t143.5 326.5q63 291 -99.5 497t-453.5 206q-301 0 -554 -217.5t-320 -536.5q-63 -293 82 -497.5t446 -204.5q109 0 223 32l37 -164q-131 -38 -260 -38zM766 225q152 0 273.5 139.5 t156.5 301.5q43 199 -127 198q-152 0 -273.5 -137t-156.5 -301q-43 -201 127 -201z" glyph-name="at" horiz-adv-x="1908" unicode="@"/><glyph d="M909 0l-32 319h-582l-168 -319h-236l781 1413h286l177 -1413h-226zM387 494h473l-76 743h-6z" glyph-name="A" horiz-adv-x="1251" unicode="A"/><glyph d="M70 0l299 1413h551q209 0 307 -107.5t59 -291.5q-23 -111 -103.5 -182.5t-170.5 -86.5v-12q113 -10 175 -111.5t32 -248.5q-39 -176 -175.5 -274.5t-336.5 -98.5h-637zM455 809h319q106 0 195.5 61.5t111.5 167.5q20 96 -27.5 143.5t-164.5 47.5h-346zM322 190h385 q260 0 313 234q18 94 -40 150.5t-163 56.5h-401z" glyph-name="B" horiz-adv-x="1329" unicode="B"/><glyph d="M621 -20q-309 0 -440.5 206.5t-59.5 540.5q68 319 273.5 514t502.5 195q205 0 339 -108.5t161 -293.5l-201 -61q-10 131 -91 200.5t-218 69.5q-203 0 -356.5 -148.5t-204.5 -398.5q-51 -242 30.5 -383t272.5 -141q135 0 259 80t197 213l175 -98q-100 -184 -271 -285.5 t-368 -101.5z" glyph-name="C" horiz-adv-x="1343" unicode="C"/><glyph d="M70 0l299 1413h383q352 0 501.5 -190.5t73.5 -542.5q-70 -330 -292 -505t-570 -175h-395zM324 193h141q543 0 657 534q53 250 -45 372t-356 122h-178z" glyph-name="D" horiz-adv-x="1372" unicode="D"/><glyph d="M70 0l299 1413h931l-40 -186h-717l-90 -426h634l-36 -187h-637l-92 -428h716l-37 -186h-931z" glyph-name="E" horiz-adv-x="1214" unicode="E"/><glyph d="M70 0l299 1413h940l-39 -186h-727l-90 -426h637l-37 -187h-639l-131 -614h-213z" glyph-name="F" horiz-adv-x="1165" unicode="F"/><glyph d="M834 567l36 176h512l-157 -743h-168l37 211q-82 -102 -213 -166.5t-283 -64.5q-199 0 -325 103t-157.5 270t7.5 378q63 305 272 505t520 200q211 0 342.5 -103.5t169.5 -288.5l-194 -47q-63 248 -332 248q-227 0 -375.5 -155.5t-197.5 -395.5q-49 -225 24.5 -372.5 t282.5 -147.5q184 0 324.5 108.5t187.5 284.5h-313z" glyph-name="G" horiz-adv-x="1492" unicode="G"/><glyph d="M70 0l299 1413h215l-131 -612h659l129 612h215l-301 -1413h-213l129 612h-657l-131 -612h-213z" glyph-name="H" horiz-adv-x="1445" unicode="H"/><glyph d="M70 0l299 1413h213l-299 -1413h-213z" glyph-name="I" horiz-adv-x="573" unicode="I"/><glyph d="M-49 197q80 -25 141 -25q248 0 318 326l194 915h213l-203 -958q-47 -225 -176 -350t-340 -125q-96 0 -174 22z" glyph-name="J" horiz-adv-x="761" unicode="J"/><glyph d="M1446 1413l-658 -577l412 -836h-242l-325 698l-248 -217l-102 -481h-213l299 1413h215l-142 -659l727 659h277z" glyph-name="K" horiz-adv-x="1320" unicode="K"/><glyph d="M70 0l299 1413h213l-260 -1227h604l-39 -186h-817z" glyph-name="L" horiz-adv-x="1015" unicode="L"/><glyph d="M70 0l299 1413h329l127 -1188l639 1188h334l-299 -1413h-213l252 1188h-8l-633 -1188h-225l-127 1188h-10l-252 -1188h-213z" glyph-name="M" horiz-adv-x="1789" unicode="M"/><glyph d="M70 0l299 1413h260l424 -1132h12l242 1132h213l-299 -1413h-265l-421 1137h-11l-241 -1137h-213z" glyph-name="N" horiz-adv-x="1511" unicode="N"/><glyph d="M631 -20q-305 0 -443.5 203.5t-66.5 543.5q70 326 281.5 516.5t504.5 190.5q305 0 443.5 -203t66.5 -545q-70 -324 -281.5 -515t-504.5 -191zM639 170q205 0 360.5 151.5t206.5 405.5q51 238 -30.5 377t-276.5 139q-205 0 -359.5 -151.5t-207.5 -405.5 q-51 -238 31.5 -377t275.5 -139z" glyph-name="O" horiz-adv-x="1462" unicode="O"/><glyph d="M70 0l299 1413h592q223 0 328.5 -126t60.5 -343q-43 -199 -186.5 -306.5t-368.5 -107.5h-400l-112 -530h-213zM434 717h373q287 0 336 260q53 250 -219 250h-381z" glyph-name="P" horiz-adv-x="1310" unicode="P"/><glyph d="M1417 686q-72 -326 -282 -516l143 -178l-141 -123l-154 194q-158 -84 -352 -83q-305 0 -443.5 203.5t-66.5 543.5q70 326 281.5 516.5t504.5 190.5q305 0 443.5 -203t66.5 -545zM817 565l191 -235q147 150 198 397q51 238 -30.5 377t-276.5 139q-205 0 -359.5 -151.5 t-207.5 -405.5q-51 -238 31.5 -377t275.5 -139q115 0 221 51l-176 225z" glyph-name="Q" horiz-adv-x="1468" unicode="Q"/><glyph d="M68 -2l301 1415h598q205 0 315.5 -114.5t71.5 -305.5q-61 -274 -357 -356l195 -639h-225l-176 614h-379l-131 -614h-213zM451 786l411 2q246 10 287 232q18 98 -35 153.5t-176 55.5h-395z" glyph-name="R" horiz-adv-x="1349" unicode="R"/><glyph d="M487 -16q-176 0 -303 93t-168 271l179 92q61 -266 305 -266q119 0 207 61.5t110 165.5q4 20 5 40t-5 37.5t-10 30.5t-19.5 27.5t-22.5 23.5t-30.5 23.5t-33 20.5t-39 20.5t-39 18.5t-43.5 21q-37 12 -62.5 22t-60.5 25.5t-58.5 30t-51.5 35t-45 42t-33.5 50t-22.5 59 t-6 69.5t8 82q35 164 170 259.5t323 95.5q266 0 402 -222l-144 -116q-94 160 -272 159q-100 0 -176 -53t-94 -139q-8 -39 1 -69.5t48 -60.5t63.5 -43t92.5 -46q16 -8 24 -13q37 -14 63.5 -25t61.5 -27.5t60.5 -32t53 -38t46 -45t35 -53t23.5 -63.5t7 -75t-10 -87 q-39 -180 -188.5 -290.5t-350.5 -110.5z" glyph-name="S" horiz-adv-x="1118" unicode="S"/><glyph d="M365 0l262 1229h-459l37 184h1130l-39 -184h-456l-260 -1229h-215z" glyph-name="T" horiz-adv-x="1165" unicode="T"/><glyph d="M584 -20q-254 0 -364.5 143t-57.5 395l190 895h213l-194 -921q-33 -152 25.5 -235t195.5 -83q150 0 256 91t139 245l193 903h213l-191 -903q-53 -256 -212.5 -393t-405.5 -137z" glyph-name="U" horiz-adv-x="1368" unicode="U"/><glyph d="M383 0l-178 1413h223l125 -1235h6l651 1235h236l-778 -1413h-285z" glyph-name="V" horiz-adv-x="1267" unicode="V"/><glyph d="M225 0l-18 1413h219l-6 -1216h8l565 1216h267l49 -1216h6l512 1216h225l-622 -1413h-293l-50 1212l-567 -1212h-295z" glyph-name="W" horiz-adv-x="1878" unicode="W"/><glyph d="M-104 0l622 707l-315 706h256l227 -551l467 551h266l-620 -706l317 -707h-256l-231 541l-465 -541h-268z" glyph-name="X" horiz-adv-x="1239" unicode="X"/><glyph d="M461 0l121 551l-385 862h239l285 -668l575 668h252l-753 -862l-119 -551h-215z" glyph-name="Y" horiz-adv-x="1359" unicode="Y"/><glyph d="M1341 1413l-30 -164l-1055 -1063h825l-39 -186h-1118l31 156l1061 1071h-787l39 186h1073z" glyph-name="Z" horiz-adv-x="1187" unicode="Z"/><glyph d="M-35 -291l383 1794h389l-35 -166h-223l-311 -1460h223l-37 -168h-389z" glyph-name="bracketleft" horiz-adv-x="565" unicode="["/><glyph d="M561 -156l-289 1567h189l291 -1567h-191z" glyph-name="backslash" horiz-adv-x="980" unicode="\"/><glyph d="M254 -291h-391l37 168h223l309 1460h-221l33 166h391z" glyph-name="bracketright" horiz-adv-x="565" unicode="]"/><glyph d="M27 584l571 827l229 -827h-194l-96 477l-306 -477h-204z" glyph-name="asciicircum" horiz-adv-x="833" unicode="^"/><glyph d="M-147 -154l32 154h820l-33 -154h-819z" glyph-name="underscore" horiz-adv-x="813" unicode="_"/><glyph d="M440 1120l-241 244h233l170 -244h-162z" glyph-name="grave" horiz-adv-x="501" unicode="`"/><glyph d="M649 1069q190 0 298 -88t73 -250l-154 -731h-188l27 125q-84 -68 -189.5 -108t-191.5 -40q-160 0 -239 84t-50 228q10 45 26.5 82t48 68.5t58.5 55t80 47t89 39t107.5 37t114.5 33t133 35t139 35.5v2q20 94 -26.5 135t-161.5 41q-190 0 -334 -147l-129 112 q195 205 469 205zM356 156q207 0 396 188l43 211q-311 -90 -394 -129q-135 -66 -153 -156q-12 -55 18.5 -84.5t89.5 -29.5z" glyph-name="a" horiz-adv-x="1099" unicode="a"/><glyph d="M817 1069q227 0 316.5 -156.5t33.5 -408.5q-49 -238 -192.5 -382.5t-358.5 -144.5q-229 0 -321 162l-12 -2l-27 -137h-203l299 1413h205l-100 -489q149 145 360 145zM969 545q68 344 -226 344q-141 0 -246.5 -104.5t-138.5 -278.5q-33 -166 23.5 -259t185.5 -93 q162 0 264.5 101.5t137.5 289.5z" glyph-name="b" horiz-adv-x="1251" unicode="b"/><glyph d="M467 -23q-238 0 -336 163t-47 403q49 227 202.5 376.5t379.5 149.5q166 0 263 -80t122 -219l-183 -49q-4 88 -58 134t-144 46q-150 0 -251.5 -117.5t-135.5 -281.5q-31 -145 13 -250t181 -105q102 0 186 55.5t127 141.5l156 -80q-158 -287 -475 -287z" glyph-name="c" horiz-adv-x="1048" unicode="c"/><glyph d="M1071 1413h205l-299 -1413h-203l25 125q-152 -147 -365 -148q-227 0 -316 157t-34 411q49 236 191.5 380t359.5 144q225 0 321 -164l11 2zM500 154q143 0 249.5 105.5t145.5 285.5q35 160 -20.5 252t-186.5 92q-160 0 -264.5 -100.5t-140.5 -282.5q-76 -352 217 -352z " glyph-name="d" horiz-adv-x="1251" unicode="d"/><glyph d="M668 1069q229 0 314 -156.5t36 -384.5q-4 -31 -19 -71l-729 6q-47 -305 236 -305q152 0 289 104l112 -125q-199 -158 -424 -157q-246 0 -349 156.5t-52 395.5q47 229 203 383t383 154zM647 893q-121 0 -211 -71.5t-131 -198.5l531 -2q23 123 -23.5 197.5t-165.5 74.5z " glyph-name="e" horiz-adv-x="1097" unicode="e"/><glyph d="M102 0l193 907h-182l30 142h183l16 75q29 137 124 213t241 76h155l-33 -158h-112q-63 0 -112.5 -43t-61.5 -108l-15 -55h256l-30 -142h-254l-193 -907h-205z" glyph-name="f" horiz-adv-x="700" unicode="f"/><glyph d="M426 -385q-172 0 -295 56.5t-162 166.5l131 90q55 -154 310 -153q141 0 242.5 71.5t123.5 186.5l33 131q-135 -145 -358 -146q-225 0 -319.5 154t-43.5 395q49 227 196.5 364.5t366.5 137.5q223 0 303 -158l13 11l24 127h207l-219 -1029q-43 -203 -192.5 -304 t-360.5 -101zM514 186q158 0 256 99.5t129 263.5q31 152 -19.5 251t-199.5 99q-156 0 -258.5 -105.5t-134.5 -271.5q-29 -147 25.5 -241.5t201.5 -94.5z" glyph-name="g" horiz-adv-x="1251" unicode="g"/><glyph d="M53 0l299 1413h205l-108 -512l8 8q137 160 334 160q170 0 244.5 -108.5t37.5 -282.5l-141 -678h-205l141 666q47 227 -141 227q-121 0 -218 -83t-122 -202l-129 -608h-205z" glyph-name="h" horiz-adv-x="1181" unicode="h"/><glyph d="M307 1204l45 209h207l-45 -209h-207zM53 0l221 1049h205l-221 -1049h-205z" glyph-name="i" horiz-adv-x="534" unicode="i"/><glyph d="M301 1202l45 211h221l-43 -211h-223zM-225 -365l20 166q100 0 172 58.5t90 146.5l222 1043h204l-221 -1045q-39 -188 -159.5 -278.5t-327.5 -90.5z" glyph-name="j" horiz-adv-x="544" unicode="j"/><glyph d="M1178 1049l-523 -424l351 -625h-218l-272 512l-180 -147l-78 -365h-205l299 1413h205l-170 -801l537 437h254z" glyph-name="k" horiz-adv-x="1097" unicode="k"/><glyph d="M47 0l299 1413h207l-299 -1413h-207z" glyph-name="l" horiz-adv-x="522" unicode="l"/><glyph d="M53 0l221 1049h203l-31 -144l5 8q125 156 309 156q100 0 166.5 -50t87.5 -147l12 17q76 96 156 139t182 41q168 -2 237.5 -108.5t32.5 -286.5l-143 -674h-205l144 672q45 217 -142 217q-115 0 -188.5 -80t-100.5 -205l-127 -604h-204l143 676q45 213 -135 213 q-117 0 -190.5 -80t-100.5 -205l-127 -604h-205z" glyph-name="m" horiz-adv-x="1740" unicode="m"/><glyph d="M53 0l221 1049h205l-33 -148l9 8q135 160 333 160q166 0 245 -108.5t40 -282.5l-141 -678h-205l141 666q25 121 -11 174t-128 53q-121 0 -218 -80t-124 -205l-129 -608h-205z" glyph-name="n" horiz-adv-x="1181" unicode="n"/><glyph d="M485 -23q-231 0 -344.5 148.5t-56.5 415.5q53 254 217 391t385 137q233 0 347 -151.5t54 -417.5q-53 -252 -218 -387.5t-384 -135.5zM503.5 152q149.5 0 253 96t142.5 280q39 178 -19.5 272.5t-207.5 94.5q-152 0 -254.5 -99.5t-141.5 -281.5q-39 -174 19.5 -268t208 -94 z" glyph-name="o" horiz-adv-x="1173" unicode="o"/><glyph d="M-25 -365l299 1414h203l-33 -162l7 24q135 158 366 158q215 0 308.5 -157.5t41.5 -407.5q-51 -233 -199.5 -380t-351.5 -147q-125 0 -207.5 51.5t-117.5 133.5l-2 6l-111 -533h-203zM567 150q150 0 257.5 104t144.5 293q33 166 -26.5 258t-199.5 92q-143 0 -250.5 -106.5 t-142.5 -284.5q-35 -168 24.5 -262t192.5 -94z" glyph-name="p" horiz-adv-x="1249" unicode="p"/><glyph d="M993 1049h203l-299 -1414h-201l109 508q-141 -166 -371 -166q-215 0 -309 159t-41 409q49 233 196.5 378.5t352.5 145.5q121 0 204 -48t117 -128l9 -6zM899 547q33 162 -25.5 256t-191.5 94q-150 0 -257.5 -104.5t-141.5 -286.5q-35 -170 24.5 -263t196.5 -93 q145 0 253.5 106.5t141.5 290.5z" glyph-name="q" horiz-adv-x="1249" unicode="q"/><glyph d="M821 874q-178 27 -300 -87.5t-167 -333.5l-96 -453h-205l221 1049h197l-37 -172l8 4q117 184 285 184q88 0 135 -21z" glyph-name="r" horiz-adv-x="774" unicode="r"/><glyph d="M399 -23q-143 0 -253.5 64.5t-153.5 163.5l141 102q57 -158 254 -164q104 -2 185 42t100 126q8 33 0 56.5t-40 40t-57.5 25.5t-80.5 24q-25 6 -37 10q-37 8 -64.5 15t-62.5 18.5t-58.5 24t-50 29.5t-39 37.5t-27 49.5t-11.5 61.5t8 73.5q31 143 149.5 218t290.5 75 q248 0 362 -188l-125 -107q-72 123 -227 133q-98 4 -173 -36t-89 -107q0 -16 -4 -26.5t7 -23t16.5 -19.5t23.5 -16t30.5 -14.5t37 -12.5t40 -12t42 -12t45.5 -14q76 -16 127 -36.5t99 -56.5t64.5 -93t-0.5 -137q-33 -147 -164 -230.5t-305 -83.5z" glyph-name="s" horiz-adv-x="983" unicode="s"/><glyph d="M342 0q-131 0 -185.5 73.5t-23.5 211.5l131 622h-153l28 142h156l76 364h204l-77 -364h264l-31 -142h-264l-125 -594q-20 -88 0 -118.5t94 -30.5h137l-32 -164h-199z" glyph-name="t" horiz-adv-x="696" unicode="t"/><glyph d="M1135 1049l-222 -1049h-204l34 147l-16 -8q-129 -158 -326 -157q-172 0 -247.5 108.5t-38.5 282.5l141 676h205l-139 -654q-47 -225 143 -225q125 0 220 81t118 198l127 600h205z" glyph-name="u" horiz-adv-x="1187" unicode="u"/><glyph d="M870 1049h224l-566 -1049h-268l-119 1049h217l66 -899z" glyph-name="v" horiz-adv-x="1005" unicode="v"/><glyph d="M1395 1049h223l-469 -1049h-283l-47 782l-379 -784h-282l-21 1051h217l-16 -893l442 893h185l63 -902z" glyph-name="w" horiz-adv-x="1529" unicode="w"/><glyph d="M-100 0l471 528l-242 521h231l162 -383l330 383h246l-471 -521l243 -528h-233l-160 391l-332 -391h-245z" glyph-name="x" horiz-adv-x="997" unicode="x"/><glyph d="M-115 -365l21 166q102 0 181 37t114 77t75 105l-147 1029h213l76 -803h14l414 803h227l-622 -1100q-113 -197 -237 -255.5t-329 -58.5z" glyph-name="y" horiz-adv-x="962" unicode="y"/><glyph d="M1014 1049l-31 -162l-737 -717h575l-35 -170h-839l28 150l752 731h-577l34 168h830z" glyph-name="z" horiz-adv-x="956" unicode="z"/><glyph d="M334 -291q-111 0 -174.5 83t-38.5 194l90 438q6 27 7 45t-5 29.5t-11 18.5t-21.5 10t-27 4t-32.5 1l18 168q131 -4 162 125l90 441q23 113 112 186.5t202 73.5h98l-41 -193h-57q-45 0 -88.5 -32.5t-55.5 -75.5l-86 -420q-8 -45 -13 -61.5t-18.5 -47t-37 -51t-62.5 -39.5 q49 -27 57.5 -82t-12.5 -116l-86 -418q-10 -43 11.5 -66.5t66.5 -23.5h78l-41 -191h-84z" glyph-name="braceleft" horiz-adv-x="659" unicode="{"/><glyph d="M37 -156l362 1690h148l-361 -1690h-149z" glyph-name="bar" horiz-adv-x="516" unicode="|"/><glyph d="M-4 -291h-100l38 191h60q45 0 88 32.5t53 75.5l88 418q2 6 7.5 30.5t7.5 31t8 25.5t11 26.5t14.5 23t20.5 23.5t26.5 19t35.5 20q-49 29 -57 84t10 114l92 420q8 43 -14.5 66.5t-67.5 23.5h-77l41 193h86q113 0 175 -83t38 -196l-99 -440q-14 -72 9.5 -90.5t87.5 -16.5 l-21 -168q-61 -2 -100 -27.5t-56 -98.5l-96 -439q-23 -111 -110.5 -184.5t-198.5 -73.5z" glyph-name="braceright" horiz-adv-x="661" unicode="}"/><glyph d="M655 369q-74 0 -127 41t-95 81.5t-87 40.5q-53 0 -91 -41.5t-50 -111.5l-148 18q66 293 273 293q68 0 118 -25.5t73.5 -55t56 -55.5t69.5 -26q115 0 150 166l151 -18q-33 -152 -107.5 -229.5t-185.5 -77.5z" glyph-name="asciitilde" horiz-adv-x="1001" unicode="~"/><glyph d="M221 815l49 234h236l-49 -234h-236zM-23 -387l248 1028h154l-191 -1028h-211z" glyph-name="exclamdown" horiz-adv-x="555" unicode="¡"/><glyph d="M473 147q102 0 186 55.5t127 141.5l156 -80q-143 -262 -426 -284l-39 -185h-149l41 191q-184 35 -257 190.5t-28 366.5q45 209 180 354t334 168l29 135h149l-28 -137q129 -18 205.5 -95t97.5 -198l-183 -49q-4 88 -58 134t-144 46q-150 0 -251.5 -117.5t-135.5 -281.5 q-31 -145 13 -250t181 -105z" glyph-name="cent" horiz-adv-x="1048" unicode="¢"/><glyph d="M434 553l-78 -371h750l-39 -182h-944l117 553h-164l37 170h163l48 221q45 217 205.5 353.5t367.5 136.5q156 0 269.5 -97.5t131.5 -244.5l-196 -56q-2 90 -63.5 145.5t-151.5 55.5q-137 0 -240.5 -86t-132.5 -225l-43 -203h381l-37 -170h-381z" glyph-name="sterling" horiz-adv-x="1261" unicode="£"/><glyph d="M147 190l-94 121l131 113q-61 123 -28 276q29 143 137 252l-84 97l135 120l82 -104q131 82 274 82q150 0 252 -92l133 114l95 -120l-131 -113q63 -121 30 -277q-29 -139 -137 -251l82 -97l-135 -121l-82 105q-129 -82 -272 -82q-150 0 -254 92zM543 379q133 0 243.5 89 t137.5 226q25 123 -46 205t-188 82q-129 0 -238.5 -93t-138.5 -222q-25 -123 45 -205t185 -82z" glyph-name="currency" horiz-adv-x="1167" unicode="¤"/><glyph d="M428 -4l37 170h-301l31 143h301l47 215h-301l28 142h242l-315 747h196l275 -684l571 684h209l-633 -747h234l-29 -142h-301l-45 -215h299l-31 -143h-299l-37 -170h-178z" glyph-name="yen" horiz-adv-x="1261" unicode="¥"/><glyph d="M231 762l138 651h168l-140 -651h-166zM35 -156l133 623h168l-133 -623h-168z" glyph-name="brokenbar" horiz-adv-x="528" unicode="¦"/><glyph d="M479 -18q-162 0 -266 74.5t-115 222.5l203 40q4 -84 52 -119.5t143 -35.5q217 0 247 153q10 47 -28.5 74t-102 36t-137.5 27.5t-135 44t-92 88t-10 156.5q23 117 141 203q-82 70 -53 207q29 135 146.5 208t268.5 73q150 0 242 -72t107 -205l-191 -29q-8 129 -164 129 q-82 0 -147.5 -39.5t-81.5 -113.5q-10 -43 28.5 -68.5t104.5 -35t138.5 -29t134 -46t91 -91t9.5 -162.5q-23 -115 -135 -199q80 -66 51 -201q-31 -150 -157 -220t-292 -70zM698 578q115 45 127 153q2 23 -6 40t-27.5 29.5t-38 21.5t-49 16.5t-51 10.5t-52.5 8t-44 7 q-115 -41 -131 -151q-2 -31 13.5 -52.5t52 -35t62.5 -20.5t79 -16t65 -11z" glyph-name="section" horiz-adv-x="1114" unicode="§"/><glyph d="M184 1153l43 211h185l-43 -211h-185zM528 1153l45 211h183l-43 -211h-185z" glyph-name="dieresis" horiz-adv-x="628" unicode="¨"/><glyph d="M889 -55q-311 0 -532.5 224t-221.5 539.5t221.5 538.5t532.5 223t534.5 -223t223.5 -538.5t-223.5 -539.5t-534.5 -224zM889 55q264 0 455.5 193.5t191.5 460t-190.5 459t-456.5 192.5q-262 0 -452.5 -192.5t-190.5 -459t190.5 -460t452.5 -193.5zM881 199 q-215 0 -330 146.5t-115 363.5q-4 221 114 368.5t335 147.5q297 0 395 -269l-147 -63q-23 84 -90.5 133t-159.5 49q-139 0 -211 -109.5t-70 -254.5q4 -147 75 -253t208 -106q94 -2 159.5 47.5t90.5 128.5l141 -55q-92 -274 -395 -274z" glyph-name="copyright" horiz-adv-x="1703" unicode="©"/><glyph d="M444 1434q129 0 203 -60.5t49 -171.5l-104 -500h-129l18 84q-127 -100 -260 -100q-109 0 -163 58.5t-33 154.5q8 35 24.5 63.5t33.5 50t53 41t61.5 33t79 30t84 24.5t100 26.5t106.5 28.5q14 66 -18.5 93.5t-110.5 27.5q-127 0 -227 -100l-88 75q135 142 321 142z M244 809q143 0 268 129l31 143q-236 -68 -293 -100q-70 -41 -80 -94q-8 -37 12.5 -57.5t61.5 -20.5z" glyph-name="ordfeminine" horiz-adv-x="722" unicode="ª"/><glyph d="M453 168l-332 342l473 344l-35 -186l-223 -158l151 -154zM877 168l-332 342l473 344l-35 -186l-223 -158l151 -154z" glyph-name="guillemotleft" horiz-adv-x="1075" unicode="«"/><glyph d="M793 207l86 409h-723l37 181h917l-123 -590h-194z" glyph-name="logicalnot" horiz-adv-x="1189" unicode="¬"/><glyph d="M637 352q-219 0 -373.5 158t-154.5 383t154.5 383t373.5 158t374.5 -159t155.5 -382t-155.5 -382t-374.5 -159zM637 446q180 0 311 132.5t131 314.5t-131 315t-311 133t-310 -133t-130 -315t130 -314.5t310 -132.5zM457 614v553h215q92 0 142 -43t50 -123 q0 -119 -108 -155l143 -232h-131l-119 217h-78v-217h-114zM563 930h109q86 0 86 71.5t-86 71.5h-109v-143z" glyph-name="registered" horiz-adv-x="1275" unicode="®"/><glyph d="M205 1186l24 123h551l-26 -123h-549z" glyph-name="macron" horiz-adv-x="679" unicode="¯"/><glyph d="M385 811q-133 0 -223 89t-90 222t90 222.5t223 89.5t224 -89.5t91 -222.5t-91 -222t-224 -89zM385 954q72 0 121 48.5t49 120t-49 119.5t-121 48q-70 0 -119 -49t-49 -119q0 -72 48 -120t120 -48z" glyph-name="degree" horiz-adv-x="772" unicode="°"/><glyph d="M537 256l94 440h-457l31 154h457l94 442h153l-94 -442h457l-33 -154h-457l-92 -440h-153zM27 -2l32 154h1065l-32 -154h-1065z" glyph-name="plusminus" horiz-adv-x="1339" unicode="±"/><glyph d="M156 1122l274 242h244l-359 -242h-159z" glyph-name="acute" horiz-adv-x="501" unicode="´"/><glyph d="M-20 -266l268 1265h196l-122 -589q-53 -252 127 -252q117 0 217 85t127 201l114 555h197l-211 -999h-197l35 145q-53 -70 -141 -119t-176 -49q-96 0 -168 43l-90 -286h-176z" glyph-name="uni00B5" horiz-adv-x="1167" unicode="µ"/><glyph d="M360 -287l201 910q-186 0 -298.5 113.5t-74.5 301.5q37 172 188.5 273.5t336.5 101.5h147l-360 -1700h-140zM680 -287l358 1700h144l-361 -1700h-141z" glyph-name="paragraph" horiz-adv-x="1150" unicode="¶"/><glyph d="M297 672q-63 0 -99 46t-22 111q10 51 52 85t96 34q63 0 99 -45t21 -112q-10 -49 -53 -84t-94 -35z" glyph-name="periodcentered" horiz-adv-x="499" unicode="·"/><glyph d="M37 -500q-78 0 -128 40t-63 100l111 34q0 -68 78 -67q45 0 75.5 25.5t36.5 62.5q12 72 -75 98l-123 35l131 172h145l-106 -125l28 -16q61 -20 95 -69.5t18 -123.5q-16 -82 -81.5 -124t-141.5 -42z" glyph-name="cedilla" horiz-adv-x="460" unicode="¸"/><glyph d="M330 696q-156 0 -233 99.5t-38 279.5q35 172 145.5 264.5t260.5 92.5q158 0 234.5 -101.5t35.5 -281.5q-35 -170 -146.5 -261.5t-258.5 -91.5zM342 813q100 0 170 64.5t96 189.5q27 121 -13 184.5t-140 63.5q-102 0 -171 -66.5t-96 -191.5q-27 -117 13.5 -180.5 t140.5 -63.5z" glyph-name="ordmasculine" horiz-adv-x="794" unicode="º"/><glyph d="M55 168l37 190l223 152l-155 154l37 190l333 -344zM479 168l37 190l223 152l-153 154l35 190l333 -344z" glyph-name="guillemotright" horiz-adv-x="1081" unicode="»"/><glyph d="M709 1049l-50 -234h-231l49 234h232zM598 645l-41 -190q-18 -86 -62 -144.5t-97.5 -87t-105.5 -56.5t-95 -74t-58 -118q-23 -94 28.5 -141t147.5 -47q104 0 186.5 63.5t104.5 159.5l178 -18q-37 -164 -167 -270.5t-304 -106.5q-182 0 -285.5 104.5t-62.5 284.5 q20 86 66.5 145.5t99.5 91t106.5 58.5t95.5 70t56 106l35 170h174z" glyph-name="questiondown" horiz-adv-x="958" unicode="¿"/><glyph d="M924 1532h-162l-180 244h233zM909 0l-32 319h-582l-168 -319h-236l781 1413h286l177 -1413h-226zM387 494h473l-76 743h-6z" glyph-name="Agrave" horiz-adv-x="1251" unicode="À"/><glyph d="M1219 1776l-297 -242h-160l213 242h244zM672 1413h286l177 -1413h-226l-32 319h-582l-168 -319h-236zM387 494h473l-76 743h-6z" glyph-name="Aacute" horiz-adv-x="1251" unicode="Á"/><glyph d="M874 1657l-161 -148h-172l307 267h86l196 -267h-159zM909 0l-32 319h-582l-168 -319h-236l781 1413h286l177 -1413h-226zM387 494h473l-76 743h-6z" glyph-name="Acircumflex" horiz-adv-x="1251" unicode="Â"/><glyph d="M1012 1520q-55 0 -100.5 21.5t-68 48t-53 48t-61.5 21.5q-49 0 -84 -39t-43 -98l-119 18q49 236 230 236q76 0 126 -36t86 -71t76 -35q51 0 86 41t46 109l120 -19q-53 -245 -241 -245zM909 0l-32 319h-582l-168 -319h-236l781 1413h286l177 -1413h-226zM387 494h473 l-76 743h-6z" glyph-name="Atilde" horiz-adv-x="1251" unicode="Ã"/><glyph d="M813 1776l-43 -211h-184l43 211h184zM1157 1776l-43 -211h-184l45 211h182zM672 1413h286l177 -1413h-226l-32 319h-582l-168 -319h-236zM387 494h473l-76 743h-6z" glyph-name="Adieresis" horiz-adv-x="1251" unicode="Ä"/><glyph d="M965 1360l170 -1360h-226l-32 319h-582l-168 -319h-236l756 1368q-66 76 -41 193q16 88 93 148t167 60q104 0 162.5 -73.5t36.5 -182.5q-22 -92 -100 -153zM715 1546q-12 -53 17.5 -93t84.5 -40q49 0 88 33t49 80q12 53 -18.5 92t-83.5 39q-47 0 -87 -32t-50 -79z M387 494h473l-76 743h-6z" glyph-name="Aring" horiz-adv-x="1251" unicode="Å"/><glyph d="M1894 1225h-716l-91 -424h629l-39 -189h-630l-89 -419h717l-41 -193h-927l63 303h-461l-178 -303h-240l848 1413h1194zM809 487l160 750h-113l-440 -750h393z" glyph-name="AE" horiz-adv-x="1847" unicode="Æ"/><glyph d="M629 172q135 0 259 80t197 213l175 -98q-90 -166 -239 -265.5t-325 -117.5l-92 -109l29 -16q61 -20 95 -69.5t17 -123.5q-16 -82 -81.5 -124t-141.5 -42q-78 0 -128 40t-62 100l110 34q0 -68 78 -67q45 0 76 25.5t37 62.5q12 72 -76 98l-123 35l117 154 q-272 25 -384 227.5t-46 517.5q68 319 273.5 514t502.5 195q205 0 339 -108.5t161 -293.5l-201 -61q-10 131 -91 200.5t-218 69.5q-203 0 -356.5 -148.5t-204.5 -398.5q-51 -242 31 -383t272 -141z" glyph-name="Ccedilla" horiz-adv-x="1343" unicode="Ç"/><glyph d="M780 1532l-180 244h234l108 -244h-162zM70 0l299 1413h931l-40 -186h-717l-90 -426h634l-36 -187h-637l-92 -428h716l-37 -186h-931z" glyph-name="Egrave" horiz-adv-x="1214" unicode="È"/><glyph d="M780 1534l213 242h244l-297 -242h-160zM70 0l299 1413h931l-40 -186h-717l-90 -426h634l-36 -187h-637l-92 -428h716l-37 -186h-931z" glyph-name="Eacute" horiz-adv-x="1214" unicode="É"/><glyph d="M559 1509l307 267h86l197 -267h-160l-96 148l-162 -148h-172zM70 0l299 1413h931l-40 -186h-717l-90 -426h634l-36 -187h-637l-92 -428h716l-37 -186h-931z" glyph-name="Ecircumflex" horiz-adv-x="1214" unicode="Ê"/><glyph d="M604 1565l43 211h184l-43 -211h-184zM948 1565l45 211h183l-43 -211h-185zM70 0l299 1413h931l-40 -186h-717l-90 -426h634l-36 -187h-637l-92 -428h716l-37 -186h-931z" glyph-name="Edieresis" horiz-adv-x="1214" unicode="Ë"/><glyph d="M420 1532l-180 244h233l109 -244h-162zM70 0l299 1413h213l-299 -1413h-213z" glyph-name="Igrave" horiz-adv-x="573" unicode="Ì"/><glyph d="M420 1534l213 242h244l-297 -242h-160zM70 0l299 1413h213l-299 -1413h-213z" glyph-name="Iacute" horiz-adv-x="573" unicode="Í"/><glyph d="M199 1509l307 267h86l196 -267h-159l-97 148l-161 -148h-172zM70 0l299 1413h213l-299 -1413h-213z" glyph-name="Icircumflex" horiz-adv-x="573" unicode="Î"/><glyph d="M244 1565l43 211h184l-43 -211h-184zM588 1565l45 211h182l-43 -211h-184zM70 0l299 1413h213l-299 -1413h-213z" glyph-name="Idieresis" horiz-adv-x="573" unicode="Ï"/><glyph d="M729 1413q352 0 501.5 -190.5t74.5 -542.5q-70 -330 -292 -505t-571 -175h-395l135 637h-139l31 151h139l133 625h383zM1100 727q53 250 -45.5 372t-356.5 122h-178l-92 -433h330l-31 -151h-332l-94 -444h141q543 -1 658 534z" glyph-name="Eth" horiz-adv-x="1349" unicode="Ð"/><glyph d="M1139 1520q-55 0 -100.5 21.5t-68 48t-53 48t-61.5 21.5q-49 0 -84 -39t-43 -98l-119 18q49 236 230 236q76 0 126 -36t85.5 -71t76.5 -35q51 0 86 41t46 109l120 -19q-53 -245 -241 -245zM70 0l299 1413h260l424 -1132h12l242 1132h213l-299 -1413h-265l-421 1137h-11 l-241 -1137h-213z" glyph-name="Ntilde" horiz-adv-x="1511" unicode="Ñ"/><glyph d="M864 1532l-180 244h234l108 -244h-162zM631 -20q-305 0 -443.5 203.5t-66.5 543.5q70 326 281.5 516.5t504.5 190.5q305 0 443.5 -203t66.5 -545q-70 -324 -281.5 -515t-504.5 -191zM639 170q205 0 360.5 151.5t206.5 405.5q51 238 -30.5 377t-276.5 139 q-205 0 -359.5 -151.5t-207.5 -405.5q-51 -238 31.5 -377t275.5 -139z" glyph-name="Ograve" horiz-adv-x="1462" unicode="Ò"/><glyph d="M864 1534l213 242h244l-297 -242h-160zM631 -20q-305 0 -443.5 203.5t-66.5 543.5q70 326 281.5 516.5t504.5 190.5q305 0 443.5 -203t66.5 -545q-70 -324 -281.5 -515t-504.5 -191zM639 170q205 0 360.5 151.5t206.5 405.5q51 238 -30.5 377t-276.5 139 q-205 0 -359.5 -151.5t-207.5 -405.5q-51 -238 31.5 -377t275.5 -139z" glyph-name="Oacute" horiz-adv-x="1462" unicode="Ó"/><glyph d="M643 1509l307 267h86l197 -267h-160l-96 148l-162 -148h-172zM631 -20q-305 0 -443.5 203.5t-66.5 543.5q70 326 281.5 516.5t504.5 190.5q305 0 443.5 -203t66.5 -545q-70 -324 -281.5 -515t-504.5 -191zM639 170q205 0 360.5 151.5t206.5 405.5q51 238 -30.5 377 t-276.5 139q-205 0 -359.5 -151.5t-207.5 -405.5q-51 -238 31.5 -377t275.5 -139z" glyph-name="Ocircumflex" horiz-adv-x="1462" unicode="Ô"/><glyph d="M1114 1520q-55 0 -100 21.5t-67.5 48t-53.5 48t-62 21.5q-49 0 -83.5 -39t-42.5 -98l-119 18q49 236 229 236q76 0 126 -36t86 -71t77 -35q51 0 86 41t45 109l121 -19q-54 -245 -242 -245zM631 -20q-305 0 -443.5 203.5t-66.5 543.5q70 326 281.5 516.5t504.5 190.5 q305 0 443.5 -203t66.5 -545q-70 -324 -281.5 -515t-504.5 -191zM639 170q205 0 360.5 151.5t206.5 405.5q51 238 -30.5 377t-276.5 139q-205 0 -359.5 -151.5t-207.5 -405.5q-51 -238 31.5 -377t275.5 -139z" glyph-name="Otilde" horiz-adv-x="1462" unicode="Õ"/><glyph d="M688 1565l43 211h184l-43 -211h-184zM1032 1565l45 211h183l-43 -211h-185zM631 -20q-305 0 -443.5 203.5t-66.5 543.5q70 326 281.5 516.5t504.5 190.5q305 0 443.5 -203t66.5 -545q-70 -324 -281.5 -515t-504.5 -191zM639 170q205 0 360.5 151.5t206.5 405.5 q51 238 -30.5 377t-276.5 139q-205 0 -359.5 -151.5t-207.5 -405.5q-51 -238 31.5 -377t275.5 -139z" glyph-name="Odieresis" horiz-adv-x="1462" unicode="Ö"/><glyph d="M932 84l-289 305l-317 -299l-111 121l317 299l-288 307l131 121l289 -307l315 299l111 -121l-318 -297l291 -307z" glyph-name="multiply" horiz-adv-x="1310" unicode="×"/><glyph d="M1548 1262l-149 -123q74 -182 18 -453q-70 -324 -281.5 -515t-504.5 -191q-281 0 -422 174l-127 -105l-88 103l145 120q-76 186 -18 455q70 326 281.5 516.5t504.5 190.5q283 0 424 -177l125 105zM332 686q-31 -154 -10 -264l843 698q-86 123 -266 123 q-205 0 -359.5 -151.5t-207.5 -405.5zM1206 727q33 143 13 262l-844 -698q86 -121 264 -121q205 0 360.5 151.5t206.5 405.5z" glyph-name="Oslash" horiz-adv-x="1462" unicode="Ø"/><glyph d="M817 1532l-180 244h233l109 -244h-162zM584 -20q-254 0 -364.5 143t-57.5 395l190 895h213l-194 -921q-33 -152 25.5 -235t195.5 -83q150 0 256 91t139 245l193 903h213l-191 -903q-53 -256 -212.5 -393t-405.5 -137z" glyph-name="Ugrave" horiz-adv-x="1368" unicode="Ù"/><glyph d="M817 1534l213 242h244l-297 -242h-160zM584 -20q-254 0 -364.5 143t-57.5 395l190 895h213l-194 -921q-33 -152 25.5 -235t195.5 -83q150 0 256 91t139 245l193 903h213l-191 -903q-53 -256 -212.5 -393t-405.5 -137z" glyph-name="Uacute" horiz-adv-x="1368" unicode="Ú"/><glyph d="M596 1509l307 267h86l197 -267h-160l-96 148l-162 -148h-172zM584 -20q-254 0 -364.5 143t-57.5 395l190 895h213l-194 -921q-33 -152 25.5 -235t195.5 -83q150 0 256 91t139 245l193 903h213l-191 -903q-53 -256 -212.5 -393t-405.5 -137z" glyph-name="Ucircumflex" horiz-adv-x="1368" unicode="Û"/><glyph d="M641 1565l43 211h184l-43 -211h-184zM985 1565l45 211h182l-43 -211h-184zM584 -20q-254 0 -364.5 143t-57.5 395l190 895h213l-194 -921q-33 -152 25.5 -235t195.5 -83q150 0 256 91t139 245l193 903h213l-191 -903q-53 -256 -212.5 -393t-405.5 -137z" glyph-name="Udieresis" horiz-adv-x="1368" unicode="Ü"/><glyph d="M813 1534l213 242h244l-297 -242h-160zM461 0l121 551l-385 862h239l285 -668l575 668h252l-753 -862l-119 -551h-215z" glyph-name="Yacute" horiz-adv-x="1359" unicode="Ý"/><glyph d="M70 0l299 1413h200l-39 -182h281q217 0 334 -113.5t72 -318.5q-41 -195 -184.5 -290t-360.5 -95h-316l-86 -414h-200zM397 598l297 2q135 -2 222.5 59.5t107.5 178.5q18 98 -40 150t-191 54h-301z" glyph-name="Thorn" horiz-adv-x="1210" unicode="Þ"/><glyph d="M616 -18q-86 0 -188 32l25 195q88 -41 165.5 -41t138 47t77.5 129q10 47 -12.5 87t-60.5 72t-75 67.5t-55.5 91t-3.5 126.5q12 55 56 102.5t91 74t91 70.5t55 95q14 66 -29 104t-131 38q-117 0 -198 -68.5t-103 -175.5l-217 -1028h-201l221 1049q39 180 176 282.5 t307 102.5q174 0 287 -91.5t80 -248.5q-12 -63 -59 -116.5t-96.5 -84.5t-93.5 -71t-52 -79q-8 -37 16.5 -71.5t63.5 -67.5t76 -71.5t55 -103t2 -144.5q-31 -139 -144.5 -221t-263.5 -82z" glyph-name="germandbls" horiz-adv-x="1146" unicode="ß"/><glyph d="M762 1169h-162l-180 244h233zM649 1069q190 0 298 -88t73 -250l-154 -731h-188l27 125q-84 -68 -189.5 -108t-191.5 -40q-160 0 -239 84t-50 228q10 45 26.5 82t48 68.5t58.5 55t80 47t89 39t107.5 37t114.5 33t133 35t139 35.5v2q20 94 -26.5 135t-161.5 41 q-190 0 -334 -147l-129 112q195 205 469 205zM356 156q207 0 396 188l43 211q-311 -90 -394 -129q-135 -66 -153 -156q-12 -55 18.5 -84.5t89.5 -29.5z" glyph-name="agrave" horiz-adv-x="1099" unicode="à"/><glyph d="M1057 1413l-297 -242h-160l213 242h244zM649 1069q190 0 298 -88t73 -250l-154 -731h-188l27 125q-84 -68 -189.5 -108t-191.5 -40q-160 0 -239 84t-50 228q10 45 26.5 82t48 68.5t58.5 55t80 47t89 39t107.5 37t114.5 33t133 35t139 35.5v2q20 94 -26.5 135t-161.5 41 q-190 0 -334 -147l-129 112q195 205 469 205zM356 156q207 0 396 188l43 211q-311 -90 -394 -129q-135 -66 -153 -156q-12 -55 18.5 -84.5t89.5 -29.5z" glyph-name="aacute" horiz-adv-x="1099" unicode="á"/><glyph d="M713 1294l-162 -147h-172l307 266h86l197 -266h-160zM649 1069q190 0 298 -88t73 -250l-154 -731h-188l27 125q-84 -68 -189.5 -108t-191.5 -40q-160 0 -239 84t-50 228q10 45 26.5 82t48 68.5t58.5 55t80 47t89 39t107.5 37t114.5 33t133 35t139 35.5v2q20 94 -26.5 135 t-161.5 41q-190 0 -334 -147l-129 112q195 205 469 205zM356 156q207 0 396 188l43 211q-311 -90 -394 -129q-135 -66 -153 -156q-12 -55 18.5 -84.5t89.5 -29.5z" glyph-name="acircumflex" horiz-adv-x="1099" unicode="â"/><glyph d="M850 1157q-55 0 -100 21.5t-68 48t-53.5 48t-61.5 21.5q-49 0 -83.5 -38.5t-43.5 -98.5l-118 19q49 236 229 235q59 0 104 -22.5t67.5 -48t53.5 -48t64 -22.5q51 0 86 41t45 108l121 -18q-54 -246 -242 -246zM649 1069q190 0 298 -88t73 -250l-154 -731h-188l27 125 q-84 -68 -189.5 -108t-191.5 -40q-160 0 -239 84t-50 228q10 45 26.5 82t48 68.5t58.5 55t80 47t89 39t107.5 37t114.5 33t133 35t139 35.5v2q20 94 -26.5 135t-161.5 41q-190 0 -334 -147l-129 112q195 205 469 205zM356 156q207 0 396 188l43 211q-311 -90 -394 -129 q-135 -66 -153 -156q-12 -55 18.5 -84.5t89.5 -29.5z" glyph-name="atilde" horiz-adv-x="1099" unicode="ã"/><glyph d="M651 1413l-43 -211h-184l43 211h184zM995 1413l-43 -211h-184l45 211h182zM649 1069q190 0 298 -88t73 -250l-154 -731h-188l27 125q-84 -68 -189.5 -108t-191.5 -40q-160 0 -239 84t-50 228q10 45 26.5 82t48 68.5t58.5 55t80 47t89 39t107.5 37t114.5 33t133 35 t139 35.5v2q20 94 -26.5 135t-161.5 41q-190 0 -334 -147l-129 112q195 205 469 205zM356 156q207 0 396 188l43 211q-311 -90 -394 -129q-135 -66 -153 -156q-12 -55 18.5 -84.5t89.5 -29.5z" glyph-name="adieresis" horiz-adv-x="1099" unicode="ä"/><glyph d="M686 1122q-92 0 -142 65.5t-30 162.5q14 76 82 129t145 53q92 0 143.5 -64.5t30.5 -158.5q-16 -78 -82.5 -132.5t-146.5 -54.5zM698 1221q43 0 77 28.5t44 69.5q10 47 -16.5 81t-73.5 34q-41 0 -76 -28t-43 -69q-10 -47 15.5 -81.5t72.5 -34.5zM649 1069q190 0 298 -88 t73 -250l-154 -731h-188l27 125q-84 -68 -189.5 -108t-191.5 -40q-160 0 -239 84t-50 228q10 45 26.5 82t48 68.5t58.5 55t80 47t89 39t107.5 37t114.5 33t133 35t139 35.5v2q20 94 -26.5 135t-161.5 41q-190 0 -334 -147l-129 112q195 205 469 205zM356 156q207 0 396 188 l43 211q-311 -90 -394 -129q-135 -66 -153 -156q-12 -55 18.5 -84.5t89.5 -29.5z" glyph-name="aring" horiz-adv-x="1099" unicode="å"/><glyph d="M1358 1069q229 0 314 -156.5t36 -384.5q-4 -31 -18 -71l-727 6l-7 -35q-25 -270 240 -270q152 0 289 104l112 -125q-199 -158 -423 -157q-299 0 -388 229q-184 -231 -454 -232q-164 0 -245 86.5t-50 233.5q35 170 233 268q176 66 549 121l6 14l6 27q20 92 -22.5 131 t-144.5 39q-211 0 -365 -160l-129 121q199 209 489 209q244 0 332 -137q156 139 367 139zM999 635l-2 -12l529 -2q23 123 -23.5 197.5t-165 74.5t-206 -67.5t-132.5 -190.5zM389 147q109 0 212.5 59.5t154.5 188.5q0 61 16 137v3q-274 -49 -385 -113q-115 -47 -139 -152 q-12 -59 25.5 -91t115.5 -32z" glyph-name="ae" horiz-adv-x="1814" unicode="æ"/><glyph d="M473 147q102 0 186 55.5t127 141.5l156 -80q-133 -244 -385 -280l-92 -109l29 -16q61 -20 95 -69.5t17 -123.5q-16 -82 -81.5 -124t-141.5 -42q-78 0 -128 40t-62 100l110 34q0 -68 78 -67q45 0 75.5 25.5t37.5 62.5q12 72 -76 98l-123 35l117 152q-207 20 -291 179.5 t-37 383.5q49 227 202.5 376.5t379.5 149.5q166 0 263 -80t122 -219l-183 -49q-4 88 -58 134t-144 46q-150 0 -251.5 -117.5t-135.5 -281.5q-31 -145 13 -250t181 -105z" glyph-name="ccedilla" horiz-adv-x="1048" unicode="ç"/><glyph d="M774 1169h-162l-180 244h234zM668 1069q229 0 314 -156.5t36 -384.5q-4 -31 -19 -71l-729 6q-47 -305 236 -305q152 0 289 104l112 -125q-199 -158 -424 -157q-246 0 -349 156.5t-52 395.5q47 229 203 383t383 154zM647 893q-121 0 -211 -71.5t-131 -198.5l531 -2 q23 123 -23.5 197.5t-165.5 74.5z" glyph-name="egrave" horiz-adv-x="1097" unicode="è"/><glyph d="M1069 1413l-297 -242h-160l213 242h244zM668 1069q229 0 314 -156.5t36 -384.5q-4 -31 -19 -71l-729 6q-47 -305 236 -305q152 0 289 104l112 -125q-199 -158 -424 -157q-246 0 -349 156.5t-52 395.5q47 229 203 383t383 154zM647 893q-121 0 -211 -71.5t-131 -198.5 l531 -2q23 123 -23.5 197.5t-165.5 74.5z" glyph-name="eacute" horiz-adv-x="1097" unicode="é"/><glyph d="M725 1294l-162 -147h-172l307 266h86l197 -266h-160zM668 1069q229 0 314 -156.5t36 -384.5q-4 -31 -19 -71l-729 6q-47 -305 236 -305q152 0 289 104l112 -125q-199 -158 -424 -157q-246 0 -349 156.5t-52 395.5q47 229 203 383t383 154zM647 893q-121 0 -211 -71.5 t-131 -198.5l531 -2q23 123 -23.5 197.5t-165.5 74.5z" glyph-name="ecircumflex" horiz-adv-x="1097" unicode="ê"/><glyph d="M664 1413l-43 -211h-185l43 211h185zM1008 1413l-43 -211h-185l45 211h183zM668 1069q229 0 314 -156.5t36 -384.5q-4 -31 -19 -71l-729 6q-47 -305 236 -305q152 0 289 104l112 -125q-199 -158 -424 -157q-246 0 -349 156.5t-52 395.5q47 229 203 383t383 154zM647 893 q-121 0 -211 -71.5t-131 -198.5l531 -2q23 123 -23.5 197.5t-165.5 74.5z" glyph-name="edieresis" horiz-adv-x="1097" unicode="ë"/><glyph d="M315 1169l-180 244h234l108 -244h-162zM47 0l221 1049h205l-221 -1049h-205z" glyph-name="igrave" horiz-adv-x="520" unicode="ì"/><glyph d="M315 1171l213 242h244l-297 -242h-160zM47 0l221 1049h205l-221 -1049h-205z" glyph-name="iacute" horiz-adv-x="520" unicode="í"/><glyph d="M94 1147l307 266h86l197 -266h-160l-96 147l-162 -147h-172zM47 0l221 1049h205l-221 -1049h-205z" glyph-name="icircumflex" horiz-adv-x="520" unicode="î"/><glyph d="M139 1202l43 211h185l-43 -211h-185zM483 1202l45 211h183l-43 -211h-185zM47 0l221 1049h205l-221 -1049h-205z" glyph-name="idieresis" horiz-adv-x="520" unicode="ï"/><glyph d="M803 1389q205 -139 265 -357.5t-11 -535.5q-47 -213 -207 -362.5t-379 -149.5q-236 0 -338 161.5t-53 391.5q43 211 200.5 361.5t370.5 150.5q86 0 157 -34t97 -77q-12 205 -209 328l-114 -136l-82 56l110 127q-45 23 -139 63l94 135q74 -29 156 -71l115 129l77 -49z M852 537q29 145 -18.5 239t-176.5 94q-143 0 -242.5 -108.5t-131.5 -265.5q-31 -141 16 -237.5t178 -96.5q143 0 242.5 108.5t132.5 266.5z" glyph-name="eth" horiz-adv-x="1138" unicode="ð"/><glyph d="M893 1161q-55 0 -100 21.5t-68 48t-53.5 48t-61.5 21.5q-49 0 -83.5 -38.5t-43.5 -98.5l-118 19q49 236 229 235q59 0 104 -22.5t67.5 -48t53.5 -48t64 -22.5q51 0 86 41t45 108l121 -18q-54 -246 -242 -246zM53 0l221 1049h205l-33 -148l9 8q135 160 333 160 q166 0 245 -108.5t40 -282.5l-141 -678h-205l141 666q25 121 -11 174t-128 53q-121 0 -218 -80t-124 -205l-129 -608h-205z" glyph-name="ntilde" horiz-adv-x="1181" unicode="ñ"/><glyph d="M641 1169l-180 244h233l109 -244h-162zM485 -23q-231 0 -344.5 148.5t-56.5 415.5q53 254 217 391t385 137q233 0 347 -151.5t54 -417.5q-53 -252 -218 -387.5t-384 -135.5zM503.5 152q149.5 0 253 96t142.5 280q39 178 -19.5 272.5t-207.5 94.5q-152 0 -254.5 -99.5 t-141.5 -281.5q-39 -174 19.5 -268t208 -94z" glyph-name="ograve" horiz-adv-x="1173" unicode="ò"/><glyph d="M641 1171l213 242h244l-297 -242h-160zM485 -23q-231 0 -344.5 148.5t-56.5 415.5q53 254 217 391t385 137q233 0 347 -151.5t54 -417.5q-53 -252 -218 -387.5t-384 -135.5zM503.5 152q149.5 0 253 96t142.5 280q39 178 -19.5 272.5t-207.5 94.5q-152 0 -254.5 -99.5 t-141.5 -281.5q-39 -174 19.5 -268t208 -94z" glyph-name="oacute" horiz-adv-x="1173" unicode="ó"/><glyph d="M420 1147l307 266h86l197 -266h-160l-96 147l-162 -147h-172zM485 -23q-231 0 -344.5 148.5t-56.5 415.5q53 254 217 391t385 137q233 0 347 -151.5t54 -417.5q-53 -252 -218 -387.5t-384 -135.5zM503.5 152q149.5 0 253 96t142.5 280q39 178 -19.5 272.5t-207.5 94.5 q-152 0 -254.5 -99.5t-141.5 -281.5q-39 -174 19.5 -268t208 -94z" glyph-name="ocircumflex" horiz-adv-x="1173" unicode="ô"/><glyph d="M891 1157q-55 0 -100.5 21.5t-68 48t-53 48t-61.5 21.5q-49 0 -84 -38.5t-43 -98.5l-119 19q49 236 230 235q59 0 104 -22.5t67.5 -48t53.5 -48t64 -22.5q51 0 85.5 41t45.5 108l121 -18q-54 -246 -242 -246zM485 -23q-231 0 -344.5 148.5t-56.5 415.5q53 254 217 391 t385 137q233 0 347 -151.5t54 -417.5q-53 -252 -218 -387.5t-384 -135.5zM503.5 152q149.5 0 253 96t142.5 280q39 178 -19.5 272.5t-207.5 94.5q-152 0 -254.5 -99.5t-141.5 -281.5q-39 -174 19.5 -268t208 -94z" glyph-name="otilde" horiz-adv-x="1173" unicode="õ"/><glyph d="M465 1202l43 211h184l-43 -211h-184zM809 1202l45 211h182l-43 -211h-184zM485 -23q-231 0 -344.5 148.5t-56.5 415.5q53 254 217 391t385 137q233 0 347 -151.5t54 -417.5q-53 -252 -218 -387.5t-384 -135.5zM503.5 152q149.5 0 253 96t142.5 280q39 178 -19.5 272.5 t-207.5 94.5q-152 0 -254.5 -99.5t-141.5 -281.5q-39 -174 19.5 -268t208 -94z" glyph-name="odieresis" horiz-adv-x="1173" unicode="ö"/><glyph d="M532 801l43 205h224l-43 -205h-224zM162 432l37 172h809l-37 -172h-809zM367 18l43 205h223l-43 -205h-223z" glyph-name="divide" horiz-adv-x="1171" unicode="÷"/><glyph d="M1135 915l-68 -55q68 -145 20 -360q-53 -252 -217.5 -387.5t-384.5 -135.5q-217 0 -329 129l-56 -45l-61 72l65 55q-66 143 -20 353q53 254 217 391t385 137q217 0 330 -129l53 45zM276 514q-25 -111 -8 -192l600 497q-63 76 -196 76q-152 0 -254.5 -99.5t-141.5 -281.5z M899 528q27 123 8 201l-600 -498q61 -80 197 -79q150 0 253 96t142 280z" glyph-name="oslash" horiz-adv-x="1173" unicode="ø"/><glyph d="M639 1169l-180 244h233l109 -244h-162zM1135 1049l-222 -1049h-204l34 147l-16 -8q-129 -158 -326 -157q-172 0 -247.5 108.5t-38.5 282.5l141 676h205l-139 -654q-47 -225 143 -225q125 0 220 81t118 198l127 600h205z" glyph-name="ugrave" horiz-adv-x="1187" unicode="ù"/><glyph d="M639 1171l213 242h244l-297 -242h-160zM1135 1049l-222 -1049h-204l34 147l-16 -8q-129 -158 -326 -157q-172 0 -247.5 108.5t-38.5 282.5l141 676h205l-139 -654q-47 -225 143 -225q125 0 220 81t118 198l127 600h205z" glyph-name="uacute" horiz-adv-x="1187" unicode="ú"/><glyph d="M418 1147l307 266h86l197 -266h-160l-96 147l-162 -147h-172zM1135 1049l-222 -1049h-204l34 147l-16 -8q-129 -158 -326 -157q-172 0 -247.5 108.5t-38.5 282.5l141 676h205l-139 -654q-47 -225 143 -225q125 0 220 81t118 198l127 600h205z" glyph-name="ucircumflex" horiz-adv-x="1187" unicode="û"/><glyph d="M463 1202l43 211h184l-43 -211h-184zM807 1202l45 211h182l-43 -211h-184zM1135 1049l-222 -1049h-204l34 147l-16 -8q-129 -158 -326 -157q-172 0 -247.5 108.5t-38.5 282.5l141 676h205l-139 -654q-47 -225 143 -225q125 0 220 81t118 198l127 600h205z" glyph-name="udieresis" horiz-adv-x="1187" unicode="ü"/><glyph d="M541 1171l213 242h243l-297 -242h-159zM-115 -365l21 166q102 0 181 37t114 77t75 105l-147 1029h213l76 -803h14l414 803h227l-622 -1100q-113 -197 -237 -255.5t-329 -58.5z" glyph-name="yacute" horiz-adv-x="962" unicode="ý"/><glyph d="M-25 -365l377 1778h207l-113 -534l5 6q147 135 342 135q205 0 294 -152.5t39 -388.5q-47 -219 -188 -359t-334 -140q-215 0 -305 147l-14 -6l-103 -486h-207zM557 152q147 0 248.5 104t132.5 268q29 152 -22.5 244t-188.5 92q-147 0 -245.5 -106.5t-129.5 -268.5 q-29 -147 20.5 -240t184.5 -93z" glyph-name="thorn" horiz-adv-x="1214" unicode="þ"/><glyph d="M365 1202l43 211h184l-43 -211h-184zM709 1202l45 211h182l-43 -211h-184zM-115 -365l21 166q102 0 181 37t114 77t75 105l-147 1029h213l76 -803h14l414 803h227l-622 -1100q-113 -197 -237 -255.5t-329 -58.5z" glyph-name="ydieresis" horiz-adv-x="962" unicode="ÿ"/><glyph d="M1159 1720l-26 -123h-549l24 123h551zM672 1413h286l177 -1413h-226l-32 319h-582l-168 -319h-236zM387 494h473l-76 743h-6z" glyph-name="Amacron" horiz-adv-x="1251" unicode="Ā"/><glyph d="M997 1358l-26 -123h-549l24 123h551zM649 1069q190 0 298 -88t73 -250l-154 -731h-188l27 125q-84 -68 -189.5 -108t-191.5 -40q-160 0 -239 84t-50 228q10 45 26.5 82t48 68.5t58.5 55t80 47t89 39t107.5 37t114.5 33t133 35t139 35.5v2q20 94 -26.5 135t-161.5 41 q-190 0 -334 -147l-129 112q195 205 469 205zM356 156q207 0 396 188l43 211q-311 -90 -394 -129q-135 -66 -153 -156q-12 -55 18.5 -84.5t89.5 -29.5z" glyph-name="amacron" horiz-adv-x="1099" unicode="ā"/><glyph d="M854 1505q-133 0 -210 75t-58 206h145q-12 -76 24 -116t101 -40q70 0 126 43t75 113h147q-25 -135 -122 -208t-228 -73zM672 1413h286l177 -1413h-226l-32 319h-582l-168 -319h-236zM387 494h473l-76 743h-6z" glyph-name="Abreve" horiz-adv-x="1251" unicode="Ă"/><glyph d="M692 1143q-133 0 -209.5 74.5t-58.5 205.5h145q-12 -76 24 -115.5t101 -39.5q70 0 126.5 43t74.5 112h147q-25 -135 -122 -207.5t-228 -72.5zM649 1069q190 0 298 -88t73 -250l-154 -731h-188l27 125q-84 -68 -189.5 -108t-191.5 -40q-160 0 -239 84t-50 228 q10 45 26.5 82t48 68.5t58.5 55t80 47t89 39t107.5 37t114.5 33t133 35t139 35.5v2q20 94 -26.5 135t-161.5 41q-190 0 -334 -147l-129 112q195 205 469 205zM356 156q207 0 396 188l43 211q-311 -90 -394 -129q-135 -66 -153 -156q-12 -55 18.5 -84.5t89.5 -29.5z" glyph-name="abreve" horiz-adv-x="1099" unicode="ă"/><glyph d="M1106 -252l96 -90q-90 -109 -219 -109q-100 0 -153.5 60.5t-30.5 165.5q27 129 176 225h-66l-32 319h-582l-168 -319h-236l781 1413h286l177 -1413h2q-176 -94 -217 -223q-14 -49 3 -76t54 -27q70 0 129 74zM387 494h473l-76 743h-6z" glyph-name="Aogonek" horiz-adv-x="1251" unicode="Ą"/><glyph d="M866 0q-176 -94 -217 -223q-14 -49 3.5 -76t54.5 -27q70 0 129 74l96 -90q-90 -109 -219 -109q-100 0 -153.5 60.5t-31.5 165.5q27 129 177 225h-27l27 125q-84 -68 -189.5 -108t-191.5 -40q-160 0 -239 84t-50 228q10 45 26.5 82t48 68.5t58.5 55t80 47t89 39t107.5 37 t114.5 33t133 35t139 35.5v2q20 94 -26.5 135t-161.5 41q-190 0 -334 -147l-129 112q195 205 469 205q190 0 298 -88t73 -250zM356 156q207 0 396 188l43 211q-311 -90 -394 -129q-135 -66 -153 -156q-12 -55 18.5 -84.5t89.5 -29.5z" glyph-name="aogonek" horiz-adv-x="1099" unicode="ą"/><glyph d="M821 1534l213 242h244l-297 -242h-160zM621 -20q-309 0 -440.5 206.5t-59.5 540.5q68 319 273.5 514t502.5 195q205 0 339 -108.5t161 -293.5l-201 -61q-10 131 -91 200.5t-218 69.5q-203 0 -356.5 -148.5t-204.5 -398.5q-51 -242 30.5 -383t272.5 -141q135 0 259 80 t197 213l175 -98q-100 -184 -271 -285.5t-368 -101.5z" glyph-name="Cacute" horiz-adv-x="1343" unicode="Ć"/><glyph d="M590 1171l213 242h244l-297 -242h-160zM467 -23q-238 0 -336 163t-47 403q49 227 202.5 376.5t379.5 149.5q166 0 263 -80t122 -219l-183 -49q-4 88 -58 134t-144 46q-150 0 -251.5 -117.5t-135.5 -281.5q-31 -145 13 -250t181 -105q102 0 186 55.5t127 141.5l156 -80 q-158 -287 -475 -287z" glyph-name="cacute" horiz-adv-x="1048" unicode="ć"/><glyph d="M821 1571l43 205h178l-43 -205h-178zM621 -20q-309 0 -440.5 206.5t-59.5 540.5q68 319 273.5 514t502.5 195q205 0 339 -108.5t161 -293.5l-201 -61q-10 131 -91 200.5t-218 69.5q-203 0 -356.5 -148.5t-204.5 -398.5q-51 -242 30.5 -383t272.5 -141q135 0 259 80 t197 213l175 -98q-100 -184 -271 -285.5t-368 -101.5z" glyph-name="Cdotaccent" horiz-adv-x="1343" unicode="Ċ"/><glyph d="M590 1208l43 205h178l-43 -205h-178zM467 -23q-238 0 -336 163t-47 403q49 227 202.5 376.5t379.5 149.5q166 0 263 -80t122 -219l-183 -49q-4 88 -58 134t-144 46q-150 0 -251.5 -117.5t-135.5 -281.5q-31 -145 13 -250t181 -105q102 0 186 55.5t127 141.5l156 -80 q-158 -287 -475 -287z" glyph-name="cdotaccent" horiz-adv-x="1048" unicode="ċ"/><glyph d="M858 1509l-196 267h159l97 -144l161 144h174l-311 -267h-84zM621 -20q-309 0 -440.5 206.5t-59.5 540.5q68 319 273.5 514t502.5 195q205 0 339 -108.5t161 -293.5l-201 -61q-10 131 -91 200.5t-218 69.5q-203 0 -356.5 -148.5t-204.5 -398.5q-51 -242 30.5 -383 t272.5 -141q135 0 259 80t197 213l175 -98q-100 -184 -271 -285.5t-368 -101.5z" glyph-name="Ccaron" horiz-adv-x="1343" unicode="Č"/><glyph d="M627 1147l-197 266h160l96 -143l162 143h174l-311 -266h-84zM467 -23q-238 0 -336 163t-47 403q49 227 202.5 376.5t379.5 149.5q166 0 263 -80t122 -219l-183 -49q-4 88 -58 134t-144 46q-150 0 -251.5 -117.5t-135.5 -281.5q-31 -145 13 -250t181 -105q102 0 186 55.5 t127 141.5l156 -80q-158 -287 -475 -287z" glyph-name="ccaron" horiz-adv-x="1048" unicode="č"/><glyph d="M848 1509l-197 267h160l96 -144l162 144h174l-311 -267h-84zM70 0l299 1413h383q352 0 501.5 -190.5t73.5 -542.5q-70 -330 -292 -505t-570 -175h-395zM324 193h141q543 0 657 534q53 250 -45 372t-356 122h-178z" glyph-name="Dcaron" horiz-adv-x="1372" unicode="Ď"/><glyph d="M1380 1415h230l-43 -219l-201 -285h-106l155 285h-80zM1071 1413h205l-299 -1413h-203l25 125q-152 -147 -365 -148q-227 0 -316 157t-34 411q49 236 191.5 380t359.5 144q225 0 321 -164l11 2zM500 154q143 0 249.5 105.5t145.5 285.5q35 160 -20.5 252t-186.5 92 q-160 0 -264.5 -100.5t-140.5 -282.5q-76 -352 217 -352z" glyph-name="dcaron" horiz-adv-x="1304" unicode="ď"/><glyph d="M729 1413q352 0 501.5 -190.5t74.5 -542.5q-70 -330 -292 -505t-571 -175h-395l135 637h-139l31 151h139l133 625h383zM1100 727q53 250 -45.5 372t-356.5 122h-178l-92 -433h330l-31 -151h-332l-94 -444h141q543 -1 658 534z" glyph-name="Dcroat" horiz-adv-x="1349" unicode="Đ"/><glyph d="M1405 1278l-23 -107h-157l-248 -1171h-203l25 125q-152 -147 -365 -148q-227 0 -316 157t-34 411q49 236 191.5 380t359.5 144q225 0 321 -164l11 2l55 264h-287l23 107h284l29 135h205l-29 -135h158zM500 154q143 0 249.5 105.5t145.5 285.5q35 160 -20.5 252t-186.5 92 q-160 0 -264.5 -100.5t-140.5 -282.5q-76 -352 217 -352z" glyph-name="dcroat" horiz-adv-x="1251" unicode="đ"/><glyph d="M602 1597l25 123h551l-27 -123h-549zM70 0l299 1413h931l-40 -186h-717l-90 -426h634l-36 -187h-637l-92 -428h716l-37 -186h-931z" glyph-name="Emacron" horiz-adv-x="1214" unicode="Ē"/><glyph d="M1010 1358l-27 -123h-549l25 123h551zM668 1069q229 0 314 -156.5t36 -384.5q-4 -31 -19 -71l-729 6q-47 -305 236 -305q152 0 289 104l112 -125q-199 -158 -424 -157q-246 0 -349 156.5t-52 395.5q47 229 203 383t383 154zM647 893q-121 0 -211 -71.5t-131 -198.5 l531 -2q23 123 -23.5 197.5t-165.5 74.5z" glyph-name="emacron" horiz-adv-x="1097" unicode="ē"/><glyph d="M780 1571l43 205h178l-43 -205h-178zM70 0l299 1413h931l-40 -186h-717l-90 -426h634l-36 -187h-637l-92 -428h716l-37 -186h-931z" glyph-name="Edotaccent" horiz-adv-x="1214" unicode="Ė"/><glyph d="M834 1413l-43 -205h-179l43 205h179zM668 1069q229 0 314 -156.5t36 -384.5q-4 -31 -19 -71l-729 6q-47 -305 236 -305q152 0 289 104l112 -125q-199 -158 -424 -157q-246 0 -349 156.5t-52 395.5q47 229 203 383t383 154zM647 893q-121 0 -211 -71.5t-131 -198.5l531 -2 q23 123 -23.5 197.5t-165.5 74.5z" glyph-name="edotaccent" horiz-adv-x="1097" unicode="ė"/><glyph d="M1260 1227h-717l-90 -426h634l-36 -187h-637l-92 -428h716l-37 -186q-176 -94 -217 -223q-14 -49 3.5 -76t54.5 -27q70 0 129 74l96 -90q-90 -109 -219 -109q-100 0 -153.5 60.5t-30.5 165.5q27 129 176 225h-770l299 1413h931z" glyph-name="Eogonek" horiz-adv-x="1214" unicode="Ę"/><glyph d="M668 1069q229 0 314 -156.5t36 -384.5q-4 -31 -19 -71l-729 6q-47 -305 236 -305q152 0 289 104l112 -125q-72 -57 -139 -90q-57 -57 -82 -129q-14 -49 3.5 -75.5t53.5 -26.5q70 0 129 73l97 -90q-90 -109 -219 -108q-100 0 -153.5 60.5t-31.5 164.5q10 43 27 72 q-47 -8 -109 -8q-246 0 -349 156.5t-52 395.5q47 229 203 383t383 154zM836 621q23 123 -23.5 197.5t-165.5 74.5q-121 0 -211 -71.5t-131 -198.5z" glyph-name="eogonek" horiz-adv-x="1097" unicode="ę"/><glyph d="M817 1509l-196 267h159l97 -144l161 144h174l-311 -267h-84zM70 0l299 1413h931l-40 -186h-717l-90 -426h634l-36 -187h-637l-92 -428h716l-37 -186h-931z" glyph-name="Ecaron" horiz-adv-x="1214" unicode="Ě"/><glyph d="M733 1147h-84l-196 266h159l97 -143l161 143h174zM668 1069q229 0 314 -156.5t36 -384.5q-4 -31 -19 -71l-729 6q-47 -305 236 -305q152 0 289 104l112 -125q-199 -158 -424 -157q-246 0 -349 156.5t-52 395.5q47 229 203 383t383 154zM647 893q-121 0 -211 -71.5 t-131 -198.5l531 -2q23 123 -23.5 197.5t-165.5 74.5z" glyph-name="ecaron" horiz-adv-x="1097" unicode="ě"/><glyph d="M952 1505q-133 0 -209.5 75t-58.5 206h145q-12 -76 24 -116t101 -40q70 0 126.5 43t74.5 113h148q-25 -135 -122.5 -208t-228.5 -73zM834 567l36 176h512l-157 -743h-168l37 211q-82 -102 -213 -166.5t-283 -64.5q-199 0 -325 103t-157.5 270t7.5 378q63 305 272 505 t520 200q211 0 342.5 -103.5t169.5 -288.5l-194 -47q-63 248 -332 248q-227 0 -375.5 -155.5t-197.5 -395.5q-49 -225 24.5 -372.5t282.5 -147.5q184 0 324.5 108.5t187.5 284.5h-313z" glyph-name="Gbreve" horiz-adv-x="1492" unicode="Ğ"/><glyph d="M733 1143q-133 0 -210 74.5t-58 205.5h145q-12 -76 24 -115.5t101 -39.5q70 0 126.5 43t74.5 112h147q-25 -135 -122 -207.5t-228 -72.5zM426 -385q-172 0 -295 56.5t-162 166.5l131 90q55 -154 310 -153q141 0 242.5 71.5t123.5 186.5l33 131q-135 -145 -358 -146 q-225 0 -319.5 154t-43.5 395q49 227 196.5 364.5t366.5 137.5q223 0 303 -158l13 11l24 127h207l-219 -1029q-43 -203 -192.5 -304t-360.5 -101zM514 186q158 0 256 99.5t129 263.5q31 152 -19.5 251t-199.5 99q-156 0 -258.5 -105.5t-134.5 -271.5q-29 -147 25.5 -241.5 t201.5 -94.5z" glyph-name="gbreve" horiz-adv-x="1251" unicode="ğ"/><glyph d="M1081 1776l-43 -205h-178l43 205h178zM834 567l36 176h512l-157 -743h-168l37 211q-82 -102 -213 -166.5t-283 -64.5q-199 0 -325 103t-157.5 270t7.5 378q63 305 272 505t520 200q211 0 342.5 -103.5t169.5 -288.5l-194 -47q-63 248 -332 248q-227 0 -375.5 -155.5 t-197.5 -395.5q-49 -225 24.5 -372.5t282.5 -147.5q184 0 324.5 108.5t187.5 284.5h-313z" glyph-name="Gdotaccent" horiz-adv-x="1492" unicode="Ġ"/><glyph d="M641 1208l43 205h178l-43 -205h-178zM426 -385q-172 0 -295 56.5t-162 166.5l131 90q55 -154 310 -153q141 0 242.5 71.5t123.5 186.5l33 131q-135 -145 -358 -146q-225 0 -319.5 154t-43.5 395q49 227 196.5 364.5t366.5 137.5q223 0 303 -158l13 11l24 127h207 l-219 -1029q-43 -203 -192.5 -304t-360.5 -101zM514 186q158 0 256 99.5t129 263.5q31 152 -19.5 251t-199.5 99q-156 0 -258.5 -105.5t-134.5 -271.5q-29 -147 25.5 -241.5t201.5 -94.5z" glyph-name="gdotaccent" horiz-adv-x="1251" unicode="ġ"/><glyph d="M834 567l36 176h512l-157 -743h-168l37 211q-82 -102 -213 -166.5t-283 -64.5q-199 0 -325 103t-157.5 270t7.5 378q63 305 272 505t520 200q211 0 342.5 -103.5t169.5 -288.5l-194 -47q-63 248 -332 248q-227 0 -375.5 -155.5t-197.5 -395.5q-49 -225 24.5 -372.5 t282.5 -147.5q184 0 324.5 108.5t187.5 284.5h-313zM287 -442l194 303h236l-301 -303h-129z" glyph-name="Gcommaaccent" horiz-adv-x="1492" unicode="Ģ"/><glyph d="M954 1413l-194 -270h-236l301 270h129zM426 -385q-172 0 -295 56.5t-162 166.5l131 90q55 -154 310 -153q141 0 242.5 71.5t123.5 186.5l33 131q-135 -145 -358 -146q-225 0 -319.5 154t-43.5 395q49 227 196.5 364.5t366.5 137.5q223 0 303 -158l13 11l24 127h207 l-219 -1029q-43 -203 -192.5 -304t-360.5 -101zM514 186q158 0 256 99.5t129 263.5q31 152 -19.5 251t-199.5 99q-156 0 -258.5 -105.5t-134.5 -271.5q-29 -147 25.5 -241.5t201.5 -94.5z" glyph-name="gcommaaccent" horiz-adv-x="1243" unicode="ģ"/><glyph d="M1507 1182l-28 -135h-101l-223 -1047h-213l129 612h-657l-131 -612h-213l221 1047h-103l29 135h102l50 231h215l-49 -231h657l49 231h215l-49 -231h100zM1112 801l51 246h-657l-53 -246h659z" glyph-name="Hbar" horiz-adv-x="1445" unicode="Ħ"/><glyph d="M791 1069q170 0 244.5 -108.5t37.5 -282.5l-141 -678h-205l141 666q47 227 -141 227q-121 0 -218 -83t-122 -202l-129 -608h-205l248 1174h-166l23 106h166l28 133h205l-29 -133h277l-23 -106h-276l-57 -273l8 8q137 160 334 160z" glyph-name="hbar" horiz-adv-x="1181" unicode="ħ"/><glyph d="M670 1520q-55 0 -100.5 21.5t-68 48t-53 48t-61.5 21.5q-49 0 -84 -39t-43 -98l-119 18q49 236 230 236q76 0 126 -36t85.5 -71t76.5 -35q51 0 86 41t46 109l120 -19q-53 -245 -241 -245zM70 0l299 1413h213l-299 -1413h-213z" glyph-name="Itilde" horiz-adv-x="573" unicode="Ĩ"/><glyph d="M565 1157q-55 0 -100 21.5t-67.5 48t-53.5 48t-61 21.5q-49 0 -84 -38.5t-43 -98.5l-119 19q49 236 229 235q59 0 104.5 -22.5t68 -48t53 -48t63.5 -22.5q51 0 86 41t45 108l121 -18q-54 -246 -242 -246zM47 0l221 1049h205l-221 -1049h-205z" glyph-name="itilde" horiz-adv-x="520" unicode="ĩ"/><glyph d="M242 1597l24 123h551l-26 -123h-549zM70 0l299 1413h213l-299 -1413h-213z" glyph-name="Imacron" horiz-adv-x="573" unicode="Ī"/><glyph d="M137 1235l25 123h551l-27 -123h-549zM47 0l221 1049h205l-221 -1049h-205z" glyph-name="imacron" horiz-adv-x="520" unicode="ī"/><glyph d="M123 -326q70 0 129 74l96 -90q-90 -109 -219 -109q-100 0 -153.5 60.5t-30.5 165.5q27 129 176 225h-51l299 1413h213l-299 -1413q-176 -94 -217 -223q-14 -49 3 -76t54 -27z" glyph-name="Iogonek" horiz-adv-x="573" unicode="Į"/><glyph d="M352 1413h207l-45 -209h-207zM479 1049l-221 -1049h-31l29 -6q-176 -94 -217 -223q-14 -49 3 -76t54 -27q70 0 129 74l97 -90q-90 -109 -220 -109q-100 0 -153 60.5t-31 165.5q29 135 186 231h-51l221 1049h205z" glyph-name="iogonek" horiz-adv-x="534" unicode="į"/><glyph d="M420 1571l43 205h178l-43 -205h-178zM70 0l299 1413h213l-299 -1413h-213z" glyph-name="Idotaccent" horiz-adv-x="573" unicode="İ"/><glyph d="M47 0l221 1049h205l-221 -1049h-205z" glyph-name="dotlessi" horiz-adv-x="520" unicode="ı"/><glyph d="M1446 1413l-658 -577l412 -836h-242l-325 698l-248 -217l-102 -481h-213l299 1413h215l-142 -659l727 659h277zM258 -442l195 303h235l-301 -303h-129z" glyph-name="Kcommaaccent" horiz-adv-x="1320" unicode="Ķ"/><glyph d="M1178 1049l-523 -424l351 -625h-218l-272 512l-180 -147l-78 -365h-205l299 1413h205l-170 -801l537 437h254zM158 -442l194 303h236l-301 -303h-129z" glyph-name="kcommaaccent" horiz-adv-x="1097" unicode="ķ"/><glyph d="M430 1536l213 242h244l-297 -242h-160zM70 0l299 1413h213l-260 -1227h604l-39 -186h-817z" glyph-name="Lacute" horiz-adv-x="1015" unicode="Ĺ"/><glyph d="M393 1536l213 242h244l-297 -242h-160zM47 0l299 1413h207l-299 -1413h-207z" glyph-name="lacute" horiz-adv-x="522" unicode="ĺ"/><glyph d="M70 0l299 1413h213l-260 -1227h604l-39 -186h-817zM96 -442l195 303h235l-301 -303h-129z" glyph-name="Lcommaaccent" horiz-adv-x="1015" unicode="Ļ"/><glyph d="M47 0l299 1413h207l-299 -1413h-207zM-193 -442l195 303h236l-301 -303h-130z" glyph-name="lcommaaccent" horiz-adv-x="522" unicode="ļ"/><glyph d="M924 1415h254l-50 -244l-221 -317h-119l175 317h-91zM70 0l299 1413h213l-260 -1227h604l-39 -186h-817z" glyph-name="Lcaron" horiz-adv-x="1015" unicode="Ľ"/><glyph d="M674 1415h254l-49 -244l-222 -317h-118l174 317h-90zM47 0l299 1413h207l-299 -1413h-207z" glyph-name="lcaron" horiz-adv-x="667" unicode="ľ"/><glyph d="M322 186h604l-39 -186h-817l100 471l-211 -135l33 174l215 141l162 762h213l-127 -600l235 156l-37 -185l-237 -153z" glyph-name="Lslash" horiz-adv-x="1015" unicode="Ł"/><glyph d="M684 1051l-39 -187l-242 -155l-149 -709h-207l117 555l-227 -147l34 178l232 151l143 676h207l-111 -520z" glyph-name="lslash" horiz-adv-x="522" unicode="ł"/><glyph d="M889 1534l213 242h244l-297 -242h-160zM70 0l299 1413h260l424 -1132h12l242 1132h213l-299 -1413h-265l-421 1137h-11l-241 -1137h-213z" glyph-name="Nacute" horiz-adv-x="1511" unicode="Ń"/><glyph d="M643 1176l213 241h244l-297 -241h-160zM53 0l221 1049h205l-33 -148l9 8q135 160 333 160q166 0 245 -108.5t40 -282.5l-141 -678h-205l141 666q25 121 -11 174t-128 53q-121 0 -218 -80t-124 -205l-129 -608h-205z" glyph-name="nacute" horiz-adv-x="1181" unicode="ń"/><glyph d="M70 0l299 1413h260l424 -1132h12l242 1132h213l-299 -1413h-265l-421 1137h-11l-241 -1137h-213zM303 -442l195 303h235l-301 -303h-129z" glyph-name="Ncommaaccent" horiz-adv-x="1511" unicode="Ņ"/><glyph d="M53 0l221 1049h205l-33 -148l9 8q135 160 333 160q166 0 245 -108.5t40 -282.5l-141 -678h-205l141 666q25 121 -11 174t-128 53q-121 0 -218 -80t-124 -205l-129 -608h-205zM150 -442l194 303h236l-301 -303h-129z" glyph-name="ncommaaccent" horiz-adv-x="1181" unicode="ņ"/><glyph d="M926 1509l-197 267h160l96 -144l162 144h174l-311 -267h-84zM70 0l299 1413h260l424 -1132h12l242 1132h213l-299 -1413h-265l-421 1137h-11l-241 -1137h-213z" glyph-name="Ncaron" horiz-adv-x="1511" unicode="Ň"/><glyph d="M680 1151l-197 266h160l96 -143l162 143h174l-311 -266h-84zM53 0l221 1049h205l-33 -148l9 8q135 160 333 160q166 0 245 -108.5t40 -282.5l-141 -678h-205l141 666q25 121 -11 174t-128 53q-121 0 -218 -80t-124 -205l-129 -608h-205z" glyph-name="ncaron" horiz-adv-x="1181" unicode="ň"/><glyph d="M756 -289l26 125h62q170 0 102 187l-411 1114h-11l-241 -1137h-213l299 1413h260l424 -1132h12l242 1132h213l-299 -1413q-31 -141 -105 -215t-258 -74h-102z" glyph-name="Eng" horiz-adv-x="1511" unicode="Ŋ"/><glyph d="M41 0l211 999h199l-35 -161l12 8q133 170 342 170q182 0 246.5 -122t27.5 -298l-126 -606q-8 -35 -12.5 -51.5t-21 -56.5t-40 -63.5t-60 -52t-94 -42t-129.5 -13.5h-112l28 142h51q63 0 108.5 33.5t60 64.5t20.5 59l123 574q51 246 -135 245q-119 0 -220.5 -85 t-124.5 -201l-116 -543h-203z" glyph-name="eng" horiz-adv-x="1177" unicode="ŋ"/><glyph d="M686 1597l25 123h551l-27 -123h-549zM631 -20q-305 0 -443.5 203.5t-66.5 543.5q70 326 281.5 516.5t504.5 190.5q305 0 443.5 -203t66.5 -545q-70 -324 -281.5 -515t-504.5 -191zM639 170q205 0 360.5 151.5t206.5 405.5q51 238 -30.5 377t-276.5 139 q-205 0 -359.5 -151.5t-207.5 -405.5q-51 -238 31.5 -377t275.5 -139z" glyph-name="Omacron" horiz-adv-x="1462" unicode="Ō"/><glyph d="M463 1235l24 123h551l-26 -123h-549zM485 -23q-231 0 -344.5 148.5t-56.5 415.5q53 254 217 391t385 137q233 0 347 -151.5t54 -417.5q-53 -252 -218 -387.5t-384 -135.5zM503.5 152q149.5 0 253 96t142.5 280q39 178 -19.5 272.5t-207.5 94.5q-152 0 -254.5 -99.5 t-141.5 -281.5q-39 -174 19.5 -268t208 -94z" glyph-name="omacron" horiz-adv-x="1173" unicode="ō"/><glyph d="M657 1542l261 234h219l-303 -234h-177zM1012 1542l258 234h235l-323 -234h-170zM631 -20q-305 0 -443.5 203.5t-66.5 543.5q70 326 281.5 516.5t504.5 190.5q305 0 443.5 -203t66.5 -545q-70 -324 -281.5 -515t-504.5 -191zM639 170q205 0 360.5 151.5t206.5 405.5 q51 238 -30.5 377t-276.5 139q-205 0 -359.5 -151.5t-207.5 -405.5q-51 -238 31.5 -377t275.5 -139z" glyph-name="Ohungarumlaut" horiz-adv-x="1462" unicode="Ő"/><glyph d="M434 1180l260 233h219l-303 -233h-176zM788 1180l259 233h235l-324 -233h-170zM485 -23q-231 0 -344.5 148.5t-56.5 415.5q53 254 217 391t385 137q233 0 347 -151.5t54 -417.5q-53 -252 -218 -387.5t-384 -135.5zM503.5 152q149.5 0 253 96t142.5 280 q39 178 -19.5 272.5t-207.5 94.5q-152 0 -254.5 -99.5t-141.5 -281.5q-39 -174 19.5 -268t208 -94z" glyph-name="ohungarumlaut" horiz-adv-x="1173" unicode="ő"/><glyph d="M2275 1227h-696l-88 -426h616l-34 -187h-621l-88 -428h696l-37 -186h-905l39 190q-217 -211 -526 -210q-305 0 -443.5 203.5t-66.5 543.5q70 326 281.5 516.5t504.5 190.5q324 0 459 -228l43 207h905zM639 170q205 0 360.5 151.5t206.5 405.5q51 238 -30.5 377 t-276.5 139q-205 0 -359.5 -151.5t-207.5 -405.5q-51 -238 31.5 -377t275.5 -139z" glyph-name="OE" horiz-adv-x="2236" unicode="Œ"/><glyph d="M1491 1069q229 0 314 -156.5t36 -384.5q-4 -31 -18 -71l-729 6q-47 -305 235 -305q152 0 289 104l113 -125q-199 -158 -424 -157q-272 0 -373 196q-174 -199 -449 -199q-231 0 -344.5 148.5t-56.5 415.5q53 254 217 391t385 137q276 0 377 -201q170 201 428 201z M503.5 152q149.5 0 253 96t142.5 280q39 178 -19.5 272.5t-207.5 94.5q-152 0 -254.5 -99.5t-141.5 -281.5q-39 -174 19.5 -268t208 -94zM1659 621q23 123 -23.5 197.5t-165.5 74.5q-121 0 -211 -71.5t-131 -198.5z" glyph-name="oe" horiz-adv-x="1947" unicode="œ"/><glyph d="M774 1534l213 242h244l-297 -242h-160zM68 -2l301 1415h598q205 0 315.5 -114.5t71.5 -305.5q-61 -274 -357 -356l195 -639h-225l-176 614h-379l-131 -614h-213zM451 786l411 2q246 10 287 232q18 98 -35 153.5t-176 55.5h-395z" glyph-name="Racute" horiz-adv-x="1349" unicode="Ŕ"/><glyph d="M514 1171l213 242h244l-297 -242h-160zM821 874q-178 27 -300 -87.5t-167 -333.5l-96 -453h-205l221 1049h197l-37 -172l8 4q117 184 285 184q88 0 135 -21z" glyph-name="racute" horiz-adv-x="774" unicode="ŕ"/><glyph d="M68 -2l301 1415h598q205 0 315.5 -114.5t71.5 -305.5q-61 -274 -357 -356l195 -639h-225l-176 614h-379l-131 -614h-213zM451 786l411 2q246 10 287 232q18 98 -35 153.5t-176 55.5h-395zM221 -442l195 303h235l-301 -303h-129z" glyph-name="Rcommaaccent" horiz-adv-x="1349" unicode="Ŗ"/><glyph d="M821 874q-178 27 -300 -87.5t-167 -333.5l-96 -453h-205l221 1049h197l-37 -172l8 4q117 184 285 184q88 0 135 -21zM-186 -442l194 303h236l-301 -303h-129z" glyph-name="rcommaaccent" horiz-adv-x="774" unicode="ŗ"/><glyph d="M811 1509l-197 267h160l96 -144l162 144h174l-311 -267h-84zM68 -2l301 1415h598q205 0 315.5 -114.5t71.5 -305.5q-61 -274 -357 -356l195 -639h-225l-176 614h-379l-131 -614h-213zM451 786l411 2q246 10 287 232q18 98 -35 153.5t-176 55.5h-395z" glyph-name="Rcaron" horiz-adv-x="1349" unicode="Ř"/><glyph d="M551 1147l-197 266h160l96 -143l162 143h174l-311 -266h-84zM821 874q-178 27 -300 -87.5t-167 -333.5l-96 -453h-205l221 1049h197l-37 -172l8 4q117 184 285 184q88 0 135 -21z" glyph-name="rcaron" horiz-adv-x="774" unicode="ř"/><glyph d="M682 1534l213 242h244l-297 -242h-160zM487 -16q-176 0 -303 93t-168 271l179 92q61 -266 305 -266q119 0 207 61.5t110 165.5q4 20 5 40t-5 37.5t-10 30.5t-19.5 27.5t-22.5 23.5t-30.5 23.5t-33 20.5t-39 20.5t-39 18.5t-43.5 21q-37 12 -62.5 22t-60.5 25.5t-58.5 30 t-51.5 35t-45 42t-33.5 50t-22.5 59t-6 69.5t8 82q35 164 170 259.5t323 95.5q266 0 402 -222l-144 -116q-94 160 -272 159q-100 0 -176 -53t-94 -139q-8 -39 1 -69.5t48 -60.5t63.5 -43t92.5 -46q16 -8 24 -13q37 -14 63.5 -25t61.5 -27.5t60.5 -32t53 -38t46 -45t35 -53 t23.5 -63.5t7 -75t-10 -87q-39 -180 -188.5 -290.5t-350.5 -110.5z" glyph-name="Sacute" horiz-adv-x="1118" unicode="Ś"/><glyph d="M537 1171l213 242h243l-297 -242h-159zM399 -23q-143 0 -253.5 64.5t-153.5 163.5l141 102q57 -158 254 -164q104 -2 185 42t100 126q8 33 0 56.5t-40 40t-57.5 25.5t-80.5 24q-25 6 -37 10q-37 8 -64.5 15t-62.5 18.5t-58.5 24t-50 29.5t-39 37.5t-27 49.5t-11.5 61.5 t8 73.5q31 143 149.5 218t290.5 75q248 0 362 -188l-125 -107q-72 123 -227 133q-98 4 -173 -36t-89 -107q0 -16 -4 -26.5t7 -23t16.5 -19.5t23.5 -16t30.5 -14.5t37 -12.5t40 -12t42 -12t45.5 -14q76 -16 127 -36.5t99 -56.5t64.5 -93t-0.5 -137q-33 -147 -164 -230.5 t-305 -83.5z" glyph-name="sacute" horiz-adv-x="983" unicode="ś"/><glyph d="M686 831q37 -14 63.5 -25t61.5 -27.5t60.5 -32t53 -38t46 -45t35 -53t23.5 -63.5t7 -75t-10 -87q-39 -178 -185.5 -287.5t-342.5 -113.5l-95 -111l29 -16q61 -20 95 -69.5t18 -123.5q-16 -82 -82 -124t-141 -42q-78 0 -128.5 40t-62.5 100l111 34q0 -68 77 -67 q45 0 76 25.5t37 62.5q12 72 -76 98l-123 35l129 170q-129 29 -220 118t-126 234l179 92q61 -266 305 -266q119 0 207 61.5t110 165.5q4 20 5 40t-5 37.5t-10 30.5t-19.5 27.5t-22.5 23.5t-30.5 23.5t-33 20.5t-39 20.5t-39 18.5t-43.5 21q-37 12 -62.5 22t-60.5 25.5 t-58.5 30t-51.5 35t-45 42t-33.5 50t-22.5 59t-6 69.5t8 82q35 164 170 259.5t323 95.5q266 0 402 -222l-144 -116q-94 160 -272 159q-100 0 -176 -53t-94 -139q-8 -39 1 -69.5t48 -60.5t63.5 -43t92.5 -46q16 -9 24 -13z" glyph-name="Scedilla" horiz-adv-x="1118" unicode="Ş"/><glyph d="M578 614q76 -16 127 -36.5t99 -56.5t64.5 -93t-0.5 -137q-29 -129 -135 -210t-254 -99l-92 -107l29 -16q61 -20 95 -69.5t17 -123.5q-16 -82 -81.5 -124t-141.5 -42q-78 0 -128 40t-62 100l110 34q0 -68 78 -67q45 0 76 25.5t37 62.5q12 72 -76 98l-123 35l117 154 q-121 14 -212 75.5t-130 147.5l141 102q57 -158 254 -164q104 -2 185 42t100 126q8 33 0 56.5t-40 40t-57.5 25.5t-80.5 24q-25 6 -37 10q-37 8 -64.5 15t-62.5 18.5t-58.5 24t-50 29.5t-39 37.5t-27 49.5t-11.5 61.5t8 73.5q31 143 149.5 218t290.5 75q248 0 362 -188 l-125 -107q-72 123 -227 133q-98 4 -173 -36t-89 -107q0 -16 -4 -26.5t7 -23t16.5 -19.5t23.5 -16t30.5 -14.5t37 -12.5t40 -12t42.5 -12.5t45 -13.5z" glyph-name="scedilla" horiz-adv-x="983" unicode="ş"/><glyph d="M719 1509l-197 267h160l96 -144l162 144h174l-311 -267h-84zM487 -16q-176 0 -303 93t-168 271l179 92q61 -266 305 -266q119 0 207 61.5t110 165.5q4 20 5 40t-5 37.5t-10 30.5t-19.5 27.5t-22.5 23.5t-30.5 23.5t-33 20.5t-39 20.5t-39 18.5t-43.5 21q-37 12 -62.5 22 t-60.5 25.5t-58.5 30t-51.5 35t-45 42t-33.5 50t-22.5 59t-6 69.5t8 82q35 164 170 259.5t323 95.5q266 0 402 -222l-144 -116q-94 160 -272 159q-100 0 -176 -53t-94 -139q-8 -39 1 -69.5t48 -60.5t63.5 -43t92.5 -46q16 -8 24 -13q37 -14 63.5 -25t61.5 -27.5t60.5 -32 t53 -38t46 -45t35 -53t23.5 -63.5t7 -75t-10 -87q-39 -180 -188.5 -290.5t-350.5 -110.5z" glyph-name="Scaron" horiz-adv-x="1118" unicode="Š"/><glyph d="M573 1147l-196 266h160l96 -143l162 143h174l-312 -266h-84zM399 -23q-143 0 -253.5 64.5t-153.5 163.5l141 102q57 -158 254 -164q104 -2 185 42t100 126q8 33 0 56.5t-40 40t-57.5 25.5t-80.5 24q-25 6 -37 10q-37 8 -64.5 15t-62.5 18.5t-58.5 24t-50 29.5t-39 37.5 t-27 49.5t-11.5 61.5t8 73.5q31 143 149.5 218t290.5 75q248 0 362 -188l-125 -107q-72 123 -227 133q-98 4 -173 -36t-89 -107q0 -16 -4 -26.5t7 -23t16.5 -19.5t23.5 -16t30.5 -14.5t37 -12.5t40 -12t42 -12t45.5 -14q76 -16 127 -36.5t99 -56.5t64.5 -93t-0.5 -137 q-33 -147 -164 -230.5t-305 -83.5z" glyph-name="scaron" horiz-adv-x="983" unicode="š"/><glyph d="M205 1413h1130l-39 -184h-456l-260 -1229h-33l-107 -125l29 -16q61 -20 95 -69.5t18 -123.5q-16 -82 -82 -124t-142 -42q-78 0 -128 40t-62 100l111 34q0 -68 77 -67q45 0 76 25.5t37 62.5q12 72 -76 98l-123 35l131 172h-36l262 1229h-459z" glyph-name="Tcommaaccent" horiz-adv-x="1165" unicode="Ţ"/><glyph d="M467 907l-125 -594q-20 -88 0 -118.5t94 -30.5h137l-32 -164h-41l-107 -125l29 -16q61 -20 95 -69.5t18 -123.5q-16 -82 -82 -124t-142 -42q-78 0 -128 40t-62 100l110 34q0 -68 78 -67q45 0 76 25.5t37 62.5q12 72 -76 98l-123 35l131 172h-12q-131 0 -185.5 73.5 t-23.5 211.5l131 622h-153l28 142h156l76 364h204l-77 -364h264l-31 -142h-264z" glyph-name="tcommaaccent" horiz-adv-x="696" unicode="ţ"/><glyph d="M750 1509l-197 267h160l96 -144l162 144h174l-311 -267h-84zM365 0l262 1229h-459l37 184h1130l-39 -184h-456l-260 -1229h-215z" glyph-name="Tcaron" horiz-adv-x="1165" unicode="Ť"/><glyph d="M803 1690h254l-49 -244l-222 -318h-118l174 318h-90zM342 0q-131 0 -185.5 73.5t-23.5 211.5l131 622h-153l28 142h156l76 364h204l-77 -364h264l-31 -142h-264l-125 -594q-20 -88 0 -118.5t94 -30.5h137l-32 -164h-199z" glyph-name="tcaron" horiz-adv-x="763" unicode="ť"/><glyph d="M1296 1229h-456l-99 -469h211l-22 -107h-211l-139 -653h-215l139 653h-221l22 107h221l101 469h-459l37 184h1130z" glyph-name="Tbar" horiz-adv-x="1165" unicode="Ŧ"/><glyph d="M731 907h-264l-70 -329h236l-21 -107h-237l-33 -158q-20 -88 0 -118.5t94 -30.5h137l-32 -164h-199q-131 0 -185.5 73.5t-23.5 211.5l39 186h-149l20 107h152l69 329h-153l28 142h156l76 364h204l-77 -364h264z" glyph-name="tbar" horiz-adv-x="696" unicode="ŧ"/><glyph d="M1067 1520q-55 0 -100 21.5t-67.5 48t-53.5 48t-62 21.5q-49 0 -83.5 -39t-43.5 -98l-118 18q49 236 229 236q76 0 126 -36t86 -71t77 -35q51 0 86 41t45 109l121 -19q-54 -245 -242 -245zM584 -20q-254 0 -364.5 143t-57.5 395l190 895h213l-194 -921 q-33 -152 25.5 -235t195.5 -83q150 0 256 91t139 245l193 903h213l-191 -903q-53 -256 -212.5 -393t-405.5 -137z" glyph-name="Utilde" horiz-adv-x="1368" unicode="Ũ"/><glyph d="M889 1157q-55 0 -100.5 21.5t-68 48t-53 48t-61.5 21.5q-49 0 -84 -38.5t-43 -98.5l-119 19q49 236 230 235q59 0 104 -22.5t67.5 -48t53.5 -48t64 -22.5q51 0 85.5 41t45.5 108l120 -18q-53 -246 -241 -246zM1135 1049l-222 -1049h-204l34 147l-16 -8 q-129 -158 -326 -157q-172 0 -247.5 108.5t-38.5 282.5l141 676h205l-139 -654q-47 -225 143 -225q125 0 220 81t118 198l127 600h205z" glyph-name="utilde" horiz-adv-x="1187" unicode="ũ"/><glyph d="M639 1597l25 123h550l-26 -123h-549zM584 -20q-254 0 -364.5 143t-57.5 395l190 895h213l-194 -921q-33 -152 25.5 -235t195.5 -83q150 0 256 91t139 245l193 903h213l-191 -903q-53 -256 -212.5 -393t-405.5 -137z" glyph-name="Umacron" horiz-adv-x="1368" unicode="Ū"/><glyph d="M461 1235l24 123h551l-26 -123h-549zM1135 1049l-222 -1049h-204l34 147l-16 -8q-129 -158 -326 -157q-172 0 -247.5 108.5t-38.5 282.5l141 676h205l-139 -654q-47 -225 143 -225q125 0 220 81t118 198l127 600h205z" glyph-name="umacron" horiz-adv-x="1187" unicode="ū"/><glyph d="M903 1485q-92 0 -142 65.5t-30 161.5q14 76 82 129t145 53q92 0 143.5 -64.5t31.5 -158.5q-16 -78 -83 -132t-147 -54zM915 1583q43 0 77 28.5t44 69.5q10 47 -16.5 81t-73.5 34q-41 0 -75.5 -27.5t-43.5 -68.5q-10 -47 15.5 -82t72.5 -35zM584 -20q-254 0 -364.5 143 t-57.5 395l190 895h213l-194 -921q-33 -152 25.5 -235t195.5 -83q150 0 256 91t139 245l193 903h213l-191 -903q-53 -256 -212.5 -393t-405.5 -137z" glyph-name="Uring" horiz-adv-x="1368" unicode="Ů"/><glyph d="M725 1122q-92 0 -142.5 65.5t-29.5 162.5q14 76 81.5 129t145.5 53q92 0 143.5 -64.5t30.5 -158.5q-16 -78 -82.5 -132.5t-146.5 -54.5zM737 1221q43 0 77 28.5t44 69.5q10 47 -16.5 81t-73.5 34q-41 0 -76 -28t-43 -69q-10 -47 15.5 -81.5t72.5 -34.5zM1135 1049 l-222 -1049h-204l34 147l-16 -8q-129 -158 -326 -157q-172 0 -247.5 108.5t-38.5 282.5l141 676h205l-139 -654q-47 -225 143 -225q125 0 220 81t118 198l127 600h205z" glyph-name="uring" horiz-adv-x="1187" unicode="ů"/><glyph d="M610 1542l260 234h220l-304 -234h-176zM965 1542l258 234h235l-323 -234h-170zM584 -20q-254 0 -364.5 143t-57.5 395l190 895h213l-194 -921q-33 -152 25.5 -235t195.5 -83q150 0 256 91t139 245l193 903h213l-191 -903q-53 -256 -212.5 -393t-405.5 -137z" glyph-name="Uhungarumlaut" horiz-adv-x="1368" unicode="Ű"/><glyph d="M432 1180l260 233h219l-303 -233h-176zM786 1180l258 233h236l-324 -233h-170zM1135 1049l-222 -1049h-204l34 147l-16 -8q-129 -158 -326 -157q-172 0 -247.5 108.5t-38.5 282.5l141 676h205l-139 -654q-47 -225 143 -225q125 0 220 81t118 198l127 600h205z" glyph-name="uhungarumlaut" horiz-adv-x="1187" unicode="ű"/><glyph d="M1180 1413h213l-191 -903q-78 -365 -354 -479q-94 -74 -125 -166q-14 -49 3 -76t54 -27q70 0 129 74l97 -90q-90 -109 -220 -108q-100 0 -153 60t-31 165q10 59 60 121q-53 -4 -78 -4q-254 0 -364.5 143t-57.5 395l190 895h213l-194 -921q-33 -152 25.5 -235t195.5 -83 q150 0 256 91t139 245z" glyph-name="Uogonek" horiz-adv-x="1368" unicode="Ų"/><glyph d="M756 -326q70 0 129 74l96 -90q-90 -109 -219 -109q-100 0 -153.5 60.5t-30.5 165.5q27 129 176 225h-45l34 147l-16 -8q-129 -158 -326 -157q-172 0 -247.5 108.5t-38.5 282.5l141 676h205l-139 -654q-47 -225 143 -225q125 0 220 81t118 198l127 600h205l-222 -1049h2 q-176 -94 -217 -223q-14 -49 3.5 -76t54.5 -27z" glyph-name="uogonek" horiz-adv-x="1187" unicode="ų"/><glyph d="M852 1511l307 267h86l197 -267h-160l-96 148l-162 -148h-172zM225 0l-18 1413h219l-6 -1216h8l565 1216h267l49 -1216h6l512 1216h225l-622 -1413h-293l-50 1212l-567 -1212h-295z" glyph-name="Wcircumflex" horiz-adv-x="1878" unicode="Ŵ"/><glyph d="M932 1294l-162 -147h-172l307 266h86l197 -266h-160zM1395 1049h223l-469 -1049h-283l-47 782l-379 -784h-282l-21 1051h217l-16 -893l442 893h185l63 -902z" glyph-name="wcircumflex" horiz-adv-x="1529" unicode="ŵ"/><glyph d="M592 1509l307 267h86l197 -267h-160l-96 148l-162 -148h-172zM461 0l121 551l-385 862h239l285 -668l575 668h252l-753 -862l-119 -551h-215z" glyph-name="Ycircumflex" horiz-adv-x="1359" unicode="Ŷ"/><glyph d="M319 1147l308 266h86l196 -266h-159l-97 147l-161 -147h-173zM-115 -365l21 166q102 0 181 37t114 77t75 105l-147 1029h213l76 -803h14l414 803h227l-622 -1100q-113 -197 -237 -255.5t-329 -58.5z" glyph-name="ycircumflex" horiz-adv-x="962" unicode="ŷ"/><glyph d="M637 1565l43 211h184l-43 -211h-184zM981 1565l45 211h182l-43 -211h-184zM461 0l121 551l-385 862h239l285 -668l575 668h252l-753 -862l-119 -551h-215z" glyph-name="Ydieresis" horiz-adv-x="1359" unicode="Ÿ"/><glyph d="M1186 1776l-297 -242h-160l213 242h244zM1341 1413l-30 -164l-1055 -1063h825l-39 -186h-1118l31 156l1061 1071h-787l39 186h1073z" glyph-name="Zacute" horiz-adv-x="1187" unicode="Ź"/><glyph d="M989 1413l-297 -242h-160l213 242h244zM1014 1049l-31 -162l-737 -717h575l-35 -170h-839l28 150l752 731h-577l34 168h830z" glyph-name="zacute" horiz-adv-x="956" unicode="ź"/><glyph d="M950 1776l-43 -205h-178l43 205h178zM1341 1413l-30 -164l-1055 -1063h825l-39 -186h-1118l31 156l1061 1071h-787l39 186h1073z" glyph-name="Zdotaccent" horiz-adv-x="1187" unicode="Ż"/><glyph d="M754 1413l-43 -205h-179l43 205h179zM1014 1049l-31 -162l-737 -717h575l-35 -170h-839l28 150l752 731h-577l34 168h830z" glyph-name="zdotaccent" horiz-adv-x="956" unicode="ż"/><glyph d="M850 1509h-84l-197 267h160l96 -144l162 144h174zM1341 1413l-30 -164l-1055 -1063h825l-39 -186h-1118l31 156l1061 1071h-787l39 186h1073z" glyph-name="Zcaron" horiz-adv-x="1187" unicode="Ž"/><glyph d="M653 1147h-84l-196 266h159l97 -143l162 143h174zM1014 1049l-31 -162l-737 -717h575l-35 -170h-839l28 150l752 731h-577l34 168h830z" glyph-name="zcaron" horiz-adv-x="956" unicode="ž"/><glyph d="M803 1255q-63 0 -112.5 -43t-61.5 -108l-15 -55h256l-30 -142h-254l-193 -907h2q-90 -403 -497 -403l20 174q109 0 176.5 49t93.5 180l193 907h-182l30 142h183l16 75q29 137 124 213t241 76h155l-33 -158h-112z" glyph-name="florin" horiz-adv-x="907" unicode="ƒ"/><glyph d="M883 1509h-84l-197 267h160l96 -144l162 144h174zM672 1413h286l177 -1413h-226l-32 319h-582l-168 -319h-236zM387 494h473l-76 743h-6z" glyph-name="uni01CD" horiz-adv-x="1251" unicode="Ǎ"/><glyph d="M721 1147h-84l-197 266h160l96 -143l162 143h174zM649 1069q190 0 298 -88t73 -250l-154 -731h-188l27 125q-84 -68 -189.5 -108t-191.5 -40q-160 0 -239 84t-50 228q10 45 26.5 82t48 68.5t58.5 55t80 47t89 39t107.5 37t114.5 33t133 35t139 35.5v2q20 94 -26.5 135 t-161.5 41q-190 0 -334 -147l-129 112q195 205 469 205zM356 156q207 0 396 188l43 211q-311 -90 -394 -129q-135 -66 -153 -156q-12 -55 18.5 -84.5t89.5 -29.5z" glyph-name="uni01CE" horiz-adv-x="1099" unicode="ǎ"/><glyph d="M457 1509l-197 267h160l96 -144l162 144h174l-311 -267h-84zM70 0l299 1413h213l-299 -1413h-213z" glyph-name="uni01CF" horiz-adv-x="573" unicode="Ǐ"/><glyph d="M352 1147l-196 266h159l97 -143l161 143h175l-312 -266h-84zM47 0l221 1049h205l-221 -1049h-205z" glyph-name="uni01D0" horiz-adv-x="520" unicode="ǐ"/><glyph d="M901 1509l-196 267h159l97 -144l161 144h174l-311 -267h-84zM631 -20q-305 0 -443.5 203.5t-66.5 543.5q70 326 281.5 516.5t504.5 190.5q305 0 443.5 -203t66.5 -545q-70 -324 -281.5 -515t-504.5 -191zM639 170q205 0 360.5 151.5t206.5 405.5q51 238 -30.5 377 t-276.5 139q-205 0 -359.5 -151.5t-207.5 -405.5q-51 -238 31.5 -377t275.5 -139z" glyph-name="uni01D1" horiz-adv-x="1462" unicode="Ǒ"/><glyph d="M678 1147l-197 266h160l96 -143l162 143h174l-311 -266h-84zM485 -23q-231 0 -344.5 148.5t-56.5 415.5q53 254 217 391t385 137q233 0 347 -151.5t54 -417.5q-53 -252 -218 -387.5t-384 -135.5zM503.5 152q149.5 0 253 96t142.5 280q39 178 -19.5 272.5t-207.5 94.5 q-152 0 -254.5 -99.5t-141.5 -281.5q-39 -174 19.5 -268t208 -94z" glyph-name="uni01D2" horiz-adv-x="1173" unicode="ǒ"/><glyph d="M854 1509l-197 267h160l96 -144l162 144h174l-311 -267h-84zM584 -20q-254 0 -364.5 143t-57.5 395l190 895h213l-194 -921q-33 -152 25.5 -235t195.5 -83q150 0 256 91t139 245l193 903h213l-191 -903q-53 -256 -212.5 -393t-405.5 -137z" glyph-name="uni01D3" horiz-adv-x="1368" unicode="Ǔ"/><glyph d="M676 1147l-197 266h160l96 -143l162 143h174l-311 -266h-84zM1135 1049l-222 -1049h-204l34 147l-16 -8q-129 -158 -326 -157q-172 0 -247.5 108.5t-38.5 282.5l141 676h205l-139 -654q-47 -225 143 -225q125 0 220 81t118 198l127 600h205z" glyph-name="uni01D4" horiz-adv-x="1187" unicode="ǔ"/><glyph d="M717 1962l24 123h551l-26 -123h-549zM641 1565l43 211h184l-43 -211h-184zM985 1565l45 211h182l-43 -211h-184zM584 -20q-254 0 -364.5 143t-57.5 395l190 895h213l-194 -921q-33 -152 25.5 -235t195.5 -83q150 0 256 91t139 245l193 903h213l-191 -903 q-53 -256 -212.5 -393t-405.5 -137z" glyph-name="uni01D5" horiz-adv-x="1368" unicode="Ǖ"/><glyph d="M539 1599l24 123h551l-27 -123h-548zM463 1202l43 211h184l-43 -211h-184zM807 1202l45 211h182l-43 -211h-184zM1135 1049l-222 -1049h-204l34 147l-16 -8q-129 -158 -326 -157q-172 0 -247.5 108.5t-38.5 282.5l141 676h205l-139 -654q-47 -225 143 -225q125 0 220 81 t118 198l127 600h205z" glyph-name="uni01D6" horiz-adv-x="1187" unicode="ǖ"/><glyph d="M895 1898l213 242h244l-297 -242h-160zM641 1565l43 211h184l-43 -211h-184zM985 1565l45 211h182l-43 -211h-184zM584 -20q-254 0 -364.5 143t-57.5 395l190 895h213l-194 -921q-33 -152 25.5 -235t195.5 -83q150 0 256 91t139 245l193 903h213l-191 -903 q-53 -256 -212.5 -393t-405.5 -137z" glyph-name="uni01D7" horiz-adv-x="1368" unicode="Ǘ"/><glyph d="M717 1536l213 242h244l-297 -242h-160zM463 1202l43 211h184l-43 -211h-184zM807 1202l45 211h182l-43 -211h-184zM1135 1049l-222 -1049h-204l34 147l-16 -8q-129 -158 -326 -157q-172 0 -247.5 108.5t-38.5 282.5l141 676h205l-139 -654q-47 -225 143 -225 q125 0 220 81t118 198l127 600h205z" glyph-name="uni01D8" horiz-adv-x="1187" unicode="ǘ"/><glyph d="M932 1874l-197 266h160l96 -143l162 143h174l-311 -266h-84zM641 1565l43 211h184l-43 -211h-184zM985 1565l45 211h182l-43 -211h-184zM584 -20q-254 0 -364.5 143t-57.5 395l190 895h213l-194 -921q-33 -152 25.5 -235t195.5 -83q150 0 256 91t139 245l193 903h213 l-191 -903q-53 -256 -212.5 -393t-405.5 -137z" glyph-name="uni01D9" horiz-adv-x="1368" unicode="Ǚ"/><glyph d="M754 1511l-197 267h160l96 -144l162 144h174l-311 -267h-84zM463 1202l43 211h184l-43 -211h-184zM807 1202l45 211h182l-43 -211h-184zM1135 1049l-222 -1049h-204l34 147l-16 -8q-129 -158 -326 -157q-172 0 -247.5 108.5t-38.5 282.5l141 676h205l-139 -654 q-47 -225 143 -225q125 0 220 81t118 198l127 600h205z" glyph-name="uni01DA" horiz-adv-x="1187" unicode="ǚ"/><glyph d="M895 1896l-180 244h233l109 -244h-162zM641 1565l43 211h184l-43 -211h-184zM985 1565l45 211h182l-43 -211h-184zM584 -20q-254 0 -364.5 143t-57.5 395l190 895h213l-194 -921q-33 -152 25.5 -235t195.5 -83q150 0 256 91t139 245l193 903h213l-191 -903 q-53 -256 -212.5 -393t-405.5 -137z" glyph-name="uni01DB" horiz-adv-x="1368" unicode="Ǜ"/><glyph d="M717 1534l-180 244h233l109 -244h-162zM463 1202l43 211h184l-43 -211h-184zM807 1202l45 211h182l-43 -211h-184zM1135 1049l-222 -1049h-204l34 147l-16 -8q-129 -158 -326 -157q-172 0 -247.5 108.5t-38.5 282.5l141 676h205l-139 -654q-47 -225 143 -225 q125 0 220 81t118 198l127 600h205z" glyph-name="uni01DC" horiz-adv-x="1187" unicode="ǜ"/><glyph d="M1321 1776l-297 -242h-160l213 242h244zM1548 1262l-149 -123q74 -182 18 -453q-70 -324 -281.5 -515t-504.5 -191q-281 0 -422 174l-127 -105l-88 103l145 120q-76 186 -18 455q70 326 281.5 516.5t504.5 190.5q283 0 424 -177l125 105zM332 686q-31 -154 -10 -264 l843 698q-86 123 -266 123q-205 0 -359.5 -151.5t-207.5 -405.5zM1206 727q33 143 13 262l-844 -698q86 -121 264 -121q205 0 360.5 151.5t206.5 405.5z" glyph-name="Oslashacute" horiz-adv-x="1462" unicode="Ǿ"/><glyph d="M1098 1413l-297 -242h-160l213 242h244zM1135 915l-68 -55q68 -145 20 -360q-53 -252 -217.5 -387.5t-384.5 -135.5q-217 0 -329 129l-56 -45l-61 72l65 55q-66 143 -20 353q53 254 217 391t385 137q217 0 330 -129l53 45zM276 514q-25 -111 -8 -192l600 497 q-63 76 -196 76q-152 0 -254.5 -99.5t-141.5 -281.5zM899 528q27 123 8 201l-600 -498q61 -80 197 -79q150 0 253 96t142 280z" glyph-name="oslashacute" horiz-adv-x="1173" unicode="ǿ"/><glyph d="M487 -16q-176 0 -303 93t-168 271l179 92q61 -266 305 -266q119 0 207 61.5t110 165.5q4 20 5 40t-5 37.5t-10 30.5t-19.5 27.5t-22.5 23.5t-30.5 23.5t-33 20.5t-39 20.5t-39 18.5t-43.5 21q-37 12 -62.5 22t-60.5 25.5t-58.5 30t-51.5 35t-45 42t-33.5 50t-22.5 59 t-6 69.5t8 82q35 164 170 259.5t323 95.5q266 0 402 -222l-144 -116q-94 160 -272 159q-100 0 -176 -53t-94 -139q-8 -39 1 -69.5t48 -60.5t63.5 -43t92.5 -46q16 -8 24 -13q37 -14 63.5 -25t61.5 -27.5t60.5 -32t53 -38t46 -45t35 -53t23.5 -63.5t7 -75t-10 -87 q-39 -180 -188.5 -290.5t-350.5 -110.5zM90 -444l195 303h235l-301 -303h-129z" glyph-name="Scommaaccent" horiz-adv-x="1118" unicode="Ș"/><glyph d="M399 -23q-143 0 -253.5 64.5t-153.5 163.5l141 102q57 -158 254 -164q104 -2 185 42t100 126q8 33 0 56.5t-40 40t-57.5 25.5t-80.5 24q-25 6 -37 10q-37 8 -64.5 15t-62.5 18.5t-58.5 24t-50 29.5t-39 37.5t-27 49.5t-11.5 61.5t8 73.5q31 143 149.5 218t290.5 75 q248 0 362 -188l-125 -107q-72 123 -227 133q-98 4 -173 -36t-89 -107q0 -16 -4 -26.5t7 -23t16.5 -19.5t23.5 -16t30.5 -14.5t37 -12.5t40 -12t42 -12t45.5 -14q76 -16 127 -36.5t99 -56.5t64.5 -93t-0.5 -137q-33 -147 -164 -230.5t-305 -83.5zM74 -442l194 303h236 l-301 -303h-129z" glyph-name="scommaaccent" horiz-adv-x="983" unicode="ș"/><glyph d="M365 0l262 1229h-459l37 184h1130l-39 -184h-456l-260 -1229h-215zM127 -442l195 303h235l-301 -303h-129z" glyph-name="uni021A" horiz-adv-x="1165" unicode="Ț"/><glyph d="M342 0q-131 0 -185.5 73.5t-23.5 211.5l131 622h-153l28 142h156l76 364h204l-77 -364h264l-31 -142h-264l-125 -594q-20 -88 0 -118.5t94 -30.5h137l-32 -164h-199zM80 -442l194 303h236l-301 -303h-129z" glyph-name="uni021B" horiz-adv-x="696" unicode="ț"/><glyph d="M-109 -365h-131l35 166h86q55 0 93 36t51 93l237 1119h205l-238 -1129q-31 -143 -111 -214t-227 -71z" glyph-name="uni0237" horiz-adv-x="520" unicode="ȷ"/><glyph d="M182 1102l307 266h86l197 -266h-160l-96 147l-162 -147h-172z" glyph-name="circumflex" horiz-adv-x="710" unicode="ˆ"/><glyph d="M438 1098l-196 266h159l97 -143l161 143h175l-312 -266h-84z" glyph-name="caron" horiz-adv-x="710" unicode="ˇ"/><glyph d="M467 1094q-133 0 -210 74.5t-58 205.5h145q-12 -76 23.5 -115.5t101.5 -39.5q70 0 126 43t75 112h147q-25 -135 -122 -207.5t-228 -72.5z" glyph-name="breve" horiz-adv-x="661" unicode="˘"/><glyph d="M184 1159l43 205h179l-44 -205h-178z" glyph-name="dotaccent" horiz-adv-x="276" unicode="˙"/><glyph d="M365 1085q-94 0 -144.5 67t-30.5 161q16 78 83 132t147 54q92 0 144 -65.5t32 -159.5q-14 -80 -81.5 -134.5t-149.5 -54.5zM373 1157q53 0 97 36t54 89q14 59 -19.5 102t-92.5 43q-51 0 -95.5 -35.5t-54.5 -86.5q-14 -61 19 -104.5t92 -43.5z" glyph-name="ring" horiz-adv-x="460" unicode="˚"/><glyph d="M162 -457q-100 0 -153.5 60.5t-31.5 165.5q33 152 220 249l118 -24q-176 -94 -217 -223q-14 -49 3.5 -76t54.5 -27q70 0 129 74l96 -90q-90 -109 -219 -109z" glyph-name="ogonek" horiz-adv-x="514" unicode="˛"/><glyph d="M676 1071q-57 0 -100.5 21.5t-65 48t-51 48t-60.5 21.5q-49 0 -86 -38.5t-47 -98.5l-119 19q49 236 230 235q59 0 104 -22.5t65.5 -48t49.5 -48t61 -22.5q51 0 88 42t52 107l121 -18q-54 -246 -242 -246z" glyph-name="tilde" horiz-adv-x="774" unicode="˜"/><glyph d="M143 1130l260 234h220l-304 -234h-176zM498 1130l258 234h235l-323 -234h-170z" glyph-name="hungarumlaut" horiz-adv-x="841" unicode="˝"/><glyph d="M-61 1120l-181 244h234l108 -244h-161z" glyph-name="gravecomb" unicode="̀"/><glyph d="M-346 1122l213 242h244l-297 -242h-160z" glyph-name="acutecomb" unicode="́"/><glyph d="M-528 1102l307 266h86l196 -266h-159l-97 147l-161 -147h-172z" glyph-name="uni0302" unicode="̂"/><glyph d="M-98 1071q-55 0 -100.5 21.5t-68 48t-53 48t-61.5 21.5q-49 0 -84 -38.5t-43 -98.5l-119 19q49 236 230 235q59 0 104 -22.5t67.5 -48t53.5 -48t63 -22.5q51 0 86 41t46 108l120 -18q-53 -246 -241 -246z" glyph-name="tildecomb" unicode="̃"/><glyph d="M-475 1186l24 123h551l-26 -123h-549z" glyph-name="uni0304" unicode="̄"/><glyph d="M-195 1094q-133 0 -209.5 74.5t-58.5 205.5h146q-12 -76 23.5 -115.5t100.5 -39.5q70 0 126.5 43t74.5 112h148q-25 -135 -122.5 -207.5t-228.5 -72.5z" glyph-name="uni0306" unicode="̆"/><glyph d="M-92 1159l43 205h178l-43 -205h-178z" glyph-name="uni0307" unicode="̇"/><glyph d="M-444 1153l43 211h184l-43 -211h-184zM-100 1153l45 211h182l-43 -211h-184z" glyph-name="uni0308" unicode="̈"/><glyph d="M-152 1087q-92 0 -142 66t-30 162q14 76 82 129t146 53q92 0 143 -64.5t31 -158.5q-16 -78 -83 -132.5t-147 -54.5zM-139 1186q43 0 76.5 28.5t44.5 69.5q10 47 -16.5 81t-74.5 34q-41 0 -75.5 -28t-42.5 -68q-10 -47 15.5 -82t72.5 -35z" glyph-name="uni030A" unicode="̊"/><glyph d="M-698 1130l260 234h219l-303 -234h-176zM-344 1130l258 234h236l-324 -234h-170z" glyph-name="uni030B" unicode="̋"/><glyph d="M-272 1098l-197 266h160l96 -143l162 143h174l-311 -266h-84z" glyph-name="uni030C" unicode="̌"/><glyph d="M381 1419l-195 -270h-235l301 270h129z" glyph-name="uni0312" unicode="̒"/><glyph d="M-575 -442l194 303h236l-301 -303h-129z" glyph-name="uni0326" unicode="̦"/><glyph d="M-424 -500q-78 0 -128 40t-62 100l110 34q0 -68 78 -67q45 0 76 25.5t37 62.5q12 72 -76 98l-123 35l131 172h145l-106 -125l29 -16q61 -20 95 -69.5t17 -123.5q-16 -82 -81.5 -124t-141.5 -42z" glyph-name="uni0327" unicode="̧"/><glyph d="M-352 -457q-100 0 -153.5 60.5t-31.5 165.5q33 152 220 249l118 -24q-176 -94 -217 -223q-14 -49 3.5 -76t54.5 -27q70 0 129 74l96 -90q-90 -109 -219 -109z" glyph-name="uni0328" unicode="̨"/><glyph d="M-1225 522l23 107h647l-23 -107h-647z" glyph-name="uni0335" unicode="̵"/><glyph d="M-1321 502l29 135h1290l-29 -135h-1290z" glyph-name="uni0336" unicode="̶"/><glyph d="M-1194 115l45 233l934 613l-49 -246z" glyph-name="uni0337" unicode="̷"/><glyph d="M-1317 43l-88 102l1462 1211l93 -101z" glyph-name="uni0338" unicode="̸"/><glyph d="M791 -20q-100 0 -151.5 73.5t-31.5 165.5l127 608h-258l-174 -827h-174l174 827h-82l37 172h770l-37 -172h-82l-127 -606q-14 -66 24 -80t95 31l21 -160q-59 -32 -131 -32z" glyph-name="pi" horiz-adv-x="1193" unicode="π"/><glyph d="M1073 1534l-180 244h233l109 -244h-162zM225 0l-18 1413h219l-6 -1216h8l565 1216h267l49 -1216h6l512 1216h225l-622 -1413h-293l-50 1212l-567 -1212h-295z" glyph-name="Wgrave" horiz-adv-x="1878" unicode="Ẁ"/><glyph d="M981 1169h-162l-180 244h233zM1395 1049h223l-469 -1049h-283l-47 782l-379 -784h-282l-21 1051h217l-16 -893l442 893h185l63 -902z" glyph-name="wgrave" horiz-adv-x="1529" unicode="ẁ"/><glyph d="M1073 1536l213 242h244l-297 -242h-160zM225 0l-18 1413h219l-6 -1216h8l565 1216h267l49 -1216h6l512 1216h225l-622 -1413h-293l-50 1212l-567 -1212h-295z" glyph-name="Wacute" horiz-adv-x="1878" unicode="Ẃ"/><glyph d="M1276 1413l-297 -242h-160l213 242h244zM1395 1049h223l-469 -1049h-283l-47 782l-379 -784h-282l-21 1051h217l-16 -893l442 893h185l63 -902z" glyph-name="wacute" horiz-adv-x="1529" unicode="ẃ"/><glyph d="M897 1567l43 211h184l-43 -211h-184zM1241 1567l45 211h182l-43 -211h-184zM225 0l-18 1413h219l-6 -1216h8l565 1216h267l49 -1216h6l512 1216h225l-622 -1413h-293l-50 1212l-567 -1212h-295z" glyph-name="Wdieresis" horiz-adv-x="1878" unicode="Ẅ"/><glyph d="M870 1413l-43 -211h-184l43 211h184zM1214 1413l-43 -211h-184l45 211h182zM1395 1049h223l-469 -1049h-283l-47 782l-379 -784h-282l-21 1051h217l-16 -893l442 893h185l63 -902z" glyph-name="wdieresis" horiz-adv-x="1529" unicode="ẅ"/><glyph d="M1030 1520q-55 0 -100 21.5t-67.5 48t-53.5 48t-61 21.5q-49 0 -84 -39t-43 -98l-119 18q49 236 229 236q76 0 126 -36t86 -71t77 -35q51 0 86 41t45 109l121 -19q-54 -245 -242 -245zM70 0l299 1413h931l-40 -186h-717l-90 -426h634l-36 -187h-637l-92 -428h716 l-37 -186h-931z" glyph-name="uni1EBC" horiz-adv-x="1214" unicode="Ẽ"/><glyph d="M862 1157q-55 0 -100 21.5t-67.5 48t-53.5 48t-61 21.5q-49 0 -84 -38.5t-43 -98.5l-119 19q49 236 229 235q59 0 104.5 -22.5t68 -48t53 -48t63.5 -22.5q51 0 86 41t45 108l121 -18q-54 -246 -242 -246zM668 1069q229 0 314 -156.5t36 -384.5q-4 -31 -19 -71l-729 6 q-47 -305 236 -305q152 0 289 104l112 -125q-199 -158 -424 -157q-246 0 -349 156.5t-52 395.5q47 229 203 383t383 154zM647 893q-121 0 -211 -71.5t-131 -198.5l531 -2q23 123 -23.5 197.5t-165.5 74.5z" glyph-name="uni1EBD" horiz-adv-x="1097" unicode="ẽ"/><glyph d="M813 1532l-180 244h233l109 -244h-162zM461 0l121 551l-385 862h239l285 -668l575 668h252l-753 -862l-119 -551h-215z" glyph-name="Ygrave" horiz-adv-x="1359" unicode="Ỳ"/><glyph d="M541 1169l-181 244h234l108 -244h-161zM-115 -365l21 166q102 0 181 37t114 77t75 105l-147 1029h213l76 -803h14l414 803h227l-622 -1100q-113 -197 -237 -255.5t-329 -58.5z" glyph-name="ygrave" horiz-adv-x="962" unicode="ỳ"/><glyph d="M1063 1520q-55 0 -100 21.5t-68 48t-53.5 48t-61.5 21.5q-49 0 -83.5 -39t-43.5 -98l-118 18q49 236 229 236q76 0 126 -36t86 -71t77 -35q51 0 86 41t45 109l121 -19q-54 -245 -242 -245zM461 0l121 551l-385 862h239l285 -668l575 668h252l-753 -862l-119 -551h-215z " glyph-name="uni1EF8" horiz-adv-x="1359" unicode="Ỹ"/><glyph d="M791 1157q-55 0 -100.5 21.5t-68 48t-53 48t-61.5 21.5q-49 0 -84 -38.5t-43 -98.5l-119 19q49 236 230 235q59 0 104 -22.5t67.5 -48t53.5 -48t63 -22.5q51 0 86 41t45 108l121 -18q-53 -246 -241 -246zM-115 -365l21 166q102 0 181 37t114 77t75 105l-147 1029h213 l76 -803h14l414 803h227l-622 -1100q-113 -197 -237 -255.5t-329 -58.5z" glyph-name="uni1EF9" horiz-adv-x="962" unicode="ỹ"/><glyph d="M20 442l31 144h727l-30 -144h-728z" glyph-name="endash" horiz-adv-x="802" unicode="–"/><glyph d="M-18 442l30 144h2048l-30 -144h-2048z" glyph-name="emdash" horiz-adv-x="2048" unicode="—"/><glyph d="M492 850h-267l51 254l232 330h125l-182 -330h94z" glyph-name="quoteleft" horiz-adv-x="546" unicode="‘"/><glyph d="M311 1413h267l-52 -254l-231 -330h-125l182 330h-94z" glyph-name="quoteright" horiz-adv-x="544" unicode="’"/><glyph d="M66 254h266l-51 -254l-232 -330h-125l182 330h-94z" glyph-name="quotesinglbase" horiz-adv-x="544" unicode="‚"/><glyph d="M492 850h-267l51 254l232 330h125l-182 -330h94zM922 850h-267l52 254l231 330h125l-182 -330h94z" glyph-name="quotedblleft" horiz-adv-x="974" unicode="“"/><glyph d="M311 1413h267l-52 -254l-231 -330h-125l182 330h-94zM754 1413h266l-51 -254l-232 -330h-125l183 330h-95z" glyph-name="quotedblright" horiz-adv-x="989" unicode="”"/><glyph d="M66 254h266l-51 -254l-232 -330h-125l182 330h-94zM510 254h266l-51 -254l-231 -330h-125l182 330h-94z" glyph-name="quotedblbase" horiz-adv-x="989" unicode="„"/><glyph d="M174 -205l221 1039h-221l35 172h221l88 407h170l-86 -407h221l-35 -172h-221l-223 -1039h-170z" glyph-name="dagger" horiz-adv-x="829" unicode="†"/><glyph d="M174 -205l86 408h-221l37 172h221l98 459h-221l35 172h221l88 407h170l-86 -407h221l-35 -172h-221l-98 -459h221l-37 -172h-221l-88 -408h-170z" glyph-name="daggerdbl" horiz-adv-x="829" unicode="‡"/><glyph d="M365 172q-156 0 -243 111.5t-52 269.5q29 141 150.5 240.5t264.5 99.5q154 0 241 -111.5t54 -267.5q-31 -141 -152.5 -241.5t-262.5 -100.5z" glyph-name="bullet" horiz-adv-x="843" unicode="•"/><glyph d="M4 0l49 233h226l-50 -233h-225zM442 0l50 233h225l-49 -233h-226z" glyph-name="twodotenleader" horiz-adv-x="876" unicode="‥"/><glyph d="M4 0l53 254h269l-54 -254h-268zM606 0l53 254h269l-54 -254h-268zM1208 0l54 254h268l-53 -254h-269z" glyph-name="ellipsis" horiz-adv-x="1685" unicode="…"/><glyph d="M399 778q-80 0 -132 35t-70.5 87t-23.5 112.5t9 111.5q25 117 105 214.5t215 97.5q137 0 189 -106.5t24 -246.5q-27 -121 -110 -213t-206 -92zM147 2l1055 1409h197l-1055 -1409h-197zM403.5 913q67.5 0 114.5 61.5t64 139.5q18 70 -3.5 126t-86.5 56q-68 0 -115 -59 t-66 -137q-14 -72 5.5 -129.5t87 -57.5zM1067 -2q-78 0 -131 35t-71.5 87t-23.5 112.5t9 111.5q27 117 105.5 214t211.5 97q139 0 192.5 -107.5t22.5 -244.5q-25 -121 -107.5 -213t-207.5 -92zM1694 -2q-78 0 -131.5 35t-71.5 87t-23.5 112.5t9.5 111.5q27 117 105.5 214 t211.5 97q139 0 191.5 -106.5t23.5 -245.5q-27 -123 -108.5 -214t-206.5 -91zM1073 135q66 0 113 60.5t63 136.5q18 72 -3 129t-87 57q-68 0 -115 -61.5t-63 -139.5q-14 -70 5 -126t87 -56zM1697.5 135q67.5 0 115 59.5t65.5 137.5q16 72 -5.5 129t-86.5 57 q-68 0 -115 -61.5t-65 -139.5q-14 -70 5 -126t86.5 -56z" glyph-name="perthousand" horiz-adv-x="2113" unicode="‰"/><glyph d="M422 168l-332 342l473 344l-37 -190l-221 -154l152 -152z" glyph-name="guilsinglleft" horiz-adv-x="585" unicode="‹"/><glyph d="M18 168l37 190l221 152l-153 154l37 190l334 -344z" glyph-name="guilsinglright" horiz-adv-x="585" unicode="›"/><glyph d="M-436 0l1075 1413h205l-1075 -1413h-205z" glyph-name="fraction" horiz-adv-x="329" unicode="⁄"/><glyph d="M1008 1436q219 0 352 -121l-107 -185q-86 129 -254 130q-156 0 -279.5 -100.5t-199.5 -268.5h586l-80 -123l-551 2q-16 -47 -24 -94l-13 -62h494l-72 -116h-430q0 -154 77 -245t234 -91q195 0 336 125l80 -162q-178 -145 -428 -145q-254 0 -378 142t-126 376h-245l83 116 h168q6 55 19 109q2 8 5 24.5t5 24.5h-237l86 119h190q88 242 268.5 393.5t440.5 151.5z" glyph-name="Euro" horiz-adv-x="1294" unicode="€"/><glyph d="M651 1413l-22 -110h-162l-96 -457h-127l96 457h-162l23 110h450zM1147 1413h170l-119 -567h-121l82 389l-192 -389h-117l-33 409l-86 -409h-119l119 567h174l25 -436z" glyph-name="trademark" horiz-adv-x="1228" unicode="™"/><glyph d="M-43 0l35 172l313 6q-121 82 -172 236.5t-12 333.5q57 274 291.5 466.5t505.5 192.5q285 0 442.5 -207t95.5 -500q-35 -164 -139.5 -310t-253.5 -228l283 8l-35 -170h-531l29 168q160 39 293 197.5t176 361.5q51 231 -56.5 368.5t-308.5 137.5q-215 0 -394 -152.5 t-230 -388.5q-39 -182 27.5 -325.5t199.5 -200.5l-29 -166h-530z" glyph-name="uni2126" horiz-adv-x="1490" unicode="Ω"/><glyph d="M2245 721l-37 -170h-1610l467 -275l-35 -176l-848 539l1071 532l-32 -178l-576 -272h1600z" glyph-name="arrowleft" horiz-adv-x="2361" unicode="←"/><glyph d="M1153 100l35 176l579 275h-1603l37 170h1607l-465 272l35 178l848 -532z" glyph-name="arrowright" horiz-adv-x="2361" unicode="→"/><glyph d="M432 -12q-215 0 -310 132t-50 347q51 244 242.5 410.5t416.5 166.5q209 0 256 -159l19 18q29 172 -26.5 267.5t-186.5 95.5q-152 0 -252 -131l-125 106q145 188 389 189q168 0 264 -91.5t110.5 -244t-22.5 -349.5q-74 -340 -265.5 -548.5t-459.5 -208.5zM444 166 q170 0 303.5 136t170.5 325q25 125 -18.5 191.5t-154.5 66.5q-172 0 -311 -142.5t-174 -320.5q-23 -119 23 -187.5t161 -68.5z" glyph-name="partialdiff" horiz-adv-x="1232" unicode="∂"/><glyph d="M-109 0l885 1464l268 -1464h-1153zM188 174h643l-137 846z" glyph-name="uni2206" horiz-adv-x="1163" unicode="∆"/><glyph d="M152 0l262 1239h-135l36 174h1112l-36 -174h-136l-262 -1239h-174l262 1239h-493l-262 -1239h-174z" glyph-name="product" horiz-adv-x="1366" unicode="∏"/><glyph d="M-43 0l14 88l711 619l-438 620l14 86h1049l-37 -174h-740l400 -532l-619 -533h733l-36 -174h-1051z" glyph-name="summation" horiz-adv-x="1187" unicode="∑"/><glyph d="M162 432l37 172h809l-37 -172h-809z" glyph-name="minus" horiz-adv-x="1171" unicode="−"/><glyph d="M1171 1423l154 -61l-919 -1512h-99l-96 707h-156l37 172h279l57 -559z" glyph-name="radical" horiz-adv-x="1183" unicode="√"/><glyph d="M354 315q-135 0 -207.5 95.5t-40.5 242.5q27 131 126.5 214t224.5 83q184 0 336 -200q231 201 409 200q137 0 210 -94t42 -244q-29 -133 -129 -215t-225 -82q-184 0 -334 201q-236 -201 -412 -201zM367 471q113 0 309 176q-104 147 -209 148q-74 0 -135.5 -49.5 t-77.5 -133.5q-14 -68 18 -104.5t95 -36.5zM1092 471q74 0 135 49t80 133q14 66 -19 104t-96 38q-115 0 -311 -177q107 -147 211 -147z" glyph-name="infinity" horiz-adv-x="1513" unicode="∞"/><glyph d="M-182 -457l20 174q174 0 266.5 72t126.5 231l242 1135q27 131 122 212t210 81q121 0 211 -86l-133 -125q-37 39 -82 39q-53 -2 -99.5 -40t-58.5 -103l-244 -1135q-47 -223 -199.5 -339t-381.5 -116z" glyph-name="integral" horiz-adv-x="856" unicode="∫"/><glyph d="M655 602q-74 0 -127 41t-95 82t-87 41q-53 0 -91 -42t-50 -112l-148 19q66 293 273 293q68 0 118 -26t73.5 -55.5t56 -55t69.5 -25.5q115 0 150 166l151 -19q-33 -152 -107.5 -229.5t-185.5 -77.5zM655 135q-74 0 -127 41t-95 82t-87 41q-53 0 -91 -42t-50 -112l-148 19 q66 293 273 293q68 0 118 -25.5t73.5 -55.5t56 -55.5t69.5 -25.5q115 0 150 166l151 -19q-33 -152 -107.5 -229.5t-185.5 -77.5z" glyph-name="approxequal" horiz-adv-x="972" unicode="≈"/><glyph d="M1247 1249l-321 -426h241l-45 -176h-329l-164 -217h438l-49 -176h-522l-316 -418h-192l315 418h-266l49 176h350l166 217h-461l45 176h549l322 426h190z" glyph-name="notequal" horiz-adv-x="1224" unicode="≠"/><glyph d="M1057 291l-864 528l1085 527l-37 -189l-706 -338l561 -336zM995 0h-983l33 154h981z" glyph-name="lessequal" horiz-adv-x="1239" unicode="≤"/><glyph d="M115 291l39 192l704 336l-561 338l39 189l862 -527zM51 0l33 154h981l-33 -154h-981z" glyph-name="greaterequal" horiz-adv-x="1239" unicode="≥"/><glyph d="M348 0l-227 717l526 717h187l227 -717l-526 -717h-187zM473 195l379 522l-145 522l-379 -522z" glyph-name="lozenge" horiz-adv-x="1097" unicode="◊"/><glyph d="M315 1208l43 205h179l-43 -205h-179zM47 0l221 1049h205l-221 -1049h-205z" glyph-name="i.locl" horiz-adv-x="520"/><glyph d="M1053 907l-125 -594q-20 -88 0 -118.5t94 -30.5h137l-33 -164h-198q-131 0 -185.5 73.5t-23.5 211.5l131 622h-350l-193 -907h-205l193 907h-182l30 142h183l16 75q29 137 124 213t241 76h155l-33 -158h-112q-63 0 -112.5 -43t-61.5 -108l-15 -55h353l75 364h205 l-78 -364h265l-31 -142h-264z" glyph-name="f_t.dlig" horiz-adv-x="1282"/><glyph d="M1042 907l-124 -594q-20 -88 0 -118.5t94 -30.5h137l-33 -164h-198q-131 0 -185.5 73.5t-23.5 211.5l131 622h-373l-125 -594q-20 -88 0 -118.5t94 -30.5h137l-32 -164h-199q-131 0 -185.5 73.5t-23.5 211.5l131 622h-153l28 142h156l76 364h204l-77 -364h372l76 364h205 l-78 -364h264l-30 -142h-265z" glyph-name="t_t.dlig" horiz-adv-x="1273"/><glyph d="M925.5 -61q-321.5 0 -547.5 226t-226 547.5t226 548t547.5 226.5t547 -226.5t225.5 -548t-225.5 -547.5t-547 -226zM926 10q291 0 495.5 205t204.5 498t-204.5 497.5t-495.5 204.5t-497 -205.5t-206 -496.5t206 -497t497 -206zM522 410q-35 0 -35 34v537q0 37 35 37 q14 0 25.5 -11.5t11.5 -25.5v-537q0 -34 -37 -34zM926 410q-35 0 -35 34v537q0 37 35 37t35 -37v-537q0 -34 -35 -34zM1327 410q-14 0 -22 10l-271 268q-10 14 -10 25q0 14 10 24l271 269q10 12 22 12q14 0 25.5 -11.5t11.5 -25.5t-10 -25l-244 -243l244 -244 q10 -10 10 -24.5t-11.5 -24.5t-25.5 -10zM657 678q-35 0 -34.5 35t34.5 35h134q37 0 36.5 -35t-36.5 -35h-134z" glyph-name="glyph396" horiz-adv-x="1849"/></font>
</defs>
</svg>
